<?xml version="1.0" encoding="UTF-8" standalone="no"?>
<!DOCTYPE svg PUBLIC "-//W3C//DTD SVG 1.1//EN"
 "http://www.w3.org/Graphics/SVG/1.1/DTD/svg11.dtd">
<!-- Generated by graphviz version 12.1.2 (20240928.0832)
 -->
<!-- Title: G Pages: 1 -->
<svg width="3664pt" height="1124pt"
 viewBox="0.00 0.00 3664.00 1124.00" xmlns="http://www.w3.org/2000/svg" xmlns:xlink="http://www.w3.org/1999/xlink">
<g id="graph0" class="graph" transform="scale(1 1) rotate(0) translate(4 1120)">
<title>G</title>
<polygon fill="white" stroke="none" points="-4,4 -4,-1120 3660,-1120 3660,4 -4,4"/>
<!-- admin -->
<g id="node1" class="node">
<title>admin</title>
<ellipse fill="none" stroke="black" cx="1980" cy="-1098" rx="34.46" ry="18"/>
<text text-anchor="middle" x="1980" y="-1092.95" font-family="Times,serif" font-size="14.00">admin</text>
</g>
<!-- session -->
<g id="node2" class="node">
<title>session</title>
<ellipse fill="none" stroke="black" cx="2924" cy="-594" rx="37.53" ry="18"/>
<text text-anchor="middle" x="2924" y="-588.95" font-family="Times,serif" font-size="14.00">session</text>
</g>
<!-- admin&#45;&gt;session -->
<g id="edge1" class="edge">
<title>admin&#45;&gt;session</title>
<path fill="none" stroke="black" d="M2014.59,-1095.87C2250.9,-1087.94 3618,-1038.45 3618,-955 3618,-955 3618,-955 3618,-737 3618,-605.17 3131.29,-594.55 2973.06,-594.59"/>
<polygon fill="black" stroke="black" points="2973.31,-591.09 2963.32,-594.6 2973.33,-598.09 2973.31,-591.09"/>
</g>
<!-- rewards_pool -->
<g id="node3" class="node">
<title>rewards_pool</title>
<ellipse fill="none" stroke="black" cx="514" cy="-1026" rx="61.08" ry="18"/>
<text text-anchor="middle" x="514" y="-1020.95" font-family="Times,serif" font-size="14.00">rewards_pool</text>
</g>
<!-- admin&#45;&gt;rewards_pool -->
<g id="edge2" class="edge">
<title>admin&#45;&gt;rewards_pool</title>
<path fill="none" stroke="black" d="M1945.56,-1095.36C1756.99,-1086.35 848.42,-1042.97 585.45,-1030.41"/>
<polygon fill="black" stroke="black" points="585.82,-1026.93 575.66,-1029.94 585.48,-1033.92 585.82,-1026.93"/>
</g>
<!-- vector -->
<g id="node4" class="node">
<title>vector</title>
<ellipse fill="none" stroke="black" cx="2261" cy="-18" rx="33.95" ry="18"/>
<text text-anchor="middle" x="2261" y="-12.95" font-family="Times,serif" font-size="14.00">vector</text>
</g>
<!-- session&#45;&gt;vector -->
<g id="edge3" class="edge">
<title>session&#45;&gt;vector</title>
<path fill="none" stroke="black" d="M2960.76,-589.46C3070.54,-576.77 3397.62,-523.06 3547,-324 3614.53,-234.01 3648.93,-153.15 3571,-72 3526.32,-25.48 2533.53,-19.79 2306.82,-19.1"/>
<polygon fill="black" stroke="black" points="2306.92,-15.6 2296.91,-19.07 2306.89,-22.6 2306.92,-15.6"/>
</g>
<!-- option -->
<g id="node5" class="node">
<title>option</title>
<ellipse fill="none" stroke="black" cx="1572" cy="-90" rx="34.46" ry="18"/>
<text text-anchor="middle" x="1572" y="-84.95" font-family="Times,serif" font-size="14.00">option</text>
</g>
<!-- session&#45;&gt;option -->
<g id="edge4" class="edge">
<title>session&#45;&gt;option</title>
<path fill="none" stroke="black" d="M2913.41,-576.55C2899.29,-556.05 2872.28,-521.59 2840,-504 2762.99,-462.04 2726.18,-503.53 2646,-468 2476.96,-393.1 2476.28,-306.41 2315,-216 2238.04,-172.86 2215.85,-164.37 2130,-144 1943.9,-99.85 1714.63,-92.25 1618.19,-91.1"/>
<polygon fill="black" stroke="black" points="1618.38,-87.61 1608.34,-91.01 1618.31,-94.61 1618.38,-87.61"/>
</g>
<!-- object -->
<g id="node6" class="node">
<title>object</title>
<ellipse fill="none" stroke="black" cx="1303" cy="-522" rx="33.44" ry="18"/>
<text text-anchor="middle" x="1303" y="-516.95" font-family="Times,serif" font-size="14.00">object</text>
</g>
<!-- session&#45;&gt;object -->
<g id="edge5" class="edge">
<title>session&#45;&gt;object</title>
<path fill="none" stroke="black" d="M2886.71,-591.39C2670.84,-582.07 1582.94,-535.09 1347.84,-524.94"/>
<polygon fill="black" stroke="black" points="1348.01,-521.44 1337.87,-524.51 1347.71,-528.43 1348.01,-521.44"/>
</g>
<!-- timestamp -->
<g id="node7" class="node">
<title>timestamp</title>
<ellipse fill="none" stroke="black" cx="2781" cy="-522" rx="50.33" ry="18"/>
<text text-anchor="middle" x="2781" y="-516.95" font-family="Times,serif" font-size="14.00">timestamp</text>
</g>
<!-- session&#45;&gt;timestamp -->
<g id="edge6" class="edge">
<title>session&#45;&gt;timestamp</title>
<path fill="none" stroke="black" d="M2898.43,-580.49C2876.64,-569.82 2844.98,-554.32 2820.02,-542.1"/>
<polygon fill="black" stroke="black" points="2821.66,-539.01 2811.14,-537.76 2818.59,-545.3 2821.66,-539.01"/>
</g>
<!-- smart_vector -->
<g id="node8" class="node">
<title>smart_vector</title>
<ellipse fill="none" stroke="black" cx="3123" cy="-306" rx="59.54" ry="18"/>
<text text-anchor="middle" x="3123" y="-300.95" font-family="Times,serif" font-size="14.00">smart_vector</text>
</g>
<!-- session&#45;&gt;smart_vector -->
<g id="edge7" class="edge">
<title>session&#45;&gt;smart_vector</title>
<path fill="none" stroke="black" d="M2942.6,-578.11C2969.01,-556.24 3017.61,-513.09 3049,-468 3078.87,-425.09 3101.7,-368.19 3113.66,-334.79"/>
<polygon fill="black" stroke="black" points="3116.93,-336.04 3116.94,-325.45 3110.33,-333.73 3116.93,-336.04"/>
</g>
<!-- rewards_pool&#45;&gt;object -->
<g id="edge8" class="edge">
<title>rewards_pool&#45;&gt;object</title>
<path fill="none" stroke="black" d="M575.53,-1025.46C849.62,-1026.7 1946,-1022.91 1946,-883 1946,-883 1946,-883 1946,-737 1946,-610.42 1491.74,-545.44 1346.85,-527.93"/>
<polygon fill="black" stroke="black" points="1347.62,-524.5 1337.27,-526.8 1346.79,-531.45 1347.62,-524.5"/>
</g>
<!-- fungible_asset -->
<g id="node9" class="node">
<title>fungible_asset</title>
<ellipse fill="none" stroke="black" cx="740" cy="-594" rx="64.15" ry="18"/>
<text text-anchor="middle" x="740" y="-588.95" font-family="Times,serif" font-size="14.00">fungible_asset</text>
</g>
<!-- rewards_pool&#45;&gt;fungible_asset -->
<g id="edge9" class="edge">
<title>rewards_pool&#45;&gt;fungible_asset</title>
<path fill="none" stroke="black" d="M458.43,-1018.1C385.04,-1005.53 265,-971.46 265,-883 265,-883 265,-883 265,-809 265,-635.86 530.58,-602 664.57,-595.93"/>
<polygon fill="black" stroke="black" points="664.58,-599.43 674.43,-595.53 664.29,-592.44 664.58,-599.43"/>
</g>
<!-- dispatchable_fungible_asset -->
<g id="node10" class="node">
<title>dispatchable_fungible_asset</title>
<ellipse fill="none" stroke="black" cx="833" cy="-666" rx="114.82" ry="18"/>
<text text-anchor="middle" x="833" y="-660.95" font-family="Times,serif" font-size="14.00">dispatchable_fungible_asset</text>
</g>
<!-- rewards_pool&#45;&gt;dispatchable_fungible_asset -->
<g id="edge10" class="edge">
<title>rewards_pool&#45;&gt;dispatchable_fungible_asset</title>
<path fill="none" stroke="black" d="M527.79,-1008C566.14,-960.99 677.78,-825.72 778,-720 786.92,-710.59 797.05,-700.64 806.16,-691.93"/>
<polygon fill="black" stroke="black" points="808.56,-694.48 813.41,-685.06 803.74,-689.4 808.56,-694.48"/>
</g>
<!-- primary_fungible_store -->
<g id="node11" class="node">
<title>primary_fungible_store</title>
<ellipse fill="none" stroke="black" cx="626" cy="-738" rx="98.44" ry="18"/>
<text text-anchor="middle" x="626" y="-732.95" font-family="Times,serif" font-size="14.00">primary_fungible_store</text>
</g>
<!-- rewards_pool&#45;&gt;primary_fungible_store -->
<g id="edge11" class="edge">
<title>rewards_pool&#45;&gt;primary_fungible_store</title>
<path fill="none" stroke="black" d="M455.83,-1020.25C423.39,-1014.27 385.5,-1001.05 365,-972 318.86,-906.62 316.75,-852.61 369,-792 389.52,-768.2 462.57,-754.66 525.56,-747.23"/>
<polygon fill="black" stroke="black" points="525.74,-750.73 535.29,-746.13 524.95,-743.78 525.74,-750.73"/>
</g>
<!-- trust_coin -->
<g id="node12" class="node">
<title>trust_coin</title>
<ellipse fill="none" stroke="black" cx="667" cy="-954" rx="47.77" ry="18"/>
<text text-anchor="middle" x="667" y="-948.95" font-family="Times,serif" font-size="14.00">trust_coin</text>
</g>
<!-- rewards_pool&#45;&gt;trust_coin -->
<g id="edge12" class="edge">
<title>rewards_pool&#45;&gt;trust_coin</title>
<path fill="none" stroke="black" d="M546.07,-1010.33C569.69,-999.52 601.95,-984.76 627.21,-973.21"/>
<polygon fill="black" stroke="black" points="628.55,-976.44 636.18,-969.1 625.63,-970.08 628.55,-976.44"/>
</g>
<!-- option&#45;&gt;vector -->
<g id="edge13" class="edge">
<title>option&#45;&gt;vector</title>
<path fill="none" stroke="black" d="M1605.7,-85.58C1719.27,-74.04 2088.1,-36.57 2216.47,-23.52"/>
<polygon fill="black" stroke="black" points="2216.67,-27.02 2226.26,-22.53 2215.96,-20.06 2216.67,-27.02"/>
</g>
<!-- object&#45;&gt;vector -->
<g id="edge14" class="edge">
<title>object&#45;&gt;vector</title>
<path fill="none" stroke="black" d="M1285.55,-506.23C1274.15,-496.11 1259.33,-482.03 1248,-468 1212.5,-424.06 1223,-397.77 1181,-360 1093,-280.86 899.27,-319.32 957,-216 986.78,-162.7 1017.74,-167.73 1074,-144 1194.77,-93.06 1230.45,-91.94 1360,-72 1685.1,-21.97 2082.85,-18.35 2215.52,-18.67"/>
<polygon fill="black" stroke="black" points="2215.28,-22.17 2225.29,-18.7 2215.3,-15.17 2215.28,-22.17"/>
</g>
<!-- signer -->
<g id="node13" class="node">
<title>signer</title>
<ellipse fill="none" stroke="black" cx="228" cy="-90" rx="33.44" ry="18"/>
<text text-anchor="middle" x="228" y="-84.95" font-family="Times,serif" font-size="14.00">signer</text>
</g>
<!-- object&#45;&gt;signer -->
<g id="edge15" class="edge">
<title>object&#45;&gt;signer</title>
<path fill="none" stroke="black" d="M1271.88,-514.78C1156.88,-491.09 746.52,-400.27 437,-252 361.66,-215.91 287.59,-149.53 251.22,-114.33"/>
<polygon fill="black" stroke="black" points="253.9,-112.05 244.3,-107.56 249,-117.06 253.9,-112.05"/>
</g>
<!-- error -->
<g id="node14" class="node">
<title>error</title>
<ellipse fill="none" stroke="black" cx="2543" cy="-90" rx="28.83" ry="18"/>
<text text-anchor="middle" x="2543" y="-84.95" font-family="Times,serif" font-size="14.00">error</text>
</g>
<!-- object&#45;&gt;error -->
<g id="edge16" class="edge">
<title>object&#45;&gt;error</title>
<path fill="none" stroke="black" d="M1336.68,-520.19C1499.89,-516.15 2204.65,-497.13 2298,-468 2356.29,-449.81 2375.28,-442.37 2415,-396 2488.24,-310.49 2524.37,-177.07 2537.28,-119.27"/>
<polygon fill="black" stroke="black" points="2540.68,-120.13 2539.37,-109.61 2533.83,-118.65 2540.68,-120.13"/>
</g>
<!-- features -->
<g id="node15" class="node">
<title>features</title>
<ellipse fill="none" stroke="black" cx="1177" cy="-162" rx="40.09" ry="18"/>
<text text-anchor="middle" x="1177" y="-156.95" font-family="Times,serif" font-size="14.00">features</text>
</g>
<!-- object&#45;&gt;features -->
<g id="edge17" class="edge">
<title>object&#45;&gt;features</title>
<path fill="none" stroke="black" d="M1292.47,-504.56C1267.02,-463.8 1202.57,-353.96 1179,-252 1174.42,-232.18 1174.02,-209.21 1174.71,-191.58"/>
<polygon fill="black" stroke="black" points="1178.19,-192.01 1175.25,-181.83 1171.2,-191.62 1178.19,-192.01"/>
</g>
<!-- bcs -->
<g id="node16" class="node">
<title>bcs</title>
<ellipse fill="none" stroke="black" cx="2060" cy="-162" rx="27" ry="18"/>
<text text-anchor="middle" x="2060" y="-156.95" font-family="Times,serif" font-size="14.00">bcs</text>
</g>
<!-- object&#45;&gt;bcs -->
<g id="edge18" class="edge">
<title>object&#45;&gt;bcs</title>
<path fill="none" stroke="black" d="M1336.83,-521.06C1430.49,-520.59 1700.72,-514.93 1919,-468 2013.41,-447.7 2068.17,-474.79 2124,-396 2130.21,-387.24 2128.76,-318.67 2121,-288 2111.72,-251.33 2090.96,-212.74 2076.25,-188.31"/>
<polygon fill="black" stroke="black" points="2079.38,-186.72 2071.15,-180.04 2073.42,-190.39 2079.38,-186.72"/>
</g>
<!-- hash -->
<g id="node17" class="node">
<title>hash</title>
<ellipse fill="none" stroke="black" cx="1628" cy="-234" rx="27.81" ry="18"/>
<text text-anchor="middle" x="1628" y="-228.95" font-family="Times,serif" font-size="14.00">hash</text>
</g>
<!-- object&#45;&gt;hash -->
<g id="edge19" class="edge">
<title>object&#45;&gt;hash</title>
<path fill="none" stroke="black" d="M1323.62,-507.67C1353.13,-487.4 1406.72,-445.86 1433,-396 1455.69,-352.95 1418.82,-324.5 1451,-288 1460.43,-277.31 1542.09,-255.91 1591.14,-243.83"/>
<polygon fill="black" stroke="black" points="1591.9,-247.25 1600.78,-241.47 1590.24,-240.45 1591.9,-247.25"/>
</g>
<!-- guid -->
<g id="node18" class="node">
<title>guid</title>
<ellipse fill="none" stroke="black" cx="2295" cy="-306" rx="27.3" ry="18"/>
<text text-anchor="middle" x="2295" y="-300.95" font-family="Times,serif" font-size="14.00">guid</text>
</g>
<!-- object&#45;&gt;guid -->
<g id="edge20" class="edge">
<title>object&#45;&gt;guid</title>
<path fill="none" stroke="black" d="M1336.68,-521.1C1493.65,-521.32 2148.88,-519.13 2223,-468 2267.35,-437.41 2284.75,-372.81 2291.29,-335.4"/>
<polygon fill="black" stroke="black" points="2294.71,-336.21 2292.82,-325.79 2287.79,-335.11 2294.71,-336.21"/>
</g>
<!-- from_bcs -->
<g id="node19" class="node">
<title>from_bcs</title>
<ellipse fill="none" stroke="black" cx="1126" cy="-378" rx="46.23" ry="18"/>
<text text-anchor="middle" x="1126" y="-372.95" font-family="Times,serif" font-size="14.00">from_bcs</text>
</g>
<!-- object&#45;&gt;from_bcs -->
<g id="edge21" class="edge">
<title>object&#45;&gt;from_bcs</title>
<path fill="none" stroke="black" d="M1274.75,-512.28C1250.43,-503.78 1215.34,-489.04 1190,-468 1169.24,-450.77 1151.85,-425.33 1140.46,-406.06"/>
<polygon fill="black" stroke="black" points="1143.51,-404.35 1135.52,-397.39 1137.43,-407.81 1143.51,-404.35"/>
</g>
<!-- event -->
<g id="node20" class="node">
<title>event</title>
<ellipse fill="none" stroke="black" cx="2375" cy="-378" rx="30.88" ry="18"/>
<text text-anchor="middle" x="2375" y="-372.95" font-family="Times,serif" font-size="14.00">event</text>
</g>
<!-- object&#45;&gt;event -->
<g id="edge22" class="edge">
<title>object&#45;&gt;event</title>
<path fill="none" stroke="black" d="M1336.55,-520.33C1495.98,-517 2173.03,-501.02 2261,-468 2266.11,-466.08 2316.85,-425.73 2348.89,-400.02"/>
<polygon fill="black" stroke="black" points="2350.98,-402.83 2356.59,-393.84 2346.6,-397.37 2350.98,-402.83"/>
</g>
<!-- create_signer -->
<g id="node21" class="node">
<title>create_signer</title>
<ellipse fill="none" stroke="black" cx="1364" cy="-378" rx="60.05" ry="18"/>
<text text-anchor="middle" x="1364" y="-372.95" font-family="Times,serif" font-size="14.00">create_signer</text>
</g>
<!-- object&#45;&gt;create_signer -->
<g id="edge23" class="edge">
<title>object&#45;&gt;create_signer</title>
<path fill="none" stroke="black" d="M1310.24,-504.15C1320.59,-480.05 1339.75,-435.45 1352.18,-406.51"/>
<polygon fill="black" stroke="black" points="1355.25,-408.23 1355.98,-397.66 1348.82,-405.47 1355.25,-408.23"/>
</g>
<!-- account -->
<g id="node22" class="node">
<title>account</title>
<ellipse fill="none" stroke="black" cx="1870" cy="-450" rx="39.58" ry="18"/>
<text text-anchor="middle" x="1870" y="-444.95" font-family="Times,serif" font-size="14.00">account</text>
</g>
<!-- object&#45;&gt;account -->
<g id="edge24" class="edge">
<title>object&#45;&gt;account</title>
<path fill="none" stroke="black" d="M1335.52,-516.99C1430.41,-505.27 1707.35,-471.08 1820.73,-457.08"/>
<polygon fill="black" stroke="black" points="1821.14,-460.56 1830.64,-455.86 1820.28,-453.61 1821.14,-460.56"/>
</g>
<!-- transaction_context -->
<g id="node23" class="node">
<title>transaction_context</title>
<ellipse fill="none" stroke="black" cx="1271" cy="-234" rx="83.08" ry="18"/>
<text text-anchor="middle" x="1271" y="-228.95" font-family="Times,serif" font-size="14.00">transaction_context</text>
</g>
<!-- object&#45;&gt;transaction_context -->
<g id="edge25" class="edge">
<title>object&#45;&gt;transaction_context</title>
<path fill="none" stroke="black" d="M1301.05,-503.54C1295.7,-455.76 1280.79,-322.51 1274.2,-263.61"/>
<polygon fill="black" stroke="black" points="1277.69,-263.28 1273.1,-253.74 1270.73,-264.06 1277.69,-263.28"/>
</g>
<!-- timestamp&#45;&gt;error -->
<g id="edge26" class="edge">
<title>timestamp&#45;&gt;error</title>
<path fill="none" stroke="black" d="M2827.71,-514.75C2861.8,-508.12 2907.4,-494.71 2939,-468 3005.46,-411.83 3061.32,-362.28 3016,-288 2997.78,-258.14 2970.6,-276.88 2946,-252 2908.27,-213.84 2935.4,-175.57 2892,-144 2843.4,-108.64 2664.4,-96.35 2583.35,-92.54"/>
<polygon fill="black" stroke="black" points="2583.56,-89.04 2573.41,-92.09 2583.24,-96.04 2583.56,-89.04"/>
</g>
<!-- system_addresses -->
<g id="node24" class="node">
<title>system_addresses</title>
<ellipse fill="none" stroke="black" cx="1537" cy="-306" rx="76.94" ry="18"/>
<text text-anchor="middle" x="1537" y="-300.95" font-family="Times,serif" font-size="14.00">system_addresses</text>
</g>
<!-- timestamp&#45;&gt;system_addresses -->
<g id="edge27" class="edge">
<title>timestamp&#45;&gt;system_addresses</title>
<path fill="none" stroke="black" d="M2730.72,-519.79C2559.28,-515.43 1998.47,-499.07 1821,-468 1711.3,-448.8 1666.06,-467.87 1581,-396 1562.4,-380.28 1550.93,-354.81 1544.38,-335.13"/>
<polygon fill="black" stroke="black" points="1547.8,-334.32 1541.52,-325.78 1541.1,-336.37 1547.8,-334.32"/>
</g>
<!-- smart_vector&#45;&gt;vector -->
<g id="edge28" class="edge">
<title>smart_vector&#45;&gt;vector</title>
<path fill="none" stroke="black" d="M3178.48,-299.02C3279.97,-285.5 3480.32,-245.5 3426,-144 3398.78,-93.14 3372.78,-90.1 3318,-72 3221.12,-40 2496.67,-23.63 2306.57,-19.86"/>
<polygon fill="black" stroke="black" points="2306.67,-16.36 2296.6,-19.66 2306.53,-23.36 2306.67,-16.36"/>
</g>
<!-- smart_vector&#45;&gt;option -->
<g id="edge29" class="edge">
<title>smart_vector&#45;&gt;option</title>
<path fill="none" stroke="black" d="M3078.99,-293.59C2961.63,-263.66 2631.08,-182.55 2351,-144 2074.51,-105.95 1738.87,-94.82 1618.07,-91.92"/>
<polygon fill="black" stroke="black" points="1618.32,-88.43 1608.24,-91.7 1618.16,-95.43 1618.32,-88.43"/>
</g>
<!-- smart_vector&#45;&gt;error -->
<g id="edge30" class="edge">
<title>smart_vector&#45;&gt;error</title>
<path fill="none" stroke="black" d="M3129.61,-287.79C3140.9,-255.12 3159.37,-183.84 3123,-144 3086.68,-104.21 2708.84,-93.94 2583.3,-91.61"/>
<polygon fill="black" stroke="black" points="2583.53,-88.12 2573.47,-91.44 2583.41,-95.12 2583.53,-88.12"/>
</g>
<!-- type_info -->
<g id="node25" class="node">
<title>type_info</title>
<ellipse fill="none" stroke="black" cx="1834" cy="-234" rx="46.23" ry="18"/>
<text text-anchor="middle" x="1834" y="-228.95" font-family="Times,serif" font-size="14.00">type_info</text>
</g>
<!-- smart_vector&#45;&gt;type_info -->
<g id="edge31" class="edge">
<title>smart_vector&#45;&gt;type_info</title>
<path fill="none" stroke="black" d="M3073.07,-295.86C3055.13,-292.9 3034.71,-289.89 3016,-288 2651.72,-251.22 2558.75,-268.66 2193,-252 2086.42,-247.15 1962.07,-241.19 1891.22,-237.77"/>
<polygon fill="black" stroke="black" points="1891.57,-234.29 1881.41,-237.3 1891.23,-241.28 1891.57,-234.29"/>
</g>
<!-- math64 -->
<g id="node26" class="node">
<title>math64</title>
<ellipse fill="none" stroke="black" cx="2994" cy="-234" rx="39.07" ry="18"/>
<text text-anchor="middle" x="2994" y="-228.95" font-family="Times,serif" font-size="14.00">math64</text>
</g>
<!-- smart_vector&#45;&gt;math64 -->
<g id="edge32" class="edge">
<title>smart_vector&#45;&gt;math64</title>
<path fill="none" stroke="black" d="M3095.01,-289.81C3075.48,-279.22 3049.3,-265.01 3028.49,-253.72"/>
<polygon fill="black" stroke="black" points="3030.25,-250.69 3019.79,-248.99 3026.91,-256.84 3030.25,-250.69"/>
</g>
<!-- big_vector -->
<g id="node27" class="node">
<title>big_vector</title>
<ellipse fill="none" stroke="black" cx="3271" cy="-234" rx="50.33" ry="18"/>
<text text-anchor="middle" x="3271" y="-228.95" font-family="Times,serif" font-size="14.00">big_vector</text>
</g>
<!-- smart_vector&#45;&gt;big_vector -->
<g id="edge33" class="edge">
<title>smart_vector&#45;&gt;big_vector</title>
<path fill="none" stroke="black" d="M3154.03,-290.33C3176.47,-279.71 3206.99,-265.27 3231.23,-253.81"/>
<polygon fill="black" stroke="black" points="3232.62,-257.03 3240.16,-249.59 3229.62,-250.7 3232.62,-257.03"/>
</g>
<!-- fungible_asset&#45;&gt;option -->
<g id="edge34" class="edge">
<title>fungible_asset&#45;&gt;option</title>
<path fill="none" stroke="black" d="M755.18,-576.04C764.28,-565.75 775.99,-552.27 786,-540 817.87,-500.95 881.81,-387.58 924,-360 1008.09,-305.03 1279.2,-307.41 1363,-252 1413.05,-218.91 1396.6,-180.78 1444,-144 1469.6,-124.13 1503.72,-110.49 1530.29,-102.03"/>
<polygon fill="black" stroke="black" points="1531.17,-105.42 1539.72,-99.16 1529.13,-98.73 1531.17,-105.42"/>
</g>
<!-- fungible_asset&#45;&gt;object -->
<g id="edge42" class="edge">
<title>fungible_asset&#45;&gt;object</title>
<path fill="none" stroke="black" d="M797.87,-585.81C910.83,-571.76 1158.43,-540.98 1259.11,-528.46"/>
<polygon fill="black" stroke="black" points="1259.37,-531.95 1268.86,-527.24 1258.51,-525.01 1259.37,-531.95"/>
</g>
<!-- fungible_asset&#45;&gt;signer -->
<g id="edge36" class="edge">
<title>fungible_asset&#45;&gt;signer</title>
<path fill="none" stroke="black" d="M699.05,-579.73C672.72,-570.39 638.27,-556.6 610,-540 422.83,-430.1 396.74,-362.98 280,-180 266.87,-159.41 252.96,-135.49 242.84,-117.63"/>
<polygon fill="black" stroke="black" points="245.91,-115.95 237.95,-108.95 239.81,-119.38 245.91,-115.95"/>
</g>
<!-- fungible_asset&#45;&gt;error -->
<g id="edge37" class="edge">
<title>fungible_asset&#45;&gt;error</title>
<path fill="none" stroke="black" d="M790.39,-582.41C883.07,-563.38 1087.06,-523.55 1261,-504 1552.05,-471.29 1630.52,-518.6 1919,-468 2028.27,-448.83 2063.76,-454.53 2158,-396 2185.91,-378.66 2231.06,-305.29 2259,-288 2306.71,-258.48 2330.58,-278.56 2380,-252 2423.91,-228.4 2430.47,-214.96 2466,-180 2486.96,-159.38 2508.69,-133.81 2523.7,-115.38"/>
<polygon fill="black" stroke="black" points="2526.39,-117.62 2529.94,-107.64 2520.94,-113.23 2526.39,-117.62"/>
</g>
<!-- fungible_asset&#45;&gt;features -->
<g id="edge38" class="edge">
<title>fungible_asset&#45;&gt;features</title>
<path fill="none" stroke="black" d="M746.82,-575.85C764.22,-533.99 814.03,-425.25 886,-360 965.81,-287.64 1018.53,-318.85 1103,-252 1125.68,-234.05 1146.24,-208.16 1159.91,-188.92"/>
<polygon fill="black" stroke="black" points="1162.72,-191.01 1165.53,-180.79 1156.96,-187.02 1162.72,-191.01"/>
</g>
<!-- fungible_asset&#45;&gt;event -->
<g id="edge39" class="edge">
<title>fungible_asset&#45;&gt;event</title>
<path fill="none" stroke="black" d="M803.34,-590.75C1078.56,-580.57 2162.89,-536.43 2298,-468 2325.26,-454.2 2346.94,-426.15 2360.27,-405.21"/>
<polygon fill="black" stroke="black" points="2363.12,-407.25 2365.33,-396.89 2357.14,-403.61 2363.12,-407.25"/>
</g>
<!-- fungible_asset&#45;&gt;create_signer -->
<g id="edge40" class="edge">
<title>fungible_asset&#45;&gt;create_signer</title>
<path fill="none" stroke="black" d="M779.51,-579.45C888.75,-541.99 1194.73,-437.05 1314.78,-395.88"/>
<polygon fill="black" stroke="black" points="1315.71,-399.26 1324.03,-392.71 1313.44,-392.64 1315.71,-399.26"/>
</g>
<!-- string -->
<g id="node28" class="node">
<title>string</title>
<ellipse fill="none" stroke="black" cx="596" cy="-162" rx="31.9" ry="18"/>
<text text-anchor="middle" x="596" y="-156.95" font-family="Times,serif" font-size="14.00">string</text>
</g>
<!-- fungible_asset&#45;&gt;string -->
<g id="edge35" class="edge">
<title>fungible_asset&#45;&gt;string</title>
<path fill="none" stroke="black" d="M706.6,-578.17C664.06,-556.74 596,-512.79 596,-451 596,-451 596,-451 596,-305 596,-265.74 596,-220.38 596,-191.69"/>
<polygon fill="black" stroke="black" points="599.5,-192 596,-182 592.5,-192 599.5,-192"/>
</g>
<!-- aggregator_v2 -->
<g id="node29" class="node">
<title>aggregator_v2</title>
<ellipse fill="none" stroke="black" cx="1030" cy="-234" rx="64.15" ry="18"/>
<text text-anchor="middle" x="1030" y="-228.95" font-family="Times,serif" font-size="14.00">aggregator_v2</text>
</g>
<!-- fungible_asset&#45;&gt;aggregator_v2 -->
<g id="edge41" class="edge">
<title>fungible_asset&#45;&gt;aggregator_v2</title>
<path fill="none" stroke="black" d="M738.26,-575.59C734.1,-523.85 729.38,-369.49 810,-288 830.94,-266.83 904.19,-252.15 960.48,-243.7"/>
<polygon fill="black" stroke="black" points="960.96,-247.17 970.35,-242.26 959.95,-240.24 960.96,-247.17"/>
</g>
<!-- function_info -->
<g id="node30" class="node">
<title>function_info</title>
<ellipse fill="none" stroke="black" cx="507" cy="-234" rx="61.08" ry="18"/>
<text text-anchor="middle" x="507" y="-228.95" font-family="Times,serif" font-size="14.00">function_info</text>
</g>
<!-- fungible_asset&#45;&gt;function_info -->
<g id="edge43" class="edge">
<title>fungible_asset&#45;&gt;function_info</title>
<path fill="none" stroke="black" d="M729.07,-576.21C691.86,-519.03 569.82,-331.52 524.31,-261.6"/>
<polygon fill="black" stroke="black" points="527.39,-259.91 519,-253.44 521.52,-263.73 527.39,-259.91"/>
</g>
<!-- dispatchable_fungible_asset&#45;&gt;option -->
<g id="edge44" class="edge">
<title>dispatchable_fungible_asset&#45;&gt;option</title>
<path fill="none" stroke="black" d="M837.41,-647.64C857.9,-567.25 943.34,-234.18 957,-216 993.67,-167.18 1016.21,-163.72 1074,-144 1157.18,-115.62 1419.57,-99.01 1526.24,-93.28"/>
<polygon fill="black" stroke="black" points="1526.25,-96.78 1536.05,-92.76 1525.88,-89.79 1526.25,-96.78"/>
</g>
<!-- dispatchable_fungible_asset&#45;&gt;object -->
<g id="edge47" class="edge">
<title>dispatchable_fungible_asset&#45;&gt;object</title>
<path fill="none" stroke="black" d="M884.19,-649.53C978.59,-621.01 1178.18,-560.71 1263.25,-535.01"/>
<polygon fill="black" stroke="black" points="1264.22,-538.37 1272.78,-532.13 1262.2,-531.67 1264.22,-538.37"/>
</g>
<!-- dispatchable_fungible_asset&#45;&gt;fungible_asset -->
<g id="edge49" class="edge">
<title>dispatchable_fungible_asset&#45;&gt;fungible_asset</title>
<path fill="none" stroke="black" d="M810.49,-648.05C798.55,-639.07 783.7,-627.9 770.72,-618.12"/>
<polygon fill="black" stroke="black" points="772.97,-615.43 762.87,-612.22 768.76,-621.03 772.97,-615.43"/>
</g>
<!-- dispatchable_fungible_asset&#45;&gt;error -->
<g id="edge45" class="edge">
<title>dispatchable_fungible_asset&#45;&gt;error</title>
<path fill="none" stroke="black" d="M944.53,-661.43C1319.75,-648.68 2513,-601.94 2513,-523 2513,-523 2513,-523 2513,-449 2513,-328.84 2531.97,-299.89 2540,-180 2541.34,-159.92 2542.1,-137.25 2542.51,-119.81"/>
<polygon fill="black" stroke="black" points="2546.01,-120 2542.72,-109.93 2539.01,-119.85 2546.01,-120"/>
</g>
<!-- dispatchable_fungible_asset&#45;&gt;features -->
<g id="edge46" class="edge">
<title>dispatchable_fungible_asset&#45;&gt;features</title>
<path fill="none" stroke="black" d="M737.42,-655.66C710.33,-648.07 683.68,-634.84 667,-612 606.39,-529.03 732.62,-331.45 778,-288 875.53,-194.63 1041.97,-170.95 1125.69,-164.98"/>
<polygon fill="black" stroke="black" points="1125.68,-168.49 1135.43,-164.35 1125.23,-161.51 1125.68,-168.49"/>
</g>
<!-- dispatchable_fungible_asset&#45;&gt;function_info -->
<g id="edge48" class="edge">
<title>dispatchable_fungible_asset&#45;&gt;function_info</title>
<path fill="none" stroke="black" d="M756.08,-652.25C708.01,-642.85 651.93,-628.81 634,-612 531.32,-515.76 511.64,-333.88 507.88,-263.66"/>
<polygon fill="black" stroke="black" points="511.38,-263.61 507.43,-253.78 504.39,-263.92 511.38,-263.61"/>
</g>
<!-- primary_fungible_store&#45;&gt;option -->
<g id="edge50" class="edge">
<title>primary_fungible_store&#45;&gt;option</title>
<path fill="none" stroke="black" d="M637.87,-719.9C652.48,-700.02 679.07,-667.47 709,-648 750,-621.33 778.81,-646.98 813,-612 845.3,-578.95 920.14,-257.72 940,-216 956.43,-181.5 954.25,-163.69 987,-144 1032.82,-116.45 1396.11,-98.47 1526.02,-92.87"/>
<polygon fill="black" stroke="black" points="1526.13,-96.37 1535.97,-92.45 1525.83,-89.37 1526.13,-96.37"/>
</g>
<!-- primary_fungible_store&#45;&gt;object -->
<g id="edge53" class="edge">
<title>primary_fungible_store&#45;&gt;object</title>
<path fill="none" stroke="black" d="M713.91,-729.61C781.5,-722.33 876.59,-708.62 957,-684 1078.32,-646.85 1211.75,-575.19 1271.28,-541.44"/>
<polygon fill="black" stroke="black" points="1272.92,-544.53 1279.87,-536.53 1269.45,-538.45 1272.92,-544.53"/>
</g>
<!-- primary_fungible_store&#45;&gt;fungible_asset -->
<g id="edge54" class="edge">
<title>primary_fungible_store&#45;&gt;fungible_asset</title>
<path fill="none" stroke="black" d="M623.89,-719.58C622.49,-700.31 623.11,-669.17 638,-648 649.51,-631.62 667.67,-619.94 685.49,-611.79"/>
<polygon fill="black" stroke="black" points="686.65,-615.1 694.49,-607.98 683.92,-608.66 686.65,-615.1"/>
</g>
<!-- primary_fungible_store&#45;&gt;dispatchable_fungible_asset -->
<g id="edge55" class="edge">
<title>primary_fungible_store&#45;&gt;dispatchable_fungible_asset</title>
<path fill="none" stroke="black" d="M671.43,-721.64C702.01,-711.3 742.59,-697.57 775.43,-686.47"/>
<polygon fill="black" stroke="black" points="776.46,-689.81 784.81,-683.3 774.22,-683.18 776.46,-689.81"/>
</g>
<!-- primary_fungible_store&#45;&gt;signer -->
<g id="edge52" class="edge">
<title>primary_fungible_store&#45;&gt;signer</title>
<path fill="none" stroke="black" d="M553.18,-725.64C514.21,-717.61 466.29,-704.53 427,-684 303.18,-619.3 216,-590.71 216,-451 216,-451 216,-451 216,-377 216,-282.68 222.6,-171.02 226.01,-119.57"/>
<polygon fill="black" stroke="black" points="229.48,-120.12 226.66,-109.91 222.49,-119.65 229.48,-120.12"/>
</g>
<!-- primary_fungible_store&#45;&gt;string -->
<g id="edge51" class="edge">
<title>primary_fungible_store&#45;&gt;string</title>
<path fill="none" stroke="black" d="M579.21,-721.76C487.29,-688.56 292,-600.44 292,-451 292,-451 292,-451 292,-377 292,-298.25 304.92,-265.72 366,-216 394.39,-192.89 495.21,-176.22 553.51,-168.26"/>
<polygon fill="black" stroke="black" points="553.97,-171.73 563.42,-166.94 553.04,-164.79 553.97,-171.73"/>
</g>
<!-- trust_coin&#45;&gt;vector -->
<g id="edge56" class="edge">
<title>trust_coin&#45;&gt;vector</title>
<path fill="none" stroke="black" d="M714.82,-952.84C1024.33,-951.68 2738.67,-943.33 2967,-900 3171.98,-861.1 3656,-612.02 3656,-595 3656,-595 3656,-595 3656,-161 3656,-114.03 3639.75,-95.36 3599,-72 3541.78,-39.21 2534.54,-22.91 2306.6,-19.63"/>
<polygon fill="black" stroke="black" points="2306.68,-16.13 2296.64,-19.48 2306.58,-23.13 2306.68,-16.13"/>
</g>
<!-- trust_coin&#45;&gt;option -->
<g id="edge57" class="edge">
<title>trust_coin&#45;&gt;option</title>
<path fill="none" stroke="black" d="M631.04,-941.66C607.73,-932.99 577.76,-919.23 556,-900 493.92,-845.12 462,-821.86 462,-739 462,-739 462,-739 462,-665 462,-347.43 647.19,-236.47 951,-144 1058.68,-111.23 1401.46,-96.72 1526.12,-92.43"/>
<polygon fill="black" stroke="black" points="1526.09,-95.94 1535.97,-92.1 1525.86,-88.94 1526.09,-95.94"/>
</g>
<!-- trust_coin&#45;&gt;object -->
<g id="edge61" class="edge">
<title>trust_coin&#45;&gt;object</title>
<path fill="none" stroke="black" d="M714.74,-951.93C857.13,-947.46 1269,-924.69 1269,-811 1269,-811 1269,-811 1269,-665 1269,-624.23 1282.42,-578.64 1292.4,-550.37"/>
<polygon fill="black" stroke="black" points="1295.62,-551.75 1295.76,-541.16 1289.05,-549.35 1295.62,-551.75"/>
</g>
<!-- trust_coin&#45;&gt;timestamp -->
<g id="edge68" class="edge">
<title>trust_coin&#45;&gt;timestamp</title>
<path fill="none" stroke="black" d="M715.14,-952.69C1015.36,-950.65 2620.99,-937.97 2717,-900 2772.33,-878.12 2817,-870.5 2817,-811 2817,-811 2817,-811 2817,-665 2817,-624.32 2802.94,-579.03 2792.4,-550.78"/>
<polygon fill="black" stroke="black" points="2795.7,-549.61 2788.83,-541.54 2789.17,-552.13 2795.7,-549.61"/>
</g>
<!-- trust_coin&#45;&gt;fungible_asset -->
<g id="edge63" class="edge">
<title>trust_coin&#45;&gt;fungible_asset</title>
<path fill="none" stroke="black" d="M644.08,-937.74C592.36,-901.33 474.46,-805.95 519,-720 550.78,-658.67 626.46,-625.59 680.39,-609.15"/>
<polygon fill="black" stroke="black" points="681.14,-612.58 689.75,-606.41 679.17,-605.86 681.14,-612.58"/>
</g>
<!-- trust_coin&#45;&gt;dispatchable_fungible_asset -->
<g id="edge64" class="edge">
<title>trust_coin&#45;&gt;dispatchable_fungible_asset</title>
<path fill="none" stroke="black" d="M676.89,-935.97C704.67,-888.09 783.63,-752.06 817.38,-693.9"/>
<polygon fill="black" stroke="black" points="820.2,-696.02 822.2,-685.62 814.15,-692.51 820.2,-696.02"/>
</g>
<!-- trust_coin&#45;&gt;primary_fungible_store -->
<g id="edge65" class="edge">
<title>trust_coin&#45;&gt;primary_fungible_store</title>
<path fill="none" stroke="black" d="M663.71,-935.85C656.68,-899.14 640.11,-812.66 631.47,-767.53"/>
<polygon fill="black" stroke="black" points="634.91,-766.88 629.59,-757.72 628.03,-768.2 634.91,-766.88"/>
</g>
<!-- trust_coin&#45;&gt;signer -->
<g id="edge59" class="edge">
<title>trust_coin&#45;&gt;signer</title>
<path fill="none" stroke="black" d="M619.03,-953.02C466.09,-951.8 0,-937.68 0,-811 0,-811 0,-811 0,-305 0,-201.59 126.23,-133.59 190.84,-105.56"/>
<polygon fill="black" stroke="black" points="192.16,-108.8 200.01,-101.68 189.43,-102.35 192.16,-108.8"/>
</g>
<!-- trust_coin&#45;&gt;event -->
<g id="edge60" class="edge">
<title>trust_coin&#45;&gt;event</title>
<path fill="none" stroke="black" d="M714.82,-952.24C1021.83,-947.07 2703,-914.03 2703,-811 2703,-811 2703,-811 2703,-665 2703,-586.57 2487.26,-447.24 2405.72,-397.38"/>
<polygon fill="black" stroke="black" points="2407.67,-394.47 2397.31,-392.27 2404.04,-400.46 2407.67,-394.47"/>
</g>
<!-- trust_coin&#45;&gt;string -->
<g id="edge58" class="edge">
<title>trust_coin&#45;&gt;string</title>
<path fill="none" stroke="black" d="M619.12,-953.24C569.55,-951.07 492.32,-940.69 441,-900 294.44,-783.8 254,-710.04 254,-523 254,-523 254,-523 254,-377 254,-298.62 264.16,-264.17 326,-216 360.84,-188.86 486.2,-173.28 553.15,-166.71"/>
<polygon fill="black" stroke="black" points="553.41,-170.2 563.04,-165.77 552.75,-163.24 553.41,-170.2"/>
</g>
<!-- trust_coin&#45;&gt;function_info -->
<g id="edge62" class="edge">
<title>trust_coin&#45;&gt;function_info</title>
<path fill="none" stroke="black" d="M627.18,-943.63C575.48,-931.18 490.45,-909.63 479,-900 424.69,-854.32 425.72,-825.2 410,-756 367.45,-568.73 458.78,-340.47 493.95,-262.57"/>
<polygon fill="black" stroke="black" points="497.09,-264.12 498.08,-253.57 490.73,-261.2 497.09,-264.12"/>
</g>
<!-- coin -->
<g id="node31" class="node">
<title>coin</title>
<ellipse fill="none" stroke="black" cx="1334" cy="-810" rx="27" ry="18"/>
<text text-anchor="middle" x="1334" y="-804.95" font-family="Times,serif" font-size="14.00">coin</text>
</g>
<!-- trust_coin&#45;&gt;coin -->
<g id="edge66" class="edge">
<title>trust_coin&#45;&gt;coin</title>
<path fill="none" stroke="black" d="M714.43,-951.44C850.5,-946.6 1235.44,-930.36 1283,-900 1304.78,-886.09 1318.26,-859.35 1325.85,-838.8"/>
<polygon fill="black" stroke="black" points="1329.08,-840.16 1328.98,-829.57 1322.45,-837.91 1329.08,-840.16"/>
</g>
<!-- aptos_coin -->
<g id="node32" class="node">
<title>aptos_coin</title>
<ellipse fill="none" stroke="black" cx="807" cy="-882" rx="50.84" ry="18"/>
<text text-anchor="middle" x="807" y="-876.95" font-family="Times,serif" font-size="14.00">aptos_coin</text>
</g>
<!-- trust_coin&#45;&gt;aptos_coin -->
<g id="edge67" class="edge">
<title>trust_coin&#45;&gt;aptos_coin</title>
<path fill="none" stroke="black" d="M694.99,-939C716.03,-928.48 745.1,-913.95 768.35,-902.33"/>
<polygon fill="black" stroke="black" points="769.84,-905.49 777.22,-897.89 766.71,-899.23 769.84,-905.49"/>
</g>
<!-- smart_table -->
<g id="node33" class="node">
<title>smart_table</title>
<ellipse fill="none" stroke="black" cx="2953" cy="-306" rx="54.42" ry="18"/>
<text text-anchor="middle" x="2953" y="-300.95" font-family="Times,serif" font-size="14.00">smart_table</text>
</g>
<!-- trust_coin&#45;&gt;smart_table -->
<g id="edge69" class="edge">
<title>trust_coin&#45;&gt;smart_table</title>
<path fill="none" stroke="black" d="M715.2,-953.13C989.19,-953.64 2352.84,-953.41 2769,-900 2941.05,-877.92 3149,-984.46 3149,-811 3149,-811 3149,-811 3149,-593 3149,-477.49 3038.87,-374.45 2983.71,-330.09"/>
<polygon fill="black" stroke="black" points="2985.93,-327.38 2975.91,-323.93 2981.59,-332.87 2985.93,-327.38"/>
</g>
<!-- string_utils -->
<g id="node34" class="node">
<title>string_utils</title>
<ellipse fill="none" stroke="black" cx="98" cy="-810" rx="52.38" ry="18"/>
<text text-anchor="middle" x="98" y="-804.95" font-family="Times,serif" font-size="14.00">string_utils</text>
</g>
<!-- trust_coin&#45;&gt;string_utils -->
<g id="edge70" class="edge">
<title>trust_coin&#45;&gt;string_utils</title>
<path fill="none" stroke="black" d="M624.23,-945.58C571.81,-936.22 480.4,-919.03 403,-900 311.22,-877.44 205.67,-845.21 145.9,-826.36"/>
<polygon fill="black" stroke="black" points="147.32,-823.14 136.73,-823.46 145.2,-829.81 147.32,-823.14"/>
</g>
<!-- features&#45;&gt;vector -->
<g id="edge71" class="edge">
<title>features&#45;&gt;vector</title>
<path fill="none" stroke="black" d="M1209.12,-150.86C1270.54,-131.91 1409.21,-91.33 1529,-72 1786.51,-30.45 2100.28,-21.46 2215.65,-19.53"/>
<polygon fill="black" stroke="black" points="2215.37,-23.03 2225.31,-19.37 2215.26,-16.03 2215.37,-23.03"/>
</g>
<!-- features&#45;&gt;signer -->
<g id="edge72" class="edge">
<title>features&#45;&gt;signer</title>
<path fill="none" stroke="black" d="M1137.43,-158.08C984.63,-146.81 433.56,-106.16 272.5,-94.28"/>
<polygon fill="black" stroke="black" points="272.89,-90.8 262.66,-93.56 272.38,-97.78 272.89,-90.8"/>
</g>
<!-- features&#45;&gt;error -->
<g id="edge73" class="edge">
<title>features&#45;&gt;error</title>
<path fill="none" stroke="black" d="M1215.12,-155.72C1244.11,-151.89 1284.99,-146.9 1321,-144 1784.64,-106.63 2349.51,-94.41 2502.94,-91.66"/>
<polygon fill="black" stroke="black" points="2502.63,-95.16 2512.57,-91.49 2502.51,-88.17 2502.63,-95.16"/>
</g>
<!-- from_bcs&#45;&gt;string -->
<g id="edge74" class="edge">
<title>from_bcs&#45;&gt;string</title>
<path fill="none" stroke="black" d="M1094.08,-364.59C1036.97,-342.33 913.6,-294.03 810,-252 747.02,-226.45 673.99,-195.87 631.59,-178.02"/>
<polygon fill="black" stroke="black" points="632.95,-174.8 622.38,-174.14 630.23,-181.25 632.95,-174.8"/>
</g>
<!-- event&#45;&gt;bcs -->
<g id="edge75" class="edge">
<title>event&#45;&gt;bcs</title>
<path fill="none" stroke="black" d="M2371.28,-359.7C2365.96,-339.31 2354.16,-305.96 2331,-288 2269.62,-240.41 2229.34,-286.99 2160,-252 2142.91,-243.37 2106.39,-208.98 2082.54,-185.57"/>
<polygon fill="black" stroke="black" points="2085.03,-183.11 2075.46,-178.57 2080.11,-188.09 2085.03,-183.11"/>
</g>
<!-- event&#45;&gt;guid -->
<g id="edge76" class="edge">
<title>event&#45;&gt;guid</title>
<path fill="none" stroke="black" d="M2358.42,-362.5C2347.23,-352.7 2332.25,-339.6 2319.66,-328.58"/>
<polygon fill="black" stroke="black" points="2321.98,-325.96 2312.15,-322 2317.37,-331.22 2321.98,-325.96"/>
</g>
<!-- account&#45;&gt;vector -->
<g id="edge77" class="edge">
<title>account&#45;&gt;vector</title>
<path fill="none" stroke="black" d="M1909.51,-447.8C1946.43,-444.32 1999.68,-432.74 2026,-396 2091.23,-304.95 1966.15,-239.91 2024,-144 2066.26,-73.94 2162.32,-41.14 2218.31,-27.48"/>
<polygon fill="black" stroke="black" points="2218.86,-30.94 2227.8,-25.27 2217.27,-24.13 2218.86,-30.94"/>
</g>
<!-- account&#45;&gt;option -->
<g id="edge78" class="edge">
<title>account&#45;&gt;option</title>
<path fill="none" stroke="black" d="M1848.5,-434.57C1833.81,-424.38 1814.15,-410.08 1798,-396 1781.18,-381.34 1780.39,-373.99 1763,-360 1739.36,-340.98 1729.87,-341.37 1705,-324 1683.72,-309.13 1680.78,-302.13 1659,-288 1630.31,-269.39 1610.33,-280.21 1591,-252 1563.82,-212.33 1564.46,-153.9 1567.89,-119.42"/>
<polygon fill="black" stroke="black" points="1571.33,-120.13 1569,-109.79 1564.37,-119.32 1571.33,-120.13"/>
</g>
<!-- account&#45;&gt;signer -->
<g id="edge79" class="edge">
<title>account&#45;&gt;signer</title>
<path fill="none" stroke="black" d="M1833.37,-442.97C1778.38,-433.77 1671.3,-415.25 1581,-396 1514.79,-381.89 1499.14,-374.45 1433,-360 1186.64,-306.19 1116.3,-328.44 876,-252 820.46,-234.33 693.07,-159.92 637,-144 507.94,-107.36 348.68,-95.96 272.58,-92.48"/>
<polygon fill="black" stroke="black" points="273.19,-89.01 263.05,-92.07 272.89,-96 273.19,-89.01"/>
</g>
<!-- account&#45;&gt;error -->
<g id="edge80" class="edge">
<title>account&#45;&gt;error</title>
<path fill="none" stroke="black" d="M1909.53,-447.99C1961.76,-445.11 2055.19,-434.47 2124,-396 2181.63,-363.78 2170.1,-323.14 2226,-288 2270.62,-259.95 2292.62,-277.05 2339,-252 2406,-215.81 2411.92,-190.78 2472,-144 2486.26,-132.9 2502.38,-120.82 2515.66,-111.01"/>
<polygon fill="black" stroke="black" points="2517.56,-113.95 2523.53,-105.2 2513.41,-108.32 2517.56,-113.95"/>
</g>
<!-- account&#45;&gt;features -->
<g id="edge81" class="edge">
<title>account&#45;&gt;features</title>
<path fill="none" stroke="black" d="M1842.81,-436.51C1822.18,-426.59 1793.48,-411.79 1770,-396 1749.32,-382.09 1747.36,-374.38 1727,-360 1701.29,-341.83 1691.71,-342.17 1666,-324 1645.64,-309.62 1645.52,-298.68 1623,-288 1545.73,-251.38 1514.93,-279.61 1434,-252 1400.51,-240.58 1395.94,-228.91 1363,-216 1316.48,-197.77 1261.19,-182.83 1223.05,-173.51"/>
<polygon fill="black" stroke="black" points="1224.3,-170.21 1213.75,-171.27 1222.66,-177.01 1224.3,-170.21"/>
</g>
<!-- account&#45;&gt;bcs -->
<g id="edge82" class="edge">
<title>account&#45;&gt;bcs</title>
<path fill="none" stroke="black" d="M1908.62,-445.88C1968.22,-440.18 2078.24,-425.8 2102,-396 2131.92,-358.47 2113.03,-334.72 2102,-288 2097.89,-270.59 2090.36,-268.72 2084,-252 2076.43,-232.1 2070.24,-208.84 2066.05,-191.09"/>
<polygon fill="black" stroke="black" points="2069.5,-190.5 2063.87,-181.53 2062.68,-192.05 2069.5,-190.5"/>
</g>
<!-- account&#45;&gt;hash -->
<g id="edge86" class="edge">
<title>account&#45;&gt;hash</title>
<path fill="none" stroke="black" d="M1858.65,-432.52C1845.33,-413.81 1822,-382.92 1798,-360 1752.91,-316.94 1692.63,-275.89 1657.29,-253.2"/>
<polygon fill="black" stroke="black" points="1659.19,-250.26 1648.87,-247.85 1655.43,-256.17 1659.19,-250.26"/>
</g>
<!-- account&#45;&gt;guid -->
<g id="edge89" class="edge">
<title>account&#45;&gt;guid</title>
<path fill="none" stroke="black" d="M1909.63,-448.15C1969.98,-445.56 2087.45,-435.39 2178,-396 2214.77,-380 2250.49,-350.11 2272.58,-329.41"/>
<polygon fill="black" stroke="black" points="2274.74,-332.19 2279.54,-322.75 2269.9,-327.14 2274.74,-332.19"/>
</g>
<!-- account&#45;&gt;from_bcs -->
<g id="edge90" class="edge">
<title>account&#45;&gt;from_bcs</title>
<path fill="none" stroke="black" d="M1831.29,-445.54C1738.64,-437.25 1496.82,-415.45 1295,-396 1257.19,-392.36 1214.64,-388.07 1181.7,-384.72"/>
<polygon fill="black" stroke="black" points="1182.28,-381.26 1171.97,-383.73 1181.57,-388.23 1182.28,-381.26"/>
</g>
<!-- account&#45;&gt;event -->
<g id="edge91" class="edge">
<title>account&#45;&gt;event</title>
<path fill="none" stroke="black" d="M1908.55,-445.16C1982.94,-437.54 2151.39,-419.19 2292,-396 2306.17,-393.66 2321.61,-390.63 2335.29,-387.78"/>
<polygon fill="black" stroke="black" points="2335.76,-391.26 2344.81,-385.76 2334.3,-384.41 2335.76,-391.26"/>
</g>
<!-- account&#45;&gt;create_signer -->
<g id="edge92" class="edge">
<title>account&#45;&gt;create_signer</title>
<path fill="none" stroke="black" d="M1832.38,-443.8C1746.64,-431.93 1535.88,-402.78 1428.76,-387.96"/>
<polygon fill="black" stroke="black" points="1429.36,-384.51 1418.97,-386.61 1428.4,-391.44 1429.36,-384.51"/>
</g>
<!-- account&#45;&gt;system_addresses -->
<g id="edge85" class="edge">
<title>account&#45;&gt;system_addresses</title>
<path fill="none" stroke="black" d="M1830.3,-447.55C1779.33,-444.16 1689.52,-432.94 1623,-396 1608.18,-387.77 1578.94,-355.85 1558.7,-332.59"/>
<polygon fill="black" stroke="black" points="1561.6,-330.6 1552.42,-325.31 1556.3,-335.17 1561.6,-330.6"/>
</g>
<!-- account&#45;&gt;type_info -->
<g id="edge83" class="edge">
<title>account&#45;&gt;type_info</title>
<path fill="none" stroke="black" d="M1909.1,-446.01C1942.11,-441.18 1987.48,-428.61 2010,-396 2019.09,-382.83 2011.85,-375.89 2010,-360 2006.2,-327.34 2015.18,-312.27 1993,-288 1966.81,-259.34 1924.73,-246.16 1890.44,-240.11"/>
<polygon fill="black" stroke="black" points="1891.06,-236.66 1880.64,-238.55 1889.97,-243.58 1891.06,-236.66"/>
</g>
<!-- table -->
<g id="node35" class="node">
<title>table</title>
<ellipse fill="none" stroke="black" cx="3533" cy="-90" rx="28.83" ry="18"/>
<text text-anchor="middle" x="3533" y="-84.95" font-family="Times,serif" font-size="14.00">table</text>
</g>
<!-- account&#45;&gt;table -->
<g id="edge84" class="edge">
<title>account&#45;&gt;table</title>
<path fill="none" stroke="black" d="M1909.68,-447.77C2162.88,-439.67 3542,-391.67 3542,-307 3542,-307 3542,-307 3542,-233 3542,-193.45 3538.48,-147.82 3535.84,-119.19"/>
<polygon fill="black" stroke="black" points="3539.35,-119.16 3534.92,-109.53 3532.39,-119.82 3539.35,-119.16"/>
</g>
<!-- ed25519 -->
<g id="node36" class="node">
<title>ed25519</title>
<ellipse fill="none" stroke="black" cx="1941" cy="-306" rx="42.65" ry="18"/>
<text text-anchor="middle" x="1941" y="-300.95" font-family="Times,serif" font-size="14.00">ed25519</text>
</g>
<!-- account&#45;&gt;ed25519 -->
<g id="edge87" class="edge">
<title>account&#45;&gt;ed25519</title>
<path fill="none" stroke="black" d="M1907.69,-443.89C1936.44,-437.79 1974.21,-424.55 1993,-396 2001.79,-382.63 1999.05,-374.81 1993,-360 1988.27,-348.43 1979.66,-338.01 1970.79,-329.54"/>
<polygon fill="black" stroke="black" points="1973.26,-327.06 1963.45,-323.05 1968.62,-332.3 1973.26,-327.06"/>
</g>
<!-- multi_ed25519 -->
<g id="node37" class="node">
<title>multi_ed25519</title>
<ellipse fill="none" stroke="black" cx="1917" cy="-378" rx="67.22" ry="18"/>
<text text-anchor="middle" x="1917" y="-372.95" font-family="Times,serif" font-size="14.00">multi_ed25519</text>
</g>
<!-- account&#45;&gt;multi_ed25519 -->
<g id="edge88" class="edge">
<title>account&#45;&gt;multi_ed25519</title>
<path fill="none" stroke="black" d="M1881.14,-432.41C1886.56,-424.34 1893.21,-414.43 1899.3,-405.35"/>
<polygon fill="black" stroke="black" points="1902.1,-407.47 1904.77,-397.21 1896.29,-403.56 1902.1,-407.47"/>
</g>
<!-- chain_id -->
<g id="node38" class="node">
<title>chain_id</title>
<ellipse fill="none" stroke="black" cx="1675" cy="-378" rx="42.65" ry="18"/>
<text text-anchor="middle" x="1675" y="-372.95" font-family="Times,serif" font-size="14.00">chain_id</text>
</g>
<!-- account&#45;&gt;chain_id -->
<g id="edge93" class="edge">
<title>account&#45;&gt;chain_id</title>
<path fill="none" stroke="black" d="M1839.53,-438.06C1806.68,-426.27 1754.14,-407.41 1717.29,-394.18"/>
<polygon fill="black" stroke="black" points="1718.89,-391.04 1708.3,-390.95 1716.53,-397.63 1718.89,-391.04"/>
</g>
<!-- transaction_context&#45;&gt;option -->
<g id="edge94" class="edge">
<title>transaction_context&#45;&gt;option</title>
<path fill="none" stroke="black" d="M1275.92,-215.65C1282.64,-195.23 1296.72,-161.84 1321,-144 1353.27,-120.3 1464.04,-103.74 1527.11,-95.99"/>
<polygon fill="black" stroke="black" points="1527.29,-99.49 1536.8,-94.83 1526.45,-92.54 1527.29,-99.49"/>
</g>
<!-- transaction_context&#45;&gt;error -->
<g id="edge96" class="edge">
<title>transaction_context&#45;&gt;error</title>
<path fill="none" stroke="black" d="M1333.99,-221.85C1440.97,-203.27 1665.14,-165.85 1856,-144 2100.9,-115.96 2396.65,-98.72 2502.73,-93.06"/>
<polygon fill="black" stroke="black" points="2502.82,-96.56 2512.62,-92.54 2502.45,-89.57 2502.82,-96.56"/>
</g>
<!-- transaction_context&#45;&gt;features -->
<g id="edge97" class="edge">
<title>transaction_context&#45;&gt;features</title>
<path fill="none" stroke="black" d="M1248.72,-216.41C1236.02,-206.95 1219.95,-194.98 1206.24,-184.77"/>
<polygon fill="black" stroke="black" points="1208.52,-182.11 1198.41,-178.94 1204.34,-187.72 1208.52,-182.11"/>
</g>
<!-- transaction_context&#45;&gt;string -->
<g id="edge95" class="edge">
<title>transaction_context&#45;&gt;string</title>
<path fill="none" stroke="black" d="M1197.16,-225.34C1055.75,-210.68 750.82,-179.06 638.59,-167.42"/>
<polygon fill="black" stroke="black" points="639.22,-163.96 628.92,-166.41 638.5,-170.93 639.22,-163.96"/>
</g>
<!-- system_addresses&#45;&gt;signer -->
<g id="edge98" class="edge">
<title>system_addresses&#45;&gt;signer</title>
<path fill="none" stroke="black" d="M1472.44,-295.83C1451.87,-293.09 1429,-290.22 1408,-288 1208.03,-266.86 1151.49,-303.08 957,-252 929.4,-244.75 751.5,-151.62 724,-144 562.42,-99.24 361.56,-91.87 273.24,-90.93"/>
<polygon fill="black" stroke="black" points="273.33,-87.43 263.3,-90.85 273.28,-94.43 273.33,-87.43"/>
</g>
<!-- system_addresses&#45;&gt;error -->
<g id="edge99" class="edge">
<title>system_addresses&#45;&gt;error</title>
<path fill="none" stroke="black" d="M1613.97,-304.8C1687.49,-302.03 1799.96,-290.92 1889,-252 1959.4,-221.22 1952.88,-173.09 2024,-144 2110.67,-108.55 2395.94,-95.79 2502.43,-92.19"/>
<polygon fill="black" stroke="black" points="2502.54,-95.69 2512.42,-91.87 2502.31,-88.7 2502.54,-95.69"/>
</g>
<!-- type_info&#45;&gt;error -->
<g id="edge101" class="edge">
<title>type_info&#45;&gt;error</title>
<path fill="none" stroke="black" d="M1840.21,-215.77C1848.76,-194.8 1866.34,-160.19 1894,-144 1946.5,-113.27 2369.56,-96.75 2502.9,-92.27"/>
<polygon fill="black" stroke="black" points="2502.77,-95.77 2512.65,-91.94 2502.54,-88.78 2502.77,-95.77"/>
</g>
<!-- type_info&#45;&gt;features -->
<g id="edge102" class="edge">
<title>type_info&#45;&gt;features</title>
<path fill="none" stroke="black" d="M1789.62,-228.27C1671.77,-215.72 1351.55,-181.6 1227.26,-168.35"/>
<polygon fill="black" stroke="black" points="1227.68,-164.88 1217.36,-167.3 1226.93,-171.84 1227.68,-164.88"/>
</g>
<!-- type_info&#45;&gt;bcs -->
<g id="edge103" class="edge">
<title>type_info&#45;&gt;bcs</title>
<path fill="none" stroke="black" d="M1869.31,-222.06C1911.73,-208.92 1982.45,-187.02 2024.81,-173.9"/>
<polygon fill="black" stroke="black" points="2025.74,-177.27 2034.26,-170.97 2023.67,-170.59 2025.74,-177.27"/>
</g>
<!-- type_info&#45;&gt;string -->
<g id="edge100" class="edge">
<title>type_info&#45;&gt;string</title>
<path fill="none" stroke="black" d="M1789.93,-227.95C1755.86,-224.19 1707.49,-219.19 1665,-216 1267.14,-186.15 784.67,-169.09 639.4,-164.36"/>
<polygon fill="black" stroke="black" points="639.58,-160.87 629.47,-164.04 639.35,-167.86 639.58,-160.87"/>
</g>
<!-- math64&#45;&gt;error -->
<g id="edge104" class="edge">
<title>math64&#45;&gt;error</title>
<path fill="none" stroke="black" d="M2988.03,-216.02C2979.78,-195.3 2962.81,-160.95 2936,-144 2877.93,-107.3 2671.55,-95.61 2583.39,-92.24"/>
<polygon fill="black" stroke="black" points="2583.65,-88.75 2573.53,-91.88 2583.39,-95.74 2583.65,-88.75"/>
</g>
<!-- fixed_point32 -->
<g id="node39" class="node">
<title>fixed_point32</title>
<ellipse fill="none" stroke="black" cx="3051" cy="-162" rx="62.61" ry="18"/>
<text text-anchor="middle" x="3051" y="-156.95" font-family="Times,serif" font-size="14.00">fixed_point32</text>
</g>
<!-- math64&#45;&gt;fixed_point32 -->
<g id="edge105" class="edge">
<title>math64&#45;&gt;fixed_point32</title>
<path fill="none" stroke="black" d="M3007.22,-216.76C3014.1,-208.32 3022.66,-197.8 3030.39,-188.31"/>
<polygon fill="black" stroke="black" points="3032.9,-190.77 3036.5,-180.81 3027.47,-186.35 3032.9,-190.77"/>
</g>
<!-- big_vector&#45;&gt;vector -->
<g id="edge106" class="edge">
<title>big_vector&#45;&gt;vector</title>
<path fill="none" stroke="black" d="M3319.15,-228.2C3350.41,-222.31 3388.94,-209.19 3409,-180 3418.06,-166.81 3417.93,-157.28 3409,-144 3361.59,-73.54 3314.87,-90.57 3232,-72 3052.32,-31.74 2473.82,-21.61 2306.64,-19.49"/>
<polygon fill="black" stroke="black" points="2306.88,-16 2296.84,-19.37 2306.8,-23 2306.88,-16"/>
</g>
<!-- big_vector&#45;&gt;error -->
<g id="edge107" class="edge">
<title>big_vector&#45;&gt;error</title>
<path fill="none" stroke="black" d="M3255.76,-216.38C3235.34,-195.36 3196.92,-159.98 3156,-144 3051.03,-102.99 2702.65,-93.58 2583.43,-91.54"/>
<polygon fill="black" stroke="black" points="2583.54,-88.04 2573.49,-91.37 2583.43,-95.04 2583.54,-88.04"/>
</g>
<!-- table_with_length -->
<g id="node40" class="node">
<title>table_with_length</title>
<ellipse fill="none" stroke="black" cx="3323" cy="-162" rx="77.45" ry="18"/>
<text text-anchor="middle" x="3323" y="-156.95" font-family="Times,serif" font-size="14.00">table_with_length</text>
</g>
<!-- big_vector&#45;&gt;table_with_length -->
<g id="edge108" class="edge">
<title>big_vector&#45;&gt;table_with_length</title>
<path fill="none" stroke="black" d="M3283.32,-216.41C3289.39,-208.25 3296.84,-198.22 3303.64,-189.07"/>
<polygon fill="black" stroke="black" points="3306.35,-191.29 3309.5,-181.17 3300.73,-187.11 3306.35,-191.29"/>
</g>
<!-- string&#45;&gt;vector -->
<g id="edge109" class="edge">
<title>string&#45;&gt;vector</title>
<path fill="none" stroke="black" d="M618.24,-148.59C656.19,-128.16 736.49,-88.08 810,-72 949.93,-41.4 1985.25,-23.36 2215.65,-19.7"/>
<polygon fill="black" stroke="black" points="2215.47,-23.2 2225.41,-19.54 2215.36,-16.2 2215.47,-23.2"/>
</g>
<!-- string&#45;&gt;option -->
<g id="edge110" class="edge">
<title>string&#45;&gt;option</title>
<path fill="none" stroke="black" d="M627.45,-157.67C662.64,-154.02 721.36,-148.12 772,-144 1058.65,-120.67 1403.72,-100.47 1526.18,-93.55"/>
<polygon fill="black" stroke="black" points="1526.37,-97.05 1536.15,-92.99 1525.97,-90.06 1526.37,-97.05"/>
</g>
<!-- aggregator_v2&#45;&gt;error -->
<g id="edge112" class="edge">
<title>aggregator_v2&#45;&gt;error</title>
<path fill="none" stroke="black" d="M1042.33,-216.11C1059.01,-194.79 1090.97,-159.11 1128,-144 1193.3,-117.36 2278.91,-95.89 2502.8,-91.73"/>
<polygon fill="black" stroke="black" points="2502.54,-95.23 2512.47,-91.55 2502.41,-88.24 2502.54,-95.23"/>
</g>
<!-- aggregator_v2&#45;&gt;features -->
<g id="edge113" class="edge">
<title>aggregator_v2&#45;&gt;features</title>
<path fill="none" stroke="black" d="M1061.54,-217.98C1084.61,-207 1115.98,-192.06 1140.2,-180.52"/>
<polygon fill="black" stroke="black" points="1141.55,-183.76 1149.07,-176.3 1138.54,-177.44 1141.55,-183.76"/>
</g>
<!-- aggregator_v2&#45;&gt;string -->
<g id="edge111" class="edge">
<title>aggregator_v2&#45;&gt;string</title>
<path fill="none" stroke="black" d="M975.47,-224.21C887.48,-210.01 716.1,-182.37 637.37,-169.67"/>
<polygon fill="black" stroke="black" points="638.37,-166.29 627.94,-168.15 637.25,-173.2 638.37,-166.29"/>
</g>
<!-- function_info&#45;&gt;signer -->
<g id="edge115" class="edge">
<title>function_info&#45;&gt;signer</title>
<path fill="none" stroke="black" d="M477.41,-217.94C425.1,-191.32 316.66,-136.12 261.62,-108.11"/>
<polygon fill="black" stroke="black" points="263.52,-105.15 253.02,-103.73 260.34,-111.39 263.52,-105.15"/>
</g>
<!-- function_info&#45;&gt;error -->
<g id="edge116" class="edge">
<title>function_info&#45;&gt;error</title>
<path fill="none" stroke="black" d="M556.8,-223.12C655.18,-204.07 881.58,-162.51 1074,-144 1362.61,-116.24 2296.19,-96.01 2502.43,-91.81"/>
<polygon fill="black" stroke="black" points="2502.44,-95.31 2512.36,-91.61 2502.29,-88.31 2502.44,-95.31"/>
</g>
<!-- function_info&#45;&gt;features -->
<g id="edge117" class="edge">
<title>function_info&#45;&gt;features</title>
<path fill="none" stroke="black" d="M563.27,-226.52C591.67,-223.29 626.65,-219.36 658,-216 829.86,-197.55 1033.9,-177.16 1126.64,-167.97"/>
<polygon fill="black" stroke="black" points="1126.81,-171.47 1136.42,-167 1126.12,-164.5 1126.81,-171.47"/>
</g>
<!-- function_info&#45;&gt;string -->
<g id="edge114" class="edge">
<title>function_info&#45;&gt;string</title>
<path fill="none" stroke="black" d="M527.64,-216.76C539.99,-207.05 555.82,-194.6 569.14,-184.13"/>
<polygon fill="black" stroke="black" points="571,-187.12 576.69,-178.19 566.67,-181.62 571,-187.12"/>
</g>
<!-- coin&#45;&gt;option -->
<g id="edge118" class="edge">
<title>coin&#45;&gt;option</title>
<path fill="none" stroke="black" d="M1354.02,-797.36C1387.68,-776.11 1452,-727.58 1452,-667 1452,-667 1452,-667 1452,-449 1452,-412.97 1418.55,-321 1433,-288 1442.46,-266.39 1456.97,-270.18 1472,-252 1508.12,-208.28 1540.93,-150.46 1558.52,-117.33"/>
<polygon fill="black" stroke="black" points="1561.43,-119.32 1562.97,-108.84 1555.23,-116.07 1561.43,-119.32"/>
</g>
<!-- coin&#45;&gt;object -->
<g id="edge132" class="edge">
<title>coin&#45;&gt;object</title>
<path fill="none" stroke="black" d="M1332.15,-791.97C1327.02,-744.59 1312.52,-610.87 1306.11,-551.73"/>
<polygon fill="black" stroke="black" points="1309.6,-551.38 1305.04,-541.81 1302.64,-552.13 1309.6,-551.38"/>
</g>
<!-- coin&#45;&gt;fungible_asset -->
<g id="edge134" class="edge">
<title>coin&#45;&gt;fungible_asset</title>
<path fill="none" stroke="black" d="M1306.99,-806.7C1242.8,-800.84 1083.11,-783.8 1038,-756 986.92,-724.52 1007.07,-681.05 957,-648 914.27,-619.8 857.91,-606.59 813.34,-600.41"/>
<polygon fill="black" stroke="black" points="813.85,-596.94 803.48,-599.14 812.95,-603.89 813.85,-596.94"/>
</g>
<!-- coin&#45;&gt;primary_fungible_store -->
<g id="edge135" class="edge">
<title>coin&#45;&gt;primary_fungible_store</title>
<path fill="none" stroke="black" d="M1307.11,-806.34C1211.68,-796.91 886.2,-764.73 722.16,-748.51"/>
<polygon fill="black" stroke="black" points="722.91,-745.06 712.62,-747.56 722.22,-752.03 722.91,-745.06"/>
</g>
<!-- coin&#45;&gt;signer -->
<g id="edge120" class="edge">
<title>coin&#45;&gt;signer</title>
<path fill="none" stroke="black" d="M1306.63,-808.49C1182.7,-805.97 673.5,-793.51 519,-756 441.25,-737.12 423.62,-723.44 354,-684 306.03,-656.83 288.83,-653.89 253,-612 166.88,-511.31 188.41,-455.91 176,-324 168.89,-248.43 198.56,-161.74 216.03,-118.52"/>
<polygon fill="black" stroke="black" points="219.21,-119.99 219.81,-109.41 212.75,-117.3 219.21,-119.99"/>
</g>
<!-- coin&#45;&gt;error -->
<g id="edge121" class="edge">
<title>coin&#45;&gt;error</title>
<path fill="none" stroke="black" d="M1361.05,-808.74C1500.08,-807.22 2135.17,-798.04 2327,-756 2431.64,-733.07 2551,-774.13 2551,-667 2551,-667 2551,-667 2551,-521 2551,-369.43 2554.11,-331.56 2555,-180 2555.09,-164 2556.78,-159.9 2555,-144 2554.08,-135.81 2552.4,-127.04 2550.57,-119.04"/>
<polygon fill="black" stroke="black" points="2554.01,-118.37 2548.23,-109.49 2547.21,-120.04 2554.01,-118.37"/>
</g>
<!-- coin&#45;&gt;features -->
<g id="edge122" class="edge">
<title>coin&#45;&gt;features</title>
<path fill="none" stroke="black" d="M1307.44,-805.98C1250.72,-799.26 1113.74,-781.63 1001,-756 946.29,-743.56 934.39,-733.79 880,-720 804.72,-700.91 780.67,-713.93 709,-684 623.43,-648.26 582.2,-629.52 558,-540 509.6,-360.96 654.24,-297.19 821,-216 873.79,-190.3 1040.89,-173.77 1126.05,-166.8"/>
<polygon fill="black" stroke="black" points="1126.3,-170.29 1135.99,-166 1125.74,-163.31 1126.3,-170.29"/>
</g>
<!-- coin&#45;&gt;guid -->
<g id="edge126" class="edge">
<title>coin&#45;&gt;guid</title>
<path fill="none" stroke="black" d="M1361.36,-808.56C1534.88,-805.4 2475,-782.97 2475,-667 2475,-667 2475,-667 2475,-521 2475,-444.64 2467.38,-415.57 2415,-360 2402.79,-347.05 2360.76,-330.15 2329.87,-318.96"/>
<polygon fill="black" stroke="black" points="2331.09,-315.68 2320.49,-315.62 2328.74,-322.27 2331.09,-315.68"/>
</g>
<!-- coin&#45;&gt;event -->
<g id="edge127" class="edge">
<title>coin&#45;&gt;event</title>
<path fill="none" stroke="black" d="M1361.45,-809.52C1434.92,-810.15 1641.41,-806.9 1803,-756 2058.7,-675.46 2148.9,-662.88 2333,-468 2349.3,-450.74 2360.28,-426 2366.91,-406.98"/>
<polygon fill="black" stroke="black" points="2370.16,-408.3 2369.94,-397.71 2363.51,-406.13 2370.16,-408.3"/>
</g>
<!-- coin&#45;&gt;create_signer -->
<g id="edge128" class="edge">
<title>coin&#45;&gt;create_signer</title>
<path fill="none" stroke="black" d="M1339.93,-792.19C1348.67,-765.86 1364,-713.11 1364,-667 1364,-667 1364,-667 1364,-521 1364,-481.74 1364,-436.38 1364,-407.69"/>
<polygon fill="black" stroke="black" points="1367.5,-408 1364,-398 1360.5,-408 1367.5,-408"/>
</g>
<!-- coin&#45;&gt;account -->
<g id="edge129" class="edge">
<title>coin&#45;&gt;account</title>
<path fill="none" stroke="black" d="M1360.95,-807.75C1469.64,-801.98 1870,-773.49 1870,-667 1870,-667 1870,-667 1870,-593 1870,-553.74 1870,-508.38 1870,-479.69"/>
<polygon fill="black" stroke="black" points="1873.5,-480 1870,-470 1866.5,-480 1873.5,-480"/>
</g>
<!-- coin&#45;&gt;system_addresses -->
<g id="edge125" class="edge">
<title>coin&#45;&gt;system_addresses</title>
<path fill="none" stroke="black" d="M1320.39,-794.18C1257.77,-725.2 1003.32,-435.82 1071,-360 1083.6,-345.89 1323.46,-324.34 1454.01,-313.58"/>
<polygon fill="black" stroke="black" points="1453.94,-317.1 1463.63,-312.79 1453.37,-310.12 1453.94,-317.1"/>
</g>
<!-- coin&#45;&gt;type_info -->
<g id="edge123" class="edge">
<title>coin&#45;&gt;type_info</title>
<path fill="none" stroke="black" d="M1306.7,-807.84C1235.93,-803.22 1052,-780.33 1052,-667 1052,-667 1052,-667 1052,-593 1052,-489.43 988.97,-438.96 1056,-360 1079.64,-332.15 1605.42,-263.76 1778.97,-241.86"/>
<polygon fill="black" stroke="black" points="1779.38,-245.34 1788.86,-240.62 1778.5,-238.39 1779.38,-245.34"/>
</g>
<!-- coin&#45;&gt;string -->
<g id="edge119" class="edge">
<title>coin&#45;&gt;string</title>
<path fill="none" stroke="black" d="M1306.89,-807.38C1236.11,-802.83 1040.09,-788.08 880,-756 851.55,-750.3 653.49,-699.55 629,-684 534.1,-623.75 371.27,-307.19 437,-216 463.13,-179.74 515.15,-167.91 552.58,-164.25"/>
<polygon fill="black" stroke="black" points="552.49,-167.77 562.18,-163.48 551.93,-160.79 552.49,-167.77"/>
</g>
<!-- coin&#45;&gt;table -->
<g id="edge124" class="edge">
<title>coin&#45;&gt;table</title>
<path fill="none" stroke="black" d="M1361.29,-809.02C1526.26,-808.94 2392,-806.14 2652,-756 3059.27,-677.46 3250.83,-717.41 3513,-396 3584.68,-308.12 3575.67,-255.11 3553,-144 3551.24,-135.39 3548.28,-126.33 3545.16,-118.19"/>
<polygon fill="black" stroke="black" points="3548.5,-117.11 3541.48,-109.18 3542.02,-119.76 3548.5,-117.11"/>
</g>
<!-- aggregator -->
<g id="node41" class="node">
<title>aggregator</title>
<ellipse fill="none" stroke="black" cx="2830" cy="-306" rx="50.33" ry="18"/>
<text text-anchor="middle" x="2830" y="-300.95" font-family="Times,serif" font-size="14.00">aggregator</text>
</g>
<!-- coin&#45;&gt;aggregator -->
<g id="edge130" class="edge">
<title>coin&#45;&gt;aggregator</title>
<path fill="none" stroke="black" d="M1361.42,-808.7C1543.07,-806.62 2567.51,-793.28 2621,-756 2720,-687.02 2631.99,-584.35 2722,-504 2768,-462.93 2801.46,-496.78 2856,-468 2899.49,-445.05 2919.45,-440.67 2940,-396 2946.69,-381.46 2948.51,-373.55 2940,-360 2932.41,-347.92 2902.38,-333.88 2875.61,-323.3"/>
<polygon fill="black" stroke="black" points="2877.19,-320.15 2866.6,-319.82 2874.67,-326.68 2877.19,-320.15"/>
</g>
<!-- aggregator_factory -->
<g id="node42" class="node">
<title>aggregator_factory</title>
<ellipse fill="none" stroke="black" cx="2850" cy="-378" rx="81.04" ry="18"/>
<text text-anchor="middle" x="2850" y="-372.95" font-family="Times,serif" font-size="14.00">aggregator_factory</text>
</g>
<!-- coin&#45;&gt;aggregator_factory -->
<g id="edge131" class="edge">
<title>coin&#45;&gt;aggregator_factory</title>
<path fill="none" stroke="black" d="M1361.39,-808.72C1540.59,-806.78 2540.19,-794.28 2591,-756 2686.99,-683.7 2594.38,-578.08 2689,-504 2741.28,-463.07 2788.61,-516.46 2834,-468 2849.02,-451.96 2852.4,-426.86 2852.38,-407.4"/>
<polygon fill="black" stroke="black" points="2855.88,-407.53 2852.05,-397.65 2848.89,-407.77 2855.88,-407.53"/>
</g>
<!-- optional_aggregator -->
<g id="node43" class="node">
<title>optional_aggregator</title>
<ellipse fill="none" stroke="black" cx="2740" cy="-450" rx="85.13" ry="18"/>
<text text-anchor="middle" x="2740" y="-444.95" font-family="Times,serif" font-size="14.00">optional_aggregator</text>
</g>
<!-- coin&#45;&gt;optional_aggregator -->
<g id="edge133" class="edge">
<title>coin&#45;&gt;optional_aggregator</title>
<path fill="none" stroke="black" d="M1361.41,-808.73C1538.62,-806.88 2516.42,-794.9 2565,-756 2596.98,-730.39 2589,-707.97 2589,-667 2589,-667 2589,-667 2589,-593 2589,-535.36 2648.1,-494.27 2692.36,-471.57"/>
<polygon fill="black" stroke="black" points="2693.9,-474.71 2701.32,-467.14 2690.8,-468.43 2693.9,-474.71"/>
</g>
<!-- aptos_coin&#45;&gt;vector -->
<g id="edge136" class="edge">
<title>aptos_coin&#45;&gt;vector</title>
<path fill="none" stroke="black" d="M759.37,-875.28C601,-853.35 102,-759.77 102,-451 102,-451 102,-451 102,-377 102,-236.4 75.25,-158.63 186,-72 227.38,-39.63 1916.07,-22.25 2215.77,-19.41"/>
<polygon fill="black" stroke="black" points="2215.55,-22.92 2225.51,-19.32 2215.48,-15.92 2215.55,-22.92"/>
</g>
<!-- aptos_coin&#45;&gt;option -->
<g id="edge137" class="edge">
<title>aptos_coin&#45;&gt;option</title>
<path fill="none" stroke="black" d="M854.32,-875.06C963.35,-860.04 1223,-816.17 1223,-739 1223,-739 1223,-739 1223,-665 1223,-510.45 964.86,-484.81 1056,-360 1061.81,-352.04 1385.46,-256.92 1394,-252 1428.07,-232.39 1508.59,-154.25 1548.6,-114.49"/>
<polygon fill="black" stroke="black" points="1551.04,-117.01 1555.65,-107.47 1546.09,-112.05 1551.04,-117.01"/>
</g>
<!-- aptos_coin&#45;&gt;signer -->
<g id="edge139" class="edge">
<title>aptos_coin&#45;&gt;signer</title>
<path fill="none" stroke="black" d="M758.83,-875.89C695.52,-868.53 581.19,-853.02 486,-828 242.76,-764.07 64,-702.5 64,-451 64,-451 64,-451 64,-377 64,-266.23 157.72,-159.49 203.47,-113.99"/>
<polygon fill="black" stroke="black" points="205.89,-116.52 210.59,-107.03 200.99,-111.52 205.89,-116.52"/>
</g>
<!-- aptos_coin&#45;&gt;error -->
<g id="edge140" class="edge">
<title>aptos_coin&#45;&gt;error</title>
<path fill="none" stroke="black" d="M858.27,-881.21C1142.28,-881.89 2514.8,-878.76 2652,-756 2700.47,-712.63 2672.2,-676.78 2678,-612 2683.85,-546.7 2662.9,-531.35 2646,-468 2607.85,-324.99 2619.01,-283.3 2569,-144 2565.82,-135.15 2561.58,-125.83 2557.45,-117.52"/>
<polygon fill="black" stroke="black" points="2560.56,-115.92 2552.87,-108.64 2554.34,-119.13 2560.56,-115.92"/>
</g>
<!-- aptos_coin&#45;&gt;system_addresses -->
<g id="edge141" class="edge">
<title>aptos_coin&#45;&gt;system_addresses</title>
<path fill="none" stroke="black" d="M825.09,-864.96C868.68,-824.41 976,-712.65 976,-595 976,-595 976,-595 976,-449 976,-395.81 1008.68,-384.29 1056,-360 1122.61,-325.81 1329.66,-313.54 1449.28,-309.24"/>
<polygon fill="black" stroke="black" points="1449.19,-312.74 1459.06,-308.9 1448.95,-305.75 1449.19,-312.74"/>
</g>
<!-- aptos_coin&#45;&gt;string -->
<g id="edge138" class="edge">
<title>aptos_coin&#45;&gt;string</title>
<path fill="none" stroke="black" d="M763.68,-872.14C702.3,-857.59 589.65,-823.29 519,-756 467.33,-706.78 467.78,-680.56 448,-612 399.07,-442.45 312.64,-356.82 419,-216 449.77,-175.26 510.7,-164.69 552.39,-162.53"/>
<polygon fill="black" stroke="black" points="552.48,-166.02 562.35,-162.17 552.23,-159.03 552.48,-166.02"/>
</g>
<!-- aptos_coin&#45;&gt;coin -->
<g id="edge142" class="edge">
<title>aptos_coin&#45;&gt;coin</title>
<path fill="none" stroke="black" d="M855.15,-875.87C934.77,-867.22 1098.81,-848.61 1237,-828 1256.84,-825.04 1278.86,-821.22 1296.9,-817.96"/>
<polygon fill="black" stroke="black" points="1297.43,-821.42 1306.63,-816.18 1296.17,-814.53 1297.43,-821.42"/>
</g>
<!-- smart_table&#45;&gt;vector -->
<g id="edge143" class="edge">
<title>smart_table&#45;&gt;vector</title>
<path fill="none" stroke="black" d="M2980.72,-290.28C2998.73,-280.29 3022.41,-266.34 3042,-252 3061.43,-237.78 3113.13,-201.97 3123,-180 3129.55,-165.4 3133.44,-156.13 3123,-144 3068.95,-81.22 2475.92,-34.34 2306.16,-22.13"/>
<polygon fill="black" stroke="black" points="2306.41,-18.64 2296.19,-21.42 2305.92,-25.62 2306.41,-18.64"/>
</g>
<!-- smart_table&#45;&gt;option -->
<g id="edge144" class="edge">
<title>smart_table&#45;&gt;option</title>
<path fill="none" stroke="black" d="M2912.89,-293.53C2905.01,-291.51 2896.78,-289.56 2889,-288 2772.45,-264.7 2740.09,-277.52 2624,-252 2464.17,-216.87 2432.8,-174.36 2272,-144 2028.52,-98.02 1730.28,-91.65 1617.82,-90.97"/>
<polygon fill="black" stroke="black" points="1618.12,-87.47 1608.1,-90.92 1618.08,-94.47 1618.12,-87.47"/>
</g>
<!-- smart_table&#45;&gt;error -->
<g id="edge145" class="edge">
<title>smart_table&#45;&gt;error</title>
<path fill="none" stroke="black" d="M2938.16,-288.66C2929.51,-278.58 2918.8,-265.12 2911,-252 2884.34,-207.15 2906.03,-176.22 2865,-144 2821.82,-110.1 2659.48,-97.15 2583.14,-92.86"/>
<polygon fill="black" stroke="black" points="2583.78,-89.39 2573.6,-92.35 2583.4,-96.38 2583.78,-89.39"/>
</g>
<!-- smart_table&#45;&gt;type_info -->
<g id="edge146" class="edge">
<title>smart_table&#45;&gt;type_info</title>
<path fill="none" stroke="black" d="M2913.67,-293.17C2905.58,-291.13 2897.06,-289.26 2889,-288 2864.16,-284.12 2107.41,-247.98 1891.18,-237.71"/>
<polygon fill="black" stroke="black" points="1891.47,-234.22 1881.32,-237.24 1891.14,-241.21 1891.47,-234.22"/>
</g>
<!-- smart_table&#45;&gt;math64 -->
<g id="edge148" class="edge">
<title>smart_table&#45;&gt;math64</title>
<path fill="none" stroke="black" d="M2962.92,-288.05C2967.56,-280.14 2973.18,-270.54 2978.37,-261.69"/>
<polygon fill="black" stroke="black" points="2981.37,-263.49 2983.4,-253.1 2975.33,-259.95 2981.37,-263.49"/>
</g>
<!-- smart_table&#45;&gt;table_with_length -->
<g id="edge149" class="edge">
<title>smart_table&#45;&gt;table_with_length</title>
<path fill="none" stroke="black" d="M2987.48,-291.77C3053.31,-266.5 3197.12,-211.31 3273.32,-182.06"/>
<polygon fill="black" stroke="black" points="3274.56,-185.34 3282.65,-178.49 3272.06,-178.8 3274.56,-185.34"/>
</g>
<!-- simple_map -->
<g id="node44" class="node">
<title>simple_map</title>
<ellipse fill="none" stroke="black" cx="2799" cy="-162" rx="56.98" ry="18"/>
<text text-anchor="middle" x="2799" y="-156.95" font-family="Times,serif" font-size="14.00">simple_map</text>
</g>
<!-- smart_table&#45;&gt;simple_map -->
<g id="edge147" class="edge">
<title>smart_table&#45;&gt;simple_map</title>
<path fill="none" stroke="black" d="M2924.87,-290.15C2907.99,-280.51 2886.65,-266.98 2870,-252 2849.33,-233.39 2829.93,-208.35 2816.65,-189.57"/>
<polygon fill="black" stroke="black" points="2819.54,-187.6 2810.97,-181.37 2813.79,-191.59 2819.54,-187.6"/>
</g>
<!-- aptos_hash -->
<g id="node45" class="node">
<title>aptos_hash</title>
<ellipse fill="none" stroke="black" cx="2254" cy="-234" rx="51.86" ry="18"/>
<text text-anchor="middle" x="2254" y="-228.95" font-family="Times,serif" font-size="14.00">aptos_hash</text>
</g>
<!-- smart_table&#45;&gt;aptos_hash -->
<g id="edge150" class="edge">
<title>smart_table&#45;&gt;aptos_hash</title>
<path fill="none" stroke="black" d="M2913.3,-293.29C2905.31,-291.27 2896.93,-289.37 2889,-288 2833.49,-278.39 2464.3,-250.52 2315.74,-239.53"/>
<polygon fill="black" stroke="black" points="2316.33,-236.06 2306.1,-238.82 2315.82,-243.04 2316.33,-236.06"/>
</g>
<!-- string_utils&#45;&gt;string -->
<g id="edge151" class="edge">
<title>string_utils&#45;&gt;string</title>
<path fill="none" stroke="black" d="M106.5,-791.99C118.77,-765.82 140,-713.79 140,-667 140,-667 140,-667 140,-593 140,-412.67 137.95,-312.96 290,-216 332.99,-188.59 479.48,-172.75 553.07,-166.35"/>
<polygon fill="black" stroke="black" points="553.06,-169.86 562.72,-165.53 552.46,-162.89 553.06,-169.86"/>
</g>
<!-- ed25519&#45;&gt;option -->
<g id="edge152" class="edge">
<title>ed25519&#45;&gt;option</title>
<path fill="none" stroke="black" d="M1901.3,-298.97C1866.48,-292.15 1815.8,-278.37 1779,-252 1730.23,-217.05 1745.3,-180.92 1698,-144 1672.87,-124.39 1639.43,-110.77 1613.31,-102.25"/>
<polygon fill="black" stroke="black" points="1614.65,-99 1604.06,-99.36 1612.56,-105.68 1614.65,-99"/>
</g>
<!-- ed25519&#45;&gt;error -->
<g id="edge153" class="edge">
<title>ed25519&#45;&gt;error</title>
<path fill="none" stroke="black" d="M1944.11,-287.59C1951.27,-253.24 1972.45,-177.21 2024,-144 2102.99,-93.12 2394.83,-89.9 2502.64,-90.51"/>
<polygon fill="black" stroke="black" points="2502.43,-94.01 2512.45,-90.58 2502.48,-87.01 2502.43,-94.01"/>
</g>
<!-- ed25519&#45;&gt;bcs -->
<g id="edge154" class="edge">
<title>ed25519&#45;&gt;bcs</title>
<path fill="none" stroke="black" d="M1954.65,-288.71C1975.58,-263.73 2015.73,-215.83 2039.96,-186.91"/>
<polygon fill="black" stroke="black" points="2042.52,-189.31 2046.26,-179.4 2037.15,-184.82 2042.52,-189.31"/>
</g>
<!-- ed25519&#45;&gt;hash -->
<g id="edge156" class="edge">
<title>ed25519&#45;&gt;hash</title>
<path fill="none" stroke="black" d="M1903.87,-296.7C1843.62,-283.22 1725.28,-256.76 1665.07,-243.29"/>
<polygon fill="black" stroke="black" points="1666.19,-239.95 1655.67,-241.19 1664.66,-246.79 1666.19,-239.95"/>
</g>
<!-- ed25519&#45;&gt;type_info -->
<g id="edge155" class="edge">
<title>ed25519&#45;&gt;type_info</title>
<path fill="none" stroke="black" d="M1918.57,-290.33C1903.41,-280.41 1883.15,-267.15 1866.26,-256.1"/>
<polygon fill="black" stroke="black" points="1868.32,-253.27 1858.04,-250.72 1864.49,-259.13 1868.32,-253.27"/>
</g>
<!-- multi_ed25519&#45;&gt;option -->
<g id="edge157" class="edge">
<title>multi_ed25519&#45;&gt;option</title>
<path fill="none" stroke="black" d="M1893.77,-360.71C1879.64,-350.55 1861.41,-336.98 1846,-324 1828.2,-309.02 1825.38,-303.46 1808,-288 1734.1,-222.27 1643.52,-148.47 1599.14,-112.73"/>
<polygon fill="black" stroke="black" points="1601.56,-110.18 1591.57,-106.64 1597.17,-115.64 1601.56,-110.18"/>
</g>
<!-- multi_ed25519&#45;&gt;error -->
<g id="edge158" class="edge">
<title>multi_ed25519&#45;&gt;error</title>
<path fill="none" stroke="black" d="M1957.24,-363.21C2010.02,-345.26 2105.6,-313.2 2188,-288 2244.1,-270.84 2271.44,-291.3 2315,-252 2353.36,-217.39 2319.69,-178.66 2358,-144 2398.11,-107.71 2461.48,-96.12 2502.65,-92.51"/>
<polygon fill="black" stroke="black" points="2502.67,-96.02 2512.38,-91.78 2502.15,-89.04 2502.67,-96.02"/>
</g>
<!-- multi_ed25519&#45;&gt;features -->
<g id="edge159" class="edge">
<title>multi_ed25519&#45;&gt;features</title>
<path fill="none" stroke="black" d="M1877.56,-363.13C1778.62,-328.47 1521.59,-239.16 1434,-216 1361.93,-196.94 1277,-180.6 1225.09,-171.28"/>
<polygon fill="black" stroke="black" points="1225.85,-167.86 1215.39,-169.55 1224.62,-174.75 1225.85,-167.86"/>
</g>
<!-- multi_ed25519&#45;&gt;bcs -->
<g id="edge160" class="edge">
<title>multi_ed25519&#45;&gt;bcs</title>
<path fill="none" stroke="black" d="M1906.41,-359.88C1893.84,-340.58 1871.35,-309.14 1846,-288 1820.04,-266.35 1796.35,-281.01 1779,-252 1770.79,-238.27 1768.79,-228.32 1779,-216 1809.4,-179.33 1952.12,-167.85 2021.69,-164.41"/>
<polygon fill="black" stroke="black" points="2021.65,-167.91 2031.48,-163.96 2021.33,-160.92 2021.65,-167.91"/>
</g>
<!-- multi_ed25519&#45;&gt;hash -->
<g id="edge161" class="edge">
<title>multi_ed25519&#45;&gt;hash</title>
<path fill="none" stroke="black" d="M1885.54,-361.7C1865.73,-351.7 1839.86,-337.94 1818,-324 1795.51,-309.67 1793.47,-300.66 1770,-288 1728.42,-265.58 1714.12,-268.86 1670,-252 1667.3,-250.97 1664.51,-249.88 1661.71,-248.78"/>
<polygon fill="black" stroke="black" points="1663.03,-245.54 1652.45,-245.08 1660.44,-252.04 1663.03,-245.54"/>
</g>
<!-- multi_ed25519&#45;&gt;ed25519 -->
<g id="edge162" class="edge">
<title>multi_ed25519&#45;&gt;ed25519</title>
<path fill="none" stroke="black" d="M1922.93,-359.7C1925.49,-352.24 1928.55,-343.32 1931.41,-334.97"/>
<polygon fill="black" stroke="black" points="1934.71,-336.13 1934.64,-325.54 1928.09,-333.86 1934.71,-336.13"/>
</g>
<!-- chain_id&#45;&gt;system_addresses -->
<g id="edge163" class="edge">
<title>chain_id&#45;&gt;system_addresses</title>
<path fill="none" stroke="black" d="M1648.39,-363.5C1628.56,-353.44 1601.1,-339.51 1578.4,-328"/>
<polygon fill="black" stroke="black" points="1580.21,-324.99 1569.71,-323.59 1577.04,-331.24 1580.21,-324.99"/>
</g>
<!-- table_with_length&#45;&gt;error -->
<g id="edge164" class="edge">
<title>table_with_length&#45;&gt;error</title>
<path fill="none" stroke="black" d="M3258.11,-151.81C3237.63,-149.08 3214.89,-146.23 3194,-144 2963.25,-119.42 2685.4,-100.27 2583.22,-93.57"/>
<polygon fill="black" stroke="black" points="2583.64,-90.09 2573.43,-92.94 2583.19,-97.08 2583.64,-90.09"/>
</g>
<!-- table_with_length&#45;&gt;table -->
<g id="edge165" class="edge">
<title>table_with_length&#45;&gt;table</title>
<path fill="none" stroke="black" d="M3366,-146.67C3404.72,-133.76 3460.95,-115.02 3497.25,-102.92"/>
<polygon fill="black" stroke="black" points="3498.02,-106.35 3506.4,-99.87 3495.81,-99.71 3498.02,-106.35"/>
</g>
<!-- aggregator_factory&#45;&gt;error -->
<g id="edge166" class="edge">
<title>aggregator_factory&#45;&gt;error</title>
<path fill="none" stroke="black" d="M2817.35,-361.07C2801.59,-352.03 2783.45,-339.42 2771,-324 2715.88,-255.75 2757.28,-200.3 2690,-144 2649.58,-110.17 2625.83,-127.85 2577,-108 2576.22,-107.68 2575.43,-107.36 2574.64,-107.02"/>
<polygon fill="black" stroke="black" points="2576.28,-103.92 2565.73,-102.94 2573.36,-110.28 2576.28,-103.92"/>
</g>
<!-- aggregator_factory&#45;&gt;system_addresses -->
<g id="edge168" class="edge">
<title>aggregator_factory&#45;&gt;system_addresses</title>
<path fill="none" stroke="black" d="M2771.8,-372.83C2540.94,-360.52 1863.55,-324.41 1622.98,-311.58"/>
<polygon fill="black" stroke="black" points="1623.2,-308.09 1613.03,-311.05 1622.83,-315.08 1623.2,-308.09"/>
</g>
<!-- aggregator_factory&#45;&gt;table -->
<g id="edge167" class="edge">
<title>aggregator_factory&#45;&gt;table</title>
<path fill="none" stroke="black" d="M2926.41,-371.72C3076.1,-359.84 3400.32,-326.07 3480,-252 3499.57,-233.81 3518.04,-160.43 3527.13,-119.3"/>
<polygon fill="black" stroke="black" points="3530.53,-120.14 3529.22,-109.62 3523.68,-118.66 3530.53,-120.14"/>
</g>
<!-- aggregator_factory&#45;&gt;aggregator -->
<g id="edge169" class="edge">
<title>aggregator_factory&#45;&gt;aggregator</title>
<path fill="none" stroke="black" d="M2845.06,-359.7C2842.92,-352.24 2840.38,-343.32 2837.99,-334.97"/>
<polygon fill="black" stroke="black" points="2841.42,-334.21 2835.3,-325.56 2834.68,-336.14 2841.42,-334.21"/>
</g>
<!-- optional_aggregator&#45;&gt;option -->
<g id="edge170" class="edge">
<title>optional_aggregator&#45;&gt;option</title>
<path fill="none" stroke="black" d="M2707.56,-432.91C2642.62,-401.25 2491.44,-330.28 2358,-288 2286.45,-265.33 2257.88,-289.74 2193,-252 2137.23,-219.56 2153.52,-173.21 2096,-144 2012.83,-101.76 1729.39,-93.19 1617.74,-91.44"/>
<polygon fill="black" stroke="black" points="1618.11,-87.95 1608.06,-91.31 1618.01,-94.95 1618.11,-87.95"/>
</g>
<!-- optional_aggregator&#45;&gt;error -->
<g id="edge171" class="edge">
<title>optional_aggregator&#45;&gt;error</title>
<path fill="none" stroke="black" d="M2740.56,-431.52C2741.23,-379.55 2735.78,-224.64 2652,-144 2625.36,-118.36 2610.2,-124.27 2577,-108 2576.39,-107.7 2575.77,-107.4 2575.15,-107.09"/>
<polygon fill="black" stroke="black" points="2576.79,-104 2566.28,-102.7 2573.69,-110.27 2576.79,-104"/>
</g>
<!-- optional_aggregator&#45;&gt;aggregator -->
<g id="edge172" class="edge">
<title>optional_aggregator&#45;&gt;aggregator</title>
<path fill="none" stroke="black" d="M2740.42,-431.59C2741.64,-412.59 2745.86,-381.97 2760,-360 2768.27,-347.16 2780.79,-336.25 2792.97,-327.72"/>
<polygon fill="black" stroke="black" points="2794.87,-330.66 2801.31,-322.24 2791.03,-324.81 2794.87,-330.66"/>
</g>
<!-- optional_aggregator&#45;&gt;aggregator_factory -->
<g id="edge173" class="edge">
<title>optional_aggregator&#45;&gt;aggregator_factory</title>
<path fill="none" stroke="black" d="M2766.07,-432.41C2780.59,-423.17 2798.87,-411.54 2814.66,-401.49"/>
<polygon fill="black" stroke="black" points="2816.28,-404.6 2822.84,-396.28 2812.53,-398.7 2816.28,-404.6"/>
</g>
<!-- simple_map&#45;&gt;vector -->
<g id="edge174" class="edge">
<title>simple_map&#45;&gt;vector</title>
<path fill="none" stroke="black" d="M2769.07,-146.27C2727.74,-126.51 2650.42,-91.65 2581,-72 2484.79,-44.77 2368.1,-29.81 2305.62,-23.21"/>
<polygon fill="black" stroke="black" points="2306.05,-19.73 2295.75,-22.19 2305.33,-26.7 2306.05,-19.73"/>
</g>
<!-- simple_map&#45;&gt;option -->
<g id="edge175" class="edge">
<title>simple_map&#45;&gt;option</title>
<path fill="none" stroke="black" d="M2743.09,-157.81C2535.06,-145.94 1808,-104.46 1617.81,-93.61"/>
<polygon fill="black" stroke="black" points="1618.02,-90.12 1607.84,-93.04 1617.62,-97.11 1618.02,-90.12"/>
</g>
<!-- simple_map&#45;&gt;error -->
<g id="edge176" class="edge">
<title>simple_map&#45;&gt;error</title>
<path fill="none" stroke="black" d="M2757.01,-149.52C2707.74,-136.05 2626.82,-113.92 2579.87,-101.08"/>
<polygon fill="black" stroke="black" points="2581.02,-97.77 2570.45,-98.51 2579.17,-104.52 2581.02,-97.77"/>
</g>
<!-- aptos_hash&#45;&gt;error -->
<g id="edge177" class="edge">
<title>aptos_hash&#45;&gt;error</title>
<path fill="none" stroke="black" d="M2261.91,-216.07C2272.32,-195.74 2292.54,-162.11 2320,-144 2376.2,-106.94 2455.5,-95.71 2502.83,-92.36"/>
<polygon fill="black" stroke="black" points="2502.86,-95.87 2512.63,-91.76 2502.44,-88.88 2502.86,-95.87"/>
</g>
<!-- aptos_hash&#45;&gt;features -->
<g id="edge178" class="edge">
<title>aptos_hash&#45;&gt;features</title>
<path fill="none" stroke="black" d="M2203.14,-229.69C2021.99,-217.92 1409.4,-178.11 1228.01,-166.32"/>
<polygon fill="black" stroke="black" points="1228.41,-162.83 1218.21,-165.68 1227.96,-169.82 1228.41,-162.83"/>
</g>
<!-- aptos_hash&#45;&gt;bcs -->
<g id="edge179" class="edge">
<title>aptos_hash&#45;&gt;bcs</title>
<path fill="none" stroke="black" d="M2218.87,-220.32C2183.5,-207.56 2129.29,-188 2094.24,-175.35"/>
<polygon fill="black" stroke="black" points="2095.6,-172.12 2085,-172.02 2093.22,-178.71 2095.6,-172.12"/>
</g>
</g>
</svg>
