<?xml version="1.0" encoding="UTF-8" standalone="no"?>
<!DOCTYPE svg PUBLIC "-//W3C//DTD SVG 1.1//EN"
 "http://www.w3.org/Graphics/SVG/1.1/DTD/svg11.dtd">
<!-- Generated by graphviz version 12.1.2 (20240928.0832)
 -->
<!-- Title: G Pages: 1 -->
<svg width="154pt" height="188pt"
 viewBox="0.00 0.00 153.75 188.00" xmlns="http://www.w3.org/2000/svg" xmlns:xlink="http://www.w3.org/1999/xlink">
<g id="graph0" class="graph" transform="scale(1 1) rotate(0) translate(4 184)">
<title>G</title>
<polygon fill="white" stroke="none" points="-4,4 -4,-184 149.75,-184 149.75,4 -4,4"/>
<!-- mechanics -->
<g id="node1" class="node">
<title>mechanics</title>
<ellipse fill="none" stroke="black" cx="50.33" cy="-18" rx="50.33" ry="18"/>
<text text-anchor="middle" x="50.33" y="-12.95" font-family="Times,serif" font-size="14.00">mechanics</text>
</g>
<!-- short_game -->
<g id="node2" class="node">
<title>short_game</title>
<ellipse fill="none" stroke="black" cx="91.33" cy="-90" rx="54.42" ry="18"/>
<text text-anchor="middle" x="91.33" y="-84.95" font-family="Times,serif" font-size="14.00">short_game</text>
</g>
<!-- short_game&#45;&gt;mechanics -->
<g id="edge1" class="edge">
<title>short_game&#45;&gt;mechanics</title>
<path fill="none" stroke="black" d="M81.4,-72.05C76.77,-64.14 71.14,-54.54 65.96,-45.69"/>
<polygon fill="black" stroke="black" points="69,-43.95 60.93,-37.1 62.96,-47.49 69,-43.95"/>
</g>
<!-- router -->
<g id="node3" class="node">
<title>router</title>
<ellipse fill="none" stroke="black" cx="50.33" cy="-162" rx="32.93" ry="18"/>
<text text-anchor="middle" x="50.33" y="-156.95" font-family="Times,serif" font-size="14.00">router</text>
</g>
<!-- router&#45;&gt;mechanics -->
<g id="edge2" class="edge">
<title>router&#45;&gt;mechanics</title>
<path fill="none" stroke="black" d="M41.43,-144.35C36.49,-134.17 30.86,-120.7 28.33,-108 25.2,-92.31 25.2,-87.69 28.33,-72 30.04,-63.4 33.18,-54.45 36.55,-46.41"/>
<polygon fill="black" stroke="black" points="39.65,-48.05 40.57,-37.5 33.27,-45.17 39.65,-48.05"/>
</g>
<!-- router&#45;&gt;short_game -->
<g id="edge3" class="edge">
<title>router&#45;&gt;short_game</title>
<path fill="none" stroke="black" d="M60.04,-144.41C64.72,-136.42 70.45,-126.64 75.72,-117.64"/>
<polygon fill="black" stroke="black" points="78.6,-119.66 80.63,-109.26 72.56,-116.12 78.6,-119.66"/>
</g>
</g>
</svg>
