<?xml version="1.0" encoding="UTF-8" standalone="no"?>
<!DOCTYPE svg PUBLIC "-//W3C//DTD SVG 1.1//EN"
 "http://www.w3.org/Graphics/SVG/1.1/DTD/svg11.dtd">
<!-- Generated by graphviz version 12.1.2 (20240928.0832)
 -->
<!-- Title: G Pages: 1 -->
<svg width="3936pt" height="1124pt"
 viewBox="0.00 0.00 3936.00 1124.00" xmlns="http://www.w3.org/2000/svg" xmlns:xlink="http://www.w3.org/1999/xlink">
<g id="graph0" class="graph" transform="scale(1 1) rotate(0) translate(4 1120)">
<title>G</title>
<polygon fill="white" stroke="none" points="-4,4 -4,-1120 3932,-1120 3932,4 -4,4"/>
<!-- mechanics -->
<g id="node1" class="node">
<title>mechanics</title>
<ellipse fill="none" stroke="black" cx="2080" cy="-1098" rx="50.33" ry="18"/>
<text text-anchor="middle" x="2080" y="-1092.95" font-family="Times,serif" font-size="14.00">mechanics</text>
</g>
<!-- vector -->
<g id="node2" class="node">
<title>vector</title>
<ellipse fill="none" stroke="black" cx="2747" cy="-18" rx="33.95" ry="18"/>
<text text-anchor="middle" x="2747" y="-12.95" font-family="Times,serif" font-size="14.00">vector</text>
</g>
<!-- mechanics&#45;&gt;vector -->
<g id="edge1" class="edge">
<title>mechanics&#45;&gt;vector</title>
<path fill="none" stroke="black" d="M2130.39,-1095.84C2426.57,-1088.68 3928,-1047.81 3928,-955 3928,-955 3928,-955 3928,-161 3928,-114.96 3914.48,-95.68 3875,-72 3781.14,-15.7 2992.7,-17.29 2792.88,-18.62"/>
<polygon fill="black" stroke="black" points="2792.87,-15.12 2782.9,-18.69 2792.92,-22.12 2792.87,-15.12"/>
</g>
<!-- option -->
<g id="node3" class="node">
<title>option</title>
<ellipse fill="none" stroke="black" cx="1351" cy="-90" rx="34.46" ry="18"/>
<text text-anchor="middle" x="1351" y="-84.95" font-family="Times,serif" font-size="14.00">option</text>
</g>
<!-- mechanics&#45;&gt;option -->
<g id="edge2" class="edge">
<title>mechanics&#45;&gt;option</title>
<path fill="none" stroke="black" d="M2029.77,-1096.4C1762.97,-1093.08 517.66,-1075.96 349,-1044 255.77,-1026.33 208.67,-1044.96 148,-972 75.7,-885.06 91.39,-830.99 113,-720 159.18,-482.8 162.06,-401.44 317,-216 336.21,-193.01 349.5,-197.26 374,-180 395.22,-165.05 395.71,-153.16 420,-144 503.16,-112.65 1128.6,-96.09 1304.88,-92.01"/>
<polygon fill="black" stroke="black" points="1304.88,-95.51 1314.8,-91.78 1304.72,-88.51 1304.88,-95.51"/>
</g>
<!-- signer -->
<g id="node4" class="node">
<title>signer</title>
<ellipse fill="none" stroke="black" cx="426" cy="-90" rx="33.44" ry="18"/>
<text text-anchor="middle" x="426" y="-84.95" font-family="Times,serif" font-size="14.00">signer</text>
</g>
<!-- mechanics&#45;&gt;signer -->
<g id="edge3" class="edge">
<title>mechanics&#45;&gt;signer</title>
<path fill="none" stroke="black" d="M2029.59,-1096.86C1747.1,-1095.92 366.7,-1089.01 183,-1044 95.16,-1022.48 0,-1045.44 0,-955 0,-955 0,-955 0,-665 0,-568.4 38,-547.6 38,-451 38,-451 38,-451 38,-305 38,-222.36 63.38,-191.5 131,-144 170.73,-116.09 309.29,-100.71 381.49,-94.42"/>
<polygon fill="black" stroke="black" points="381.72,-97.91 391.39,-93.58 381.13,-90.94 381.72,-97.91"/>
</g>
<!-- type_info -->
<g id="node5" class="node">
<title>type_info</title>
<ellipse fill="none" stroke="black" cx="2494" cy="-234" rx="46.23" ry="18"/>
<text text-anchor="middle" x="2494" y="-228.95" font-family="Times,serif" font-size="14.00">type_info</text>
</g>
<!-- mechanics&#45;&gt;type_info -->
<g id="edge4" class="edge">
<title>mechanics&#45;&gt;type_info</title>
<path fill="none" stroke="black" d="M2130.57,-1096.56C2281.93,-1093.89 2721,-1075.75 2721,-955 2721,-955 2721,-955 2721,-809 2721,-708.07 2645,-695.93 2645,-595 2645,-595 2645,-595 2645,-521 2645,-413.13 2559.96,-306.09 2517.52,-259.39"/>
<polygon fill="black" stroke="black" points="2520.26,-257.2 2510.9,-252.24 2515.12,-261.95 2520.26,-257.2"/>
</g>
<!-- event -->
<g id="node6" class="node">
<title>event</title>
<ellipse fill="none" stroke="black" cx="1017" cy="-378" rx="30.88" ry="18"/>
<text text-anchor="middle" x="1017" y="-372.95" font-family="Times,serif" font-size="14.00">event</text>
</g>
<!-- mechanics&#45;&gt;event -->
<g id="edge5" class="edge">
<title>mechanics&#45;&gt;event</title>
<path fill="none" stroke="black" d="M2029.91,-1096.01C1726.93,-1089.67 152,-1052.07 152,-955 152,-955 152,-955 152,-809 152,-621.79 809.87,-434.07 978.17,-389.12"/>
<polygon fill="black" stroke="black" points="978.97,-392.52 987.74,-386.58 977.17,-385.76 978.97,-392.52"/>
</g>
<!-- object -->
<g id="node7" class="node">
<title>object</title>
<ellipse fill="none" stroke="black" cx="1368" cy="-522" rx="33.44" ry="18"/>
<text text-anchor="middle" x="1368" y="-516.95" font-family="Times,serif" font-size="14.00">object</text>
</g>
<!-- mechanics&#45;&gt;object -->
<g id="edge6" class="edge">
<title>mechanics&#45;&gt;object</title>
<path fill="none" stroke="black" d="M2043.74,-1085.1C1954.48,-1054.4 1720.35,-965.18 1569,-828 1476.08,-743.78 1406.78,-607.67 1380.05,-550.1"/>
<polygon fill="black" stroke="black" points="1383.39,-549 1376.05,-541.36 1377.03,-551.91 1383.39,-549"/>
</g>
<!-- fungible_asset -->
<g id="node8" class="node">
<title>fungible_asset</title>
<ellipse fill="none" stroke="black" cx="1092" cy="-594" rx="64.15" ry="18"/>
<text text-anchor="middle" x="1092" y="-588.95" font-family="Times,serif" font-size="14.00">fungible_asset</text>
</g>
<!-- mechanics&#45;&gt;fungible_asset -->
<g id="edge7" class="edge">
<title>mechanics&#45;&gt;fungible_asset</title>
<path fill="none" stroke="black" d="M2029.63,-1095.69C1884.64,-1091.53 1473.38,-1076.93 1423,-1044 1255.72,-934.66 1356.26,-784.18 1210,-648 1192.35,-631.57 1168.75,-619.6 1147.3,-611.24"/>
<polygon fill="black" stroke="black" points="1148.66,-608.01 1138.07,-607.83 1146.24,-614.58 1148.66,-608.01"/>
</g>
<!-- timestamp -->
<g id="node9" class="node">
<title>timestamp</title>
<ellipse fill="none" stroke="black" cx="3034" cy="-522" rx="50.33" ry="18"/>
<text text-anchor="middle" x="3034" y="-516.95" font-family="Times,serif" font-size="14.00">timestamp</text>
</g>
<!-- mechanics&#45;&gt;timestamp -->
<g id="edge8" class="edge">
<title>mechanics&#45;&gt;timestamp</title>
<path fill="none" stroke="black" d="M2130.05,-1095.1C2330.16,-1086.85 3062,-1050.17 3062,-955 3062,-955 3062,-955 3062,-809 3062,-714.32 3046.61,-602.83 3038.65,-551.5"/>
<polygon fill="black" stroke="black" points="3042.14,-551.18 3037.13,-541.85 3035.23,-552.27 3042.14,-551.18"/>
</g>
<!-- simple_map -->
<g id="node10" class="node">
<title>simple_map</title>
<ellipse fill="none" stroke="black" cx="3109" cy="-162" rx="56.98" ry="18"/>
<text text-anchor="middle" x="3109" y="-156.95" font-family="Times,serif" font-size="14.00">simple_map</text>
</g>
<!-- mechanics&#45;&gt;simple_map -->
<g id="edge9" class="edge">
<title>mechanics&#45;&gt;simple_map</title>
<path fill="none" stroke="black" d="M2130.25,-1095.99C2340.91,-1091.58 3147.1,-1072.97 3257,-1044 3341.38,-1021.76 3432,-1042.26 3432,-955 3432,-955 3432,-955 3432,-449 3432,-404.38 3344.92,-318.12 3312,-288 3297.95,-275.14 3199.18,-216.17 3144.77,-184.03"/>
<polygon fill="black" stroke="black" points="3146.85,-181.19 3136.46,-179.13 3143.29,-187.22 3146.85,-181.19"/>
</g>
<!-- smart_table -->
<g id="node11" class="node">
<title>smart_table</title>
<ellipse fill="none" stroke="black" cx="3177" cy="-306" rx="54.42" ry="18"/>
<text text-anchor="middle" x="3177" y="-300.95" font-family="Times,serif" font-size="14.00">smart_table</text>
</g>
<!-- mechanics&#45;&gt;smart_table -->
<g id="edge10" class="edge">
<title>mechanics&#45;&gt;smart_table</title>
<path fill="none" stroke="black" d="M2130.64,-1097.11C2310.18,-1097.06 2915.49,-1093.16 3102,-1044 3187.53,-1021.46 3280,-1043.45 3280,-955 3280,-955 3280,-955 3280,-521 3280,-446.69 3228.95,-370.94 3198.73,-332.62"/>
<polygon fill="black" stroke="black" points="3201.49,-330.47 3192.49,-324.88 3196.04,-334.86 3201.49,-330.47"/>
</g>
<!-- session -->
<g id="node12" class="node">
<title>session</title>
<ellipse fill="none" stroke="black" cx="3100" cy="-594" rx="37.53" ry="18"/>
<text text-anchor="middle" x="3100" y="-588.95" font-family="Times,serif" font-size="14.00">session</text>
</g>
<!-- mechanics&#45;&gt;session -->
<g id="edge11" class="edge">
<title>mechanics&#45;&gt;session</title>
<path fill="none" stroke="black" d="M2130.34,-1095.95C2327.6,-1091.63 3038.92,-1074 3076,-1044 3107.85,-1018.23 3100,-995.97 3100,-955 3100,-955 3100,-955 3100,-737 3100,-697.74 3100,-652.38 3100,-623.69"/>
<polygon fill="black" stroke="black" points="3103.5,-624 3100,-614 3096.5,-624 3103.5,-624"/>
</g>
<!-- trust_coin -->
<g id="node13" class="node">
<title>trust_coin</title>
<ellipse fill="none" stroke="black" cx="809" cy="-954" rx="47.77" ry="18"/>
<text text-anchor="middle" x="809" y="-948.95" font-family="Times,serif" font-size="14.00">trust_coin</text>
</g>
<!-- mechanics&#45;&gt;trust_coin -->
<g id="edge12" class="edge">
<title>mechanics&#45;&gt;trust_coin</title>
<path fill="none" stroke="black" d="M2029.73,-1095.86C1856.33,-1091.7 1283.89,-1075.81 1103,-1044 1011.66,-1027.94 908.74,-992.63 852.13,-971.63"/>
<polygon fill="black" stroke="black" points="853.45,-968.39 842.86,-968.16 851,-974.95 853.45,-968.39"/>
</g>
<!-- rewards_pool -->
<g id="node14" class="node">
<title>rewards_pool</title>
<ellipse fill="none" stroke="black" cx="1173" cy="-1026" rx="61.08" ry="18"/>
<text text-anchor="middle" x="1173" y="-1020.95" font-family="Times,serif" font-size="14.00">rewards_pool</text>
</g>
<!-- mechanics&#45;&gt;rewards_pool -->
<g id="edge13" class="edge">
<title>mechanics&#45;&gt;rewards_pool</title>
<path fill="none" stroke="black" d="M2030.46,-1094C1911.17,-1086.66 1598.54,-1066.72 1338,-1044 1305.95,-1041.2 1270.44,-1037.61 1240.61,-1034.45"/>
<polygon fill="black" stroke="black" points="1241.29,-1031 1230.97,-1033.42 1240.55,-1037.96 1241.29,-1031"/>
</g>
<!-- utils -->
<g id="node15" class="node">
<title>utils</title>
<ellipse fill="none" stroke="black" cx="3276" cy="-306" rx="27" ry="18"/>
<text text-anchor="middle" x="3276" y="-300.95" font-family="Times,serif" font-size="14.00">utils</text>
</g>
<!-- mechanics&#45;&gt;utils -->
<g id="edge14" class="edge">
<title>mechanics&#45;&gt;utils</title>
<path fill="none" stroke="black" d="M2130.42,-1096.28C2334.45,-1093.15 3092.86,-1079.21 3194,-1044 3258.07,-1021.69 3318,-1022.84 3318,-955 3318,-955 3318,-955 3318,-521 3318,-453.11 3297.4,-375.34 3285.05,-334.84"/>
<polygon fill="black" stroke="black" points="3288.43,-333.93 3282.11,-325.42 3281.75,-336.01 3288.43,-333.93"/>
</g>
<!-- option&#45;&gt;vector -->
<g id="edge15" class="edge">
<title>option&#45;&gt;vector</title>
<path fill="none" stroke="black" d="M1385.51,-87.27C1574.86,-77.78 2486.92,-32.04 2701.65,-21.27"/>
<polygon fill="black" stroke="black" points="2701.75,-24.77 2711.56,-20.78 2701.4,-17.78 2701.75,-24.77"/>
</g>
<!-- string -->
<g id="node16" class="node">
<title>string</title>
<ellipse fill="none" stroke="black" cx="924" cy="-162" rx="31.9" ry="18"/>
<text text-anchor="middle" x="924" y="-156.95" font-family="Times,serif" font-size="14.00">string</text>
</g>
<!-- type_info&#45;&gt;string -->
<g id="edge16" class="edge">
<title>type_info&#45;&gt;string</title>
<path fill="none" stroke="black" d="M2448.87,-229.47C2399.73,-225.72 2318.82,-219.82 2249,-216 1745.28,-188.46 1133.09,-169.23 967.19,-164.27"/>
<polygon fill="black" stroke="black" points="967.42,-160.77 957.32,-163.97 967.21,-167.77 967.42,-160.77"/>
</g>
<!-- error -->
<g id="node17" class="node">
<title>error</title>
<ellipse fill="none" stroke="black" cx="2739" cy="-90" rx="28.83" ry="18"/>
<text text-anchor="middle" x="2739" y="-84.95" font-family="Times,serif" font-size="14.00">error</text>
</g>
<!-- type_info&#45;&gt;error -->
<g id="edge17" class="edge">
<title>type_info&#45;&gt;error</title>
<path fill="none" stroke="black" d="M2501.09,-215.92C2510.32,-195.76 2528.37,-162.62 2554,-144 2597.33,-112.52 2658.93,-99.68 2698.93,-94.48"/>
<polygon fill="black" stroke="black" points="2699.34,-97.96 2708.86,-93.31 2698.51,-91.01 2699.34,-97.96"/>
</g>
<!-- features -->
<g id="node18" class="node">
<title>features</title>
<ellipse fill="none" stroke="black" cx="2162" cy="-162" rx="40.09" ry="18"/>
<text text-anchor="middle" x="2162" y="-156.95" font-family="Times,serif" font-size="14.00">features</text>
</g>
<!-- type_info&#45;&gt;features -->
<g id="edge18" class="edge">
<title>type_info&#45;&gt;features</title>
<path fill="none" stroke="black" d="M2453.95,-224.56C2392.29,-211.56 2274.38,-186.69 2208.85,-172.88"/>
<polygon fill="black" stroke="black" points="2209.62,-169.46 2199.12,-170.83 2208.18,-176.31 2209.62,-169.46"/>
</g>
<!-- bcs -->
<g id="node19" class="node">
<title>bcs</title>
<ellipse fill="none" stroke="black" cx="1598" cy="-162" rx="27" ry="18"/>
<text text-anchor="middle" x="1598" y="-156.95" font-family="Times,serif" font-size="14.00">bcs</text>
</g>
<!-- type_info&#45;&gt;bcs -->
<g id="edge19" class="edge">
<title>type_info&#45;&gt;bcs</title>
<path fill="none" stroke="black" d="M2448.95,-229.48C2293.46,-217.33 1780.85,-177.29 1636.27,-165.99"/>
<polygon fill="black" stroke="black" points="1636.71,-162.51 1626.47,-165.22 1636.17,-169.49 1636.71,-162.51"/>
</g>
<!-- event&#45;&gt;bcs -->
<g id="edge20" class="edge">
<title>event&#45;&gt;bcs</title>
<path fill="none" stroke="black" d="M1012.68,-360.01C1008.76,-340.25 1005.9,-307.81 1023,-288 1040.98,-267.16 1436.32,-192.8 1560.81,-169.82"/>
<polygon fill="black" stroke="black" points="1561.3,-173.28 1570.5,-168.03 1560.03,-166.4 1561.3,-173.28"/>
</g>
<!-- guid -->
<g id="node20" class="node">
<title>guid</title>
<ellipse fill="none" stroke="black" cx="1059" cy="-306" rx="27.3" ry="18"/>
<text text-anchor="middle" x="1059" y="-300.95" font-family="Times,serif" font-size="14.00">guid</text>
</g>
<!-- event&#45;&gt;guid -->
<g id="edge21" class="edge">
<title>event&#45;&gt;guid</title>
<path fill="none" stroke="black" d="M1026.74,-360.76C1031.72,-352.46 1037.91,-342.15 1043.52,-332.79"/>
<polygon fill="black" stroke="black" points="1046.39,-334.82 1048.53,-324.45 1040.39,-331.22 1046.39,-334.82"/>
</g>
<!-- object&#45;&gt;vector -->
<g id="edge22" class="edge">
<title>object&#45;&gt;vector</title>
<path fill="none" stroke="black" d="M1336.2,-516.14C1288.54,-508.43 1196.06,-491.79 1120,-468 765.48,-357.11 124.3,-337.59 384,-72 426.09,-28.96 2377.55,-20.29 2701.62,-19.15"/>
<polygon fill="black" stroke="black" points="2701.38,-22.65 2711.37,-19.11 2701.36,-15.65 2701.38,-22.65"/>
</g>
<!-- object&#45;&gt;signer -->
<g id="edge23" class="edge">
<title>object&#45;&gt;signer</title>
<path fill="none" stroke="black" d="M1341.82,-510.39C1318.1,-500.45 1282.48,-484.65 1253,-468 1228.21,-453.99 1224.35,-446.76 1200,-432 1171.09,-414.48 1154.98,-421.68 1133,-396 1099.91,-357.35 1135.12,-319.29 1095,-288 1026.54,-234.61 790,-273.92 706,-252 629.76,-232.11 611.89,-219.98 544,-180 510.23,-160.11 474.76,-132.28 451.63,-113.06"/>
<polygon fill="black" stroke="black" points="454.17,-110.62 444.26,-106.87 449.67,-115.98 454.17,-110.62"/>
</g>
<!-- object&#45;&gt;event -->
<g id="edge30" class="edge">
<title>object&#45;&gt;event</title>
<path fill="none" stroke="black" d="M1336.14,-516.21C1296.24,-509.37 1226.49,-494.58 1172,-468 1148.03,-456.31 1146.71,-445.98 1124,-432 1100.74,-417.69 1073.08,-404.07 1051.72,-394.22"/>
<polygon fill="black" stroke="black" points="1053.4,-391.14 1042.85,-390.19 1050.51,-397.52 1053.4,-391.14"/>
</g>
<!-- object&#45;&gt;error -->
<g id="edge24" class="edge">
<title>object&#45;&gt;error</title>
<path fill="none" stroke="black" d="M1401.8,-520.36C1504.11,-518 1819.3,-507.8 2077,-468 2214.65,-446.74 2252.88,-448.22 2382,-396 2440.01,-372.54 2453.34,-362.08 2503,-324 2539.41,-296.08 2545.73,-285.59 2577,-252 2619.77,-206.06 2622.33,-187.06 2668,-144 2681.06,-131.69 2696.96,-119.59 2710.41,-110.07"/>
<polygon fill="black" stroke="black" points="2712.22,-113.07 2718.44,-104.49 2708.23,-107.32 2712.22,-113.07"/>
</g>
<!-- object&#45;&gt;features -->
<g id="edge25" class="edge">
<title>object&#45;&gt;features</title>
<path fill="none" stroke="black" d="M1401.22,-518.92C1555.95,-508.91 2200.81,-463.36 2257,-396 2267.25,-383.71 2263.85,-374.46 2257,-360 2235.36,-314.33 2210.92,-316.22 2169,-288 2141.28,-269.34 2120.06,-280.73 2103,-252 2094.83,-238.24 2096.48,-230.61 2103,-216 2108.64,-203.36 2118.95,-192.47 2129.39,-183.91"/>
<polygon fill="black" stroke="black" points="2131.44,-186.75 2137.28,-177.91 2127.2,-181.17 2131.44,-186.75"/>
</g>
<!-- object&#45;&gt;bcs -->
<g id="edge26" class="edge">
<title>object&#45;&gt;bcs</title>
<path fill="none" stroke="black" d="M1354.64,-505.25C1331.25,-475.64 1287.75,-410.15 1314,-360 1367.42,-257.94 1500.43,-198.17 1563.62,-174.65"/>
<polygon fill="black" stroke="black" points="1564.58,-178.02 1572.79,-171.32 1562.19,-171.44 1564.58,-178.02"/>
</g>
<!-- object&#45;&gt;guid -->
<g id="edge28" class="edge">
<title>object&#45;&gt;guid</title>
<path fill="none" stroke="black" d="M1337.73,-513.93C1305.04,-505.61 1252.01,-490.06 1210,-468 1186.39,-455.6 1184.24,-446.72 1162,-432 1135.43,-414.41 1121.44,-419.57 1100,-396 1084.17,-378.6 1073.48,-354.02 1066.99,-335.11"/>
<polygon fill="black" stroke="black" points="1070.33,-334.07 1063.95,-325.61 1063.67,-336.2 1070.33,-334.07"/>
</g>
<!-- hash -->
<g id="node21" class="node">
<title>hash</title>
<ellipse fill="none" stroke="black" cx="1914" cy="-234" rx="27.81" ry="18"/>
<text text-anchor="middle" x="1914" y="-228.95" font-family="Times,serif" font-size="14.00">hash</text>
</g>
<!-- object&#45;&gt;hash -->
<g id="edge27" class="edge">
<title>object&#45;&gt;hash</title>
<path fill="none" stroke="black" d="M1369.22,-503.82C1369.89,-493.46 1370.66,-479.98 1371,-468 1371.45,-452.01 1373.95,-447.73 1371,-432 1364.99,-399.96 1336.35,-385.22 1357,-360 1408.41,-297.22 1458.68,-348.63 1536,-324 1573.54,-312.04 1579.12,-298.81 1617,-288 1729.18,-256 1765.02,-284.7 1877,-252 1878.74,-251.49 1880.5,-250.92 1882.26,-250.29"/>
<polygon fill="black" stroke="black" points="1883.53,-253.55 1891.49,-246.55 1880.9,-247.06 1883.53,-253.55"/>
</g>
<!-- from_bcs -->
<g id="node22" class="node">
<title>from_bcs</title>
<ellipse fill="none" stroke="black" cx="1188" cy="-378" rx="46.23" ry="18"/>
<text text-anchor="middle" x="1188" y="-372.95" font-family="Times,serif" font-size="14.00">from_bcs</text>
</g>
<!-- object&#45;&gt;from_bcs -->
<g id="edge29" class="edge">
<title>object&#45;&gt;from_bcs</title>
<path fill="none" stroke="black" d="M1349.75,-506.6C1318.44,-481.9 1254.25,-431.27 1216.84,-401.75"/>
<polygon fill="black" stroke="black" points="1219.14,-399.11 1209.13,-395.67 1214.81,-404.61 1219.14,-399.11"/>
</g>
<!-- create_signer -->
<g id="node23" class="node">
<title>create_signer</title>
<ellipse fill="none" stroke="black" cx="1426" cy="-378" rx="60.05" ry="18"/>
<text text-anchor="middle" x="1426" y="-372.95" font-family="Times,serif" font-size="14.00">create_signer</text>
</g>
<!-- object&#45;&gt;create_signer -->
<g id="edge31" class="edge">
<title>object&#45;&gt;create_signer</title>
<path fill="none" stroke="black" d="M1390.37,-508.14C1404.02,-498.91 1420.29,-485.1 1428,-468 1436.51,-449.14 1435.57,-425.66 1432.74,-407.55"/>
<polygon fill="black" stroke="black" points="1436.18,-406.94 1430.9,-397.76 1429.3,-408.23 1436.18,-406.94"/>
</g>
<!-- account -->
<g id="node24" class="node">
<title>account</title>
<ellipse fill="none" stroke="black" cx="1813" cy="-450" rx="39.58" ry="18"/>
<text text-anchor="middle" x="1813" y="-444.95" font-family="Times,serif" font-size="14.00">account</text>
</g>
<!-- object&#45;&gt;account -->
<g id="edge32" class="edge">
<title>object&#45;&gt;account</title>
<path fill="none" stroke="black" d="M1400,-515.97C1477.12,-503.84 1673.57,-472.93 1764.93,-458.56"/>
<polygon fill="black" stroke="black" points="1765.22,-462.06 1774.56,-457.05 1764.14,-455.14 1765.22,-462.06"/>
</g>
<!-- transaction_context -->
<g id="node25" class="node">
<title>transaction_context</title>
<ellipse fill="none" stroke="black" cx="1785" cy="-234" rx="83.08" ry="18"/>
<text text-anchor="middle" x="1785" y="-228.95" font-family="Times,serif" font-size="14.00">transaction_context</text>
</g>
<!-- object&#45;&gt;transaction_context -->
<g id="edge33" class="edge">
<title>object&#45;&gt;transaction_context</title>
<path fill="none" stroke="black" d="M1367.33,-503.55C1366.06,-485.06 1362.42,-455.37 1352,-432 1343.74,-413.49 1330.58,-415.17 1324,-396 1318.81,-380.87 1314.24,-372.68 1324,-360 1362.14,-310.45 1399.75,-340.72 1460,-324 1515.3,-308.66 1528.7,-303.32 1584,-288 1630,-275.26 1682.12,-261.54 1721.75,-251.25"/>
<polygon fill="black" stroke="black" points="1722.58,-254.65 1731.38,-248.75 1720.82,-247.87 1722.58,-254.65"/>
</g>
<!-- fungible_asset&#45;&gt;option -->
<g id="edge34" class="edge">
<title>fungible_asset&#45;&gt;option</title>
<path fill="none" stroke="black" d="M1077.75,-575.98C1051.62,-543.51 996.86,-469.4 977,-396 964.02,-348.02 973.32,-325.45 1006,-288 1092.3,-189.09 1240.96,-128.37 1311.57,-103.72"/>
<polygon fill="black" stroke="black" points="1312.45,-107.11 1320.77,-100.56 1310.18,-100.49 1312.45,-107.11"/>
</g>
<!-- fungible_asset&#45;&gt;signer -->
<g id="edge36" class="edge">
<title>fungible_asset&#45;&gt;signer</title>
<path fill="none" stroke="black" d="M1040.64,-582.92C1003.02,-574.41 951.34,-560.32 909,-540 686.75,-433.32 633.71,-378.13 487,-180 471.55,-159.14 454.96,-134.78 442.98,-116.83"/>
<polygon fill="black" stroke="black" points="445.95,-114.98 437.51,-108.59 440.12,-118.85 445.95,-114.98"/>
</g>
<!-- fungible_asset&#45;&gt;event -->
<g id="edge39" class="edge">
<title>fungible_asset&#45;&gt;event</title>
<path fill="none" stroke="black" d="M1088.8,-575.59C1082.95,-545.51 1069.11,-482.22 1048,-432 1044.12,-422.78 1038.92,-413.2 1033.89,-404.76"/>
<polygon fill="black" stroke="black" points="1036.97,-403.08 1028.73,-396.42 1031.02,-406.76 1036.97,-403.08"/>
</g>
<!-- fungible_asset&#45;&gt;object -->
<g id="edge42" class="edge">
<title>fungible_asset&#45;&gt;object</title>
<path fill="none" stroke="black" d="M1141.63,-582.21C1186.79,-572.13 1255.18,-556.26 1314,-540 1318.87,-538.65 1323.97,-537.16 1329,-535.64"/>
<polygon fill="black" stroke="black" points="1329.84,-539.04 1338.36,-532.74 1327.77,-532.35 1329.84,-539.04"/>
</g>
<!-- fungible_asset&#45;&gt;string -->
<g id="edge35" class="edge">
<title>fungible_asset&#45;&gt;string</title>
<path fill="none" stroke="black" d="M1040.58,-582.96C1011.43,-575.19 975.75,-561.92 950,-540 893.92,-492.26 886.85,-467.2 868,-396 863.9,-380.53 864.04,-375.5 868,-360 874.77,-333.5 920.23,-278.5 927,-252 932.03,-232.28 931.1,-209.31 929,-191.65"/>
<polygon fill="black" stroke="black" points="932.49,-191.29 927.63,-181.87 925.55,-192.26 932.49,-191.29"/>
</g>
<!-- fungible_asset&#45;&gt;error -->
<g id="edge37" class="edge">
<title>fungible_asset&#45;&gt;error</title>
<path fill="none" stroke="black" d="M1156.32,-592.4C1295.33,-590.32 1633.85,-581.08 1914,-540 2054.81,-519.35 2091.38,-514.14 2226,-468 2370.09,-418.61 2413.04,-412.52 2537,-324 2573.07,-298.24 2576.53,-285.11 2606,-252 2648.12,-204.67 2694.71,-146.94 2720.04,-115.06"/>
<polygon fill="black" stroke="black" points="2722.49,-117.6 2725.96,-107.59 2717,-113.26 2722.49,-117.6"/>
</g>
<!-- fungible_asset&#45;&gt;features -->
<g id="edge38" class="edge">
<title>fungible_asset&#45;&gt;features</title>
<path fill="none" stroke="black" d="M1153.96,-588.88C1296.53,-579.27 1644.51,-555.06 1761,-540 1940.14,-516.84 1990.63,-528.02 2161,-468 2224.03,-445.79 2258.89,-453.46 2293,-396 2301.17,-382.24 2295.36,-375.82 2293,-360 2283.11,-293.81 2290.04,-268.86 2249,-216 2236.79,-200.27 2218.48,-188.12 2201.81,-179.45"/>
<polygon fill="black" stroke="black" points="2203.58,-176.42 2193.06,-175.16 2200.5,-182.7 2203.58,-176.42"/>
</g>
<!-- fungible_asset&#45;&gt;create_signer -->
<g id="edge40" class="edge">
<title>fungible_asset&#45;&gt;create_signer</title>
<path fill="none" stroke="black" d="M1116.83,-577.09C1175.91,-539.24 1324.91,-443.77 1392.15,-400.69"/>
<polygon fill="black" stroke="black" points="1393.65,-403.88 1400.18,-395.54 1389.88,-397.99 1393.65,-403.88"/>
</g>
<!-- aggregator_v2 -->
<g id="node26" class="node">
<title>aggregator_v2</title>
<ellipse fill="none" stroke="black" cx="2176" cy="-234" rx="64.15" ry="18"/>
<text text-anchor="middle" x="2176" y="-228.95" font-family="Times,serif" font-size="14.00">aggregator_v2</text>
</g>
<!-- fungible_asset&#45;&gt;aggregator_v2 -->
<g id="edge41" class="edge">
<title>fungible_asset&#45;&gt;aggregator_v2</title>
<path fill="none" stroke="black" d="M1152.85,-587.87C1385.44,-567.6 2208.54,-489.61 2274,-396 2307.14,-348.61 2247.81,-289.92 2207.9,-258.12"/>
<polygon fill="black" stroke="black" points="2210.22,-255.49 2200.17,-252.12 2205.93,-261.02 2210.22,-255.49"/>
</g>
<!-- function_info -->
<g id="node27" class="node">
<title>function_info</title>
<ellipse fill="none" stroke="black" cx="857" cy="-234" rx="61.08" ry="18"/>
<text text-anchor="middle" x="857" y="-228.95" font-family="Times,serif" font-size="14.00">function_info</text>
</g>
<!-- fungible_asset&#45;&gt;function_info -->
<g id="edge43" class="edge">
<title>fungible_asset&#45;&gt;function_info</title>
<path fill="none" stroke="black" d="M1048.52,-580.42C1026.18,-572.06 999.95,-559.06 982,-540 904.9,-458.13 872.51,-322.22 861.62,-263.48"/>
<polygon fill="black" stroke="black" points="865.07,-262.89 859.88,-253.66 858.18,-264.12 865.07,-262.89"/>
</g>
<!-- timestamp&#45;&gt;error -->
<g id="edge44" class="edge">
<title>timestamp&#45;&gt;error</title>
<path fill="none" stroke="black" d="M3051.57,-504.88C3081.11,-475.75 3135.02,-412.49 3109,-360 3073.78,-288.96 3023.84,-307.28 2967,-252 2922.81,-209.03 2929.95,-180.12 2880,-144 2848.9,-121.51 2807.12,-107.39 2777.13,-99.43"/>
<polygon fill="black" stroke="black" points="2778.28,-96.11 2767.72,-97.05 2776.56,-102.9 2778.28,-96.11"/>
</g>
<!-- system_addresses -->
<g id="node28" class="node">
<title>system_addresses</title>
<ellipse fill="none" stroke="black" cx="1703" cy="-306" rx="76.94" ry="18"/>
<text text-anchor="middle" x="1703" y="-300.95" font-family="Times,serif" font-size="14.00">system_addresses</text>
</g>
<!-- timestamp&#45;&gt;system_addresses -->
<g id="edge45" class="edge">
<title>timestamp&#45;&gt;system_addresses</title>
<path fill="none" stroke="black" d="M2986.81,-515.43C2783.23,-491.38 1990.19,-397.63 1984,-396 1943.93,-385.45 1937.19,-373.46 1898,-360 1854.97,-345.22 1805.49,-331.81 1767.14,-322.18"/>
<polygon fill="black" stroke="black" points="1768.14,-318.82 1757.59,-319.8 1766.45,-325.61 1768.14,-318.82"/>
</g>
<!-- simple_map&#45;&gt;vector -->
<g id="edge46" class="edge">
<title>simple_map&#45;&gt;vector</title>
<path fill="none" stroke="black" d="M3074.29,-147.38C3005.92,-120.57 2854.39,-61.12 2784.12,-33.56"/>
<polygon fill="black" stroke="black" points="2785.56,-30.37 2774.97,-29.97 2783,-36.88 2785.56,-30.37"/>
</g>
<!-- simple_map&#45;&gt;option -->
<g id="edge47" class="edge">
<title>simple_map&#45;&gt;option</title>
<path fill="none" stroke="black" d="M3060.6,-152.15C3041.75,-149.04 3019.93,-145.87 3000,-144 2676.24,-113.67 1629.62,-95.45 1397.07,-91.72"/>
<polygon fill="black" stroke="black" points="1397.25,-88.22 1387.2,-91.56 1397.14,-95.22 1397.25,-88.22"/>
</g>
<!-- simple_map&#45;&gt;error -->
<g id="edge48" class="edge">
<title>simple_map&#45;&gt;error</title>
<path fill="none" stroke="black" d="M3065.16,-150.07C3056.19,-147.96 3046.81,-145.83 3038,-144 2945.05,-124.65 2834.9,-106.3 2777.76,-97.11"/>
<polygon fill="black" stroke="black" points="2778.65,-93.71 2768.22,-95.59 2777.54,-100.62 2778.65,-93.71"/>
</g>
<!-- smart_table&#45;&gt;vector -->
<g id="edge49" class="edge">
<title>smart_table&#45;&gt;vector</title>
<path fill="none" stroke="black" d="M3217.67,-293.67C3270.1,-278.98 3354.85,-254.88 3357,-252 3385.75,-213.56 3387.34,-181.19 3357,-144 3285.26,-56.07 2920.92,-28.29 2792.16,-21.14"/>
<polygon fill="black" stroke="black" points="2792.49,-17.66 2782.31,-20.61 2792.11,-24.65 2792.49,-17.66"/>
</g>
<!-- smart_table&#45;&gt;option -->
<g id="edge50" class="edge">
<title>smart_table&#45;&gt;option</title>
<path fill="none" stroke="black" d="M3131.48,-295.69C2993.56,-267.84 2567.87,-184.62 2211,-144 1901.12,-108.72 1525.57,-95.75 1396.85,-92.15"/>
<polygon fill="black" stroke="black" points="1397.13,-88.66 1387.03,-91.89 1396.94,-95.66 1397.13,-88.66"/>
</g>
<!-- smart_table&#45;&gt;type_info -->
<g id="edge52" class="edge">
<title>smart_table&#45;&gt;type_info</title>
<path fill="none" stroke="black" d="M3125.38,-299.71C2999.74,-286.83 2678.83,-253.94 2549.38,-240.68"/>
<polygon fill="black" stroke="black" points="2550.01,-237.22 2539.7,-239.68 2549.29,-244.19 2550.01,-237.22"/>
</g>
<!-- smart_table&#45;&gt;simple_map -->
<g id="edge53" class="edge">
<title>smart_table&#45;&gt;simple_map</title>
<path fill="none" stroke="black" d="M3176.58,-287.66C3175.5,-268.99 3171.85,-238.91 3160,-216 3154.45,-205.28 3146.05,-195.26 3137.66,-186.87"/>
<polygon fill="black" stroke="black" points="3140.16,-184.41 3130.48,-180.1 3135.36,-189.51 3140.16,-184.41"/>
</g>
<!-- smart_table&#45;&gt;error -->
<g id="edge51" class="edge">
<title>smart_table&#45;&gt;error</title>
<path fill="none" stroke="black" d="M3162.93,-288.21C3146.48,-269.21 3117.81,-238.06 3089,-216 3037.48,-176.56 3022.39,-167.74 2962,-144 2899.82,-119.56 2823.29,-104.38 2777.97,-96.83"/>
<polygon fill="black" stroke="black" points="2778.8,-93.42 2768.37,-95.27 2777.68,-100.33 2778.8,-93.42"/>
</g>
<!-- math64 -->
<g id="node29" class="node">
<title>math64</title>
<ellipse fill="none" stroke="black" cx="3309" cy="-234" rx="39.07" ry="18"/>
<text text-anchor="middle" x="3309" y="-228.95" font-family="Times,serif" font-size="14.00">math64</text>
</g>
<!-- smart_table&#45;&gt;math64 -->
<g id="edge54" class="edge">
<title>smart_table&#45;&gt;math64</title>
<path fill="none" stroke="black" d="M3204.99,-290.15C3225.16,-279.46 3252.49,-264.97 3274.08,-253.52"/>
<polygon fill="black" stroke="black" points="3275.63,-256.66 3282.82,-248.88 3272.35,-250.47 3275.63,-256.66"/>
</g>
<!-- table_with_length -->
<g id="node30" class="node">
<title>table_with_length</title>
<ellipse fill="none" stroke="black" cx="3557" cy="-162" rx="77.45" ry="18"/>
<text text-anchor="middle" x="3557" y="-156.95" font-family="Times,serif" font-size="14.00">table_with_length</text>
</g>
<!-- smart_table&#45;&gt;table_with_length -->
<g id="edge55" class="edge">
<title>smart_table&#45;&gt;table_with_length</title>
<path fill="none" stroke="black" d="M3217.96,-293.77C3225.29,-291.81 3232.86,-289.82 3240,-288 3306.44,-271.07 3325.9,-276.32 3390,-252 3437.6,-233.94 3488.77,-205.13 3521.74,-185.21"/>
<polygon fill="black" stroke="black" points="3523.36,-188.32 3530.07,-180.12 3519.72,-182.34 3523.36,-188.32"/>
</g>
<!-- aptos_hash -->
<g id="node31" class="node">
<title>aptos_hash</title>
<ellipse fill="none" stroke="black" cx="3028" cy="-234" rx="51.86" ry="18"/>
<text text-anchor="middle" x="3028" y="-228.95" font-family="Times,serif" font-size="14.00">aptos_hash</text>
</g>
<!-- smart_table&#45;&gt;aptos_hash -->
<g id="edge56" class="edge">
<title>smart_table&#45;&gt;aptos_hash</title>
<path fill="none" stroke="black" d="M3146.49,-290.67C3123.84,-280.03 3092.74,-265.42 3068.09,-253.83"/>
<polygon fill="black" stroke="black" points="3069.87,-250.8 3059.33,-249.72 3066.89,-257.14 3069.87,-250.8"/>
</g>
<!-- session&#45;&gt;vector -->
<g id="edge57" class="edge">
<title>session&#45;&gt;vector</title>
<path fill="none" stroke="black" d="M3130,-582.91C3274.31,-533.95 3890,-320.08 3890,-235 3890,-235 3890,-235 3890,-161 3890,-116.27 3880.74,-96.01 3843,-72 3753.42,-15.01 2988.62,-17.08 2792.62,-18.57"/>
<polygon fill="black" stroke="black" points="2792.81,-15.07 2782.84,-18.65 2792.87,-22.07 2792.81,-15.07"/>
</g>
<!-- session&#45;&gt;option -->
<g id="edge58" class="edge">
<title>session&#45;&gt;option</title>
<path fill="none" stroke="black" d="M3062.62,-591.12C2873.39,-581.36 2020.1,-534.35 1764,-468 1622.38,-431.31 1583.54,-413.74 1468,-324 1433.48,-297.19 1425.72,-288.05 1401,-252 1380.88,-222.65 1376.84,-213.89 1366,-180 1359.71,-160.36 1355.93,-137.38 1353.73,-119.7"/>
<polygon fill="black" stroke="black" points="1357.22,-119.45 1352.62,-109.91 1350.27,-120.24 1357.22,-119.45"/>
</g>
<!-- session&#45;&gt;object -->
<g id="edge59" class="edge">
<title>session&#45;&gt;object</title>
<path fill="none" stroke="black" d="M3062.62,-591.49C2836.94,-582.37 1657.77,-534.71 1412.65,-524.8"/>
<polygon fill="black" stroke="black" points="1413.02,-521.32 1402.88,-524.41 1412.73,-528.31 1413.02,-521.32"/>
</g>
<!-- session&#45;&gt;timestamp -->
<g id="edge60" class="edge">
<title>session&#45;&gt;timestamp</title>
<path fill="none" stroke="black" d="M3085.02,-577.12C3076.79,-568.38 3066.39,-557.35 3057.13,-547.54"/>
<polygon fill="black" stroke="black" points="3059.82,-545.28 3050.41,-540.41 3054.73,-550.09 3059.82,-545.28"/>
</g>
<!-- smart_vector -->
<g id="node32" class="node">
<title>smart_vector</title>
<ellipse fill="none" stroke="black" cx="3419" cy="-306" rx="59.54" ry="18"/>
<text text-anchor="middle" x="3419" y="-300.95" font-family="Times,serif" font-size="14.00">smart_vector</text>
</g>
<!-- session&#45;&gt;smart_vector -->
<g id="edge61" class="edge">
<title>session&#45;&gt;smart_vector</title>
<path fill="none" stroke="black" d="M3114.76,-577.09C3151.37,-538.02 3250.06,-435.06 3342,-360 3355.35,-349.1 3370.88,-338.12 3384.48,-329"/>
<polygon fill="black" stroke="black" points="3386.31,-331.99 3392.72,-323.56 3382.45,-326.15 3386.31,-331.99"/>
</g>
<!-- trust_coin&#45;&gt;vector -->
<g id="edge62" class="edge">
<title>trust_coin&#45;&gt;vector</title>
<path fill="none" stroke="black" d="M760.9,-953.33C633.09,-953.52 287.9,-949.31 187,-900 99.4,-857.19 38,-836.5 38,-739 38,-739 38,-739 38,-665 38,-568.4 0,-547.6 0,-451 0,-451 0,-451 0,-161 0,-74.93 88.58,-93.21 172,-72 299.48,-39.58 2368.63,-21.98 2701.86,-19.35"/>
<polygon fill="black" stroke="black" points="2701.49,-22.85 2711.46,-19.27 2701.44,-15.85 2701.49,-22.85"/>
</g>
<!-- trust_coin&#45;&gt;option -->
<g id="edge63" class="edge">
<title>trust_coin&#45;&gt;option</title>
<path fill="none" stroke="black" d="M761.01,-952.42C673.01,-950.34 490.63,-941.06 445,-900 267.35,-740.15 312,-617.98 312,-379 312,-379 312,-379 312,-305 312,-166.05 447.45,-185.7 580,-144 716.31,-101.12 1159.58,-92.9 1304.61,-91.35"/>
<polygon fill="black" stroke="black" points="1304.64,-94.85 1314.61,-91.25 1304.57,-87.85 1304.64,-94.85"/>
</g>
<!-- trust_coin&#45;&gt;signer -->
<g id="edge65" class="edge">
<title>trust_coin&#45;&gt;signer</title>
<path fill="none" stroke="black" d="M761.47,-951.28C631.64,-946.21 277.82,-929.8 235,-900 66.1,-782.45 122,-656.78 122,-451 122,-451 122,-451 122,-233 122,-187.19 136.84,-170.79 174,-144 206.77,-120.37 318.89,-103.69 381.97,-95.92"/>
<polygon fill="black" stroke="black" points="382.14,-99.43 391.65,-94.76 381.3,-92.48 382.14,-99.43"/>
</g>
<!-- trust_coin&#45;&gt;event -->
<g id="edge66" class="edge">
<title>trust_coin&#45;&gt;event</title>
<path fill="none" stroke="black" d="M791.79,-936.89C753.96,-899.44 669.4,-803.32 702,-720 760.93,-569.36 921.06,-445.33 987.5,-398.78"/>
<polygon fill="black" stroke="black" points="989.49,-401.66 995.72,-393.09 985.51,-395.9 989.49,-401.66"/>
</g>
<!-- trust_coin&#45;&gt;object -->
<g id="edge67" class="edge">
<title>trust_coin&#45;&gt;object</title>
<path fill="none" stroke="black" d="M851.8,-945.45C887.62,-937.81 939.13,-923.68 979,-900 1146.62,-800.44 1297.86,-614.9 1349.32,-547.93"/>
<polygon fill="black" stroke="black" points="1351.99,-550.21 1355.27,-540.13 1346.42,-545.96 1351.99,-550.21"/>
</g>
<!-- trust_coin&#45;&gt;fungible_asset -->
<g id="edge69" class="edge">
<title>trust_coin&#45;&gt;fungible_asset</title>
<path fill="none" stroke="black" d="M820.35,-936.14C842.13,-903.05 889.91,-826.65 916,-756 933,-709.96 906.51,-684.78 939,-648 960.04,-624.18 992.34,-611.06 1021.85,-603.84"/>
<polygon fill="black" stroke="black" points="1022.52,-607.28 1031.51,-601.68 1020.99,-600.45 1022.52,-607.28"/>
</g>
<!-- trust_coin&#45;&gt;timestamp -->
<g id="edge74" class="edge">
<title>trust_coin&#45;&gt;timestamp</title>
<path fill="none" stroke="black" d="M857.1,-953.35C1150.33,-955.07 2689.88,-957.81 2849,-828 2880.74,-802.1 2873,-779.97 2873,-739 2873,-739 2873,-739 2873,-665 2873,-602.8 2941.41,-561.36 2989.05,-540.03"/>
<polygon fill="black" stroke="black" points="2990.28,-543.32 2998.07,-536.14 2987.5,-536.89 2990.28,-543.32"/>
</g>
<!-- trust_coin&#45;&gt;smart_table -->
<g id="edge75" class="edge">
<title>trust_coin&#45;&gt;smart_table</title>
<path fill="none" stroke="black" d="M856.72,-952.46C1128.57,-949.29 2476.15,-932.06 2658,-900 2906.39,-856.21 3026.33,-833.49 3147,-612 3196.56,-521.02 3188.09,-392 3181.19,-335.43"/>
<polygon fill="black" stroke="black" points="3184.68,-335.15 3179.91,-325.69 3177.74,-336.06 3184.68,-335.15"/>
</g>
<!-- trust_coin&#45;&gt;string -->
<g id="edge64" class="edge">
<title>trust_coin&#45;&gt;string</title>
<path fill="none" stroke="black" d="M761.03,-953.71C674.53,-953.66 487.63,-947.45 339,-900 276.08,-879.91 242.53,-884.9 209,-828 200.88,-814.22 207.33,-807.91 209,-792 238.88,-506.74 244.49,-346.31 500,-216 565.91,-182.39 786.53,-168.98 880.75,-164.69"/>
<polygon fill="black" stroke="black" points="880.77,-168.2 890.61,-164.26 880.46,-161.2 880.77,-168.2"/>
</g>
<!-- trust_coin&#45;&gt;function_info -->
<g id="edge68" class="edge">
<title>trust_coin&#45;&gt;function_info</title>
<path fill="none" stroke="black" d="M780.19,-939.37C763.23,-930.17 742.36,-916.69 728,-900 674.73,-838.09 686.48,-801.55 691,-720 692.78,-687.85 691.41,-679.29 699,-648 735.53,-497.43 812.66,-327.58 843.68,-262.43"/>
<polygon fill="black" stroke="black" points="846.76,-264.09 847.92,-253.56 840.45,-261.07 846.76,-264.09"/>
</g>
<!-- dispatchable_fungible_asset -->
<g id="node33" class="node">
<title>dispatchable_fungible_asset</title>
<ellipse fill="none" stroke="black" cx="1063" cy="-666" rx="114.82" ry="18"/>
<text text-anchor="middle" x="1063" y="-660.95" font-family="Times,serif" font-size="14.00">dispatchable_fungible_asset</text>
</g>
<!-- trust_coin&#45;&gt;dispatchable_fungible_asset -->
<g id="edge70" class="edge">
<title>trust_coin&#45;&gt;dispatchable_fungible_asset</title>
<path fill="none" stroke="black" d="M851.65,-945.54C881.91,-938.35 921.81,-924.76 949,-900 1011.74,-842.85 1043.89,-743.57 1056.48,-695.16"/>
<polygon fill="black" stroke="black" points="1059.81,-696.3 1058.84,-685.75 1053.02,-694.6 1059.81,-696.3"/>
</g>
<!-- primary_fungible_store -->
<g id="node34" class="node">
<title>primary_fungible_store</title>
<ellipse fill="none" stroke="black" cx="809" cy="-738" rx="98.44" ry="18"/>
<text text-anchor="middle" x="809" y="-732.95" font-family="Times,serif" font-size="14.00">primary_fungible_store</text>
</g>
<!-- trust_coin&#45;&gt;primary_fungible_store -->
<g id="edge71" class="edge">
<title>trust_coin&#45;&gt;primary_fungible_store</title>
<path fill="none" stroke="black" d="M809,-935.85C809,-899.14 809,-812.66 809,-767.53"/>
<polygon fill="black" stroke="black" points="812.5,-767.75 809,-757.75 805.5,-767.75 812.5,-767.75"/>
</g>
<!-- coin -->
<g id="node35" class="node">
<title>coin</title>
<ellipse fill="none" stroke="black" cx="1605" cy="-810" rx="27" ry="18"/>
<text text-anchor="middle" x="1605" y="-804.95" font-family="Times,serif" font-size="14.00">coin</text>
</g>
<!-- trust_coin&#45;&gt;coin -->
<g id="edge72" class="edge">
<title>trust_coin&#45;&gt;coin</title>
<path fill="none" stroke="black" d="M851.52,-945.42C991.46,-920.45 1436.31,-841.09 1567.96,-817.61"/>
<polygon fill="black" stroke="black" points="1568.28,-821.11 1577.51,-815.9 1567.05,-814.21 1568.28,-821.11"/>
</g>
<!-- aptos_coin -->
<g id="node36" class="node">
<title>aptos_coin</title>
<ellipse fill="none" stroke="black" cx="505" cy="-882" rx="50.84" ry="18"/>
<text text-anchor="middle" x="505" y="-876.95" font-family="Times,serif" font-size="14.00">aptos_coin</text>
</g>
<!-- trust_coin&#45;&gt;aptos_coin -->
<g id="edge73" class="edge">
<title>trust_coin&#45;&gt;aptos_coin</title>
<path fill="none" stroke="black" d="M767.87,-944.37C720.16,-934.25 639.2,-916.72 570,-900 565.41,-898.89 560.64,-897.71 555.87,-896.5"/>
<polygon fill="black" stroke="black" points="556.84,-893.13 546.28,-894.04 555.1,-899.92 556.84,-893.13"/>
</g>
<!-- string_utils -->
<g id="node37" class="node">
<title>string_utils</title>
<ellipse fill="none" stroke="black" cx="270" cy="-810" rx="52.38" ry="18"/>
<text text-anchor="middle" x="270" y="-804.95" font-family="Times,serif" font-size="14.00">string_utils</text>
</g>
<!-- trust_coin&#45;&gt;string_utils -->
<g id="edge76" class="edge">
<title>trust_coin&#45;&gt;string_utils</title>
<path fill="none" stroke="black" d="M761.01,-953.09C684.79,-951.81 532.35,-943.43 412,-900 369.16,-884.54 325.61,-854.71 298.25,-833.86"/>
<polygon fill="black" stroke="black" points="300.51,-831.19 290.46,-827.83 296.22,-836.72 300.51,-831.19"/>
</g>
<!-- rewards_pool&#45;&gt;object -->
<g id="edge77" class="edge">
<title>rewards_pool&#45;&gt;object</title>
<path fill="none" stroke="black" d="M1185.37,-1007.92C1192.32,-997.8 1200.82,-984.55 1207,-972 1281.99,-819.62 1340.16,-623.23 1360.33,-551.14"/>
<polygon fill="black" stroke="black" points="1363.63,-552.31 1362.93,-541.74 1356.89,-550.44 1363.63,-552.31"/>
</g>
<!-- rewards_pool&#45;&gt;fungible_asset -->
<g id="edge78" class="edge">
<title>rewards_pool&#45;&gt;fungible_asset</title>
<path fill="none" stroke="black" d="M1178.87,-1007.74C1187.34,-981.25 1202,-928.79 1202,-883 1202,-883 1202,-883 1202,-809 1202,-737.13 1226.23,-708.21 1187,-648 1176.76,-632.27 1160.15,-620.77 1143.66,-612.58"/>
<polygon fill="black" stroke="black" points="1145.4,-609.53 1134.85,-608.53 1142.48,-615.89 1145.4,-609.53"/>
</g>
<!-- rewards_pool&#45;&gt;trust_coin -->
<g id="edge81" class="edge">
<title>rewards_pool&#45;&gt;trust_coin</title>
<path fill="none" stroke="black" d="M1122.77,-1015.34C1054.23,-1002.16 931.95,-978.64 862,-965.19"/>
<polygon fill="black" stroke="black" points="862.79,-961.78 852.31,-963.33 861.47,-968.65 862.79,-961.78"/>
</g>
<!-- rewards_pool&#45;&gt;dispatchable_fungible_asset -->
<g id="edge79" class="edge">
<title>rewards_pool&#45;&gt;dispatchable_fungible_asset</title>
<path fill="none" stroke="black" d="M1166.93,-1007.76C1158.16,-981.28 1143,-928.86 1143,-883 1143,-883 1143,-883 1143,-809 1143,-763.49 1111.43,-719.12 1087.95,-692.42"/>
<polygon fill="black" stroke="black" points="1090.69,-690.23 1081.38,-685.19 1085.51,-694.94 1090.69,-690.23"/>
</g>
<!-- rewards_pool&#45;&gt;primary_fungible_store -->
<g id="edge80" class="edge">
<title>rewards_pool&#45;&gt;primary_fungible_store</title>
<path fill="none" stroke="black" d="M1152.12,-1008.6C1090.82,-960.43 911.17,-819.27 839.26,-762.78"/>
<polygon fill="black" stroke="black" points="841.46,-760.06 831.44,-756.63 837.14,-765.56 841.46,-760.06"/>
</g>
<!-- utils&#45;&gt;vector -->
<g id="edge82" class="edge">
<title>utils&#45;&gt;vector</title>
<path fill="none" stroke="black" d="M3300.89,-298.71C3315.19,-295.24 3333.54,-291.03 3350,-288 3464.3,-266.97 3509.7,-312.38 3609,-252 3654.36,-224.42 3688.15,-189 3660,-144 3621.21,-81.99 3582.67,-90.87 3512,-72 3374.85,-35.37 2935.34,-22.99 2792.39,-19.88"/>
<polygon fill="black" stroke="black" points="2792.64,-16.38 2782.56,-19.67 2792.49,-23.38 2792.64,-16.38"/>
</g>
<!-- utils&#45;&gt;aptos_hash -->
<g id="edge83" class="edge">
<title>utils&#45;&gt;aptos_hash</title>
<path fill="none" stroke="black" d="M3254.98,-294.21C3250.13,-291.97 3244.95,-289.76 3240,-288 3177.03,-265.62 3158.81,-268.34 3094,-252 3089.42,-250.84 3084.66,-249.64 3079.89,-248.42"/>
<polygon fill="black" stroke="black" points="3080.85,-245.05 3070.29,-245.96 3079.11,-251.83 3080.85,-245.05"/>
</g>
<!-- string&#45;&gt;vector -->
<g id="edge84" class="edge">
<title>string&#45;&gt;vector</title>
<path fill="none" stroke="black" d="M949.57,-150.81C956.16,-148.38 963.29,-145.94 970,-144 1117.53,-101.27 1155.57,-90.9 1308,-72 1587.26,-37.38 2488.14,-22.66 2701.42,-19.62"/>
<polygon fill="black" stroke="black" points="2701.31,-23.12 2711.26,-19.48 2701.21,-16.12 2701.31,-23.12"/>
</g>
<!-- string&#45;&gt;option -->
<g id="edge85" class="edge">
<title>string&#45;&gt;option</title>
<path fill="none" stroke="black" d="M949,-150.65C955.73,-148.17 963.06,-145.74 970,-144 1088.87,-114.14 1233.13,-99.85 1305.27,-94.16"/>
<polygon fill="black" stroke="black" points="1305.42,-97.66 1315.12,-93.4 1304.88,-90.68 1305.42,-97.66"/>
</g>
<!-- features&#45;&gt;vector -->
<g id="edge86" class="edge">
<title>features&#45;&gt;vector</title>
<path fill="none" stroke="black" d="M2196.23,-152.39C2207.03,-149.68 2219.01,-146.7 2230,-144 2406.57,-100.58 2617.39,-50 2705.3,-28.97"/>
<polygon fill="black" stroke="black" points="2706,-32.4 2714.92,-26.67 2704.38,-25.59 2706,-32.4"/>
</g>
<!-- features&#45;&gt;signer -->
<g id="edge87" class="edge">
<title>features&#45;&gt;signer</title>
<path fill="none" stroke="black" d="M2122.06,-159.39C1889.91,-150.03 715.93,-102.69 470.87,-92.81"/>
<polygon fill="black" stroke="black" points="471.23,-89.32 461.1,-92.42 470.95,-96.32 471.23,-89.32"/>
</g>
<!-- features&#45;&gt;error -->
<g id="edge88" class="edge">
<title>features&#45;&gt;error</title>
<path fill="none" stroke="black" d="M2192.84,-150.1C2200.34,-147.78 2208.39,-145.57 2216,-144 2393.55,-107.46 2610.42,-95.71 2698.71,-92.29"/>
<polygon fill="black" stroke="black" points="2698.68,-95.79 2708.55,-91.92 2698.42,-88.8 2698.68,-95.79"/>
</g>
<!-- from_bcs&#45;&gt;string -->
<g id="edge89" class="edge">
<title>from_bcs&#45;&gt;string</title>
<path fill="none" stroke="black" d="M1179.44,-360.01C1169.16,-340.84 1150.48,-309.52 1128,-288 1076.42,-238.61 1002.11,-199.18 958.86,-178.61"/>
<polygon fill="black" stroke="black" points="960.48,-175.5 949.94,-174.43 957.51,-181.84 960.48,-175.5"/>
</g>
<!-- account&#45;&gt;vector -->
<g id="edge90" class="edge">
<title>account&#45;&gt;vector</title>
<path fill="none" stroke="black" d="M1850.96,-444.28C1944.98,-432.51 2181.49,-402.34 2187,-396 2197.49,-383.92 2195.37,-373.63 2187,-360 2168.48,-329.85 2143.3,-346.51 2116,-324 2108.18,-317.55 2063.29,-261.59 2060,-252 2042.65,-201.43 2068.84,-174.14 2113,-144 2210.27,-77.61 2574.4,-36.04 2702.27,-23.24"/>
<polygon fill="black" stroke="black" points="2702.43,-26.74 2712.03,-22.27 2701.74,-19.77 2702.43,-26.74"/>
</g>
<!-- account&#45;&gt;option -->
<g id="edge91" class="edge">
<title>account&#45;&gt;option</title>
<path fill="none" stroke="black" d="M1777.6,-441.49C1743.35,-433.34 1690.63,-418.4 1649,-396 1626.45,-383.86 1624.88,-374.83 1604,-360 1530.42,-307.72 1492.74,-318.77 1432,-252 1395.68,-212.07 1371.53,-152.85 1359.64,-118.47"/>
<polygon fill="black" stroke="black" points="1363.05,-117.63 1356.56,-109.26 1356.41,-119.85 1363.05,-117.63"/>
</g>
<!-- account&#45;&gt;signer -->
<g id="edge92" class="edge">
<title>account&#45;&gt;signer</title>
<path fill="none" stroke="black" d="M1778.23,-440.86C1723.03,-427.84 1619.91,-403.07 1604,-396 1577.64,-384.29 1576.8,-370.66 1550,-360 1373.2,-289.69 1316.48,-314 1128,-288 977.03,-267.17 934.18,-291.52 787,-252 785.93,-251.71 552.55,-147.51 461.65,-106.92"/>
<polygon fill="black" stroke="black" points="463.24,-103.8 452.68,-102.91 460.38,-110.19 463.24,-103.8"/>
</g>
<!-- account&#45;&gt;type_info -->
<g id="edge96" class="edge">
<title>account&#45;&gt;type_info</title>
<path fill="none" stroke="black" d="M1852.51,-447.14C1950.19,-442.13 2200.75,-426.59 2278,-396 2357.64,-364.46 2433.89,-295.65 2470.83,-259.03"/>
<polygon fill="black" stroke="black" points="2472.88,-261.94 2477.45,-252.38 2467.92,-257 2472.88,-261.94"/>
</g>
<!-- account&#45;&gt;event -->
<g id="edge104" class="edge">
<title>account&#45;&gt;event</title>
<path fill="none" stroke="black" d="M1773.82,-446.88C1669.43,-441.02 1376,-423.24 1133,-396 1107.97,-393.19 1080.03,-389.13 1057.84,-385.68"/>
<polygon fill="black" stroke="black" points="1058.41,-382.22 1047.98,-384.12 1057.32,-389.14 1058.41,-382.22"/>
</g>
<!-- account&#45;&gt;error -->
<g id="edge93" class="edge">
<title>account&#45;&gt;error</title>
<path fill="none" stroke="black" d="M1852.5,-447.28C1956.83,-442.37 2237.72,-426.6 2325,-396 2436.69,-356.84 2462.35,-332.61 2549,-252 2592.93,-211.13 2583.72,-182.19 2630,-144 2651.9,-125.93 2680.99,-112.19 2703.61,-103.23"/>
<polygon fill="black" stroke="black" points="2704.62,-106.59 2712.72,-99.75 2702.13,-100.04 2704.62,-106.59"/>
</g>
<!-- account&#45;&gt;features -->
<g id="edge94" class="edge">
<title>account&#45;&gt;features</title>
<path fill="none" stroke="black" d="M1852.22,-447.04C1952.92,-441.62 2214.5,-424.86 2240,-396 2250.59,-384.01 2247.7,-374.02 2240,-360 2196.9,-281.55 2113.1,-330.45 2070,-252 2062.3,-237.98 2061.99,-229.85 2070,-216 2080.56,-197.72 2100.09,-185.19 2118.44,-176.92"/>
<polygon fill="black" stroke="black" points="2119.74,-180.18 2127.64,-173.12 2117.06,-173.71 2119.74,-180.18"/>
</g>
<!-- account&#45;&gt;bcs -->
<g id="edge95" class="edge">
<title>account&#45;&gt;bcs</title>
<path fill="none" stroke="black" d="M1782.76,-438.01C1739.33,-420.64 1659.83,-382.68 1617,-324 1588.57,-285.06 1589.68,-226.14 1593.53,-191.42"/>
<polygon fill="black" stroke="black" points="1596.97,-192.08 1594.77,-181.72 1590.03,-191.2 1596.97,-192.08"/>
</g>
<!-- account&#45;&gt;guid -->
<g id="edge102" class="edge">
<title>account&#45;&gt;guid</title>
<path fill="none" stroke="black" d="M1776.26,-443.12C1729.14,-435.04 1645.26,-418.88 1576,-396 1538.59,-383.64 1532.97,-370.49 1495,-360 1352.04,-320.5 1174.61,-310.43 1097.63,-307.87"/>
<polygon fill="black" stroke="black" points="1098.2,-304.38 1088.1,-307.58 1097.99,-311.38 1098.2,-304.38"/>
</g>
<!-- account&#45;&gt;hash -->
<g id="edge99" class="edge">
<title>account&#45;&gt;hash</title>
<path fill="none" stroke="black" d="M1831.92,-433.82C1842.97,-424.06 1856.38,-410.52 1865,-396 1890.24,-353.48 1903.52,-296.83 1909.62,-263.3"/>
<polygon fill="black" stroke="black" points="1913.05,-264.01 1911.3,-253.56 1906.16,-262.82 1913.05,-264.01"/>
</g>
<!-- account&#45;&gt;from_bcs -->
<g id="edge103" class="edge">
<title>account&#45;&gt;from_bcs</title>
<path fill="none" stroke="black" d="M1774.84,-444.73C1668.44,-432.81 1368.09,-399.17 1243.37,-385.2"/>
<polygon fill="black" stroke="black" points="1244.04,-381.75 1233.71,-384.12 1243.26,-388.71 1244.04,-381.75"/>
</g>
<!-- account&#45;&gt;create_signer -->
<g id="edge105" class="edge">
<title>account&#45;&gt;create_signer</title>
<path fill="none" stroke="black" d="M1776.59,-442.41C1710.28,-430.42 1569.15,-404.89 1487.62,-390.14"/>
<polygon fill="black" stroke="black" points="1488.47,-386.74 1478.01,-388.41 1487.23,-393.63 1488.47,-386.74"/>
</g>
<!-- account&#45;&gt;system_addresses -->
<g id="edge98" class="edge">
<title>account&#45;&gt;system_addresses</title>
<path fill="none" stroke="black" d="M1796.2,-433.54C1785.56,-423.36 1771.82,-409.47 1761,-396 1745.09,-376.2 1729.51,-351.94 1718.51,-333.75"/>
<polygon fill="black" stroke="black" points="1721.65,-332.18 1713.52,-325.39 1715.64,-335.77 1721.65,-332.18"/>
</g>
<!-- table -->
<g id="node38" class="node">
<title>table</title>
<ellipse fill="none" stroke="black" cx="3805" cy="-90" rx="28.83" ry="18"/>
<text text-anchor="middle" x="3805" y="-84.95" font-family="Times,serif" font-size="14.00">table</text>
</g>
<!-- account&#45;&gt;table -->
<g id="edge97" class="edge">
<title>account&#45;&gt;table</title>
<path fill="none" stroke="black" d="M1852.88,-449C2011.82,-448.66 2615.36,-444.08 3109,-396 3213.29,-385.84 3238.34,-375.3 3342,-360 3455.67,-343.23 3490.29,-363.99 3598,-324 3692.75,-288.82 3722.83,-267.16 3774,-180 3785.14,-161.02 3793.14,-137.41 3798.21,-119.28"/>
<polygon fill="black" stroke="black" points="3801.57,-120.28 3800.74,-109.72 3794.8,-118.49 3801.57,-120.28"/>
</g>
<!-- ed25519 -->
<g id="node39" class="node">
<title>ed25519</title>
<ellipse fill="none" stroke="black" cx="2031" cy="-306" rx="42.65" ry="18"/>
<text text-anchor="middle" x="2031" y="-300.95" font-family="Times,serif" font-size="14.00">ed25519</text>
</g>
<!-- account&#45;&gt;ed25519 -->
<g id="edge100" class="edge">
<title>account&#45;&gt;ed25519</title>
<path fill="none" stroke="black" d="M1853,-449.29C1937.25,-448.95 2128.55,-442.91 2169,-396 2179.45,-383.88 2178.06,-373.19 2169,-360 2163.34,-351.77 2113.56,-333.96 2075.39,-321.26"/>
<polygon fill="black" stroke="black" points="2076.51,-317.94 2065.92,-318.13 2074.32,-324.59 2076.51,-317.94"/>
</g>
<!-- multi_ed25519 -->
<g id="node40" class="node">
<title>multi_ed25519</title>
<ellipse fill="none" stroke="black" cx="2093" cy="-378" rx="67.22" ry="18"/>
<text text-anchor="middle" x="2093" y="-372.95" font-family="Times,serif" font-size="14.00">multi_ed25519</text>
</g>
<!-- account&#45;&gt;multi_ed25519 -->
<g id="edge101" class="edge">
<title>account&#45;&gt;multi_ed25519</title>
<path fill="none" stroke="black" d="M1847.05,-440.49C1893.44,-428.89 1977.2,-407.95 2033.94,-393.77"/>
<polygon fill="black" stroke="black" points="2034.59,-397.21 2043.44,-391.39 2032.89,-390.42 2034.59,-397.21"/>
</g>
<!-- chain_id -->
<g id="node41" class="node">
<title>chain_id</title>
<ellipse fill="none" stroke="black" cx="1813" cy="-378" rx="42.65" ry="18"/>
<text text-anchor="middle" x="1813" y="-372.95" font-family="Times,serif" font-size="14.00">chain_id</text>
</g>
<!-- account&#45;&gt;chain_id -->
<g id="edge106" class="edge">
<title>account&#45;&gt;chain_id</title>
<path fill="none" stroke="black" d="M1813,-431.7C1813,-424.41 1813,-415.73 1813,-407.54"/>
<polygon fill="black" stroke="black" points="1816.5,-407.62 1813,-397.62 1809.5,-407.62 1816.5,-407.62"/>
</g>
<!-- transaction_context&#45;&gt;option -->
<g id="edge107" class="edge">
<title>transaction_context&#45;&gt;option</title>
<path fill="none" stroke="black" d="M1771.96,-216.06C1755.03,-195.38 1723.41,-161.07 1688,-144 1637.21,-119.52 1475.58,-102.14 1396.06,-94.84"/>
<polygon fill="black" stroke="black" points="1396.72,-91.38 1386.45,-93.97 1396.1,-98.35 1396.72,-91.38"/>
</g>
<!-- transaction_context&#45;&gt;string -->
<g id="edge108" class="edge">
<title>transaction_context&#45;&gt;string</title>
<path fill="none" stroke="black" d="M1708.21,-226.76C1532,-212.43 1103.25,-177.57 966.6,-166.46"/>
<polygon fill="black" stroke="black" points="967.16,-163 956.91,-165.68 966.6,-169.97 967.16,-163"/>
</g>
<!-- transaction_context&#45;&gt;error -->
<g id="edge109" class="edge">
<title>transaction_context&#45;&gt;error</title>
<path fill="none" stroke="black" d="M1828.99,-218.33C1891.4,-198.15 2009.57,-162.26 2113,-144 2331.81,-105.38 2598.79,-94.66 2698.72,-91.9"/>
<polygon fill="black" stroke="black" points="2698.64,-95.4 2708.55,-91.64 2698.46,-88.4 2698.64,-95.4"/>
</g>
<!-- transaction_context&#45;&gt;features -->
<g id="edge110" class="edge">
<title>transaction_context&#45;&gt;features</title>
<path fill="none" stroke="black" d="M1846.41,-221.6C1921.26,-207.7 2046.16,-184.51 2114.22,-171.87"/>
<polygon fill="black" stroke="black" points="2114.76,-175.33 2123.95,-170.06 2113.48,-168.45 2114.76,-175.33"/>
</g>
<!-- aggregator_v2&#45;&gt;string -->
<g id="edge111" class="edge">
<title>aggregator_v2&#45;&gt;string</title>
<path fill="none" stroke="black" d="M2114.91,-227.99C2069.67,-224.37 2006.51,-219.53 1951,-216 1569.73,-191.76 1108.3,-171.01 967.1,-164.86"/>
<polygon fill="black" stroke="black" points="967.62,-161.37 957.47,-164.44 967.31,-168.37 967.62,-161.37"/>
</g>
<!-- aggregator_v2&#45;&gt;error -->
<g id="edge112" class="edge">
<title>aggregator_v2&#45;&gt;error</title>
<path fill="none" stroke="black" d="M2191.85,-216.22C2212.65,-195.37 2251.32,-160.54 2292,-144 2365.41,-114.15 2603.09,-98.33 2698.66,-93.05"/>
<polygon fill="black" stroke="black" points="2698.81,-96.54 2708.6,-92.51 2698.43,-89.55 2698.81,-96.54"/>
</g>
<!-- aggregator_v2&#45;&gt;features -->
<g id="edge113" class="edge">
<title>aggregator_v2&#45;&gt;features</title>
<path fill="none" stroke="black" d="M2172.54,-215.7C2171.06,-208.32 2169.3,-199.52 2167.65,-191.25"/>
<polygon fill="black" stroke="black" points="2171.11,-190.71 2165.72,-181.59 2164.25,-192.08 2171.11,-190.71"/>
</g>
<!-- function_info&#45;&gt;signer -->
<g id="edge115" class="edge">
<title>function_info&#45;&gt;signer</title>
<path fill="none" stroke="black" d="M838.35,-216.65C814.03,-196.27 769.33,-161.93 725,-144 639.32,-109.35 530.77,-97.3 470.85,-93.15"/>
<polygon fill="black" stroke="black" points="471.25,-89.67 461.05,-92.52 470.8,-96.65 471.25,-89.67"/>
</g>
<!-- function_info&#45;&gt;string -->
<g id="edge114" class="edge">
<title>function_info&#45;&gt;string</title>
<path fill="none" stroke="black" d="M872.88,-216.41C881.5,-207.41 892.29,-196.13 901.74,-186.26"/>
<polygon fill="black" stroke="black" points="904.17,-188.78 908.56,-179.13 899.12,-183.94 904.17,-188.78"/>
</g>
<!-- function_info&#45;&gt;error -->
<g id="edge116" class="edge">
<title>function_info&#45;&gt;error</title>
<path fill="none" stroke="black" d="M910.35,-224.77C1027.8,-206.99 1317.7,-164.89 1562,-144 2006.48,-106 2547.88,-94.28 2698.46,-91.64"/>
<polygon fill="black" stroke="black" points="2698.37,-95.14 2708.31,-91.47 2698.25,-88.15 2698.37,-95.14"/>
</g>
<!-- function_info&#45;&gt;features -->
<g id="edge117" class="edge">
<title>function_info&#45;&gt;features</title>
<path fill="none" stroke="black" d="M916.89,-229.79C1137.83,-217.94 1904.97,-176.79 2110.82,-165.75"/>
<polygon fill="black" stroke="black" points="2110.86,-169.25 2120.66,-165.22 2110.49,-162.26 2110.86,-169.25"/>
</g>
<!-- system_addresses&#45;&gt;signer -->
<g id="edge118" class="edge">
<title>system_addresses&#45;&gt;signer</title>
<path fill="none" stroke="black" d="M1643.94,-294.05C1588.96,-283.72 1504.79,-267.53 1432,-252 1223.66,-207.55 1175.22,-178.5 965,-144 783,-114.13 563.46,-98.92 470.76,-93.44"/>
<polygon fill="black" stroke="black" points="471.01,-89.95 460.83,-92.86 470.61,-96.94 471.01,-89.95"/>
</g>
<!-- system_addresses&#45;&gt;error -->
<g id="edge119" class="edge">
<title>system_addresses&#45;&gt;error</title>
<path fill="none" stroke="black" d="M1777.1,-300.76C1916.55,-292.35 2207.75,-272.58 2249,-252 2268.42,-242.31 2266.99,-231.68 2282,-216 2313.3,-183.31 2313.47,-164.14 2354,-144 2414.02,-114.18 2612.73,-98.73 2698.74,-93.3"/>
<polygon fill="black" stroke="black" points="2698.82,-96.8 2708.59,-92.69 2698.39,-89.81 2698.82,-96.8"/>
</g>
<!-- math64&#45;&gt;error -->
<g id="edge120" class="edge">
<title>math64&#45;&gt;error</title>
<path fill="none" stroke="black" d="M3282.24,-220.53C3262.35,-210.72 3234.98,-196.07 3213,-180 3194.22,-166.27 3196.05,-153.9 3175,-144 3105.19,-111.16 2873.35,-97.12 2779.23,-92.68"/>
<polygon fill="black" stroke="black" points="2779.59,-89.19 2769.44,-92.23 2779.27,-96.19 2779.59,-89.19"/>
</g>
<!-- fixed_point32 -->
<g id="node42" class="node">
<title>fixed_point32</title>
<ellipse fill="none" stroke="black" cx="3285" cy="-162" rx="62.61" ry="18"/>
<text text-anchor="middle" x="3285" y="-156.95" font-family="Times,serif" font-size="14.00">fixed_point32</text>
</g>
<!-- math64&#45;&gt;fixed_point32 -->
<g id="edge121" class="edge">
<title>math64&#45;&gt;fixed_point32</title>
<path fill="none" stroke="black" d="M3303.19,-216.05C3300.61,-208.52 3297.49,-199.44 3294.58,-190.94"/>
<polygon fill="black" stroke="black" points="3297.97,-190.03 3291.41,-181.71 3291.35,-192.3 3297.97,-190.03"/>
</g>
<!-- table_with_length&#45;&gt;error -->
<g id="edge122" class="edge">
<title>table_with_length&#45;&gt;error</title>
<path fill="none" stroke="black" d="M3500.36,-149.41C3489.02,-147.37 3477.16,-145.44 3466,-144 3205.35,-110.26 2889.14,-96.38 2779.06,-92.35"/>
<polygon fill="black" stroke="black" points="2779.49,-88.86 2769.38,-92 2779.24,-95.85 2779.49,-88.86"/>
</g>
<!-- table_with_length&#45;&gt;table -->
<g id="edge123" class="edge">
<title>table_with_length&#45;&gt;table</title>
<path fill="none" stroke="black" d="M3604.82,-147.5C3652.49,-134.05 3724.71,-113.66 3768.12,-101.41"/>
<polygon fill="black" stroke="black" points="3768.9,-104.83 3777.57,-98.74 3767,-98.09 3768.9,-104.83"/>
</g>
<!-- aptos_hash&#45;&gt;error -->
<g id="edge124" class="edge">
<title>aptos_hash&#45;&gt;error</title>
<path fill="none" stroke="black" d="M3013.05,-216.45C2994.17,-196.49 2959.79,-163.25 2924,-144 2877.2,-118.83 2817.14,-104.48 2778.37,-97.22"/>
<polygon fill="black" stroke="black" points="2779.01,-93.78 2768.55,-95.46 2777.77,-100.67 2779.01,-93.78"/>
</g>
<!-- aptos_hash&#45;&gt;features -->
<g id="edge125" class="edge">
<title>aptos_hash&#45;&gt;features</title>
<path fill="none" stroke="black" d="M2977.7,-228.93C2824.65,-216.56 2365.78,-179.47 2212.49,-167.08"/>
<polygon fill="black" stroke="black" points="2212.9,-163.6 2202.65,-166.29 2212.34,-170.58 2212.9,-163.6"/>
</g>
<!-- aptos_hash&#45;&gt;bcs -->
<g id="edge126" class="edge">
<title>aptos_hash&#45;&gt;bcs</title>
<path fill="none" stroke="black" d="M2976.68,-230.49C2749.36,-219.36 1835.53,-174.63 1636.43,-164.88"/>
<polygon fill="black" stroke="black" points="1636.8,-161.4 1626.64,-164.4 1636.46,-168.39 1636.8,-161.4"/>
</g>
<!-- smart_vector&#45;&gt;vector -->
<g id="edge127" class="edge">
<title>smart_vector&#45;&gt;vector</title>
<path fill="none" stroke="black" d="M3478.48,-304.85C3528.02,-301.75 3597.84,-290.14 3645,-252 3684.13,-220.36 3701.39,-189.07 3679,-144 3655.43,-96.56 3633.66,-90.46 3584,-72 3437.02,-17.37 2944.86,-17.15 2792.41,-18.45"/>
<polygon fill="black" stroke="black" points="2792.68,-14.95 2782.71,-18.54 2792.75,-21.95 2792.68,-14.95"/>
</g>
<!-- smart_vector&#45;&gt;option -->
<g id="edge128" class="edge">
<title>smart_vector&#45;&gt;option</title>
<path fill="none" stroke="black" d="M3379.61,-292.1C3318.22,-272.51 3195.67,-235.5 3089,-216 2425.22,-94.66 1598.69,-89.87 1396.96,-90.65"/>
<polygon fill="black" stroke="black" points="1397.15,-87.15 1387.17,-90.69 1397.18,-94.15 1397.15,-87.15"/>
</g>
<!-- smart_vector&#45;&gt;type_info -->
<g id="edge130" class="edge">
<title>smart_vector&#45;&gt;type_info</title>
<path fill="none" stroke="black" d="M3368.51,-295.99C3350.7,-293.08 3330.51,-290.07 3312,-288 3027.52,-256.25 2685.11,-241.68 2551.41,-236.89"/>
<polygon fill="black" stroke="black" points="2551.89,-233.4 2541.77,-236.54 2551.64,-240.4 2551.89,-233.4"/>
</g>
<!-- smart_vector&#45;&gt;error -->
<g id="edge129" class="edge">
<title>smart_vector&#45;&gt;error</title>
<path fill="none" stroke="black" d="M3418.05,-287.65C3415.17,-253.75 3403.58,-179 3357,-144 3310.87,-109.34 2908.87,-95.57 2779.16,-92"/>
<polygon fill="black" stroke="black" points="2779.43,-88.51 2769.34,-91.74 2779.24,-95.51 2779.43,-88.51"/>
</g>
<!-- smart_vector&#45;&gt;math64 -->
<g id="edge131" class="edge">
<title>smart_vector&#45;&gt;math64</title>
<path fill="none" stroke="black" d="M3394.31,-289.29C3378.53,-279.25 3357.91,-266.13 3340.9,-255.3"/>
<polygon fill="black" stroke="black" points="3342.95,-252.46 3332.64,-250.04 3339.2,-258.36 3342.95,-252.46"/>
</g>
<!-- big_vector -->
<g id="node43" class="node">
<title>big_vector</title>
<ellipse fill="none" stroke="black" cx="3550" cy="-234" rx="50.33" ry="18"/>
<text text-anchor="middle" x="3550" y="-228.95" font-family="Times,serif" font-size="14.00">big_vector</text>
</g>
<!-- smart_vector&#45;&gt;big_vector -->
<g id="edge132" class="edge">
<title>smart_vector&#45;&gt;big_vector</title>
<path fill="none" stroke="black" d="M3447.43,-289.81C3466.61,-279.56 3492.12,-265.93 3512.9,-254.82"/>
<polygon fill="black" stroke="black" points="3514.47,-257.95 3521.64,-250.16 3511.17,-251.78 3514.47,-257.95"/>
</g>
<!-- dispatchable_fungible_asset&#45;&gt;option -->
<g id="edge133" class="edge">
<title>dispatchable_fungible_asset&#45;&gt;option</title>
<path fill="none" stroke="black" d="M1045.27,-647.83C1036.17,-638.11 1025.64,-625.26 1019,-612 953.92,-482.13 916.04,-420.31 976,-288 1016.04,-199.65 1052.04,-184.88 1140,-144 1194.55,-118.65 1262.89,-104.33 1306.75,-97.12"/>
<polygon fill="black" stroke="black" points="1307.07,-100.62 1316.4,-95.6 1305.98,-93.7 1307.07,-100.62"/>
</g>
<!-- dispatchable_fungible_asset&#45;&gt;object -->
<g id="edge136" class="edge">
<title>dispatchable_fungible_asset&#45;&gt;object</title>
<path fill="none" stroke="black" d="M1098.58,-648.43C1157.46,-621.02 1274.45,-566.56 1332.96,-539.31"/>
<polygon fill="black" stroke="black" points="1334.22,-542.59 1341.81,-535.19 1331.26,-536.24 1334.22,-542.59"/>
</g>
<!-- dispatchable_fungible_asset&#45;&gt;fungible_asset -->
<g id="edge138" class="edge">
<title>dispatchable_fungible_asset&#45;&gt;fungible_asset</title>
<path fill="none" stroke="black" d="M1070.17,-647.7C1073.29,-640.15 1077.04,-631.12 1080.53,-622.68"/>
<polygon fill="black" stroke="black" points="1083.74,-624.08 1084.33,-613.5 1077.27,-621.4 1083.74,-624.08"/>
</g>
<!-- dispatchable_fungible_asset&#45;&gt;error -->
<g id="edge134" class="edge">
<title>dispatchable_fungible_asset&#45;&gt;error</title>
<path fill="none" stroke="black" d="M1176.97,-663.39C1484.61,-656.98 2323.39,-625.16 2542,-468 2665,-379.57 2717.37,-190.79 2733.33,-119.26"/>
<polygon fill="black" stroke="black" points="2736.73,-120.06 2735.42,-109.55 2729.89,-118.59 2736.73,-120.06"/>
</g>
<!-- dispatchable_fungible_asset&#45;&gt;features -->
<g id="edge135" class="edge">
<title>dispatchable_fungible_asset&#45;&gt;features</title>
<path fill="none" stroke="black" d="M1159.91,-656.08C1404.14,-632.42 2038.69,-563.31 2226,-468 2269.52,-445.85 2288.73,-440.43 2309,-396 2317.41,-377.57 2302.97,-300.72 2300,-288 2292.3,-255.01 2297.67,-241.17 2275,-216 2269.54,-209.93 2231.33,-192.64 2200.84,-179.44"/>
<polygon fill="black" stroke="black" points="2202.4,-176.3 2191.83,-175.56 2199.63,-182.73 2202.4,-176.3"/>
</g>
<!-- dispatchable_fungible_asset&#45;&gt;function_info -->
<g id="edge137" class="edge">
<title>dispatchable_fungible_asset&#45;&gt;function_info</title>
<path fill="none" stroke="black" d="M979.35,-653.44C952.55,-645.78 924.94,-633.08 906,-612 816.33,-512.19 838.17,-333.16 850.97,-263.67"/>
<polygon fill="black" stroke="black" points="854.41,-264.35 852.87,-253.86 847.53,-263.02 854.41,-264.35"/>
</g>
<!-- primary_fungible_store&#45;&gt;option -->
<g id="edge139" class="edge">
<title>primary_fungible_store&#45;&gt;option</title>
<path fill="none" stroke="black" d="M802.53,-719.56C778.2,-650.87 697.93,-394.14 787,-216 810.85,-168.3 833.43,-163.69 883,-144 959.11,-113.76 1202.67,-98.4 1305.01,-93.14"/>
<polygon fill="black" stroke="black" points="1305.16,-96.64 1314.97,-92.64 1304.81,-89.65 1305.16,-96.64"/>
</g>
<!-- primary_fungible_store&#45;&gt;signer -->
<g id="edge141" class="edge">
<title>primary_fungible_store&#45;&gt;signer</title>
<path fill="none" stroke="black" d="M767.92,-721.27C746.4,-712.04 720.17,-699.21 699,-684 590.01,-605.69 566.43,-576.9 488,-468 445.95,-409.61 430.92,-393.94 414,-324 396.55,-251.87 410.22,-163.65 419.41,-119.31"/>
<polygon fill="black" stroke="black" points="422.78,-120.26 421.47,-109.75 415.94,-118.78 422.78,-120.26"/>
</g>
<!-- primary_fungible_store&#45;&gt;object -->
<g id="edge142" class="edge">
<title>primary_fungible_store&#45;&gt;object</title>
<path fill="none" stroke="black" d="M814.23,-719.78C821,-700.09 834.53,-668.02 856,-648 913.92,-593.99 942.96,-598.14 1019,-576 1125.58,-544.97 1256.05,-531.32 1323.25,-525.99"/>
<polygon fill="black" stroke="black" points="1323.44,-529.48 1333.14,-525.23 1322.9,-522.5 1323.44,-529.48"/>
</g>
<!-- primary_fungible_store&#45;&gt;fungible_asset -->
<g id="edge143" class="edge">
<title>primary_fungible_store&#45;&gt;fungible_asset</title>
<path fill="none" stroke="black" d="M823.01,-720.04C840.44,-699.99 872.09,-666.97 906,-648 943.18,-627.2 989.19,-614 1026.15,-605.98"/>
<polygon fill="black" stroke="black" points="1026.75,-609.43 1035.83,-603.96 1025.32,-602.57 1026.75,-609.43"/>
</g>
<!-- primary_fungible_store&#45;&gt;string -->
<g id="edge140" class="edge">
<title>primary_fungible_store&#45;&gt;string</title>
<path fill="none" stroke="black" d="M783.39,-720.3C753,-699.01 703.29,-659.25 678,-612 624.55,-512.14 596.12,-464.42 640,-360 675.43,-275.69 710.11,-265.52 787,-216 817.38,-196.44 856.1,-182.29 884.62,-173.56"/>
<polygon fill="black" stroke="black" points="885.35,-177 893.94,-170.8 883.36,-170.29 885.35,-177"/>
</g>
<!-- primary_fungible_store&#45;&gt;dispatchable_fungible_asset -->
<g id="edge144" class="edge">
<title>primary_fungible_store&#45;&gt;dispatchable_fungible_asset</title>
<path fill="none" stroke="black" d="M861.94,-722.41C901.18,-711.6 954.91,-696.79 996.96,-685.2"/>
<polygon fill="black" stroke="black" points="997.77,-688.61 1006.48,-682.58 995.91,-681.86 997.77,-688.61"/>
</g>
<!-- coin&#45;&gt;option -->
<g id="edge145" class="edge">
<title>coin&#45;&gt;option</title>
<path fill="none" stroke="black" d="M1577.74,-808.85C1435.22,-807.85 779.48,-800.83 702,-756 666.92,-735.71 502,-491.53 502,-451 502,-451 502,-451 502,-377 502,-206.06 644.61,-194.24 808,-144 900.58,-115.53 1191.78,-98.72 1305.18,-93.11"/>
<polygon fill="black" stroke="black" points="1305.2,-96.62 1315.02,-92.63 1304.86,-89.63 1305.2,-96.62"/>
</g>
<!-- coin&#45;&gt;signer -->
<g id="edge147" class="edge">
<title>coin&#45;&gt;signer</title>
<path fill="none" stroke="black" d="M1577.8,-808.37C1429.45,-804.81 721.29,-786.33 629,-756 449.71,-697.08 274,-711.73 274,-523 274,-523 274,-523 274,-449 274,-376.65 272.37,-355.66 298,-288 323.86,-219.72 376.14,-150.61 405.25,-115.21"/>
<polygon fill="black" stroke="black" points="407.78,-117.64 411.49,-107.72 402.4,-113.16 407.78,-117.64"/>
</g>
<!-- coin&#45;&gt;type_info -->
<g id="edge150" class="edge">
<title>coin&#45;&gt;type_info</title>
<path fill="none" stroke="black" d="M1632.31,-808.9C1753.65,-808.22 2244.45,-802.55 2390,-756 2460.58,-733.43 2531,-741.11 2531,-667 2531,-667 2531,-667 2531,-521 2531,-425.98 2510.66,-314.66 2500.15,-263.43"/>
<polygon fill="black" stroke="black" points="2503.6,-262.86 2498.13,-253.79 2496.75,-264.3 2503.6,-262.86"/>
</g>
<!-- coin&#45;&gt;event -->
<g id="edge154" class="edge">
<title>coin&#45;&gt;event</title>
<path fill="none" stroke="black" d="M1586.28,-796.49C1521.22,-752.87 1299.31,-602.73 1124,-468 1095.33,-445.97 1063.63,-419.29 1042.22,-400.92"/>
<polygon fill="black" stroke="black" points="1044.73,-398.46 1034.87,-394.58 1040.16,-403.76 1044.73,-398.46"/>
</g>
<!-- coin&#45;&gt;object -->
<g id="edge159" class="edge">
<title>coin&#45;&gt;object</title>
<path fill="none" stroke="black" d="M1598.88,-792.41C1587.2,-761.98 1559.66,-695.96 1524,-648 1496.24,-610.66 1484.42,-604.96 1448,-576 1432.6,-563.75 1414.37,-551.52 1399.22,-541.9"/>
<polygon fill="black" stroke="black" points="1401.37,-539.12 1391.04,-536.79 1397.66,-545.06 1401.37,-539.12"/>
</g>
<!-- coin&#45;&gt;fungible_asset -->
<g id="edge161" class="edge">
<title>coin&#45;&gt;fungible_asset</title>
<path fill="none" stroke="black" d="M1583.58,-798.63C1518.52,-767.2 1323.59,-673.57 1258,-648 1221.53,-633.78 1179.53,-620.4 1146.9,-610.64"/>
<polygon fill="black" stroke="black" points="1148.25,-607.39 1137.66,-607.9 1146.26,-614.1 1148.25,-607.39"/>
</g>
<!-- coin&#45;&gt;string -->
<g id="edge146" class="edge">
<title>coin&#45;&gt;string</title>
<path fill="none" stroke="black" d="M1577.64,-808.38C1427.01,-804.85 704.41,-786.36 669,-756 511.01,-620.54 537.19,-460.23 654,-288 679.4,-250.55 686.81,-238.62 726,-216 775.02,-187.71 839.55,-174.11 881.41,-167.87"/>
<polygon fill="black" stroke="black" points="881.66,-171.37 891.08,-166.51 880.69,-164.44 881.66,-171.37"/>
</g>
<!-- coin&#45;&gt;error -->
<g id="edge148" class="edge">
<title>coin&#45;&gt;error</title>
<path fill="none" stroke="black" d="M1631.95,-808.49C1775.84,-805.65 2450.21,-790.54 2536,-756 2742.51,-672.86 2758,-529.62 2758,-307 2758,-307 2758,-307 2758,-233 2758,-193.17 2750.57,-147.61 2745,-119.07"/>
<polygon fill="black" stroke="black" points="2748.46,-118.54 2743.05,-109.43 2741.6,-119.93 2748.46,-118.54"/>
</g>
<!-- coin&#45;&gt;features -->
<g id="edge149" class="edge">
<title>coin&#45;&gt;features</title>
<path fill="none" stroke="black" d="M1632.2,-809.08C1760.06,-809.19 2301.92,-806.6 2462,-756 2534.1,-733.21 2607,-742.62 2607,-667 2607,-667 2607,-667 2607,-521 2607,-383.02 2650.54,-309.44 2549,-216 2492.77,-164.25 2281.35,-197.65 2207,-180 2205.01,-179.53 2203,-178.99 2200.97,-178.41"/>
<polygon fill="black" stroke="black" points="2202.25,-175.14 2191.66,-175.38 2200.09,-181.8 2202.25,-175.14"/>
</g>
<!-- coin&#45;&gt;guid -->
<g id="edge153" class="edge">
<title>coin&#45;&gt;guid</title>
<path fill="none" stroke="black" d="M1577.95,-807.2C1466.22,-799.28 1041.78,-764.31 939,-684 824.75,-594.73 888.42,-474.78 977,-360 989.86,-343.33 1009.55,-330.36 1026.41,-321.42"/>
<polygon fill="black" stroke="black" points="1027.74,-324.67 1035.1,-317.06 1024.6,-318.42 1027.74,-324.67"/>
</g>
<!-- coin&#45;&gt;create_signer -->
<g id="edge155" class="edge">
<title>coin&#45;&gt;create_signer</title>
<path fill="none" stroke="black" d="M1608.75,-792.05C1614.29,-765.52 1624,-712.52 1624,-667 1624,-667 1624,-667 1624,-521 1624,-450.86 1540.93,-412.01 1482.41,-393.34"/>
<polygon fill="black" stroke="black" points="1483.46,-390 1472.87,-390.42 1481.41,-396.69 1483.46,-390"/>
</g>
<!-- coin&#45;&gt;account -->
<g id="edge156" class="edge">
<title>coin&#45;&gt;account</title>
<path fill="none" stroke="black" d="M1631.84,-807.42C1776.33,-798.59 2455,-752.56 2455,-667 2455,-667 2455,-667 2455,-593 2455,-472.15 2015.83,-454.07 1863.95,-451.43"/>
<polygon fill="black" stroke="black" points="1864.24,-447.93 1854.19,-451.28 1864.13,-454.93 1864.24,-447.93"/>
</g>
<!-- coin&#45;&gt;system_addresses -->
<g id="edge152" class="edge">
<title>coin&#45;&gt;system_addresses</title>
<path fill="none" stroke="black" d="M1632.26,-807.91C1742.12,-803.37 2152.54,-784.8 2279,-756 2379.44,-733.13 2493,-770.01 2493,-667 2493,-667 2493,-667 2493,-593 2493,-533.5 2446.02,-531 2393,-504 2292.67,-452.91 1995.6,-452.12 1898,-396 1879.18,-385.18 1883.24,-371.76 1865,-360 1836.76,-341.8 1801.69,-329.31 1771.42,-321.06"/>
<polygon fill="black" stroke="black" points="1772.53,-317.73 1761.97,-318.59 1770.76,-324.5 1772.53,-317.73"/>
</g>
<!-- coin&#45;&gt;primary_fungible_store -->
<g id="edge162" class="edge">
<title>coin&#45;&gt;primary_fungible_store</title>
<path fill="none" stroke="black" d="M1578.06,-806.63C1473.39,-797.43 1090.48,-763.75 907.57,-747.67"/>
<polygon fill="black" stroke="black" points="908.12,-744.2 897.85,-746.81 907.51,-751.18 908.12,-744.2"/>
</g>
<!-- coin&#45;&gt;table -->
<g id="edge151" class="edge">
<title>coin&#45;&gt;table</title>
<path fill="none" stroke="black" d="M1632.34,-808.9C1785.18,-808.14 2535.12,-802.13 2761,-756 3021.55,-702.79 3083.85,-664.2 3319,-540 3523.37,-432.06 3594.85,-421.48 3752,-252 3777.5,-224.5 3784.04,-215.54 3796,-180 3802.56,-160.51 3804.74,-137.36 3805.32,-119.56"/>
<polygon fill="black" stroke="black" points="3808.82,-119.77 3805.47,-109.72 3801.82,-119.66 3808.82,-119.77"/>
</g>
<!-- aggregator -->
<g id="node44" class="node">
<title>aggregator</title>
<ellipse fill="none" stroke="black" cx="2874" cy="-306" rx="50.33" ry="18"/>
<text text-anchor="middle" x="2874" y="-300.95" font-family="Times,serif" font-size="14.00">aggregator</text>
</g>
<!-- coin&#45;&gt;aggregator -->
<g id="edge157" class="edge">
<title>coin&#45;&gt;aggregator</title>
<path fill="none" stroke="black" d="M1632.4,-809.22C1789.33,-810.28 2570.13,-812.68 2659,-756 2689.51,-736.54 2680.86,-716.39 2697,-684 2714.02,-649.85 2823.3,-415.73 2861.13,-334.6"/>
<polygon fill="black" stroke="black" points="2864.28,-336.12 2865.34,-325.58 2857.94,-333.16 2864.28,-336.12"/>
</g>
<!-- aggregator_factory -->
<g id="node45" class="node">
<title>aggregator_factory</title>
<ellipse fill="none" stroke="black" cx="3019" cy="-378" rx="81.04" ry="18"/>
<text text-anchor="middle" x="3019" y="-372.95" font-family="Times,serif" font-size="14.00">aggregator_factory</text>
</g>
<!-- coin&#45;&gt;aggregator_factory -->
<g id="edge158" class="edge">
<title>coin&#45;&gt;aggregator_factory</title>
<path fill="none" stroke="black" d="M1632.35,-809.09C1794.4,-809.42 2624.81,-808.56 2724,-756 2812.36,-709.17 2788.17,-646.59 2859,-576 2915.91,-519.27 2962.08,-536.56 3004,-468 3015.01,-449.99 3018.59,-426.29 3019.5,-407.88"/>
<polygon fill="black" stroke="black" points="3023,-407.97 3019.74,-397.89 3016,-407.81 3023,-407.97"/>
</g>
<!-- optional_aggregator -->
<g id="node46" class="node">
<title>optional_aggregator</title>
<ellipse fill="none" stroke="black" cx="2910" cy="-450" rx="85.13" ry="18"/>
<text text-anchor="middle" x="2910" y="-444.95" font-family="Times,serif" font-size="14.00">optional_aggregator</text>
</g>
<!-- coin&#45;&gt;optional_aggregator -->
<g id="edge160" class="edge">
<title>coin&#45;&gt;optional_aggregator</title>
<path fill="none" stroke="black" d="M1632.34,-809.27C1792.45,-810.66 2604.68,-814.76 2697,-756 2727.52,-736.57 2719.2,-716.55 2735,-684 2757.94,-636.75 2753.09,-619.18 2783,-576 2810.66,-536.07 2852.16,-498.1 2880.12,-474.71"/>
<polygon fill="black" stroke="black" points="2882.04,-477.66 2887.52,-468.6 2877.58,-472.26 2882.04,-477.66"/>
</g>
<!-- aptos_coin&#45;&gt;vector -->
<g id="edge163" class="edge">
<title>aptos_coin&#45;&gt;vector</title>
<path fill="none" stroke="black" d="M475.03,-867C455.27,-857.21 429.22,-843.2 408,-828 245.1,-711.33 76,-723.37 76,-523 76,-523 76,-523 76,-305 76,-229.38 77.26,-197.2 131,-144 203.52,-72.22 248.44,-89.32 349,-72 588.94,-30.68 2391.78,-20.62 2701.71,-19.19"/>
<polygon fill="black" stroke="black" points="2701.42,-22.69 2711.4,-19.15 2701.39,-15.69 2701.42,-22.69"/>
</g>
<!-- aptos_coin&#45;&gt;option -->
<g id="edge164" class="edge">
<title>aptos_coin&#45;&gt;option</title>
<path fill="none" stroke="black" d="M502.02,-863.84C492.05,-804.14 461.39,-599.98 477,-432 483.03,-367.16 482.9,-349.6 504,-288 515.66,-253.96 515.6,-241.48 541,-216 590.12,-166.72 613.1,-163.12 680,-144 797.93,-110.3 1173.62,-96.23 1305.06,-92.26"/>
<polygon fill="black" stroke="black" points="1304.87,-95.76 1314.76,-91.97 1304.67,-88.77 1304.87,-95.76"/>
</g>
<!-- aptos_coin&#45;&gt;signer -->
<g id="edge166" class="edge">
<title>aptos_coin&#45;&gt;signer</title>
<path fill="none" stroke="black" d="M485.96,-864.89C413.63,-801.76 160,-562.21 160,-307 160,-307 160,-307 160,-233 160,-133.66 306.15,-103.57 381.79,-94.65"/>
<polygon fill="black" stroke="black" points="381.79,-98.17 391.34,-93.6 381.02,-91.21 381.79,-98.17"/>
</g>
<!-- aptos_coin&#45;&gt;string -->
<g id="edge165" class="edge">
<title>aptos_coin&#45;&gt;string</title>
<path fill="none" stroke="black" d="M496.7,-863.97C484.72,-837.77 464,-785.7 464,-739 464,-739 464,-739 464,-665 464,-444.32 492.86,-339.13 676,-216 709.12,-193.73 819.73,-176.42 881.45,-168.21"/>
<polygon fill="black" stroke="black" points="881.78,-171.7 891.24,-166.94 880.87,-164.76 881.78,-171.7"/>
</g>
<!-- aptos_coin&#45;&gt;error -->
<g id="edge167" class="edge">
<title>aptos_coin&#45;&gt;error</title>
<path fill="none" stroke="black" d="M556.11,-880.64C897.61,-877.92 2835,-857.25 2835,-739 2835,-739 2835,-739 2835,-593 2835,-536.81 2823.69,-523.67 2816,-468 2806.14,-396.57 2796,-379.11 2796,-307 2796,-307 2796,-307 2796,-233 2796,-189.66 2772.85,-143.88 2756.05,-116.38"/>
<polygon fill="black" stroke="black" points="2759.1,-114.65 2750.8,-108.06 2753.18,-118.38 2759.1,-114.65"/>
</g>
<!-- aptos_coin&#45;&gt;system_addresses -->
<g id="edge168" class="edge">
<title>aptos_coin&#45;&gt;system_addresses</title>
<path fill="none" stroke="black" d="M552.16,-874.78C687.5,-855.2 1085.21,-785.54 1362,-612 1496.46,-527.7 1628.76,-389.19 1680.36,-332.45"/>
<polygon fill="black" stroke="black" points="1682.81,-334.95 1686.92,-325.19 1677.62,-330.26 1682.81,-334.95"/>
</g>
<!-- aptos_coin&#45;&gt;coin -->
<g id="edge169" class="edge">
<title>aptos_coin&#45;&gt;coin</title>
<path fill="none" stroke="black" d="M554.76,-877.83C741.74,-865.93 1400.08,-824.04 1566.54,-813.45"/>
<polygon fill="black" stroke="black" points="1566.61,-816.95 1576.37,-812.82 1566.17,-809.96 1566.61,-816.95"/>
</g>
<!-- string_utils&#45;&gt;string -->
<g id="edge170" class="edge">
<title>string_utils&#45;&gt;string</title>
<path fill="none" stroke="black" d="M271.34,-791.64C277.05,-727.75 304.28,-501.99 412,-360 468.24,-285.86 480.3,-256.67 564,-216 619.23,-189.17 798.17,-172.52 881.09,-166.07"/>
<polygon fill="black" stroke="black" points="881.15,-169.57 890.86,-165.32 880.62,-162.59 881.15,-169.57"/>
</g>
<!-- ed25519&#45;&gt;option -->
<g id="edge171" class="edge">
<title>ed25519&#45;&gt;option</title>
<path fill="none" stroke="black" d="M1991.32,-299.01C1902.68,-285.6 1696.05,-254.15 1693,-252 1648.27,-220.52 1678.26,-176.13 1634,-144 1596.69,-116.91 1466.19,-101.34 1396.19,-94.76"/>
<polygon fill="black" stroke="black" points="1396.87,-91.3 1386.59,-93.88 1396.23,-98.27 1396.87,-91.3"/>
</g>
<!-- ed25519&#45;&gt;type_info -->
<g id="edge174" class="edge">
<title>ed25519&#45;&gt;type_info</title>
<path fill="none" stroke="black" d="M2070.88,-298.97C2154.05,-286.4 2346.1,-257.36 2440.15,-243.14"/>
<polygon fill="black" stroke="black" points="2440.52,-246.62 2449.89,-241.67 2439.48,-239.7 2440.52,-246.62"/>
</g>
<!-- ed25519&#45;&gt;error -->
<g id="edge172" class="edge">
<title>ed25519&#45;&gt;error</title>
<path fill="none" stroke="black" d="M2073.09,-302.59C2124.74,-298.21 2213.84,-285.97 2282,-252 2347.41,-219.4 2339.79,-174.94 2406,-144 2503.86,-98.27 2633.64,-90.93 2698.5,-90.39"/>
<polygon fill="black" stroke="black" points="2698.32,-93.89 2708.31,-90.37 2698.31,-86.89 2698.32,-93.89"/>
</g>
<!-- ed25519&#45;&gt;bcs -->
<g id="edge173" class="edge">
<title>ed25519&#45;&gt;bcs</title>
<path fill="none" stroke="black" d="M1990.78,-299.68C1896.19,-287.12 1667.03,-256.33 1660,-252 1636.49,-237.52 1619.57,-210.42 1609.4,-189.92"/>
<polygon fill="black" stroke="black" points="1612.63,-188.55 1605.22,-180.98 1606.29,-191.52 1612.63,-188.55"/>
</g>
<!-- ed25519&#45;&gt;hash -->
<g id="edge175" class="edge">
<title>ed25519&#45;&gt;hash</title>
<path fill="none" stroke="black" d="M2007.04,-290.67C1988.71,-279.7 1963.33,-264.51 1943.7,-252.77"/>
<polygon fill="black" stroke="black" points="1945.71,-249.89 1935.33,-247.76 1942.12,-255.9 1945.71,-249.89"/>
</g>
<!-- multi_ed25519&#45;&gt;option -->
<g id="edge176" class="edge">
<title>multi_ed25519&#45;&gt;option</title>
<path fill="none" stroke="black" d="M2041.6,-366.03C1975.46,-351.81 1868.06,-328.31 1860,-324 1839.48,-313.03 1842.86,-298.3 1822,-288 1731.6,-243.34 1690.41,-292.35 1598,-252 1526.62,-220.83 1526.06,-185.26 1460,-144 1436.95,-129.6 1409.41,-116.24 1387.77,-106.53"/>
<polygon fill="black" stroke="black" points="1389.31,-103.39 1378.75,-102.55 1386.49,-109.79 1389.31,-103.39"/>
</g>
<!-- multi_ed25519&#45;&gt;error -->
<g id="edge177" class="edge">
<title>multi_ed25519&#45;&gt;error</title>
<path fill="none" stroke="black" d="M2121.4,-361.3C2214.85,-309.65 2507.45,-148.07 2518,-144 2579.5,-120.26 2654.85,-104.93 2699.78,-97.15"/>
<polygon fill="black" stroke="black" points="2700.3,-100.61 2709.58,-95.49 2699.13,-93.71 2700.3,-100.61"/>
</g>
<!-- multi_ed25519&#45;&gt;features -->
<g id="edge178" class="edge">
<title>multi_ed25519&#45;&gt;features</title>
<path fill="none" stroke="black" d="M2095.06,-359.63C2096.44,-340.67 2096.06,-310.08 2083,-288 2068.88,-264.12 2044.76,-276.63 2032,-252 2024.64,-237.79 2023.07,-229.28 2032,-216 2049.83,-189.48 2083.49,-176.22 2112.09,-169.6"/>
<polygon fill="black" stroke="black" points="2112.6,-173.07 2121.68,-167.61 2111.18,-166.22 2112.6,-173.07"/>
</g>
<!-- multi_ed25519&#45;&gt;bcs -->
<g id="edge179" class="edge">
<title>multi_ed25519&#45;&gt;bcs</title>
<path fill="none" stroke="black" d="M2051.67,-363.44C2021.15,-353.2 1978.7,-338.47 1942,-324 1904.97,-309.4 1898.23,-299.06 1860,-288 1756.81,-258.15 1700.78,-323.93 1621,-252 1604.31,-236.96 1599.02,-211.54 1597.64,-191.71"/>
<polygon fill="black" stroke="black" points="1601.14,-191.61 1597.28,-181.75 1594.15,-191.87 1601.14,-191.61"/>
</g>
<!-- multi_ed25519&#45;&gt;hash -->
<g id="edge180" class="edge">
<title>multi_ed25519&#45;&gt;hash</title>
<path fill="none" stroke="black" d="M2051.38,-363.49C2028.42,-354.67 2000.34,-341.52 1979,-324 1957.69,-306.5 1939.78,-280.5 1928.19,-261.12"/>
<polygon fill="black" stroke="black" points="1931.36,-259.61 1923.33,-252.7 1925.3,-263.11 1931.36,-259.61"/>
</g>
<!-- multi_ed25519&#45;&gt;ed25519 -->
<g id="edge181" class="edge">
<title>multi_ed25519&#45;&gt;ed25519</title>
<path fill="none" stroke="black" d="M2077.99,-360.05C2070.5,-351.59 2061.28,-341.19 2053.01,-331.84"/>
<polygon fill="black" stroke="black" points="2055.7,-329.61 2046.45,-324.44 2050.46,-334.25 2055.7,-329.61"/>
</g>
<!-- chain_id&#45;&gt;system_addresses -->
<g id="edge182" class="edge">
<title>chain_id&#45;&gt;system_addresses</title>
<path fill="none" stroke="black" d="M1790.21,-362.5C1775.16,-352.92 1755.15,-340.19 1738.1,-329.33"/>
<polygon fill="black" stroke="black" points="1740.05,-326.43 1729.73,-324.01 1736.29,-332.33 1740.05,-326.43"/>
</g>
<!-- big_vector&#45;&gt;vector -->
<g id="edge183" class="edge">
<title>big_vector&#45;&gt;vector</title>
<path fill="none" stroke="black" d="M3588.01,-221.73C3608.16,-213.61 3631.14,-200.41 3643,-180 3651.04,-166.17 3652.64,-156.77 3643,-144 3572.55,-50.7 3505.03,-92.9 3390,-72 3168.48,-31.75 2898.42,-22.03 2792.61,-19.71"/>
<polygon fill="black" stroke="black" points="2792.7,-16.22 2782.63,-19.51 2792.56,-23.21 2792.7,-16.22"/>
</g>
<!-- big_vector&#45;&gt;error -->
<g id="edge184" class="edge">
<title>big_vector&#45;&gt;error</title>
<path fill="none" stroke="black" d="M3526.04,-217.87C3510.14,-207.6 3488.96,-193.49 3471,-180 3451.07,-165.04 3451.08,-153.4 3428,-144 3309.22,-95.6 2908.18,-91.08 2779.27,-90.9"/>
<polygon fill="black" stroke="black" points="2779.52,-87.4 2769.52,-90.9 2779.52,-94.4 2779.52,-87.4"/>
</g>
<!-- big_vector&#45;&gt;table_with_length -->
<g id="edge185" class="edge">
<title>big_vector&#45;&gt;table_with_length</title>
<path fill="none" stroke="black" d="M3551.73,-215.7C3552.46,-208.41 3553.33,-199.73 3554.15,-191.54"/>
<polygon fill="black" stroke="black" points="3557.63,-191.91 3555.14,-181.61 3550.66,-191.21 3557.63,-191.91"/>
</g>
<!-- aggregator_factory&#45;&gt;error -->
<g id="edge186" class="edge">
<title>aggregator_factory&#45;&gt;error</title>
<path fill="none" stroke="black" d="M3009.95,-359.66C3000.07,-341.27 2983.31,-311.65 2966,-288 2953.36,-270.73 2947.78,-268.38 2934,-252 2894.49,-205.05 2895.89,-182.36 2848,-144 2825.84,-126.25 2796.76,-112.49 2774.21,-103.44"/>
<polygon fill="black" stroke="black" points="2775.73,-100.27 2765.14,-99.93 2773.2,-106.8 2775.73,-100.27"/>
</g>
<!-- aggregator_factory&#45;&gt;system_addresses -->
<g id="edge188" class="edge">
<title>aggregator_factory&#45;&gt;system_addresses</title>
<path fill="none" stroke="black" d="M2940.38,-373.28C2766.85,-365 2337.98,-344.2 1979,-324 1914.9,-320.39 1842.45,-315.91 1787.86,-312.46"/>
<polygon fill="black" stroke="black" points="1788.21,-308.98 1778.01,-311.84 1787.77,-315.96 1788.21,-308.98"/>
</g>
<!-- aggregator_factory&#45;&gt;table -->
<g id="edge187" class="edge">
<title>aggregator_factory&#45;&gt;table</title>
<path fill="none" stroke="black" d="M3078.94,-365.51C3090.54,-363.51 3102.63,-361.56 3114,-360 3365.98,-325.38 3470.56,-401.96 3676,-252 3727.08,-214.71 3769.07,-152.27 3790.2,-117.11"/>
<polygon fill="black" stroke="black" points="3793.01,-119.24 3795.07,-108.85 3786.98,-115.69 3793.01,-119.24"/>
</g>
<!-- aggregator_factory&#45;&gt;aggregator -->
<g id="edge189" class="edge">
<title>aggregator_factory&#45;&gt;aggregator</title>
<path fill="none" stroke="black" d="M2986.1,-361.12C2964.46,-350.67 2936.03,-336.94 2913.21,-325.93"/>
<polygon fill="black" stroke="black" points="2914.74,-322.78 2904.21,-321.58 2911.69,-329.08 2914.74,-322.78"/>
</g>
<!-- optional_aggregator&#45;&gt;option -->
<g id="edge190" class="edge">
<title>optional_aggregator&#45;&gt;option</title>
<path fill="none" stroke="black" d="M2826.49,-446.25C2619.36,-439.11 2093.16,-418.95 2017,-396 1986.49,-386.81 1984.41,-372.27 1955,-360 1898.48,-336.42 1874.32,-355.83 1822,-324 1803.46,-312.72 1808.19,-298.14 1789,-288 1689.74,-235.57 1641.24,-298.35 1539,-252 1467.92,-219.78 1403.08,-152.25 1371.39,-115.72"/>
<polygon fill="black" stroke="black" points="1374.21,-113.63 1365.05,-108.29 1368.88,-118.17 1374.21,-113.63"/>
</g>
<!-- optional_aggregator&#45;&gt;error -->
<g id="edge191" class="edge">
<title>optional_aggregator&#45;&gt;error</title>
<path fill="none" stroke="black" d="M2914.21,-431.75C2919.81,-407.76 2929.45,-362.89 2933,-324 2934.45,-308.07 2938.54,-303.01 2933,-288 2931.18,-283.06 2813.84,-147.6 2810,-144 2796.9,-131.73 2780.99,-119.64 2767.56,-110.11"/>
<polygon fill="black" stroke="black" points="2769.74,-107.36 2759.53,-104.52 2765.74,-113.1 2769.74,-107.36"/>
</g>
<!-- optional_aggregator&#45;&gt;aggregator -->
<g id="edge192" class="edge">
<title>optional_aggregator&#45;&gt;aggregator</title>
<path fill="none" stroke="black" d="M2905.39,-431.83C2902.63,-421.47 2899.06,-407.99 2896,-396 2890.84,-375.83 2885.21,-353.03 2880.94,-335.56"/>
<polygon fill="black" stroke="black" points="2884.35,-334.77 2878.58,-325.89 2877.55,-336.43 2884.35,-334.77"/>
</g>
<!-- optional_aggregator&#45;&gt;aggregator_factory -->
<g id="edge193" class="edge">
<title>optional_aggregator&#45;&gt;aggregator_factory</title>
<path fill="none" stroke="black" d="M2935.83,-432.41C2950.22,-423.17 2968.34,-411.54 2983.99,-401.49"/>
<polygon fill="black" stroke="black" points="2985.56,-404.64 2992.08,-396.29 2981.77,-398.75 2985.56,-404.64"/>
</g>
</g>
</svg>
