<?xml version="1.0" encoding="UTF-8" standalone="no"?>
<!DOCTYPE svg PUBLIC "-//W3C//DTD SVG 1.1//EN"
 "http://www.w3.org/Graphics/SVG/1.1/DTD/svg11.dtd">
<!-- Generated by graphviz version 12.1.2 (20240928.0832)
 -->
<!-- Title: G Pages: 1 -->
<svg width="884pt" height="404pt"
 viewBox="0.00 0.00 883.63 404.00" xmlns="http://www.w3.org/2000/svg" xmlns:xlink="http://www.w3.org/1999/xlink">
<g id="graph0" class="graph" transform="scale(1 1) rotate(0) translate(4 400)">
<title>G</title>
<polygon fill="white" stroke="none" points="-4,4 -4,-400 879.63,-400 879.63,4 -4,4"/>
<!-- player -->
<g id="node1" class="node">
<title>player</title>
<ellipse fill="none" stroke="black" cx="259.63" cy="-378" rx="33.95" ry="18"/>
<text text-anchor="middle" x="259.63" y="-372.95" font-family="Times,serif" font-size="14.00">player</text>
</g>
<!-- vector -->
<g id="node2" class="node">
<title>vector</title>
<ellipse fill="none" stroke="black" cx="627.63" cy="-18" rx="33.95" ry="18"/>
<text text-anchor="middle" x="627.63" y="-12.95" font-family="Times,serif" font-size="14.00">vector</text>
</g>
<!-- player&#45;&gt;vector -->
<g id="edge1" class="edge">
<title>player&#45;&gt;vector</title>
<path fill="none" stroke="black" d="M293.63,-376.51C422.77,-373.74 875.63,-355.45 875.63,-235 875.63,-235 875.63,-235 875.63,-161 875.63,-68.3 743.52,-35.27 672.14,-24.19"/>
<polygon fill="black" stroke="black" points="672.72,-20.74 662.32,-22.76 671.71,-27.67 672.72,-20.74"/>
</g>
<!-- signer -->
<g id="node3" class="node">
<title>signer</title>
<ellipse fill="none" stroke="black" cx="263.63" cy="-90" rx="33.44" ry="18"/>
<text text-anchor="middle" x="263.63" y="-84.95" font-family="Times,serif" font-size="14.00">signer</text>
</g>
<!-- player&#45;&gt;signer -->
<g id="edge2" class="edge">
<title>player&#45;&gt;signer</title>
<path fill="none" stroke="black" d="M225.8,-375.2C182.95,-371.44 108.46,-359.84 56.63,-324 12.97,-293.81 -11.38,-266.28 5.63,-216 18.54,-177.85 27.1,-166.3 60.63,-144 74.08,-135.05 166.36,-113.06 221.76,-100.39"/>
<polygon fill="black" stroke="black" points="222.53,-103.81 231.51,-98.18 220.98,-96.98 222.53,-103.81"/>
</g>
<!-- event -->
<g id="node4" class="node">
<title>event</title>
<ellipse fill="none" stroke="black" cx="96.63" cy="-306" rx="30.88" ry="18"/>
<text text-anchor="middle" x="96.63" y="-300.95" font-family="Times,serif" font-size="14.00">event</text>
</g>
<!-- player&#45;&gt;event -->
<g id="edge3" class="edge">
<title>player&#45;&gt;event</title>
<path fill="none" stroke="black" d="M233.81,-365.91C206.1,-354.01 161.96,-335.05 131.26,-321.87"/>
<polygon fill="black" stroke="black" points="132.97,-318.8 122.4,-318.07 130.21,-325.23 132.97,-318.8"/>
</g>
<!-- smart_vector -->
<g id="node5" class="node">
<title>smart_vector</title>
<ellipse fill="none" stroke="black" cx="453.63" cy="-306" rx="59.54" ry="18"/>
<text text-anchor="middle" x="453.63" y="-300.95" font-family="Times,serif" font-size="14.00">smart_vector</text>
</g>
<!-- player&#45;&gt;smart_vector -->
<g id="edge4" class="edge">
<title>player&#45;&gt;smart_vector</title>
<path fill="none" stroke="black" d="M287.02,-367.12C317.82,-356.01 368.41,-337.75 405.78,-324.27"/>
<polygon fill="black" stroke="black" points="406.78,-327.63 415,-320.94 404.41,-321.04 406.78,-327.63"/>
</g>
<!-- bcs -->
<g id="node6" class="node">
<title>bcs</title>
<ellipse fill="none" stroke="black" cx="96.63" cy="-162" rx="27" ry="18"/>
<text text-anchor="middle" x="96.63" y="-156.95" font-family="Times,serif" font-size="14.00">bcs</text>
</g>
<!-- event&#45;&gt;bcs -->
<g id="edge5" class="edge">
<title>event&#45;&gt;bcs</title>
<path fill="none" stroke="black" d="M96.63,-287.59C96.63,-263.61 96.63,-220.14 96.63,-191.42"/>
<polygon fill="black" stroke="black" points="100.13,-191.62 96.63,-181.62 93.13,-191.62 100.13,-191.62"/>
</g>
<!-- guid -->
<g id="node7" class="node">
<title>guid</title>
<ellipse fill="none" stroke="black" cx="41.63" cy="-234" rx="27.3" ry="18"/>
<text text-anchor="middle" x="41.63" y="-228.95" font-family="Times,serif" font-size="14.00">guid</text>
</g>
<!-- event&#45;&gt;guid -->
<g id="edge6" class="edge">
<title>event&#45;&gt;guid</title>
<path fill="none" stroke="black" d="M84.15,-289.12C77.24,-280.31 68.49,-269.18 60.73,-259.31"/>
<polygon fill="black" stroke="black" points="63.55,-257.23 54.62,-251.53 58.05,-261.56 63.55,-257.23"/>
</g>
<!-- smart_vector&#45;&gt;vector -->
<g id="edge7" class="edge">
<title>smart_vector&#45;&gt;vector</title>
<path fill="none" stroke="black" d="M512.65,-302.73C569.12,-298.44 655.26,-286.28 721.63,-252 762.97,-230.65 779.25,-222.74 797.63,-180 817.57,-133.65 799.68,-106.25 762.63,-72 737.01,-48.31 699.56,-34.74 670.6,-27.27"/>
<polygon fill="black" stroke="black" points="671.58,-23.9 661.03,-24.96 669.94,-30.71 671.58,-23.9"/>
</g>
<!-- option -->
<g id="node8" class="node">
<title>option</title>
<ellipse fill="none" stroke="black" cx="140.63" cy="-90" rx="34.46" ry="18"/>
<text text-anchor="middle" x="140.63" y="-84.95" font-family="Times,serif" font-size="14.00">option</text>
</g>
<!-- smart_vector&#45;&gt;option -->
<g id="edge8" class="edge">
<title>smart_vector&#45;&gt;option</title>
<path fill="none" stroke="black" d="M401.75,-296.85C303.63,-280.2 97.42,-238.8 60.63,-180 52.15,-166.44 53.06,-158.1 60.63,-144 69.69,-127.14 86.72,-114.74 102.74,-106.2"/>
<polygon fill="black" stroke="black" points="104.26,-109.35 111.68,-101.8 101.16,-103.07 104.26,-109.35"/>
</g>
<!-- error -->
<g id="node9" class="node">
<title>error</title>
<ellipse fill="none" stroke="black" cx="532.63" cy="-90" rx="28.83" ry="18"/>
<text text-anchor="middle" x="532.63" y="-84.95" font-family="Times,serif" font-size="14.00">error</text>
</g>
<!-- smart_vector&#45;&gt;error -->
<g id="edge9" class="edge">
<title>smart_vector&#45;&gt;error</title>
<path fill="none" stroke="black" d="M472.64,-288.63C482.71,-278.95 494.45,-265.89 501.63,-252 523.64,-209.44 530.11,-153.24 531.96,-119.74"/>
<polygon fill="black" stroke="black" points="535.45,-120.15 532.39,-110 528.45,-119.84 535.45,-120.15"/>
</g>
<!-- type_info -->
<g id="node10" class="node">
<title>type_info</title>
<ellipse fill="none" stroke="black" cx="263.63" cy="-234" rx="46.23" ry="18"/>
<text text-anchor="middle" x="263.63" y="-228.95" font-family="Times,serif" font-size="14.00">type_info</text>
</g>
<!-- smart_vector&#45;&gt;type_info -->
<g id="edge10" class="edge">
<title>smart_vector&#45;&gt;type_info</title>
<path fill="none" stroke="black" d="M417,-291.5C385.61,-279.94 340.34,-263.26 307.12,-251.02"/>
<polygon fill="black" stroke="black" points="308.36,-247.75 297.77,-247.58 305.94,-254.32 308.36,-247.75"/>
</g>
<!-- math64 -->
<g id="node11" class="node">
<title>math64</title>
<ellipse fill="none" stroke="black" cx="453.63" cy="-234" rx="39.07" ry="18"/>
<text text-anchor="middle" x="453.63" y="-228.95" font-family="Times,serif" font-size="14.00">math64</text>
</g>
<!-- smart_vector&#45;&gt;math64 -->
<g id="edge11" class="edge">
<title>smart_vector&#45;&gt;math64</title>
<path fill="none" stroke="black" d="M453.63,-287.7C453.63,-280.41 453.63,-271.73 453.63,-263.54"/>
<polygon fill="black" stroke="black" points="457.13,-263.62 453.63,-253.62 450.13,-263.62 457.13,-263.62"/>
</g>
<!-- big_vector -->
<g id="node12" class="node">
<title>big_vector</title>
<ellipse fill="none" stroke="black" cx="662.63" cy="-234" rx="50.33" ry="18"/>
<text text-anchor="middle" x="662.63" y="-228.95" font-family="Times,serif" font-size="14.00">big_vector</text>
</g>
<!-- smart_vector&#45;&gt;big_vector -->
<g id="edge12" class="edge">
<title>smart_vector&#45;&gt;big_vector</title>
<path fill="none" stroke="black" d="M492.45,-292C527.48,-280.27 579.06,-262.99 616.25,-250.54"/>
<polygon fill="black" stroke="black" points="617,-253.97 625.38,-247.48 614.78,-247.34 617,-253.97"/>
</g>
<!-- option&#45;&gt;vector -->
<g id="edge13" class="edge">
<title>option&#45;&gt;vector</title>
<path fill="none" stroke="black" d="M167.48,-78.32C174.3,-75.94 181.66,-73.63 188.63,-72 330.04,-38.85 502.21,-25.75 582.44,-21.17"/>
<polygon fill="black" stroke="black" points="582.29,-24.69 592.08,-20.64 581.91,-17.7 582.29,-24.69"/>
</g>
<!-- type_info&#45;&gt;bcs -->
<g id="edge17" class="edge">
<title>type_info&#45;&gt;bcs</title>
<path fill="none" stroke="black" d="M231.66,-220.65C205,-210.21 166.12,-194.67 132.63,-180 131.13,-179.34 129.59,-178.66 128.05,-177.96"/>
<polygon fill="black" stroke="black" points="129.78,-174.91 119.24,-173.9 126.85,-181.27 129.78,-174.91"/>
</g>
<!-- type_info&#45;&gt;error -->
<g id="edge15" class="edge">
<title>type_info&#45;&gt;error</title>
<path fill="none" stroke="black" d="M278.75,-216.66C301.34,-192.38 342.15,-149.08 350.63,-144 395.4,-117.16 454.55,-103.24 493.08,-96.52"/>
<polygon fill="black" stroke="black" points="493.55,-99.99 502.84,-94.91 492.41,-93.09 493.55,-99.99"/>
</g>
<!-- string -->
<g id="node13" class="node">
<title>string</title>
<ellipse fill="none" stroke="black" cx="173.63" cy="-162" rx="31.9" ry="18"/>
<text text-anchor="middle" x="173.63" y="-156.95" font-family="Times,serif" font-size="14.00">string</text>
</g>
<!-- type_info&#45;&gt;string -->
<g id="edge14" class="edge">
<title>type_info&#45;&gt;string</title>
<path fill="none" stroke="black" d="M243.66,-217.46C231.04,-207.65 214.56,-194.83 200.76,-184.1"/>
<polygon fill="black" stroke="black" points="202.95,-181.37 192.91,-177.99 198.66,-186.9 202.95,-181.37"/>
</g>
<!-- features -->
<g id="node14" class="node">
<title>features</title>
<ellipse fill="none" stroke="black" cx="263.63" cy="-162" rx="40.09" ry="18"/>
<text text-anchor="middle" x="263.63" y="-156.95" font-family="Times,serif" font-size="14.00">features</text>
</g>
<!-- type_info&#45;&gt;features -->
<g id="edge16" class="edge">
<title>type_info&#45;&gt;features</title>
<path fill="none" stroke="black" d="M263.63,-215.7C263.63,-208.41 263.63,-199.73 263.63,-191.54"/>
<polygon fill="black" stroke="black" points="267.13,-191.62 263.63,-181.62 260.13,-191.62 267.13,-191.62"/>
</g>
<!-- math64&#45;&gt;error -->
<g id="edge18" class="edge">
<title>math64&#45;&gt;error</title>
<path fill="none" stroke="black" d="M467.7,-217.06C476.2,-206.92 486.86,-193.24 494.63,-180 506.13,-160.42 516.08,-136.7 522.91,-118.68"/>
<polygon fill="black" stroke="black" points="526.15,-120.03 526.32,-109.44 519.58,-117.61 526.15,-120.03"/>
</g>
<!-- fixed_point32 -->
<g id="node15" class="node">
<title>fixed_point32</title>
<ellipse fill="none" stroke="black" cx="422.63" cy="-162" rx="62.61" ry="18"/>
<text text-anchor="middle" x="422.63" y="-156.95" font-family="Times,serif" font-size="14.00">fixed_point32</text>
</g>
<!-- math64&#45;&gt;fixed_point32 -->
<g id="edge19" class="edge">
<title>math64&#45;&gt;fixed_point32</title>
<path fill="none" stroke="black" d="M446.13,-216.05C442.75,-208.43 438.68,-199.23 434.88,-190.65"/>
<polygon fill="black" stroke="black" points="438.15,-189.39 430.9,-181.66 431.75,-192.22 438.15,-189.39"/>
</g>
<!-- big_vector&#45;&gt;vector -->
<g id="edge20" class="edge">
<title>big_vector&#45;&gt;vector</title>
<path fill="none" stroke="black" d="M707.24,-225.34C733.43,-218.3 764.47,-204.98 780.63,-180 789.33,-166.57 785.27,-159.31 780.63,-144 769.49,-107.19 761.42,-97.51 732.63,-72 713.24,-54.82 687.28,-41.65 666.02,-32.73"/>
<polygon fill="black" stroke="black" points="667.38,-29.51 656.8,-29.03 664.77,-36 667.38,-29.51"/>
</g>
<!-- big_vector&#45;&gt;error -->
<g id="edge21" class="edge">
<title>big_vector&#45;&gt;error</title>
<path fill="none" stroke="black" d="M645.22,-216.67C634.45,-206.37 620.46,-192.68 608.63,-180 588.8,-158.75 567.4,-133.45 552.38,-115.27"/>
<polygon fill="black" stroke="black" points="555.16,-113.14 546.11,-107.64 549.75,-117.59 555.16,-113.14"/>
</g>
<!-- table_with_length -->
<g id="node16" class="node">
<title>table_with_length</title>
<ellipse fill="none" stroke="black" cx="694.63" cy="-162" rx="77.45" ry="18"/>
<text text-anchor="middle" x="694.63" y="-156.95" font-family="Times,serif" font-size="14.00">table_with_length</text>
</g>
<!-- big_vector&#45;&gt;table_with_length -->
<g id="edge22" class="edge">
<title>big_vector&#45;&gt;table_with_length</title>
<path fill="none" stroke="black" d="M670.38,-216.05C673.86,-208.43 678.07,-199.23 681.99,-190.65"/>
<polygon fill="black" stroke="black" points="685.13,-192.2 686.11,-181.65 678.77,-189.29 685.13,-192.2"/>
</g>
<!-- string&#45;&gt;vector -->
<g id="edge23" class="edge">
<title>string&#45;&gt;vector</title>
<path fill="none" stroke="black" d="M177.82,-143.71C183.8,-123.02 196.91,-89.02 221.63,-72 279.32,-32.28 488.79,-22.3 582.17,-19.82"/>
<polygon fill="black" stroke="black" points="582.07,-23.32 591.98,-19.58 581.9,-16.32 582.07,-23.32"/>
</g>
<!-- string&#45;&gt;option -->
<g id="edge24" class="edge">
<title>string&#45;&gt;option</title>
<path fill="none" stroke="black" d="M165.81,-144.41C162.13,-136.59 157.63,-127.06 153.47,-118.23"/>
<polygon fill="black" stroke="black" points="156.7,-116.88 149.27,-109.33 150.37,-119.86 156.7,-116.88"/>
</g>
<!-- features&#45;&gt;vector -->
<g id="edge25" class="edge">
<title>features&#45;&gt;vector</title>
<path fill="none" stroke="black" d="M293.11,-149.5C358.96,-123.81 517.87,-61.82 590.41,-33.52"/>
<polygon fill="black" stroke="black" points="591.42,-36.89 599.46,-29.99 588.87,-30.36 591.42,-36.89"/>
</g>
<!-- features&#45;&gt;signer -->
<g id="edge26" class="edge">
<title>features&#45;&gt;signer</title>
<path fill="none" stroke="black" d="M263.63,-143.7C263.63,-136.41 263.63,-127.73 263.63,-119.54"/>
<polygon fill="black" stroke="black" points="267.13,-119.62 263.63,-109.62 260.13,-119.62 267.13,-119.62"/>
</g>
<!-- features&#45;&gt;error -->
<g id="edge27" class="edge">
<title>features&#45;&gt;error</title>
<path fill="none" stroke="black" d="M295.51,-150.6C302.76,-148.33 310.44,-146.02 317.63,-144 379.18,-126.75 451.46,-109.55 494.58,-99.61"/>
<polygon fill="black" stroke="black" points="495.24,-103.05 504.2,-97.41 493.67,-96.23 495.24,-103.05"/>
</g>
<!-- table_with_length&#45;&gt;error -->
<g id="edge28" class="edge">
<title>table_with_length&#45;&gt;error</title>
<path fill="none" stroke="black" d="M659.08,-145.64C631.41,-133.68 593.28,-117.21 566.15,-105.48"/>
<polygon fill="black" stroke="black" points="567.57,-102.28 557,-101.53 564.79,-108.71 567.57,-102.28"/>
</g>
<!-- table -->
<g id="node17" class="node">
<title>table</title>
<ellipse fill="none" stroke="black" cx="694.63" cy="-90" rx="28.83" ry="18"/>
<text text-anchor="middle" x="694.63" y="-84.95" font-family="Times,serif" font-size="14.00">table</text>
</g>
<!-- table_with_length&#45;&gt;table -->
<g id="edge29" class="edge">
<title>table_with_length&#45;&gt;table</title>
<path fill="none" stroke="black" d="M694.63,-143.7C694.63,-136.41 694.63,-127.73 694.63,-119.54"/>
<polygon fill="black" stroke="black" points="698.13,-119.62 694.63,-109.62 691.13,-119.62 698.13,-119.62"/>
</g>
</g>
</svg>
