<?xml version="1.0" encoding="UTF-8" standalone="no"?>
<!DOCTYPE svg PUBLIC "-//W3C//DTD SVG 1.1//EN"
 "http://www.w3.org/Graphics/SVG/1.1/DTD/svg11.dtd">
<!-- Generated by graphviz version 12.1.2 (20240928.0832)
 -->
<!-- Title: G Pages: 1 -->
<svg width="3358pt" height="1052pt"
 viewBox="0.00 0.00 3357.59 1052.00" xmlns="http://www.w3.org/2000/svg" xmlns:xlink="http://www.w3.org/1999/xlink">
<g id="graph0" class="graph" transform="scale(1 1) rotate(0) translate(4 1048)">
<title>G</title>
<polygon fill="white" stroke="none" points="-4,4 -4,-1048 3353.59,-1048 3353.59,4 -4,4"/>
<!-- rewards_pool -->
<g id="node1" class="node">
<title>rewards_pool</title>
<ellipse fill="none" stroke="black" cx="160.68" cy="-1026" rx="61.08" ry="18"/>
<text text-anchor="middle" x="160.68" y="-1020.95" font-family="Times,serif" font-size="14.00">rewards_pool</text>
</g>
<!-- object -->
<g id="node2" class="node">
<title>object</title>
<ellipse fill="none" stroke="black" cx="1042.68" cy="-522" rx="33.44" ry="18"/>
<text text-anchor="middle" x="1042.68" y="-516.95" font-family="Times,serif" font-size="14.00">object</text>
</g>
<!-- rewards_pool&#45;&gt;object -->
<g id="edge1" class="edge">
<title>rewards_pool&#45;&gt;object</title>
<path fill="none" stroke="black" d="M222.02,-1024.53C614.85,-1021.21 2764.55,-998.59 2858.68,-900 3118.56,-627.8 1389.78,-538.37 1087.33,-524.88"/>
<polygon fill="black" stroke="black" points="1087.64,-521.39 1077.49,-524.45 1087.33,-528.38 1087.64,-521.39"/>
</g>
<!-- fungible_asset -->
<g id="node3" class="node">
<title>fungible_asset</title>
<ellipse fill="none" stroke="black" cx="570.68" cy="-594" rx="64.15" ry="18"/>
<text text-anchor="middle" x="570.68" y="-588.95" font-family="Times,serif" font-size="14.00">fungible_asset</text>
</g>
<!-- rewards_pool&#45;&gt;fungible_asset -->
<g id="edge2" class="edge">
<title>rewards_pool&#45;&gt;fungible_asset</title>
<path fill="none" stroke="black" d="M133.61,-1009.6C97.66,-986.91 38.68,-940.85 38.68,-883 38.68,-883 38.68,-883 38.68,-809 38.68,-598.43 318.26,-797.41 495.68,-684 520.44,-668.17 541.27,-641.61 554.65,-621.61"/>
<polygon fill="black" stroke="black" points="557.47,-623.69 559.95,-613.39 551.59,-619.9 557.47,-623.69"/>
</g>
<!-- dispatchable_fungible_asset -->
<g id="node4" class="node">
<title>dispatchable_fungible_asset</title>
<ellipse fill="none" stroke="black" cx="371.68" cy="-666" rx="114.82" ry="18"/>
<text text-anchor="middle" x="371.68" y="-660.95" font-family="Times,serif" font-size="14.00">dispatchable_fungible_asset</text>
</g>
<!-- rewards_pool&#45;&gt;dispatchable_fungible_asset -->
<g id="edge3" class="edge">
<title>rewards_pool&#45;&gt;dispatchable_fungible_asset</title>
<path fill="none" stroke="black" d="M108.26,-1016.44C79.81,-1009.18 46.17,-995.95 24.68,-972 -2.68,-941.51 0.68,-923.97 0.68,-883 0.68,-883 0.68,-883 0.68,-809 0.68,-768.03 -5.86,-747.3 24.68,-720 57.43,-690.72 163.36,-677.61 249.65,-671.74"/>
<polygon fill="black" stroke="black" points="249.61,-675.25 259.37,-671.11 249.16,-668.27 249.61,-675.25"/>
</g>
<!-- primary_fungible_store -->
<g id="node5" class="node">
<title>primary_fungible_store</title>
<ellipse fill="none" stroke="black" cx="536.68" cy="-738" rx="98.44" ry="18"/>
<text text-anchor="middle" x="536.68" y="-732.95" font-family="Times,serif" font-size="14.00">primary_fungible_store</text>
</g>
<!-- rewards_pool&#45;&gt;primary_fungible_store -->
<g id="edge4" class="edge">
<title>rewards_pool&#45;&gt;primary_fungible_store</title>
<path fill="none" stroke="black" d="M181.97,-1008.8C245.14,-960.76 431.69,-818.86 505.81,-762.48"/>
<polygon fill="black" stroke="black" points="507.64,-765.49 513.48,-756.65 503.4,-759.92 507.64,-765.49"/>
</g>
<!-- trust_coin -->
<g id="node6" class="node">
<title>trust_coin</title>
<ellipse fill="none" stroke="black" cx="802.68" cy="-954" rx="47.77" ry="18"/>
<text text-anchor="middle" x="802.68" y="-948.95" font-family="Times,serif" font-size="14.00">trust_coin</text>
</g>
<!-- rewards_pool&#45;&gt;trust_coin -->
<g id="edge5" class="edge">
<title>rewards_pool&#45;&gt;trust_coin</title>
<path fill="none" stroke="black" d="M217.37,-1018.82C339.08,-1005.55 624.2,-974.46 745.94,-961.19"/>
<polygon fill="black" stroke="black" points="746.14,-964.69 755.7,-960.12 745.38,-957.73 746.14,-964.69"/>
</g>
<!-- vector -->
<g id="node7" class="node">
<title>vector</title>
<ellipse fill="none" stroke="black" cx="1628.68" cy="-18" rx="33.95" ry="18"/>
<text text-anchor="middle" x="1628.68" y="-12.95" font-family="Times,serif" font-size="14.00">vector</text>
</g>
<!-- object&#45;&gt;vector -->
<g id="edge6" class="edge">
<title>object&#45;&gt;vector</title>
<path fill="none" stroke="black" d="M1043.16,-503.77C1044.13,-485.47 1047.03,-455.94 1055.68,-432 1083.15,-356 1103.56,-338.45 1166.68,-288 1312.04,-171.81 1513.1,-72.62 1593.45,-35.07"/>
<polygon fill="black" stroke="black" points="1594.56,-38.41 1602.15,-31.02 1591.61,-32.06 1594.56,-38.41"/>
</g>
<!-- signer -->
<g id="node8" class="node">
<title>signer</title>
<ellipse fill="none" stroke="black" cx="982.68" cy="-90" rx="33.44" ry="18"/>
<text text-anchor="middle" x="982.68" y="-84.95" font-family="Times,serif" font-size="14.00">signer</text>
</g>
<!-- object&#45;&gt;signer -->
<g id="edge7" class="edge">
<title>object&#45;&gt;signer</title>
<path fill="none" stroke="black" d="M1010.6,-515.96C973.42,-509.14 911.17,-494.63 863.68,-468 687.43,-369.15 410.65,-295.23 544.68,-144 570.51,-114.85 831.74,-98.57 938.04,-93.1"/>
<polygon fill="black" stroke="black" points="938,-96.61 947.81,-92.61 937.65,-89.62 938,-96.61"/>
</g>
<!-- error -->
<g id="node9" class="node">
<title>error</title>
<ellipse fill="none" stroke="black" cx="2277.68" cy="-90" rx="28.83" ry="18"/>
<text text-anchor="middle" x="2277.68" y="-84.95" font-family="Times,serif" font-size="14.00">error</text>
</g>
<!-- object&#45;&gt;error -->
<g id="edge8" class="edge">
<title>object&#45;&gt;error</title>
<path fill="none" stroke="black" d="M1047.02,-503.89C1052.3,-485.15 1062.43,-454.76 1077.68,-432 1174.62,-287.29 1239.86,-272.32 1404.68,-216 1712.41,-110.84 2110.45,-94.13 2237.11,-91.49"/>
<polygon fill="black" stroke="black" points="2237.07,-94.99 2247,-91.31 2236.94,-87.99 2237.07,-94.99"/>
</g>
<!-- features -->
<g id="node10" class="node">
<title>features</title>
<ellipse fill="none" stroke="black" cx="1064.68" cy="-162" rx="40.09" ry="18"/>
<text text-anchor="middle" x="1064.68" y="-156.95" font-family="Times,serif" font-size="14.00">features</text>
</g>
<!-- object&#45;&gt;features -->
<g id="edge9" class="edge">
<title>object&#45;&gt;features</title>
<path fill="none" stroke="black" d="M1014.42,-511.91C951.37,-490.09 808.43,-431.26 856.68,-360 880.83,-324.33 915.65,-353.88 946.68,-324 984.52,-287.56 962.04,-257.16 994.68,-216 1004.8,-203.25 1018.65,-191.91 1031.37,-183.03"/>
<polygon fill="black" stroke="black" points="1033.16,-186.04 1039.53,-177.57 1029.27,-180.22 1033.16,-186.04"/>
</g>
<!-- bcs -->
<g id="node11" class="node">
<title>bcs</title>
<ellipse fill="none" stroke="black" cx="1895.68" cy="-162" rx="27" ry="18"/>
<text text-anchor="middle" x="1895.68" y="-156.95" font-family="Times,serif" font-size="14.00">bcs</text>
</g>
<!-- object&#45;&gt;bcs -->
<g id="edge10" class="edge">
<title>object&#45;&gt;bcs</title>
<path fill="none" stroke="black" d="M1053.54,-504.78C1066.53,-486.03 1089.57,-454.84 1113.68,-432 1153.7,-394.09 1167.29,-388.16 1214.68,-360 1340.46,-285.28 1370.69,-258.51 1510.68,-216 1633.66,-178.66 1786.78,-167.54 1857.1,-164.3"/>
<polygon fill="black" stroke="black" points="1857.1,-167.8 1866.94,-163.88 1856.8,-160.81 1857.1,-167.8"/>
</g>
<!-- hash -->
<g id="node12" class="node">
<title>hash</title>
<ellipse fill="none" stroke="black" cx="1628.68" cy="-234" rx="27.81" ry="18"/>
<text text-anchor="middle" x="1628.68" y="-228.95" font-family="Times,serif" font-size="14.00">hash</text>
</g>
<!-- object&#45;&gt;hash -->
<g id="edge11" class="edge">
<title>object&#45;&gt;hash</title>
<path fill="none" stroke="black" d="M1061.92,-506.77C1109,-472.1 1229.29,-384.27 1272.68,-360 1342.87,-320.74 1362.88,-314.87 1438.68,-288 1491.12,-269.41 1553.52,-253.07 1592.12,-243.61"/>
<polygon fill="black" stroke="black" points="1592.46,-247.13 1601.36,-241.37 1590.81,-240.33 1592.46,-247.13"/>
</g>
<!-- guid -->
<g id="node13" class="node">
<title>guid</title>
<ellipse fill="none" stroke="black" cx="1474.68" cy="-306" rx="27.3" ry="18"/>
<text text-anchor="middle" x="1474.68" y="-300.95" font-family="Times,serif" font-size="14.00">guid</text>
</g>
<!-- object&#45;&gt;guid -->
<g id="edge12" class="edge">
<title>object&#45;&gt;guid</title>
<path fill="none" stroke="black" d="M1075.45,-517.98C1114.67,-513.02 1180.91,-500.22 1227.68,-468 1277.09,-433.97 1259.29,-394.07 1308.68,-360 1356.27,-327.17 1379.11,-343.1 1433.68,-324 1436.35,-323.06 1439.1,-322.05 1441.85,-320.99"/>
<polygon fill="black" stroke="black" points="1442.91,-324.34 1450.9,-317.38 1440.31,-317.84 1442.91,-324.34"/>
</g>
<!-- from_bcs -->
<g id="node14" class="node">
<title>from_bcs</title>
<ellipse fill="none" stroke="black" cx="911.68" cy="-378" rx="46.23" ry="18"/>
<text text-anchor="middle" x="911.68" y="-372.95" font-family="Times,serif" font-size="14.00">from_bcs</text>
</g>
<!-- object&#45;&gt;from_bcs -->
<g id="edge13" class="edge">
<title>object&#45;&gt;from_bcs</title>
<path fill="none" stroke="black" d="M1021.31,-507.82C1006.38,-497.98 986.54,-483.59 971.68,-468 953.76,-449.19 937.56,-424.48 926.53,-405.86"/>
<polygon fill="black" stroke="black" points="929.6,-404.18 921.56,-397.27 923.54,-407.68 929.6,-404.18"/>
</g>
<!-- event -->
<g id="node15" class="node">
<title>event</title>
<ellipse fill="none" stroke="black" cx="1486.68" cy="-378" rx="30.88" ry="18"/>
<text text-anchor="middle" x="1486.68" y="-372.95" font-family="Times,serif" font-size="14.00">event</text>
</g>
<!-- object&#45;&gt;event -->
<g id="edge14" class="edge">
<title>object&#45;&gt;event</title>
<path fill="none" stroke="black" d="M1075.37,-517.17C1125.81,-510.66 1225.21,-495.38 1305.68,-468 1360.9,-449.22 1420.88,-417.2 1456.06,-397.12"/>
<polygon fill="black" stroke="black" points="1457.5,-400.33 1464.41,-392.3 1454,-394.27 1457.5,-400.33"/>
</g>
<!-- create_signer -->
<g id="node16" class="node">
<title>create_signer</title>
<ellipse fill="none" stroke="black" cx="1377.68" cy="-378" rx="60.05" ry="18"/>
<text text-anchor="middle" x="1377.68" y="-372.95" font-family="Times,serif" font-size="14.00">create_signer</text>
</g>
<!-- object&#45;&gt;create_signer -->
<g id="edge15" class="edge">
<title>object&#45;&gt;create_signer</title>
<path fill="none" stroke="black" d="M1075.57,-517.72C1120.44,-512.26 1202.51,-498.7 1265.68,-468 1299.25,-451.68 1332.01,-423.85 1353.34,-403.65"/>
<polygon fill="black" stroke="black" points="1355.63,-406.3 1360.38,-396.83 1350.76,-401.27 1355.63,-406.3"/>
</g>
<!-- account -->
<g id="node17" class="node">
<title>account</title>
<ellipse fill="none" stroke="black" cx="1735.68" cy="-450" rx="39.58" ry="18"/>
<text text-anchor="middle" x="1735.68" y="-444.95" font-family="Times,serif" font-size="14.00">account</text>
</g>
<!-- object&#45;&gt;account -->
<g id="edge16" class="edge">
<title>object&#45;&gt;account</title>
<path fill="none" stroke="black" d="M1075.64,-517.67C1187.38,-506.38 1552.27,-469.53 1685.99,-456.02"/>
<polygon fill="black" stroke="black" points="1685.97,-459.54 1695.57,-455.05 1685.27,-452.57 1685.97,-459.54"/>
</g>
<!-- transaction_context -->
<g id="node18" class="node">
<title>transaction_context</title>
<ellipse fill="none" stroke="black" cx="1119.68" cy="-234" rx="83.08" ry="18"/>
<text text-anchor="middle" x="1119.68" y="-228.95" font-family="Times,serif" font-size="14.00">transaction_context</text>
</g>
<!-- object&#45;&gt;transaction_context -->
<g id="edge17" class="edge">
<title>object&#45;&gt;transaction_context</title>
<path fill="none" stroke="black" d="M1029.72,-505.42C1022.26,-495.42 1013.61,-481.76 1009.68,-468 996.49,-421.85 992.73,-404.91 1009.68,-360 1025.45,-318.21 1062.27,-281.32 1088.97,-258.65"/>
<polygon fill="black" stroke="black" points="1090.95,-261.55 1096.43,-252.48 1086.49,-256.16 1090.95,-261.55"/>
</g>
<!-- fungible_asset&#45;&gt;object -->
<g id="edge26" class="edge">
<title>fungible_asset&#45;&gt;object</title>
<path fill="none" stroke="black" d="M618.83,-581.87C628.67,-579.77 638.99,-577.71 648.68,-576 775.15,-553.75 925.89,-535.85 998.83,-527.73"/>
<polygon fill="black" stroke="black" points="998.79,-531.25 1008.35,-526.67 998.02,-524.29 998.79,-531.25"/>
</g>
<!-- fungible_asset&#45;&gt;signer -->
<g id="edge20" class="edge">
<title>fungible_asset&#45;&gt;signer</title>
<path fill="none" stroke="black" d="M550.23,-576.45C539.5,-566.81 526.91,-553.85 518.68,-540 426.57,-385.01 309.44,-277.44 430.68,-144 464.55,-106.72 811.85,-94.98 937.57,-91.93"/>
<polygon fill="black" stroke="black" points="937.6,-95.43 947.51,-91.69 937.43,-88.43 937.6,-95.43"/>
</g>
<!-- fungible_asset&#45;&gt;error -->
<g id="edge21" class="edge">
<title>fungible_asset&#45;&gt;error</title>
<path fill="none" stroke="black" d="M587.16,-576.38C597.43,-565.98 610.89,-552.27 622.68,-540 794.5,-361.22 783.95,-232.24 1015.68,-144 1074.04,-121.78 2028.05,-97.13 2237.31,-91.98"/>
<polygon fill="black" stroke="black" points="2237.22,-95.48 2247.13,-91.74 2237.05,-88.48 2237.22,-95.48"/>
</g>
<!-- fungible_asset&#45;&gt;features -->
<g id="edge22" class="edge">
<title>fungible_asset&#45;&gt;features</title>
<path fill="none" stroke="black" d="M615.27,-580.64C661.34,-567.59 727.89,-547.84 737.68,-540 809.99,-482.12 788.03,-434.77 842.68,-360 893.56,-290.39 905.61,-270.19 972.68,-216 989.58,-202.35 1010.42,-190.03 1027.99,-180.71"/>
<polygon fill="black" stroke="black" points="1029.28,-183.99 1036.56,-176.28 1026.07,-177.77 1029.28,-183.99"/>
</g>
<!-- fungible_asset&#45;&gt;event -->
<g id="edge23" class="edge">
<title>fungible_asset&#45;&gt;event</title>
<path fill="none" stroke="black" d="M634.99,-593.41C746.85,-592.79 983.83,-585.59 1177.68,-540 1262.76,-519.99 1283.77,-509.51 1360.68,-468 1397.46,-448.15 1436.22,-419.43 1460.88,-400.02"/>
<polygon fill="black" stroke="black" points="1462.78,-402.99 1468.43,-394.03 1458.42,-397.51 1462.78,-402.99"/>
</g>
<!-- fungible_asset&#45;&gt;create_signer -->
<g id="edge24" class="edge">
<title>fungible_asset&#45;&gt;create_signer</title>
<path fill="none" stroke="black" d="M634.26,-590.78C732.02,-586.39 924.74,-573.9 1084.68,-540 1185.74,-518.58 1220.58,-526.57 1305.68,-468 1329.24,-451.78 1349.07,-425.67 1361.91,-405.92"/>
<polygon fill="black" stroke="black" points="1364.82,-407.87 1367.17,-397.53 1358.89,-404.15 1364.82,-407.87"/>
</g>
<!-- option -->
<g id="node19" class="node">
<title>option</title>
<ellipse fill="none" stroke="black" cx="1628.68" cy="-90" rx="34.46" ry="18"/>
<text text-anchor="middle" x="1628.68" y="-84.95" font-family="Times,serif" font-size="14.00">option</text>
</g>
<!-- fungible_asset&#45;&gt;option -->
<g id="edge18" class="edge">
<title>fungible_asset&#45;&gt;option</title>
<path fill="none" stroke="black" d="M561.44,-575.8C524.82,-505.17 398.8,-236.9 544.68,-144 589.07,-115.74 1381.65,-96.44 1582.65,-91.98"/>
<polygon fill="black" stroke="black" points="1582.51,-95.49 1592.43,-91.77 1582.36,-88.49 1582.51,-95.49"/>
</g>
<!-- string -->
<g id="node20" class="node">
<title>string</title>
<ellipse fill="none" stroke="black" cx="672.68" cy="-162" rx="31.9" ry="18"/>
<text text-anchor="middle" x="672.68" y="-156.95" font-family="Times,serif" font-size="14.00">string</text>
</g>
<!-- fungible_asset&#45;&gt;string -->
<g id="edge19" class="edge">
<title>fungible_asset&#45;&gt;string</title>
<path fill="none" stroke="black" d="M569.25,-575.75C565.38,-520.28 558.88,-342.69 620.68,-216 626.52,-204.03 636.12,-193.08 645.5,-184.29"/>
<polygon fill="black" stroke="black" points="647.61,-187.09 652.79,-177.85 642.98,-181.84 647.61,-187.09"/>
</g>
<!-- aggregator_v2 -->
<g id="node21" class="node">
<title>aggregator_v2</title>
<ellipse fill="none" stroke="black" cx="764.68" cy="-234" rx="64.15" ry="18"/>
<text text-anchor="middle" x="764.68" y="-228.95" font-family="Times,serif" font-size="14.00">aggregator_v2</text>
</g>
<!-- fungible_asset&#45;&gt;aggregator_v2 -->
<g id="edge25" class="edge">
<title>fungible_asset&#45;&gt;aggregator_v2</title>
<path fill="none" stroke="black" d="M580.04,-575.73C611.28,-518.08 712.17,-331.89 750.09,-261.92"/>
<polygon fill="black" stroke="black" points="753.01,-263.88 754.7,-253.42 746.86,-260.55 753.01,-263.88"/>
</g>
<!-- function_info -->
<g id="node22" class="node">
<title>function_info</title>
<ellipse fill="none" stroke="black" cx="279.68" cy="-234" rx="61.08" ry="18"/>
<text text-anchor="middle" x="279.68" y="-228.95" font-family="Times,serif" font-size="14.00">function_info</text>
</g>
<!-- fungible_asset&#45;&gt;function_info -->
<g id="edge27" class="edge">
<title>fungible_asset&#45;&gt;function_info</title>
<path fill="none" stroke="black" d="M537.87,-578.28C519.65,-569.04 497.37,-555.87 480.68,-540 433.68,-495.31 333.45,-327.3 295.07,-261.58"/>
<polygon fill="black" stroke="black" points="298.28,-260.14 290.23,-253.26 292.23,-263.66 298.28,-260.14"/>
</g>
<!-- dispatchable_fungible_asset&#45;&gt;object -->
<g id="edge31" class="edge">
<title>dispatchable_fungible_asset&#45;&gt;object</title>
<path fill="none" stroke="black" d="M456.2,-653.47C510.51,-644.86 582.15,-631.24 643.68,-612 681.67,-600.12 687.54,-587.37 725.68,-576 820.63,-547.7 936.36,-533.16 998.37,-526.91"/>
<polygon fill="black" stroke="black" points="998.56,-530.41 1008.17,-525.95 997.87,-523.44 998.56,-530.41"/>
</g>
<!-- dispatchable_fungible_asset&#45;&gt;fungible_asset -->
<g id="edge33" class="edge">
<title>dispatchable_fungible_asset&#45;&gt;fungible_asset</title>
<path fill="none" stroke="black" d="M416.84,-649.12C447.95,-638.17 489.29,-623.63 521.28,-612.38"/>
<polygon fill="black" stroke="black" points="522.05,-615.82 530.32,-609.2 519.72,-609.21 522.05,-615.82"/>
</g>
<!-- dispatchable_fungible_asset&#45;&gt;error -->
<g id="edge29" class="edge">
<title>dispatchable_fungible_asset&#45;&gt;error</title>
<path fill="none" stroke="black" d="M365.81,-647.74C357.34,-621.25 342.68,-568.79 342.68,-523 342.68,-523 342.68,-523 342.68,-449 342.68,-262.26 461.34,-220.53 631.68,-144 641.14,-139.75 1986.07,-99.65 2237.46,-92.19"/>
<polygon fill="black" stroke="black" points="2237.19,-95.7 2247.08,-91.91 2236.98,-88.7 2237.19,-95.7"/>
</g>
<!-- dispatchable_fungible_asset&#45;&gt;features -->
<g id="edge30" class="edge">
<title>dispatchable_fungible_asset&#45;&gt;features</title>
<path fill="none" stroke="black" d="M388.41,-648.06C452.7,-583.75 692.14,-351.47 927.68,-216 957.12,-199.07 993,-185.41 1020.65,-176.2"/>
<polygon fill="black" stroke="black" points="1021.71,-179.54 1030.14,-173.12 1019.54,-172.88 1021.71,-179.54"/>
</g>
<!-- dispatchable_fungible_asset&#45;&gt;option -->
<g id="edge28" class="edge">
<title>dispatchable_fungible_asset&#45;&gt;option</title>
<path fill="none" stroke="black" d="M346.25,-648.11C333.45,-638.64 318.41,-625.95 307.68,-612 281.14,-577.47 266.68,-566.55 266.68,-523 266.68,-523 266.68,-523 266.68,-449 266.68,-342.39 143.9,-299.9 209.68,-216 292.42,-110.47 369.97,-163.24 502.68,-144 716.48,-113 1398.98,-96.05 1582.74,-91.97"/>
<polygon fill="black" stroke="black" points="1582.68,-95.48 1592.6,-91.76 1582.53,-88.48 1582.68,-95.48"/>
</g>
<!-- dispatchable_fungible_asset&#45;&gt;function_info -->
<g id="edge32" class="edge">
<title>dispatchable_fungible_asset&#45;&gt;function_info</title>
<path fill="none" stroke="black" d="M354.93,-648.16C346,-638.34 335.48,-625.29 328.68,-612 310.04,-575.52 304.68,-563.97 304.68,-523 304.68,-523 304.68,-523 304.68,-449 304.68,-382.25 292.53,-304.56 285.17,-263.63"/>
<polygon fill="black" stroke="black" points="288.63,-263.09 283.38,-253.88 281.75,-264.35 288.63,-263.09"/>
</g>
<!-- primary_fungible_store&#45;&gt;object -->
<g id="edge37" class="edge">
<title>primary_fungible_store&#45;&gt;object</title>
<path fill="none" stroke="black" d="M593.26,-722.89C628.68,-713.39 674.97,-699.75 714.68,-684 814.09,-644.59 833.49,-622.71 929.68,-576 955.65,-563.39 985.18,-549.56 1007.55,-539.18"/>
<polygon fill="black" stroke="black" points="1008.92,-542.4 1016.53,-535.02 1005.98,-536.05 1008.92,-542.4"/>
</g>
<!-- primary_fungible_store&#45;&gt;fungible_asset -->
<g id="edge38" class="edge">
<title>primary_fungible_store&#45;&gt;fungible_asset</title>
<path fill="none" stroke="black" d="M549.18,-719.78C555.67,-709.84 563,-696.8 566.68,-684 572.31,-664.43 573.21,-641.46 572.75,-623.76"/>
<polygon fill="black" stroke="black" points="576.26,-623.8 572.33,-613.96 569.26,-624.1 576.26,-623.8"/>
</g>
<!-- primary_fungible_store&#45;&gt;dispatchable_fungible_asset -->
<g id="edge39" class="edge">
<title>primary_fungible_store&#45;&gt;dispatchable_fungible_asset</title>
<path fill="none" stroke="black" d="M498.83,-720.94C475.6,-711.09 445.62,-698.37 420.6,-687.75"/>
<polygon fill="black" stroke="black" points="422.18,-684.62 411.61,-683.94 419.45,-691.07 422.18,-684.62"/>
</g>
<!-- primary_fungible_store&#45;&gt;signer -->
<g id="edge36" class="edge">
<title>primary_fungible_store&#45;&gt;signer</title>
<path fill="none" stroke="black" d="M449.75,-729.22C376.77,-721.24 279.48,-706.73 247.68,-684 121.25,-593.63 76.68,-534.41 76.68,-379 76.68,-379 76.68,-379 76.68,-233 76.68,-122.15 201.54,-168.38 309.68,-144 429.98,-116.88 807.24,-98.53 937.73,-92.86"/>
<polygon fill="black" stroke="black" points="937.87,-96.36 947.71,-92.43 937.57,-89.37 937.87,-96.36"/>
</g>
<!-- primary_fungible_store&#45;&gt;option -->
<g id="edge34" class="edge">
<title>primary_fungible_store&#45;&gt;option</title>
<path fill="none" stroke="black" d="M558.74,-720C584.9,-698.27 627.05,-657.93 643.68,-612 714.51,-416.36 488.51,-294.98 631.68,-144 648.26,-126.51 1388.94,-99.39 1582.7,-92.59"/>
<polygon fill="black" stroke="black" points="1582.75,-96.09 1592.62,-92.24 1582.51,-89.09 1582.75,-96.09"/>
</g>
<!-- primary_fungible_store&#45;&gt;string -->
<g id="edge35" class="edge">
<title>primary_fungible_store&#45;&gt;string</title>
<path fill="none" stroke="black" d="M529.88,-719.95C520.75,-696.19 504.84,-651.59 497.68,-612 483.44,-533.28 477.58,-509.43 497.68,-432 524.5,-328.68 534.93,-298.49 602.68,-216 613.58,-202.73 628.44,-190.88 641.67,-181.76"/>
<polygon fill="black" stroke="black" points="643.26,-184.9 649.67,-176.46 639.4,-179.07 643.26,-184.9"/>
</g>
<!-- trust_coin&#45;&gt;object -->
<g id="edge45" class="edge">
<title>trust_coin&#45;&gt;object</title>
<path fill="none" stroke="black" d="M832.24,-939.6C873.59,-918.58 943.68,-873.71 943.68,-811 943.68,-811 943.68,-811 943.68,-665 943.68,-614.89 985.68,-569.81 1014.97,-544.47"/>
<polygon fill="black" stroke="black" points="1017.01,-547.33 1022.43,-538.23 1012.52,-541.96 1017.01,-547.33"/>
</g>
<!-- trust_coin&#45;&gt;fungible_asset -->
<g id="edge47" class="edge">
<title>trust_coin&#45;&gt;fungible_asset</title>
<path fill="none" stroke="black" d="M773.33,-939.54C732.28,-918.45 662.68,-873.49 662.68,-811 662.68,-811 662.68,-811 662.68,-737 662.68,-689.55 626.06,-645.45 599.03,-619.36"/>
<polygon fill="black" stroke="black" points="601.45,-616.84 591.75,-612.57 596.67,-621.95 601.45,-616.84"/>
</g>
<!-- trust_coin&#45;&gt;dispatchable_fungible_asset -->
<g id="edge48" class="edge">
<title>trust_coin&#45;&gt;dispatchable_fungible_asset</title>
<path fill="none" stroke="black" d="M758.82,-946.32C718.23,-938.94 657.04,-924.69 608.68,-900 517.75,-853.57 498.18,-831.71 429.68,-756 412.53,-737.05 396.96,-712.54 386.27,-694.04"/>
<polygon fill="black" stroke="black" points="389.42,-692.5 381.46,-685.51 383.33,-695.94 389.42,-692.5"/>
</g>
<!-- trust_coin&#45;&gt;primary_fungible_store -->
<g id="edge49" class="edge">
<title>trust_coin&#45;&gt;primary_fungible_store</title>
<path fill="none" stroke="black" d="M759.72,-945.77C726.76,-938.54 681.5,-924.81 648.68,-900 601.17,-864.09 566.3,-802.09 548.97,-766.42"/>
<polygon fill="black" stroke="black" points="552.25,-765.17 544.81,-757.62 545.92,-768.16 552.25,-765.17"/>
</g>
<!-- trust_coin&#45;&gt;vector -->
<g id="edge40" class="edge">
<title>trust_coin&#45;&gt;vector</title>
<path fill="none" stroke="black" d="M850.6,-952.7C1166.13,-950.59 2936.53,-937.13 3043.68,-900 3094.07,-882.54 3109.61,-872.04 3139.68,-828 3329.25,-550.38 3485.7,-168.51 3163.68,-72 3018.07,-28.36 1914,-20.41 1674.45,-19.2"/>
<polygon fill="black" stroke="black" points="1674.59,-15.7 1664.58,-19.15 1674.56,-22.7 1674.59,-15.7"/>
</g>
<!-- trust_coin&#45;&gt;signer -->
<g id="edge43" class="edge">
<title>trust_coin&#45;&gt;signer</title>
<path fill="none" stroke="black" d="M754.87,-951.66C613.74,-947.37 205.7,-932.26 155.68,-900 23.7,-814.9 38.68,-783.45 38.68,-379 38.68,-379 38.68,-379 38.68,-233 38.68,-186.73 53.06,-167.89 92.68,-144 165.38,-100.18 766.89,-92.54 937.65,-91.25"/>
<polygon fill="black" stroke="black" points="937.46,-94.75 947.44,-91.18 937.41,-87.76 937.46,-94.75"/>
</g>
<!-- trust_coin&#45;&gt;event -->
<g id="edge44" class="edge">
<title>trust_coin&#45;&gt;event</title>
<path fill="none" stroke="black" d="M849.73,-950.35C978.6,-941.8 1327.68,-909.55 1327.68,-811 1327.68,-811 1327.68,-811 1327.68,-665 1327.68,-554.79 1418.99,-447.38 1463.22,-401.81"/>
<polygon fill="black" stroke="black" points="1465.54,-404.44 1470.08,-394.86 1460.56,-399.52 1465.54,-404.44"/>
</g>
<!-- trust_coin&#45;&gt;option -->
<g id="edge41" class="edge">
<title>trust_coin&#45;&gt;option</title>
<path fill="none" stroke="black" d="M840.17,-942.41C865.63,-933.9 899.03,-920.03 923.68,-900 1152.48,-714.17 1108.72,-576.55 1308.68,-360 1404.99,-255.7 1540.95,-153.73 1599.74,-111.43"/>
<polygon fill="black" stroke="black" points="1601.49,-114.48 1607.59,-105.81 1597.42,-108.79 1601.49,-114.48"/>
</g>
<!-- trust_coin&#45;&gt;string -->
<g id="edge42" class="edge">
<title>trust_coin&#45;&gt;string</title>
<path fill="none" stroke="black" d="M754.83,-952.3C633.4,-949.96 316.11,-940.07 219.68,-900 140.79,-867.22 114.68,-824.43 114.68,-739 114.68,-739 114.68,-739 114.68,-377 114.68,-300.64 111.7,-259.18 174.68,-216 247.95,-165.76 521.54,-161.96 628.98,-162.47"/>
<polygon fill="black" stroke="black" points="628.8,-165.97 638.83,-162.53 628.85,-158.97 628.8,-165.97"/>
</g>
<!-- trust_coin&#45;&gt;function_info -->
<g id="edge46" class="edge">
<title>trust_coin&#45;&gt;function_info</title>
<path fill="none" stroke="black" d="M755.87,-949.68C701.97,-944.48 611.74,-931.51 540.68,-900 392.79,-834.41 326.44,-825.32 247.68,-684 197.1,-593.24 228.68,-554.9 228.68,-451 228.68,-451 228.68,-451 228.68,-377 228.68,-334.96 248.73,-289.82 263.68,-261.99"/>
<polygon fill="black" stroke="black" points="266.58,-263.98 268.38,-253.54 260.46,-260.58 266.58,-263.98"/>
</g>
<!-- coin -->
<g id="node23" class="node">
<title>coin</title>
<ellipse fill="none" stroke="black" cx="1638.68" cy="-810" rx="27" ry="18"/>
<text text-anchor="middle" x="1638.68" y="-804.95" font-family="Times,serif" font-size="14.00">coin</text>
</g>
<!-- trust_coin&#45;&gt;coin -->
<g id="edge50" class="edge">
<title>trust_coin&#45;&gt;coin</title>
<path fill="none" stroke="black" d="M850.35,-951.4C944.9,-947.55 1162.48,-935.32 1341.68,-900 1439.06,-880.81 1550.24,-843.09 1604.82,-823.49"/>
<polygon fill="black" stroke="black" points="1605.95,-826.81 1614.16,-820.11 1603.56,-820.22 1605.95,-826.81"/>
</g>
<!-- aptos_coin -->
<g id="node24" class="node">
<title>aptos_coin</title>
<ellipse fill="none" stroke="black" cx="2798.68" cy="-882" rx="50.84" ry="18"/>
<text text-anchor="middle" x="2798.68" y="-876.95" font-family="Times,serif" font-size="14.00">aptos_coin</text>
</g>
<!-- trust_coin&#45;&gt;aptos_coin -->
<g id="edge51" class="edge">
<title>trust_coin&#45;&gt;aptos_coin</title>
<path fill="none" stroke="black" d="M850.05,-951.34C1117.29,-941.97 2435.23,-895.75 2737.03,-885.16"/>
<polygon fill="black" stroke="black" points="2736.78,-888.67 2746.65,-884.82 2736.54,-881.68 2736.78,-888.67"/>
</g>
<!-- timestamp -->
<g id="node25" class="node">
<title>timestamp</title>
<ellipse fill="none" stroke="black" cx="3047.68" cy="-378" rx="50.33" ry="18"/>
<text text-anchor="middle" x="3047.68" y="-372.95" font-family="Times,serif" font-size="14.00">timestamp</text>
</g>
<!-- trust_coin&#45;&gt;timestamp -->
<g id="edge52" class="edge">
<title>trust_coin&#45;&gt;timestamp</title>
<path fill="none" stroke="black" d="M850.51,-952.94C1140.52,-952.39 2657.62,-947.27 2858.68,-900 2949.85,-878.57 3049.68,-904.65 3049.68,-811 3049.68,-811 3049.68,-811 3049.68,-521 3049.68,-481.74 3048.91,-436.37 3048.32,-407.69"/>
<polygon fill="black" stroke="black" points="3051.83,-407.92 3048.12,-398 3044.83,-408.07 3051.83,-407.92"/>
</g>
<!-- smart_table -->
<g id="node26" class="node">
<title>smart_table</title>
<ellipse fill="none" stroke="black" cx="3076.68" cy="-306" rx="54.42" ry="18"/>
<text text-anchor="middle" x="3076.68" y="-300.95" font-family="Times,serif" font-size="14.00">smart_table</text>
</g>
<!-- trust_coin&#45;&gt;smart_table -->
<g id="edge53" class="edge">
<title>trust_coin&#45;&gt;smart_table</title>
<path fill="none" stroke="black" d="M850.9,-953.14C1150.15,-953.83 2747.8,-954.91 2957.68,-900 3039.43,-878.61 3125.68,-895.5 3125.68,-811 3125.68,-811 3125.68,-811 3125.68,-449 3125.68,-408.55 3121.03,-397.82 3106.68,-360 3103.31,-351.1 3098.59,-341.91 3093.91,-333.73"/>
<polygon fill="black" stroke="black" points="3097,-332.09 3088.86,-325.31 3091,-335.69 3097,-332.09"/>
</g>
<!-- string_utils -->
<g id="node27" class="node">
<title>string_utils</title>
<ellipse fill="none" stroke="black" cx="194.68" cy="-810" rx="52.38" ry="18"/>
<text text-anchor="middle" x="194.68" y="-804.95" font-family="Times,serif" font-size="14.00">string_utils</text>
</g>
<!-- trust_coin&#45;&gt;string_utils -->
<g id="edge54" class="edge">
<title>trust_coin&#45;&gt;string_utils</title>
<path fill="none" stroke="black" d="M754.64,-953.21C638.23,-952.94 344.5,-947.45 260.68,-900 236.16,-886.12 218.09,-858.99 207.12,-838.31"/>
<polygon fill="black" stroke="black" points="210.33,-836.91 202.72,-829.55 204.08,-840.05 210.33,-836.91"/>
</g>
<!-- features&#45;&gt;vector -->
<g id="edge55" class="edge">
<title>features&#45;&gt;vector</title>
<path fill="none" stroke="black" d="M1089.28,-147.31C1126.05,-127.47 1198.07,-91.03 1263.68,-72 1375.88,-39.45 1513.54,-26.38 1583.39,-21.55"/>
<polygon fill="black" stroke="black" points="1583.55,-25.05 1593.3,-20.89 1583.09,-18.06 1583.55,-25.05"/>
</g>
<!-- features&#45;&gt;signer -->
<g id="edge56" class="edge">
<title>features&#45;&gt;signer</title>
<path fill="none" stroke="black" d="M1046.48,-145.46C1035.32,-135.94 1020.85,-123.58 1008.51,-113.05"/>
<polygon fill="black" stroke="black" points="1011.02,-110.59 1001.14,-106.76 1006.47,-115.91 1011.02,-110.59"/>
</g>
<!-- features&#45;&gt;error -->
<g id="edge57" class="edge">
<title>features&#45;&gt;error</title>
<path fill="none" stroke="black" d="M1104.35,-158.71C1287.84,-148.12 2053.12,-103.96 2237.56,-93.32"/>
<polygon fill="black" stroke="black" points="2237.56,-96.82 2247.34,-92.75 2237.16,-89.83 2237.56,-96.82"/>
</g>
<!-- from_bcs&#45;&gt;string -->
<g id="edge58" class="edge">
<title>from_bcs&#45;&gt;string</title>
<path fill="none" stroke="black" d="M875.31,-366.69C825.7,-350.67 737.76,-314.9 691.68,-252 678.97,-234.64 674.4,-210.57 672.92,-191.84"/>
<polygon fill="black" stroke="black" points="676.42,-191.74 672.41,-181.93 669.43,-192.1 676.42,-191.74"/>
</g>
<!-- event&#45;&gt;bcs -->
<g id="edge59" class="edge">
<title>event&#45;&gt;bcs</title>
<path fill="none" stroke="black" d="M1469.34,-362.78C1449.73,-344.91 1422.5,-313.49 1438.68,-288 1441.2,-284.03 1587.2,-217.42 1591.68,-216 1684.63,-186.61 1799.03,-172.22 1857.43,-166.36"/>
<polygon fill="black" stroke="black" points="1857.56,-169.87 1867.17,-165.41 1856.88,-162.9 1857.56,-169.87"/>
</g>
<!-- event&#45;&gt;guid -->
<g id="edge60" class="edge">
<title>event&#45;&gt;guid</title>
<path fill="none" stroke="black" d="M1483.71,-359.7C1482.45,-352.32 1480.94,-343.52 1479.52,-335.25"/>
<polygon fill="black" stroke="black" points="1483.01,-334.86 1477.87,-325.6 1476.11,-336.04 1483.01,-334.86"/>
</g>
<!-- account&#45;&gt;vector -->
<g id="edge61" class="edge">
<title>account&#45;&gt;vector</title>
<path fill="none" stroke="black" d="M1725.83,-432.33C1714.18,-413.46 1693.46,-382.41 1670.68,-360 1650.91,-340.54 1638.11,-344.74 1619.68,-324 1595.51,-296.79 1589.62,-287.28 1580.68,-252 1570.87,-213.31 1553.65,-157.57 1585.68,-72 1589.75,-61.13 1597,-50.82 1604.41,-42.23"/>
<polygon fill="black" stroke="black" points="1606.81,-44.78 1611.02,-35.06 1601.67,-40.03 1606.81,-44.78"/>
</g>
<!-- account&#45;&gt;signer -->
<g id="edge63" class="edge">
<title>account&#45;&gt;signer</title>
<path fill="none" stroke="black" d="M1718.78,-433.26C1699.28,-415.23 1666.11,-384.97 1636.68,-360 1636.53,-359.87 1546.86,-288.1 1546.68,-288 1504.66,-264.66 1488.44,-271.91 1444.68,-252 1355.92,-211.62 1345.16,-177.79 1253.68,-144 1176.8,-115.6 1081.75,-101.49 1027.08,-95.26"/>
<polygon fill="black" stroke="black" points="1027.55,-91.79 1017.23,-94.18 1026.78,-98.75 1027.55,-91.79"/>
</g>
<!-- account&#45;&gt;error -->
<g id="edge64" class="edge">
<title>account&#45;&gt;error</title>
<path fill="none" stroke="black" d="M1774.42,-445.56C1843.66,-438.83 1985.25,-422.24 2026.68,-396 2109.83,-343.34 2092.46,-291.43 2155.68,-216 2187.57,-177.95 2228.56,-137.45 2253.97,-113.19"/>
<polygon fill="black" stroke="black" points="2256.33,-115.78 2261.18,-106.36 2251.51,-110.71 2256.33,-115.78"/>
</g>
<!-- account&#45;&gt;features -->
<g id="edge65" class="edge">
<title>account&#45;&gt;features</title>
<path fill="none" stroke="black" d="M1711.08,-435.67C1692.68,-425.43 1667.11,-410.6 1645.68,-396 1624.23,-381.38 1573.86,-340.33 1553.68,-324 1534.31,-308.32 1532.87,-299.35 1510.68,-288 1452.71,-258.36 1431.49,-269.15 1368.68,-252 1275.23,-226.48 1166.46,-193.95 1107.69,-176.13"/>
<polygon fill="black" stroke="black" points="1109,-172.87 1098.41,-173.31 1106.96,-179.57 1109,-172.87"/>
</g>
<!-- account&#45;&gt;bcs -->
<g id="edge66" class="edge">
<title>account&#45;&gt;bcs</title>
<path fill="none" stroke="black" d="M1774.14,-444.82C1836.7,-437.4 1957.02,-420.39 1991.68,-396 2053.02,-352.84 2059.37,-324.2 2079.68,-252 2084.01,-236.6 2089.61,-228.55 2079.68,-216 2036.62,-161.55 1992.64,-204.49 1927.68,-180 1927.06,-179.76 1926.43,-179.52 1925.8,-179.26"/>
<polygon fill="black" stroke="black" points="1927.55,-176.22 1917.01,-175.23 1924.63,-182.58 1927.55,-176.22"/>
</g>
<!-- account&#45;&gt;hash -->
<g id="edge70" class="edge">
<title>account&#45;&gt;hash</title>
<path fill="none" stroke="black" d="M1744.2,-432.22C1752.41,-413.52 1761.93,-382.89 1749.68,-360 1736.07,-334.57 1716.65,-343.8 1695.68,-324 1675.54,-304.98 1656.96,-279.38 1644.5,-260.51"/>
<polygon fill="black" stroke="black" points="1647.59,-258.85 1639.22,-252.35 1641.71,-262.65 1647.59,-258.85"/>
</g>
<!-- account&#45;&gt;guid -->
<g id="edge73" class="edge">
<title>account&#45;&gt;guid</title>
<path fill="none" stroke="black" d="M1704.41,-438.55C1677.84,-429.09 1639.13,-413.92 1607.68,-396 1584.51,-382.8 1581.68,-375.07 1559.68,-360 1541.62,-347.63 1520.77,-334.61 1504.24,-324.57"/>
<polygon fill="black" stroke="black" points="1506.24,-321.69 1495.87,-319.52 1502.62,-327.68 1506.24,-321.69"/>
</g>
<!-- account&#45;&gt;from_bcs -->
<g id="edge74" class="edge">
<title>account&#45;&gt;from_bcs</title>
<path fill="none" stroke="black" d="M1696.77,-445.69C1563.41,-434.37 1124.45,-397.07 967.83,-383.77"/>
<polygon fill="black" stroke="black" points="968.37,-380.3 958.11,-382.94 967.78,-387.28 968.37,-380.3"/>
</g>
<!-- account&#45;&gt;event -->
<g id="edge75" class="edge">
<title>account&#45;&gt;event</title>
<path fill="none" stroke="black" d="M1702.62,-439.7C1656.69,-426.79 1573.76,-403.48 1525.13,-389.81"/>
<polygon fill="black" stroke="black" points="1526.16,-386.46 1515.59,-387.13 1524.27,-393.2 1526.16,-386.46"/>
</g>
<!-- account&#45;&gt;create_signer -->
<g id="edge76" class="edge">
<title>account&#45;&gt;create_signer</title>
<path fill="none" stroke="black" d="M1699.04,-443.01C1644.04,-433.85 1536.95,-415.38 1446.68,-396 1442.33,-395.07 1437.83,-394.06 1433.32,-393.01"/>
<polygon fill="black" stroke="black" points="1434.14,-389.61 1423.6,-390.72 1432.53,-396.42 1434.14,-389.61"/>
</g>
<!-- account&#45;&gt;option -->
<g id="edge62" class="edge">
<title>account&#45;&gt;option</title>
<path fill="none" stroke="black" d="M1734.55,-431.78C1732.54,-412.69 1726.99,-381.71 1711.68,-360 1695.48,-337.03 1681,-342.32 1659.68,-324 1642.99,-309.66 1599.81,-272.45 1591.68,-252 1573.59,-206.51 1596.08,-150.1 1613.07,-117.56"/>
<polygon fill="black" stroke="black" points="1616.12,-119.27 1617.83,-108.82 1609.98,-115.93 1616.12,-119.27"/>
</g>
<!-- type_info -->
<g id="node28" class="node">
<title>type_info</title>
<ellipse fill="none" stroke="black" cx="2024.68" cy="-234" rx="46.23" ry="18"/>
<text text-anchor="middle" x="2024.68" y="-228.95" font-family="Times,serif" font-size="14.00">type_info</text>
</g>
<!-- account&#45;&gt;type_info -->
<g id="edge67" class="edge">
<title>account&#45;&gt;type_info</title>
<path fill="none" stroke="black" d="M1773.77,-444.35C1830.9,-436.68 1935.15,-419.85 1963.68,-396 2003.55,-362.67 2017.4,-300.36 2022.18,-263.8"/>
<polygon fill="black" stroke="black" points="2025.65,-264.31 2023.31,-253.97 2018.69,-263.51 2025.65,-264.31"/>
</g>
<!-- table -->
<g id="node29" class="node">
<title>table</title>
<ellipse fill="none" stroke="black" cx="2581.68" cy="-162" rx="28.83" ry="18"/>
<text text-anchor="middle" x="2581.68" y="-156.95" font-family="Times,serif" font-size="14.00">table</text>
</g>
<!-- account&#45;&gt;table -->
<g id="edge68" class="edge">
<title>account&#45;&gt;table</title>
<path fill="none" stroke="black" d="M1775.51,-448.55C1842.82,-446.6 1982.42,-437.41 2091.68,-396 2173.99,-364.8 2179.31,-328.06 2257.68,-288 2358,-236.72 2484.5,-193.7 2545.51,-174.21"/>
<polygon fill="black" stroke="black" points="2546.2,-177.66 2554.67,-171.3 2544.08,-170.99 2546.2,-177.66"/>
</g>
<!-- system_addresses -->
<g id="node30" class="node">
<title>system_addresses</title>
<ellipse fill="none" stroke="black" cx="2343.68" cy="-306" rx="76.94" ry="18"/>
<text text-anchor="middle" x="2343.68" y="-300.95" font-family="Times,serif" font-size="14.00">system_addresses</text>
</g>
<!-- account&#45;&gt;system_addresses -->
<g id="edge69" class="edge">
<title>account&#45;&gt;system_addresses</title>
<path fill="none" stroke="black" d="M1775.2,-447.01C1868.04,-441.9 2097.5,-426.46 2167.68,-396 2190.54,-386.08 2189.28,-372.77 2210.68,-360 2234.76,-345.63 2263.44,-333.63 2288,-324.71"/>
<polygon fill="black" stroke="black" points="2288.91,-328.1 2297.17,-321.46 2286.58,-321.5 2288.91,-328.1"/>
</g>
<!-- ed25519 -->
<g id="node31" class="node">
<title>ed25519</title>
<ellipse fill="none" stroke="black" cx="1942.68" cy="-306" rx="42.65" ry="18"/>
<text text-anchor="middle" x="1942.68" y="-300.95" font-family="Times,serif" font-size="14.00">ed25519</text>
</g>
<!-- account&#45;&gt;ed25519 -->
<g id="edge71" class="edge">
<title>account&#45;&gt;ed25519</title>
<path fill="none" stroke="black" d="M1774.08,-444.85C1828.54,-438.08 1923.94,-422.66 1944.68,-396 1957.89,-379.03 1956.15,-354.22 1951.81,-335.1"/>
<polygon fill="black" stroke="black" points="1955.21,-334.29 1949.27,-325.52 1948.45,-336.08 1955.21,-334.29"/>
</g>
<!-- multi_ed25519 -->
<g id="node32" class="node">
<title>multi_ed25519</title>
<ellipse fill="none" stroke="black" cx="1868.68" cy="-378" rx="67.22" ry="18"/>
<text text-anchor="middle" x="1868.68" y="-372.95" font-family="Times,serif" font-size="14.00">multi_ed25519</text>
</g>
<!-- account&#45;&gt;multi_ed25519 -->
<g id="edge72" class="edge">
<title>account&#45;&gt;multi_ed25519</title>
<path fill="none" stroke="black" d="M1761.01,-435.67C1780.27,-425.53 1807.12,-411.4 1829.2,-399.78"/>
<polygon fill="black" stroke="black" points="1830.71,-402.94 1837.93,-395.18 1827.45,-396.74 1830.71,-402.94"/>
</g>
<!-- chain_id -->
<g id="node33" class="node">
<title>chain_id</title>
<ellipse fill="none" stroke="black" cx="2262.68" cy="-378" rx="42.65" ry="18"/>
<text text-anchor="middle" x="2262.68" y="-372.95" font-family="Times,serif" font-size="14.00">chain_id</text>
</g>
<!-- account&#45;&gt;chain_id -->
<g id="edge77" class="edge">
<title>account&#45;&gt;chain_id</title>
<path fill="none" stroke="black" d="M1775.04,-446.93C1856.25,-442.13 2047.98,-428.14 2205.68,-396 2210,-395.12 2214.46,-394.06 2218.89,-392.91"/>
<polygon fill="black" stroke="black" points="2219.62,-396.34 2228.32,-390.3 2217.75,-389.59 2219.62,-396.34"/>
</g>
<!-- transaction_context&#45;&gt;error -->
<g id="edge80" class="edge">
<title>transaction_context&#45;&gt;error</title>
<path fill="none" stroke="black" d="M1179.18,-221.08C1288.28,-199.35 1516.5,-154.57 1596.68,-144 1838.66,-112.1 2131.73,-97.24 2237.33,-92.63"/>
<polygon fill="black" stroke="black" points="2237.34,-96.14 2247.18,-92.21 2237.04,-89.14 2237.34,-96.14"/>
</g>
<!-- transaction_context&#45;&gt;features -->
<g id="edge81" class="edge">
<title>transaction_context&#45;&gt;features</title>
<path fill="none" stroke="black" d="M1106.37,-216.05C1099.79,-207.68 1091.71,-197.4 1084.43,-188.13"/>
<polygon fill="black" stroke="black" points="1087.36,-186.2 1078.43,-180.5 1081.86,-190.52 1087.36,-186.2"/>
</g>
<!-- transaction_context&#45;&gt;option -->
<g id="edge78" class="edge">
<title>transaction_context&#45;&gt;option</title>
<path fill="none" stroke="black" d="M1168.95,-219.26C1269.18,-191.29 1495.17,-128.25 1587.85,-102.39"/>
<polygon fill="black" stroke="black" points="1588.58,-105.82 1597.27,-99.76 1586.7,-99.08 1588.58,-105.82"/>
</g>
<!-- transaction_context&#45;&gt;string -->
<g id="edge79" class="edge">
<title>transaction_context&#45;&gt;string</title>
<path fill="none" stroke="black" d="M1053.72,-222.67C960.4,-208.06 792.52,-181.77 714.57,-169.56"/>
<polygon fill="black" stroke="black" points="715.21,-166.12 704.79,-168.03 714.13,-173.03 715.21,-166.12"/>
</g>
<!-- option&#45;&gt;vector -->
<g id="edge82" class="edge">
<title>option&#45;&gt;vector</title>
<path fill="none" stroke="black" d="M1628.68,-71.7C1628.68,-64.41 1628.68,-55.73 1628.68,-47.54"/>
<polygon fill="black" stroke="black" points="1632.18,-47.62 1628.68,-37.62 1625.18,-47.62 1632.18,-47.62"/>
</g>
<!-- string&#45;&gt;vector -->
<g id="edge83" class="edge">
<title>string&#45;&gt;vector</title>
<path fill="none" stroke="black" d="M697.62,-150.43C744.34,-131.14 848.64,-90.54 940.68,-72 1178.92,-24.02 1471.6,-18.8 1582.85,-18.7"/>
<polygon fill="black" stroke="black" points="1582.76,-22.2 1592.76,-18.71 1582.76,-15.2 1582.76,-22.2"/>
</g>
<!-- string&#45;&gt;option -->
<g id="edge84" class="edge">
<title>string&#45;&gt;option</title>
<path fill="none" stroke="black" d="M703.18,-156.19C728.24,-152.39 764.68,-147.21 796.68,-144 1095.59,-114.03 1456.71,-97.82 1582.69,-92.76"/>
<polygon fill="black" stroke="black" points="1582.77,-96.26 1592.62,-92.36 1582.49,-89.26 1582.77,-96.26"/>
</g>
<!-- aggregator_v2&#45;&gt;error -->
<g id="edge86" class="edge">
<title>aggregator_v2&#45;&gt;error</title>
<path fill="none" stroke="black" d="M779.97,-216.07C800.48,-194.72 839.13,-158.99 880.68,-144 913.45,-132.18 2011.56,-98.92 2237.34,-92.19"/>
<polygon fill="black" stroke="black" points="2237.21,-95.7 2247.1,-91.9 2237,-88.7 2237.21,-95.7"/>
</g>
<!-- aggregator_v2&#45;&gt;features -->
<g id="edge87" class="edge">
<title>aggregator_v2&#45;&gt;features</title>
<path fill="none" stroke="black" d="M812.88,-221.75C869.6,-208.52 963.07,-186.71 1018.77,-173.71"/>
<polygon fill="black" stroke="black" points="1019.3,-177.18 1028.25,-171.5 1017.71,-170.37 1019.3,-177.18"/>
</g>
<!-- aggregator_v2&#45;&gt;string -->
<g id="edge85" class="edge">
<title>aggregator_v2&#45;&gt;string</title>
<path fill="none" stroke="black" d="M743.34,-216.76C730.49,-206.99 713.99,-194.43 700.17,-183.91"/>
<polygon fill="black" stroke="black" points="702.39,-181.2 692.31,-177.93 698.15,-186.78 702.39,-181.2"/>
</g>
<!-- function_info&#45;&gt;signer -->
<g id="edge89" class="edge">
<title>function_info&#45;&gt;signer</title>
<path fill="none" stroke="black" d="M288.64,-215.7C300.57,-194.66 323.81,-159.97 354.68,-144 456.34,-91.41 811.29,-89.38 937.62,-90.39"/>
<polygon fill="black" stroke="black" points="937.22,-93.89 947.25,-90.48 937.28,-86.89 937.22,-93.89"/>
</g>
<!-- function_info&#45;&gt;error -->
<g id="edge90" class="edge">
<title>function_info&#45;&gt;error</title>
<path fill="none" stroke="black" d="M315.84,-219.11C371.96,-198.3 483.88,-159.79 582.68,-144 624.87,-137.26 1984.89,-99.15 2237.51,-92.12"/>
<polygon fill="black" stroke="black" points="2237.29,-95.62 2247.18,-91.85 2237.09,-88.63 2237.29,-95.62"/>
</g>
<!-- function_info&#45;&gt;features -->
<g id="edge91" class="edge">
<title>function_info&#45;&gt;features</title>
<path fill="none" stroke="black" d="M337.72,-227.82C485.73,-214.63 875.33,-179.88 1014.43,-167.48"/>
<polygon fill="black" stroke="black" points="1014.4,-171 1024.05,-166.62 1013.78,-164.03 1014.4,-171"/>
</g>
<!-- function_info&#45;&gt;string -->
<g id="edge88" class="edge">
<title>function_info&#45;&gt;string</title>
<path fill="none" stroke="black" d="M331.06,-223.85C409.96,-209.8 559.39,-183.18 631.59,-170.32"/>
<polygon fill="black" stroke="black" points="631.77,-173.84 641,-168.64 630.54,-166.95 631.77,-173.84"/>
</g>
<!-- coin&#45;&gt;object -->
<g id="edge106" class="edge">
<title>coin&#45;&gt;object</title>
<path fill="none" stroke="black" d="M1611.52,-808.64C1526.75,-807.09 1268.52,-798.85 1198.68,-756 1119.38,-707.34 1071.54,-601.48 1052.38,-550.94"/>
<polygon fill="black" stroke="black" points="1055.69,-549.79 1048.95,-541.61 1049.12,-552.2 1055.69,-549.79"/>
</g>
<!-- coin&#45;&gt;fungible_asset -->
<g id="edge108" class="edge">
<title>coin&#45;&gt;fungible_asset</title>
<path fill="none" stroke="black" d="M1611.44,-808.78C1527.22,-807.64 1264,-800.48 1051.68,-756 886.54,-721.4 699.16,-648.41 615.33,-613.87"/>
<polygon fill="black" stroke="black" points="616.89,-610.73 606.31,-610.14 614.21,-617.2 616.89,-610.73"/>
</g>
<!-- coin&#45;&gt;primary_fungible_store -->
<g id="edge109" class="edge">
<title>coin&#45;&gt;primary_fungible_store</title>
<path fill="none" stroke="black" d="M1611.71,-807.29C1477.93,-798.79 882.26,-760.95 639.83,-745.55"/>
<polygon fill="black" stroke="black" points="640.27,-742.07 630.06,-744.93 639.82,-749.06 640.27,-742.07"/>
</g>
<!-- coin&#45;&gt;signer -->
<g id="edge94" class="edge">
<title>coin&#45;&gt;signer</title>
<path fill="none" stroke="black" d="M1612.99,-803.79C1582.78,-796.74 1532.13,-781.95 1495.68,-756 1326.95,-635.85 1269.55,-591 1199.68,-396 1172.64,-320.52 1247.89,-287.54 1211.68,-216 1175.61,-144.73 1080.56,-112.34 1024.91,-99.07"/>
<polygon fill="black" stroke="black" points="1026.01,-95.73 1015.48,-96.94 1024.46,-102.56 1026.01,-95.73"/>
</g>
<!-- coin&#45;&gt;error -->
<g id="edge95" class="edge">
<title>coin&#45;&gt;error</title>
<path fill="none" stroke="black" d="M1665.72,-809.24C1799.21,-810.13 2388.37,-810.83 2561.68,-756 2677.39,-719.39 2710.92,-700.76 2793.68,-612 2893.73,-504.71 2969.94,-381.23 2856.68,-288 2826.58,-263.22 2807.47,-275.92 2776.68,-252 2728.23,-214.35 2744.43,-173.6 2690.68,-144 2626.07,-108.41 2433.56,-119.41 2360.68,-108 2345.77,-105.67 2329.49,-102.47 2315.32,-99.48"/>
<polygon fill="black" stroke="black" points="2316.47,-96.15 2305.96,-97.47 2315,-102.99 2316.47,-96.15"/>
</g>
<!-- coin&#45;&gt;features -->
<g id="edge96" class="edge">
<title>coin&#45;&gt;features</title>
<path fill="none" stroke="black" d="M1612.03,-806.01C1518.77,-794.8 1212.68,-751.59 1212.68,-667 1212.68,-667 1212.68,-667 1212.68,-593 1212.68,-506.79 1048.89,-335.56 1027.68,-252 1023.75,-236.49 1022.88,-231.26 1027.68,-216 1030.86,-205.89 1036.73,-196.02 1042.87,-187.6"/>
<polygon fill="black" stroke="black" points="1045.45,-189.99 1048.86,-179.96 1039.94,-185.67 1045.45,-189.99"/>
</g>
<!-- coin&#45;&gt;guid -->
<g id="edge100" class="edge">
<title>coin&#45;&gt;guid</title>
<path fill="none" stroke="black" d="M1630,-792.91C1616.93,-767.12 1593.68,-714.58 1593.68,-667 1593.68,-667 1593.68,-667 1593.68,-521 1593.68,-443.5 1569.49,-424.61 1526.68,-360 1519.05,-348.48 1508.69,-337.32 1499.23,-328.23"/>
<polygon fill="black" stroke="black" points="1501.72,-325.77 1492.01,-321.55 1496.97,-330.91 1501.72,-325.77"/>
</g>
<!-- coin&#45;&gt;event -->
<g id="edge101" class="edge">
<title>coin&#45;&gt;event</title>
<path fill="none" stroke="black" d="M1620.09,-796.74C1606.95,-787.14 1589.92,-772.66 1579.68,-756 1558.23,-721.1 1555.68,-707.97 1555.68,-667 1555.68,-667 1555.68,-667 1555.68,-521 1555.68,-480.03 1550.73,-468.27 1531.68,-432 1526.1,-421.37 1518.06,-411 1510.32,-402.3"/>
<polygon fill="black" stroke="black" points="1512.89,-399.92 1503.51,-394.99 1507.77,-404.69 1512.89,-399.92"/>
</g>
<!-- coin&#45;&gt;create_signer -->
<g id="edge102" class="edge">
<title>coin&#45;&gt;create_signer</title>
<path fill="none" stroke="black" d="M1615.22,-800.68C1570.99,-783.33 1479.68,-738.8 1479.68,-667 1479.68,-667 1479.68,-667 1479.68,-521 1479.68,-471.55 1438.37,-427.53 1408.33,-402.05"/>
<polygon fill="black" stroke="black" points="1410.93,-399.66 1400.98,-396.03 1406.49,-405.08 1410.93,-399.66"/>
</g>
<!-- coin&#45;&gt;account -->
<g id="edge103" class="edge">
<title>coin&#45;&gt;account</title>
<path fill="none" stroke="black" d="M1647.36,-792.91C1660.43,-767.12 1683.68,-714.58 1683.68,-667 1683.68,-667 1683.68,-667 1683.68,-593 1683.68,-550.63 1704.35,-505.25 1719.62,-477.49"/>
<polygon fill="black" stroke="black" points="1722.51,-479.5 1724.41,-469.07 1716.42,-476.04 1722.51,-479.5"/>
</g>
<!-- coin&#45;&gt;option -->
<g id="edge92" class="edge">
<title>coin&#45;&gt;option</title>
<path fill="none" stroke="black" d="M1665.82,-807.36C1744.71,-802.29 1972.68,-785.43 2040.68,-756 2237.1,-671 2417.99,-547.44 2314.68,-360 2300.22,-333.76 2272.14,-350.24 2257.68,-324 2249.96,-309.99 2253.67,-303.49 2257.68,-288 2262.27,-270.28 2273.09,-269.72 2277.68,-252 2281.69,-236.51 2287.78,-228.41 2277.68,-216 2228.13,-155.07 2008.82,-158.77 1931.68,-144 1839.73,-126.4 1731.62,-108.05 1672.6,-98.23"/>
<polygon fill="black" stroke="black" points="1673.41,-94.82 1662.97,-96.63 1672.26,-101.72 1673.41,-94.82"/>
</g>
<!-- coin&#45;&gt;string -->
<g id="edge93" class="edge">
<title>coin&#45;&gt;string</title>
<path fill="none" stroke="black" d="M1611.55,-808.4C1521.59,-806.04 1234.13,-795.51 1151.68,-756 908.23,-639.33 897.89,-531.07 724.68,-324 699.35,-293.72 684.83,-289.56 672.68,-252 666.39,-232.53 666.6,-209.38 668.28,-191.58"/>
<polygon fill="black" stroke="black" points="671.75,-192.06 669.44,-181.72 664.8,-191.24 671.75,-192.06"/>
</g>
<!-- coin&#45;&gt;type_info -->
<g id="edge97" class="edge">
<title>coin&#45;&gt;type_info</title>
<path fill="none" stroke="black" d="M1665.69,-806.89C1766.6,-798.27 2115.68,-761.61 2115.68,-667 2115.68,-667 2115.68,-667 2115.68,-449 2115.68,-376.05 2070.35,-299.47 2043.67,-260.73"/>
<polygon fill="black" stroke="black" points="2046.82,-259.12 2038.21,-252.95 2041.1,-263.15 2046.82,-259.12"/>
</g>
<!-- coin&#45;&gt;table -->
<g id="edge98" class="edge">
<title>coin&#45;&gt;table</title>
<path fill="none" stroke="black" d="M1665.72,-808.29C1804.21,-804.53 2430.69,-785.98 2511.68,-756 2715.86,-680.41 2712.58,-539.63 2742.68,-324 2744.89,-308.15 2751.37,-301.44 2742.68,-288 2721.51,-255.26 2694.24,-274.9 2662.68,-252 2637.94,-234.05 2615.03,-207.56 2599.93,-188.14"/>
<polygon fill="black" stroke="black" points="2602.73,-186.03 2593.89,-180.19 2597.15,-190.27 2602.73,-186.03"/>
</g>
<!-- coin&#45;&gt;system_addresses -->
<g id="edge99" class="edge">
<title>coin&#45;&gt;system_addresses</title>
<path fill="none" stroke="black" d="M1666.04,-808.21C1784.9,-804.61 2253.1,-788.44 2309.68,-756 2351.5,-732.02 2371.68,-715.21 2371.68,-667 2371.68,-667 2371.68,-667 2371.68,-449 2371.68,-408.81 2360.75,-363.4 2352.55,-334.99"/>
<polygon fill="black" stroke="black" points="2355.99,-334.3 2349.78,-325.72 2349.29,-336.31 2355.99,-334.3"/>
</g>
<!-- aggregator -->
<g id="node34" class="node">
<title>aggregator</title>
<ellipse fill="none" stroke="black" cx="2650.68" cy="-306" rx="50.33" ry="18"/>
<text text-anchor="middle" x="2650.68" y="-300.95" font-family="Times,serif" font-size="14.00">aggregator</text>
</g>
<!-- coin&#45;&gt;aggregator -->
<g id="edge104" class="edge">
<title>coin&#45;&gt;aggregator</title>
<path fill="none" stroke="black" d="M1665.72,-808.45C1800.03,-805.56 2391.99,-790.94 2465.68,-756 2638.56,-674.05 2652.39,-580.86 2701.68,-396 2705.8,-380.54 2707.66,-374.84 2701.68,-360 2697.17,-348.81 2689.04,-338.66 2680.58,-330.3"/>
<polygon fill="black" stroke="black" points="2682.99,-327.76 2673.24,-323.6 2678.26,-332.93 2682.99,-327.76"/>
</g>
<!-- aggregator_factory -->
<g id="node35" class="node">
<title>aggregator_factory</title>
<ellipse fill="none" stroke="black" cx="2594.68" cy="-378" rx="81.04" ry="18"/>
<text text-anchor="middle" x="2594.68" y="-372.95" font-family="Times,serif" font-size="14.00">aggregator_factory</text>
</g>
<!-- coin&#45;&gt;aggregator_factory -->
<g id="edge105" class="edge">
<title>coin&#45;&gt;aggregator_factory</title>
<path fill="none" stroke="black" d="M1665.93,-808.55C1797.31,-806.21 2361.84,-794.01 2429.68,-756 2478.93,-728.41 2574.98,-612.51 2616.68,-468 2622.57,-447.58 2616.33,-424.25 2609.02,-406.6"/>
<polygon fill="black" stroke="black" points="2612.23,-405.21 2604.92,-397.54 2605.85,-408.1 2612.23,-405.21"/>
</g>
<!-- optional_aggregator -->
<g id="node36" class="node">
<title>optional_aggregator</title>
<ellipse fill="none" stroke="black" cx="2522.68" cy="-450" rx="85.13" ry="18"/>
<text text-anchor="middle" x="2522.68" y="-444.95" font-family="Times,serif" font-size="14.00">optional_aggregator</text>
</g>
<!-- coin&#45;&gt;optional_aggregator -->
<g id="edge107" class="edge">
<title>coin&#45;&gt;optional_aggregator</title>
<path fill="none" stroke="black" d="M1666,-808.26C1792.71,-804.67 2319.88,-787.92 2385.68,-756 2433.8,-732.66 2466.68,-720.48 2466.68,-667 2466.68,-667 2466.68,-667 2466.68,-593 2466.68,-550.47 2488.69,-505.45 2505.11,-477.78"/>
<polygon fill="black" stroke="black" points="2508.04,-479.71 2510.29,-469.36 2502.07,-476.05 2508.04,-479.71"/>
</g>
<!-- aptos_coin&#45;&gt;vector -->
<g id="edge110" class="edge">
<title>aptos_coin&#45;&gt;vector</title>
<path fill="none" stroke="black" d="M2844.44,-873.72C2876.4,-866.65 2918.42,-853.14 2947.68,-828 3074.46,-719.06 3355.41,-281.72 3260.68,-144 3209.97,-70.28 3160.35,-89.88 3072.68,-72 2795.86,-15.53 1888.31,-17.4 1674.22,-18.67"/>
<polygon fill="black" stroke="black" points="1674.32,-15.17 1664.34,-18.73 1674.37,-22.17 1674.32,-15.17"/>
</g>
<!-- aptos_coin&#45;&gt;signer -->
<g id="edge113" class="edge">
<title>aptos_coin&#45;&gt;signer</title>
<path fill="none" stroke="black" d="M2806.49,-863.94C2822.1,-828.2 2855.68,-742.55 2855.68,-667 2855.68,-667 2855.68,-667 2855.68,-449 2855.68,-365.46 2815.29,-349.44 2758.68,-288 2740.13,-267.86 2728.66,-270.72 2708.68,-252 2697.33,-241.37 2633.64,-150.86 2619.68,-144 2610.49,-139.48 1289.8,-100.1 1027.62,-92.33"/>
<polygon fill="black" stroke="black" points="1027.9,-88.84 1017.8,-92.04 1027.7,-95.83 1027.9,-88.84"/>
</g>
<!-- aptos_coin&#45;&gt;error -->
<g id="edge114" class="edge">
<title>aptos_coin&#45;&gt;error</title>
<path fill="none" stroke="black" d="M2835.37,-869.09C2885.61,-850.21 2969.68,-808.27 2969.68,-739 2969.68,-739 2969.68,-739 2969.68,-449 2969.68,-404.68 2944.81,-399.49 2924.68,-360 2908.34,-327.95 2912.46,-314.09 2887.68,-288 2865.74,-264.9 2850.66,-271.79 2825.68,-252 2773.93,-211 2782.95,-173.1 2723.68,-144 2650.92,-108.27 2440.83,-120.15 2360.68,-108 2345.76,-105.74 2329.47,-102.56 2315.31,-99.56"/>
<polygon fill="black" stroke="black" points="2316.46,-96.23 2305.95,-97.54 2314.98,-103.07 2316.46,-96.23"/>
</g>
<!-- aptos_coin&#45;&gt;option -->
<g id="edge111" class="edge">
<title>aptos_coin&#45;&gt;option</title>
<path fill="none" stroke="black" d="M2818.83,-865C2846.71,-840.9 2893.68,-792.39 2893.68,-739 2893.68,-739 2893.68,-739 2893.68,-449 2893.68,-408.03 2887.13,-397.07 2869.68,-360 2852.98,-324.52 2848.78,-313.14 2818.68,-288 2789.69,-263.78 2771.54,-275.15 2741.68,-252 2717.1,-232.95 2680.46,-157.99 2652.68,-144 2608.49,-121.74 1868.61,-98.17 1674.83,-92.35"/>
<polygon fill="black" stroke="black" points="1675,-88.86 1664.9,-92.06 1674.79,-95.85 1675,-88.86"/>
</g>
<!-- aptos_coin&#45;&gt;string -->
<g id="edge112" class="edge">
<title>aptos_coin&#45;&gt;string</title>
<path fill="none" stroke="black" d="M2794.84,-863.61C2789.28,-836.94 2779.68,-784.27 2779.68,-739 2779.68,-739 2779.68,-739 2779.68,-449 2779.68,-409.99 2741.78,-310.18 2709.68,-288 2641.96,-241.2 2051.72,-258.84 1969.68,-252 1834.1,-240.69 1801.24,-227.63 1665.68,-216 1570.26,-207.81 894.24,-174 715.79,-165.14"/>
<polygon fill="black" stroke="black" points="716.2,-161.65 706.04,-164.65 715.85,-168.64 716.2,-161.65"/>
</g>
<!-- aptos_coin&#45;&gt;coin -->
<g id="edge116" class="edge">
<title>aptos_coin&#45;&gt;coin</title>
<path fill="none" stroke="black" d="M2748.84,-877.99C2554.46,-866.26 1849.54,-823.72 1677,-813.31"/>
<polygon fill="black" stroke="black" points="1677.21,-809.82 1667.02,-812.71 1676.79,-816.81 1677.21,-809.82"/>
</g>
<!-- aptos_coin&#45;&gt;system_addresses -->
<g id="edge115" class="edge">
<title>aptos_coin&#45;&gt;system_addresses</title>
<path fill="none" stroke="black" d="M2780.92,-864.76C2723.97,-811.97 2542.97,-638.83 2428.68,-468 2399.06,-423.72 2402.35,-406.68 2376.68,-360 2371.85,-351.22 2366.21,-341.87 2360.97,-333.51"/>
<polygon fill="black" stroke="black" points="2363.99,-331.74 2355.67,-325.18 2358.09,-335.5 2363.99,-331.74"/>
</g>
<!-- timestamp&#45;&gt;error -->
<g id="edge117" class="edge">
<title>timestamp&#45;&gt;error</title>
<path fill="none" stroke="black" d="M3030.01,-360.96C3008.28,-341.82 2969.72,-309.68 2932.68,-288 2897.28,-267.27 2876.37,-281.32 2847.68,-252 2811.55,-215.07 2846.23,-174.7 2804.68,-144 2725.07,-85.17 2458.68,-121.96 2360.68,-108 2345.74,-105.87 2329.45,-102.72 2315.29,-99.71"/>
<polygon fill="black" stroke="black" points="2316.45,-96.38 2305.93,-97.66 2314.95,-103.22 2316.45,-96.38"/>
</g>
<!-- timestamp&#45;&gt;system_addresses -->
<g id="edge118" class="edge">
<title>timestamp&#45;&gt;system_addresses</title>
<path fill="none" stroke="black" d="M2999.57,-372.22C2880.73,-360.4 2572.28,-329.73 2424.69,-315.05"/>
<polygon fill="black" stroke="black" points="2425.29,-311.6 2414.99,-314.09 2424.6,-318.56 2425.29,-311.6"/>
</g>
<!-- smart_table&#45;&gt;vector -->
<g id="edge119" class="edge">
<title>smart_table&#45;&gt;vector</title>
<path fill="none" stroke="black" d="M3129.17,-300.86C3163.21,-295.25 3205.56,-282.2 3229.68,-252 3259.72,-214.39 3269.98,-179.69 3237.68,-144 3129.93,-24.95 1924.99,-18.88 1674.23,-18.91"/>
<polygon fill="black" stroke="black" points="1674.53,-15.41 1664.53,-18.91 1674.53,-22.41 1674.53,-15.41"/>
</g>
<!-- smart_table&#45;&gt;error -->
<g id="edge121" class="edge">
<title>smart_table&#45;&gt;error</title>
<path fill="none" stroke="black" d="M3079.75,-287.68C3082.27,-269.31 3084.19,-239.71 3075.68,-216 3072.21,-206.33 3026.78,-148.76 3017.68,-144 2955.52,-111.47 2463.16,-95.92 2317.89,-92.01"/>
<polygon fill="black" stroke="black" points="2318.08,-88.52 2308,-91.75 2317.9,-95.51 2318.08,-88.52"/>
</g>
<!-- smart_table&#45;&gt;option -->
<g id="edge120" class="edge">
<title>smart_table&#45;&gt;option</title>
<path fill="none" stroke="black" d="M3070.37,-287.65C3062.02,-267.22 3045.28,-233.83 3019.68,-216 3004.33,-205.31 2709.23,-146.47 2690.68,-144 2489.78,-117.19 1852.2,-97.38 1674.85,-92.29"/>
<polygon fill="black" stroke="black" points="1674.97,-88.79 1664.88,-92 1674.78,-95.78 1674.97,-88.79"/>
</g>
<!-- smart_table&#45;&gt;type_info -->
<g id="edge122" class="edge">
<title>smart_table&#45;&gt;type_info</title>
<path fill="none" stroke="black" d="M3023.2,-302.15C2839.65,-292.32 2241.89,-260.06 2155.68,-252 2130.27,-249.62 2102.19,-246.1 2078.58,-242.88"/>
<polygon fill="black" stroke="black" points="2079.25,-239.44 2068.87,-241.53 2078.29,-246.37 2079.25,-239.44"/>
</g>
<!-- simple_map -->
<g id="node37" class="node">
<title>simple_map</title>
<ellipse fill="none" stroke="black" cx="2951.68" cy="-162" rx="56.98" ry="18"/>
<text text-anchor="middle" x="2951.68" y="-156.95" font-family="Times,serif" font-size="14.00">simple_map</text>
</g>
<!-- smart_table&#45;&gt;simple_map -->
<g id="edge123" class="edge">
<title>smart_table&#45;&gt;simple_map</title>
<path fill="none" stroke="black" d="M3076.06,-287.77C3074.51,-268.38 3069.39,-236.86 3052.68,-216 3039.69,-199.79 3020.39,-187.96 3002.12,-179.65"/>
<polygon fill="black" stroke="black" points="3003.51,-176.44 2992.94,-175.75 3000.77,-182.88 3003.51,-176.44"/>
</g>
<!-- math64 -->
<g id="node38" class="node">
<title>math64</title>
<ellipse fill="none" stroke="black" cx="3181.68" cy="-234" rx="39.07" ry="18"/>
<text text-anchor="middle" x="3181.68" y="-228.95" font-family="Times,serif" font-size="14.00">math64</text>
</g>
<!-- smart_table&#45;&gt;math64 -->
<g id="edge124" class="edge">
<title>smart_table&#45;&gt;math64</title>
<path fill="none" stroke="black" d="M3100.25,-289.29C3115.07,-279.41 3134.36,-266.55 3150.45,-255.82"/>
<polygon fill="black" stroke="black" points="3152.35,-258.76 3158.73,-250.3 3148.46,-252.94 3152.35,-258.76"/>
</g>
<!-- table_with_length -->
<g id="node39" class="node">
<title>table_with_length</title>
<ellipse fill="none" stroke="black" cx="2933.68" cy="-234" rx="77.45" ry="18"/>
<text text-anchor="middle" x="2933.68" y="-228.95" font-family="Times,serif" font-size="14.00">table_with_length</text>
</g>
<!-- smart_table&#45;&gt;table_with_length -->
<g id="edge125" class="edge">
<title>smart_table&#45;&gt;table_with_length</title>
<path fill="none" stroke="black" d="M3047.05,-290.5C3026.55,-280.46 2998.95,-266.95 2976.12,-255.78"/>
<polygon fill="black" stroke="black" points="2977.89,-252.74 2967.37,-251.49 2974.81,-259.03 2977.89,-252.74"/>
</g>
<!-- aptos_hash -->
<g id="node40" class="node">
<title>aptos_hash</title>
<ellipse fill="none" stroke="black" cx="2216.68" cy="-234" rx="51.86" ry="18"/>
<text text-anchor="middle" x="2216.68" y="-228.95" font-family="Times,serif" font-size="14.00">aptos_hash</text>
</g>
<!-- smart_table&#45;&gt;aptos_hash -->
<g id="edge126" class="edge">
<title>smart_table&#45;&gt;aptos_hash</title>
<path fill="none" stroke="black" d="M3024.18,-300.73C2873.35,-288.45 2439.31,-253.12 2278.01,-239.99"/>
<polygon fill="black" stroke="black" points="2278.64,-236.53 2268.38,-239.21 2278.07,-243.51 2278.64,-236.53"/>
</g>
<!-- string_utils&#45;&gt;string -->
<g id="edge127" class="edge">
<title>string_utils&#45;&gt;string</title>
<path fill="none" stroke="black" d="M186.18,-791.99C173.91,-765.82 152.68,-713.79 152.68,-667 152.68,-667 152.68,-667 152.68,-593 152.68,-423.54 87.71,-333.65 209.68,-216 239.64,-187.11 520.52,-170.42 629.63,-164.98"/>
<polygon fill="black" stroke="black" points="629.53,-168.49 639.34,-164.51 629.19,-161.5 629.53,-168.49"/>
</g>
<!-- type_info&#45;&gt;error -->
<g id="edge129" class="edge">
<title>type_info&#45;&gt;error</title>
<path fill="none" stroke="black" d="M2050.33,-218.6C2097.13,-192.34 2196.17,-136.75 2246.67,-108.41"/>
<polygon fill="black" stroke="black" points="2248.34,-111.48 2255.35,-103.53 2244.92,-105.38 2248.34,-111.48"/>
</g>
<!-- type_info&#45;&gt;features -->
<g id="edge130" class="edge">
<title>type_info&#45;&gt;features</title>
<path fill="none" stroke="black" d="M1979.61,-229.26C1936.7,-225.74 1870.3,-220.35 1812.68,-216 1550.74,-196.22 1237.02,-174.69 1115.88,-166.46"/>
<polygon fill="black" stroke="black" points="1116.15,-162.97 1105.94,-165.79 1115.68,-169.96 1116.15,-162.97"/>
</g>
<!-- type_info&#45;&gt;bcs -->
<g id="edge131" class="edge">
<title>type_info&#45;&gt;bcs</title>
<path fill="none" stroke="black" d="M1998.58,-218.83C1977.6,-207.45 1948.11,-191.45 1926.08,-179.49"/>
<polygon fill="black" stroke="black" points="1928.02,-176.57 1917.56,-174.87 1924.68,-182.72 1928.02,-176.57"/>
</g>
<!-- type_info&#45;&gt;string -->
<g id="edge128" class="edge">
<title>type_info&#45;&gt;string</title>
<path fill="none" stroke="black" d="M1980.05,-228.97C1937.17,-225.2 1870.54,-219.63 1812.68,-216 1458.79,-193.83 1369.87,-196.78 1015.68,-180 907.76,-174.89 780.75,-168.49 715.76,-165.2"/>
<polygon fill="black" stroke="black" points="716.04,-161.71 705.87,-164.69 715.68,-168.7 716.04,-161.71"/>
</g>
<!-- system_addresses&#45;&gt;signer -->
<g id="edge132" class="edge">
<title>system_addresses&#45;&gt;signer</title>
<path fill="none" stroke="black" d="M2335.85,-287.94C2325.53,-267.48 2305.39,-233.72 2277.68,-216 2145.35,-131.38 2087.42,-164.44 1931.68,-144 1585.91,-98.63 1164.27,-92.05 1027.68,-91.13"/>
<polygon fill="black" stroke="black" points="1028.01,-87.64 1017.98,-91.08 1027.96,-94.64 1028.01,-87.64"/>
</g>
<!-- system_addresses&#45;&gt;error -->
<g id="edge133" class="edge">
<title>system_addresses&#45;&gt;error</title>
<path fill="none" stroke="black" d="M2347.8,-287.62C2351.38,-269.44 2355.08,-240.24 2348.68,-216 2338.65,-178.04 2314.14,-139.53 2296.73,-115.48"/>
<polygon fill="black" stroke="black" points="2299.66,-113.56 2290.89,-107.62 2294.04,-117.73 2299.66,-113.56"/>
</g>
<!-- ed25519&#45;&gt;error -->
<g id="edge135" class="edge">
<title>ed25519&#45;&gt;error</title>
<path fill="none" stroke="black" d="M1943.87,-287.66C1946.04,-268.15 1952.21,-236.54 1969.68,-216 2039.7,-133.69 2172.08,-104.92 2238.13,-95.4"/>
<polygon fill="black" stroke="black" points="2238.34,-98.9 2247.78,-94.08 2237.4,-91.96 2238.34,-98.9"/>
</g>
<!-- ed25519&#45;&gt;bcs -->
<g id="edge136" class="edge">
<title>ed25519&#45;&gt;bcs</title>
<path fill="none" stroke="black" d="M1937.01,-287.87C1928.99,-263.65 1914.26,-219.12 1904.72,-190.31"/>
<polygon fill="black" stroke="black" points="1908.17,-189.58 1901.7,-181.19 1901.52,-191.78 1908.17,-189.58"/>
</g>
<!-- ed25519&#45;&gt;hash -->
<g id="edge138" class="edge">
<title>ed25519&#45;&gt;hash</title>
<path fill="none" stroke="black" d="M1905.43,-296.7C1844.99,-283.22 1726.27,-256.76 1665.87,-243.29"/>
<polygon fill="black" stroke="black" points="1666.95,-239.95 1656.43,-241.19 1665.43,-246.78 1666.95,-239.95"/>
</g>
<!-- ed25519&#45;&gt;option -->
<g id="edge134" class="edge">
<title>ed25519&#45;&gt;option</title>
<path fill="none" stroke="black" d="M1925.15,-289.24C1890.71,-258.76 1811.11,-190.64 1736.68,-144 1713.82,-129.67 1686.53,-116.31 1665.1,-106.59"/>
<polygon fill="black" stroke="black" points="1666.74,-103.48 1656.18,-102.6 1663.88,-109.87 1666.74,-103.48"/>
</g>
<!-- ed25519&#45;&gt;type_info -->
<g id="edge137" class="edge">
<title>ed25519&#45;&gt;type_info</title>
<path fill="none" stroke="black" d="M1960.88,-289.46C1971.74,-280.2 1985.73,-268.25 1997.84,-257.92"/>
<polygon fill="black" stroke="black" points="1999.77,-260.87 2005.1,-251.72 1995.22,-255.55 1999.77,-260.87"/>
</g>
<!-- multi_ed25519&#45;&gt;error -->
<g id="edge140" class="edge">
<title>multi_ed25519&#45;&gt;error</title>
<path fill="none" stroke="black" d="M1860.96,-359.73C1843.22,-317.13 1805.08,-205.96 1859.68,-144 1884.46,-115.88 2137.4,-98.82 2237.36,-93.13"/>
<polygon fill="black" stroke="black" points="2237.46,-96.63 2247.25,-92.58 2237.07,-89.64 2237.46,-96.63"/>
</g>
<!-- multi_ed25519&#45;&gt;features -->
<g id="edge141" class="edge">
<title>multi_ed25519&#45;&gt;features</title>
<path fill="none" stroke="black" d="M1839.92,-361.44C1822.5,-351.54 1800.15,-337.99 1781.68,-324 1767.65,-313.36 1681.77,-223.16 1665.68,-216 1567.9,-172.47 1243.21,-164.66 1116.23,-163.29"/>
<polygon fill="black" stroke="black" points="1116.47,-159.79 1106.44,-163.19 1116.4,-166.79 1116.47,-159.79"/>
</g>
<!-- multi_ed25519&#45;&gt;bcs -->
<g id="edge142" class="edge">
<title>multi_ed25519&#45;&gt;bcs</title>
<path fill="none" stroke="black" d="M1870.85,-359.85C1875.48,-323.14 1886.39,-236.66 1892.08,-191.53"/>
<polygon fill="black" stroke="black" points="1895.54,-192.09 1893.32,-181.73 1888.59,-191.22 1895.54,-192.09"/>
</g>
<!-- multi_ed25519&#45;&gt;hash -->
<g id="edge143" class="edge">
<title>multi_ed25519&#45;&gt;hash</title>
<path fill="none" stroke="black" d="M1828.86,-363.13C1803.66,-353.63 1770.83,-339.9 1743.68,-324 1734.3,-318.51 1685.51,-280.14 1654.57,-255.61"/>
<polygon fill="black" stroke="black" points="1656.8,-252.91 1646.79,-249.43 1652.45,-258.39 1656.8,-252.91"/>
</g>
<!-- multi_ed25519&#45;&gt;option -->
<g id="edge139" class="edge">
<title>multi_ed25519&#45;&gt;option</title>
<path fill="none" stroke="black" d="M1852.53,-360.05C1842.85,-349.76 1830.38,-336.29 1819.68,-324 1755.17,-249.92 1682.52,-159.14 1648.39,-116.03"/>
<polygon fill="black" stroke="black" points="1651.21,-113.95 1642.27,-108.28 1645.72,-118.29 1651.21,-113.95"/>
</g>
<!-- multi_ed25519&#45;&gt;ed25519 -->
<g id="edge144" class="edge">
<title>multi_ed25519&#45;&gt;ed25519</title>
<path fill="none" stroke="black" d="M1886.22,-360.41C1895.57,-351.57 1907.23,-340.53 1917.53,-330.79"/>
<polygon fill="black" stroke="black" points="1919.82,-333.44 1924.68,-324.03 1915.01,-328.36 1919.82,-333.44"/>
</g>
<!-- chain_id&#45;&gt;system_addresses -->
<g id="edge145" class="edge">
<title>chain_id&#45;&gt;system_addresses</title>
<path fill="none" stroke="black" d="M2280.66,-361.46C2290.98,-352.54 2304.17,-341.14 2315.81,-331.08"/>
<polygon fill="black" stroke="black" points="2317.92,-333.89 2323.2,-324.7 2313.34,-328.59 2317.92,-333.89"/>
</g>
<!-- aggregator_factory&#45;&gt;error -->
<g id="edge146" class="edge">
<title>aggregator_factory&#45;&gt;error</title>
<path fill="none" stroke="black" d="M2589.93,-359.68C2576.22,-310.87 2535.32,-173.79 2500.68,-144 2493.63,-137.94 2377.95,-112.46 2316.06,-99.16"/>
<polygon fill="black" stroke="black" points="2316.8,-95.74 2306.29,-97.07 2315.33,-102.59 2316.8,-95.74"/>
</g>
<!-- aggregator_factory&#45;&gt;table -->
<g id="edge147" class="edge">
<title>aggregator_factory&#45;&gt;table</title>
<path fill="none" stroke="black" d="M2593.64,-359.85C2591.41,-323.14 2586.16,-236.66 2583.41,-191.53"/>
<polygon fill="black" stroke="black" points="2586.92,-191.51 2582.82,-181.74 2579.93,-191.94 2586.92,-191.51"/>
</g>
<!-- aggregator_factory&#45;&gt;system_addresses -->
<g id="edge148" class="edge">
<title>aggregator_factory&#45;&gt;system_addresses</title>
<path fill="none" stroke="black" d="M2545.69,-363.34C2504.74,-351.92 2446.22,-335.6 2402.7,-323.46"/>
<polygon fill="black" stroke="black" points="2403.73,-320.11 2393.15,-320.8 2401.85,-326.85 2403.73,-320.11"/>
</g>
<!-- aggregator_factory&#45;&gt;aggregator -->
<g id="edge149" class="edge">
<title>aggregator_factory&#45;&gt;aggregator</title>
<path fill="none" stroke="black" d="M2608.24,-360.05C2614.84,-351.8 2622.92,-341.7 2630.25,-332.54"/>
<polygon fill="black" stroke="black" points="2632.79,-334.97 2636.3,-324.97 2627.32,-330.59 2632.79,-334.97"/>
</g>
<!-- optional_aggregator&#45;&gt;error -->
<g id="edge151" class="edge">
<title>optional_aggregator&#45;&gt;error</title>
<path fill="none" stroke="black" d="M2516.41,-431.95C2512.74,-421.62 2508.15,-408.15 2504.68,-396 2482.11,-317.01 2509.26,-283.67 2462.68,-216 2424.87,-161.08 2354.34,-123.52 2312.13,-104.8"/>
<polygon fill="black" stroke="black" points="2313.76,-101.68 2303.19,-100.93 2310.98,-108.11 2313.76,-101.68"/>
</g>
<!-- optional_aggregator&#45;&gt;option -->
<g id="edge150" class="edge">
<title>optional_aggregator&#45;&gt;option</title>
<path fill="none" stroke="black" d="M2512.9,-431.85C2489.57,-390.99 2432.42,-291.06 2429.68,-288 2357.89,-207.67 2335.45,-182.12 2234.68,-144 2132.17,-105.22 1797.54,-94.48 1674.56,-91.81"/>
<polygon fill="black" stroke="black" points="1674.92,-88.32 1664.85,-91.61 1674.77,-95.31 1674.92,-88.32"/>
</g>
<!-- optional_aggregator&#45;&gt;aggregator -->
<g id="edge152" class="edge">
<title>optional_aggregator&#45;&gt;aggregator</title>
<path fill="none" stroke="black" d="M2601.17,-442.85C2632.38,-436.09 2665.4,-422.59 2684.68,-396 2698.63,-376.75 2686.21,-351.07 2672.62,-332.24"/>
<polygon fill="black" stroke="black" points="2675.56,-330.32 2666.68,-324.54 2670.02,-334.6 2675.56,-330.32"/>
</g>
<!-- optional_aggregator&#45;&gt;aggregator_factory -->
<g id="edge153" class="edge">
<title>optional_aggregator&#45;&gt;aggregator_factory</title>
<path fill="none" stroke="black" d="M2540.11,-432.05C2548.8,-423.61 2559.48,-413.22 2569.08,-403.89"/>
<polygon fill="black" stroke="black" points="2571.35,-406.57 2576.08,-397.09 2566.47,-401.55 2571.35,-406.57"/>
</g>
<!-- simple_map&#45;&gt;vector -->
<g id="edge154" class="edge">
<title>simple_map&#45;&gt;vector</title>
<path fill="none" stroke="black" d="M2907.41,-150.23C2897.34,-147.99 2886.67,-145.77 2876.68,-144 2410.79,-61.5 1836.7,-28.99 1673.71,-21.05"/>
<polygon fill="black" stroke="black" points="1674.36,-17.58 1664.2,-20.59 1674.02,-24.57 1674.36,-17.58"/>
</g>
<!-- simple_map&#45;&gt;error -->
<g id="edge156" class="edge">
<title>simple_map&#45;&gt;error</title>
<path fill="none" stroke="black" d="M2909.09,-149.72C2899.78,-147.56 2889.94,-145.51 2880.68,-144 2670.58,-109.81 2415.46,-96.54 2318.09,-92.49"/>
<polygon fill="black" stroke="black" points="2318.39,-89 2308.25,-92.1 2318.1,-96 2318.39,-89"/>
</g>
<!-- simple_map&#45;&gt;option -->
<g id="edge155" class="edge">
<title>simple_map&#45;&gt;option</title>
<path fill="none" stroke="black" d="M2897.18,-156.42C2852.05,-152.73 2786.23,-147.58 2728.68,-144 2319.94,-118.58 1825.1,-98.59 1674.39,-92.74"/>
<polygon fill="black" stroke="black" points="1674.56,-89.25 1664.43,-92.36 1674.29,-96.24 1674.56,-89.25"/>
</g>
<!-- math64&#45;&gt;error -->
<g id="edge157" class="edge">
<title>math64&#45;&gt;error</title>
<path fill="none" stroke="black" d="M3157.14,-219.58C3139.12,-209.4 3114.3,-194.71 3093.68,-180 3073.39,-165.53 3073.8,-153.31 3050.68,-144 2915.79,-89.69 2457.41,-89.31 2318.14,-90.51"/>
<polygon fill="black" stroke="black" points="2318.28,-87.01 2308.31,-90.6 2318.34,-94.01 2318.28,-87.01"/>
</g>
<!-- fixed_point32 -->
<g id="node41" class="node">
<title>fixed_point32</title>
<ellipse fill="none" stroke="black" cx="3165.68" cy="-162" rx="62.61" ry="18"/>
<text text-anchor="middle" x="3165.68" y="-156.95" font-family="Times,serif" font-size="14.00">fixed_point32</text>
</g>
<!-- math64&#45;&gt;fixed_point32 -->
<g id="edge158" class="edge">
<title>math64&#45;&gt;fixed_point32</title>
<path fill="none" stroke="black" d="M3177.73,-215.7C3176.04,-208.32 3174.03,-199.52 3172.14,-191.25"/>
<polygon fill="black" stroke="black" points="3175.57,-190.55 3169.93,-181.58 3168.74,-192.11 3175.57,-190.55"/>
</g>
<!-- table_with_length&#45;&gt;error -->
<g id="edge159" class="edge">
<title>table_with_length&#45;&gt;error</title>
<path fill="none" stroke="black" d="M2918.81,-215.95C2897.97,-192.51 2860.63,-152.32 2842.68,-144 2795.32,-122.05 2439.12,-100.12 2317.92,-93.22"/>
<polygon fill="black" stroke="black" points="2318.3,-89.74 2308.12,-92.67 2317.91,-96.72 2318.3,-89.74"/>
</g>
<!-- table_with_length&#45;&gt;table -->
<g id="edge160" class="edge">
<title>table_with_length&#45;&gt;table</title>
<path fill="none" stroke="black" d="M2876.34,-221.6C2804.05,-207.22 2681.77,-182.9 2619.93,-170.61"/>
<polygon fill="black" stroke="black" points="2620.73,-167.2 2610.24,-168.68 2619.36,-174.06 2620.73,-167.2"/>
</g>
<!-- aptos_hash&#45;&gt;error -->
<g id="edge161" class="edge">
<title>aptos_hash&#45;&gt;error</title>
<path fill="none" stroke="black" d="M2240.13,-217.49C2252.12,-208.17 2265.64,-195.18 2272.68,-180 2281.4,-161.2 2282.37,-137.72 2281.31,-119.6"/>
<polygon fill="black" stroke="black" points="2284.81,-119.48 2280.48,-109.81 2277.83,-120.07 2284.81,-119.48"/>
</g>
<!-- aptos_hash&#45;&gt;features -->
<g id="edge162" class="edge">
<title>aptos_hash&#45;&gt;features</title>
<path fill="none" stroke="black" d="M2169.22,-226.27C2142.89,-222.74 2109.52,-218.63 2079.68,-216 1711.3,-183.57 1265.83,-168.72 1116.37,-164.4"/>
<polygon fill="black" stroke="black" points="1116.5,-160.9 1106.4,-164.11 1116.3,-167.9 1116.5,-160.9"/>
</g>
<!-- aptos_hash&#45;&gt;bcs -->
<g id="edge163" class="edge">
<title>aptos_hash&#45;&gt;bcs</title>
<path fill="none" stroke="black" d="M2173.72,-223.63C2110.14,-209.77 1992.07,-184.02 1932.33,-170.99"/>
<polygon fill="black" stroke="black" points="1933.19,-167.6 1922.68,-168.89 1931.7,-174.44 1933.19,-167.6"/>
</g>
</g>
</svg>
