<?xml version="1.0" encoding="UTF-8" standalone="no"?>
<!DOCTYPE svg PUBLIC "-//W3C//DTD SVG 1.1//EN"
 "http://www.w3.org/Graphics/SVG/1.1/DTD/svg11.dtd">
<!-- Generated by graphviz version 12.1.2 (20240928.0832)
 -->
<!-- Title: G Pages: 1 -->
<svg width="3696pt" height="1268pt"
 viewBox="0.00 0.00 3696.00 1268.00" xmlns="http://www.w3.org/2000/svg" xmlns:xlink="http://www.w3.org/1999/xlink">
<g id="graph0" class="graph" transform="scale(1 1) rotate(0) translate(4 1264)">
<title>G</title>
<polygon fill="white" stroke="none" points="-4,4 -4,-1264 3692,-1264 3692,4 -4,4"/>
<!-- router -->
<g id="node1" class="node">
<title>router</title>
<ellipse fill="none" stroke="black" cx="3033" cy="-1242" rx="32.93" ry="18"/>
<text text-anchor="middle" x="3033" y="-1236.95" font-family="Times,serif" font-size="14.00">router</text>
</g>
<!-- string -->
<g id="node2" class="node">
<title>string</title>
<ellipse fill="none" stroke="black" cx="464" cy="-162" rx="31.9" ry="18"/>
<text text-anchor="middle" x="464" y="-156.95" font-family="Times,serif" font-size="14.00">string</text>
</g>
<!-- router&#45;&gt;string -->
<g id="edge1" class="edge">
<title>router&#45;&gt;string</title>
<path fill="none" stroke="black" d="M2999.88,-1240.33C2673.07,-1233.62 38,-1177.12 38,-1099 38,-1099 38,-1099 38,-809 38,-646.34 114,-613.66 114,-451 114,-451 114,-451 114,-377 114,-291.08 146.85,-259.39 221,-216 283.93,-179.18 369.55,-167.87 420.56,-164.44"/>
<polygon fill="black" stroke="black" points="420.54,-167.95 430.32,-163.87 420.13,-160.96 420.54,-167.95"/>
</g>
<!-- signer -->
<g id="node3" class="node">
<title>signer</title>
<ellipse fill="none" stroke="black" cx="3327" cy="-90" rx="33.44" ry="18"/>
<text text-anchor="middle" x="3327" y="-84.95" font-family="Times,serif" font-size="14.00">signer</text>
</g>
<!-- router&#45;&gt;signer -->
<g id="edge2" class="edge">
<title>router&#45;&gt;signer</title>
<path fill="none" stroke="black" d="M3066.17,-1240.54C3194.33,-1237.88 3650,-1219.91 3650,-1099 3650,-1099 3650,-1099 3650,-377 3650,-243.1 3571.49,-216.64 3459,-144 3430.37,-125.51 3394.26,-111.56 3367.04,-102.62"/>
<polygon fill="black" stroke="black" points="3368.37,-99.37 3357.78,-99.67 3366.25,-106.04 3368.37,-99.37"/>
</g>
<!-- event -->
<g id="node4" class="node">
<title>event</title>
<ellipse fill="none" stroke="black" cx="2719" cy="-378" rx="30.88" ry="18"/>
<text text-anchor="middle" x="2719" y="-372.95" font-family="Times,serif" font-size="14.00">event</text>
</g>
<!-- router&#45;&gt;event -->
<g id="edge3" class="edge">
<title>router&#45;&gt;event</title>
<path fill="none" stroke="black" d="M3064.66,-1236.62C3179.58,-1218.99 3565.26,-1143.88 3511,-936 3450.46,-704.04 3393.66,-627.19 3188,-504 3046.46,-419.22 2847.09,-391.01 2761.14,-382.42"/>
<polygon fill="black" stroke="black" points="2761.57,-378.95 2751.29,-381.48 2760.91,-385.92 2761.57,-378.95"/>
</g>
<!-- mechanics -->
<g id="node5" class="node">
<title>mechanics</title>
<ellipse fill="none" stroke="black" cx="2992" cy="-1098" rx="50.33" ry="18"/>
<text text-anchor="middle" x="2992" y="-1092.95" font-family="Times,serif" font-size="14.00">mechanics</text>
</g>
<!-- router&#45;&gt;mechanics -->
<g id="edge4" class="edge">
<title>router&#45;&gt;mechanics</title>
<path fill="none" stroke="black" d="M3030.27,-1223.7C3027.2,-1205.59 3021.61,-1176.44 3014,-1152 3011.35,-1143.5 3007.87,-1134.47 3004.46,-1126.33"/>
<polygon fill="black" stroke="black" points="3007.73,-1125.07 3000.55,-1117.28 3001.31,-1127.85 3007.73,-1125.07"/>
</g>
<!-- short_game -->
<g id="node6" class="node">
<title>short_game</title>
<ellipse fill="none" stroke="black" cx="2951" cy="-1170" rx="54.42" ry="18"/>
<text text-anchor="middle" x="2951" y="-1164.95" font-family="Times,serif" font-size="14.00">short_game</text>
</g>
<!-- router&#45;&gt;short_game -->
<g id="edge5" class="edge">
<title>router&#45;&gt;short_game</title>
<path fill="none" stroke="black" d="M3016.01,-1226.5C3005.21,-1217.28 2990.99,-1205.14 2978.6,-1194.56"/>
<polygon fill="black" stroke="black" points="2981,-1192.01 2971.13,-1188.18 2976.46,-1197.34 2981,-1192.01"/>
</g>
<!-- vector -->
<g id="node7" class="node">
<title>vector</title>
<ellipse fill="none" stroke="black" cx="3004" cy="-18" rx="33.95" ry="18"/>
<text text-anchor="middle" x="3004" y="-12.95" font-family="Times,serif" font-size="14.00">vector</text>
</g>
<!-- string&#45;&gt;vector -->
<g id="edge6" class="edge">
<title>string&#45;&gt;vector</title>
<path fill="none" stroke="black" d="M484.27,-147.64C517.19,-126.8 585.06,-87.34 649,-72 881.26,-16.28 2650.87,-18.12 2958.48,-18.87"/>
<polygon fill="black" stroke="black" points="2958.09,-22.37 2968.1,-18.89 2958.11,-15.37 2958.09,-22.37"/>
</g>
<!-- option -->
<g id="node8" class="node">
<title>option</title>
<ellipse fill="none" stroke="black" cx="692" cy="-90" rx="34.46" ry="18"/>
<text text-anchor="middle" x="692" y="-84.95" font-family="Times,serif" font-size="14.00">option</text>
</g>
<!-- string&#45;&gt;option -->
<g id="edge7" class="edge">
<title>string&#45;&gt;option</title>
<path fill="none" stroke="black" d="M491.46,-152.3C499.96,-149.62 509.36,-146.68 518,-144 563.86,-129.8 616.63,-113.77 651.91,-103.09"/>
<polygon fill="black" stroke="black" points="652.72,-106.51 661.28,-100.26 650.69,-99.81 652.72,-106.51"/>
</g>
<!-- bcs -->
<g id="node9" class="node">
<title>bcs</title>
<ellipse fill="none" stroke="black" cx="2045" cy="-162" rx="27" ry="18"/>
<text text-anchor="middle" x="2045" y="-156.95" font-family="Times,serif" font-size="14.00">bcs</text>
</g>
<!-- event&#45;&gt;bcs -->
<g id="edge8" class="edge">
<title>event&#45;&gt;bcs</title>
<path fill="none" stroke="black" d="M2690.23,-371.1C2632.29,-359.11 2505.5,-332.36 2487,-324 2462.05,-312.73 2461.69,-299.84 2437,-288 2382.94,-262.08 2360.08,-279.88 2307,-252 2284.93,-240.41 2286.25,-227.23 2264,-216 2247.79,-207.82 2139.85,-183.62 2081.8,-170.94"/>
<polygon fill="black" stroke="black" points="2082.55,-167.53 2072.04,-168.82 2081.06,-174.37 2082.55,-167.53"/>
</g>
<!-- guid -->
<g id="node10" class="node">
<title>guid</title>
<ellipse fill="none" stroke="black" cx="2401" cy="-306" rx="27.3" ry="18"/>
<text text-anchor="middle" x="2401" y="-300.95" font-family="Times,serif" font-size="14.00">guid</text>
</g>
<!-- event&#45;&gt;guid -->
<g id="edge9" class="edge">
<title>event&#45;&gt;guid</title>
<path fill="none" stroke="black" d="M2690.22,-370.97C2674.26,-367.66 2654.05,-363.52 2636,-360 2549.93,-343.2 2526.08,-348.93 2442,-324 2439.22,-323.18 2436.37,-322.23 2433.54,-321.21"/>
<polygon fill="black" stroke="black" points="2434.82,-317.95 2424.23,-317.59 2432.28,-324.48 2434.82,-317.95"/>
</g>
<!-- mechanics&#45;&gt;signer -->
<g id="edge12" class="edge">
<title>mechanics&#45;&gt;signer</title>
<path fill="none" stroke="black" d="M3041.88,-1094.65C3141.35,-1089.37 3360.72,-1074.54 3429,-1044 3473.27,-1024.2 3489.51,-1015.48 3511,-972 3645.97,-698.9 3680.64,-565.51 3555,-288 3515.25,-200.21 3414.65,-136.75 3361.35,-108.07"/>
<polygon fill="black" stroke="black" points="3363.17,-105.08 3352.69,-103.51 3359.91,-111.27 3363.17,-105.08"/>
</g>
<!-- mechanics&#45;&gt;event -->
<g id="edge14" class="edge">
<title>mechanics&#45;&gt;event</title>
<path fill="none" stroke="black" d="M2987.35,-1079.66C2980.62,-1053.05 2969,-1000.45 2969,-955 2969,-955 2969,-955 2969,-881 2969,-769.33 2942.61,-736.87 2875,-648 2859.07,-627.06 2845.8,-631.38 2828,-612 2776.63,-556.06 2764.07,-538.57 2736,-468 2728.3,-448.64 2724.02,-425.49 2721.68,-407.66"/>
<polygon fill="black" stroke="black" points="2725.16,-407.3 2720.52,-397.77 2718.21,-408.11 2725.16,-407.3"/>
</g>
<!-- mechanics&#45;&gt;vector -->
<g id="edge10" class="edge">
<title>mechanics&#45;&gt;vector</title>
<path fill="none" stroke="black" d="M3042.22,-1096.06C3149.71,-1093.32 3398.29,-1082.84 3472,-1044 3557.89,-998.75 3688,-818.76 3688,-739 3688,-739 3688,-739 3688,-161 3688,-30.24 3202.71,-19.01 3049.66,-18.72"/>
<polygon fill="black" stroke="black" points="3049.9,-15.22 3039.9,-18.72 3049.9,-22.22 3049.9,-15.22"/>
</g>
<!-- mechanics&#45;&gt;option -->
<g id="edge11" class="edge">
<title>mechanics&#45;&gt;option</title>
<path fill="none" stroke="black" d="M2941.34,-1096.7C2602.14,-1094.59 666.34,-1080.97 407,-1044 256.19,-1022.5 76,-1107.34 76,-955 76,-955 76,-955 76,-809 76,-708.07 0,-695.93 0,-595 0,-595 0,-595 0,-305 0,-189.15 96.54,-184.73 205,-144 285.21,-113.88 540.83,-98.34 646.06,-93.09"/>
<polygon fill="black" stroke="black" points="646.21,-96.59 656.03,-92.6 645.87,-89.59 646.21,-96.59"/>
</g>
<!-- type_info -->
<g id="node11" class="node">
<title>type_info</title>
<ellipse fill="none" stroke="black" cx="1950" cy="-234" rx="46.23" ry="18"/>
<text text-anchor="middle" x="1950" y="-228.95" font-family="Times,serif" font-size="14.00">type_info</text>
</g>
<!-- mechanics&#45;&gt;type_info -->
<g id="edge13" class="edge">
<title>mechanics&#45;&gt;type_info</title>
<path fill="none" stroke="black" d="M2969.31,-1081.58C2937.9,-1058.19 2885,-1010.56 2885,-955 2885,-955 2885,-955 2885,-809 2885,-683.86 2764.63,-706.5 2654,-648 2376.07,-501.02 2223.7,-609.6 1993,-396 1956.09,-361.83 1949.48,-299.82 1949.04,-263.54"/>
<polygon fill="black" stroke="black" points="1952.54,-263.83 1949.09,-253.82 1945.54,-263.8 1952.54,-263.83"/>
</g>
<!-- object -->
<g id="node12" class="node">
<title>object</title>
<ellipse fill="none" stroke="black" cx="1971" cy="-522" rx="33.44" ry="18"/>
<text text-anchor="middle" x="1971" y="-516.95" font-family="Times,serif" font-size="14.00">object</text>
</g>
<!-- mechanics&#45;&gt;object -->
<g id="edge15" class="edge">
<title>mechanics&#45;&gt;object</title>
<path fill="none" stroke="black" d="M2942.38,-1094.11C2861.22,-1086.41 2709,-1058.21 2709,-955 2709,-955 2709,-955 2709,-809 2709,-587.72 2482.47,-634.28 2269,-576 2180.31,-551.79 2073.67,-535.91 2015.03,-528.29"/>
<polygon fill="black" stroke="black" points="2015.48,-524.82 2005.12,-527.03 2014.59,-531.77 2015.48,-524.82"/>
</g>
<!-- fungible_asset -->
<g id="node13" class="node">
<title>fungible_asset</title>
<ellipse fill="none" stroke="black" cx="1292" cy="-594" rx="64.15" ry="18"/>
<text text-anchor="middle" x="1292" y="-588.95" font-family="Times,serif" font-size="14.00">fungible_asset</text>
</g>
<!-- mechanics&#45;&gt;fungible_asset -->
<g id="edge16" class="edge">
<title>mechanics&#45;&gt;fungible_asset</title>
<path fill="none" stroke="black" d="M2941.47,-1097.1C2569.22,-1097.51 266,-1094.39 266,-955 266,-955 266,-955 266,-809 266,-793.53 268.31,-768.77 550,-720 693.86,-695.09 1074.02,-746.43 1206,-684 1225.62,-674.72 1223.99,-663.68 1239,-648 1248,-638.6 1258.06,-628.45 1266.98,-619.58"/>
<polygon fill="black" stroke="black" points="1269.39,-622.12 1274.03,-612.59 1264.46,-617.14 1269.39,-622.12"/>
</g>
<!-- timestamp -->
<g id="node14" class="node">
<title>timestamp</title>
<ellipse fill="none" stroke="black" cx="3129" cy="-522" rx="50.33" ry="18"/>
<text text-anchor="middle" x="3129" y="-516.95" font-family="Times,serif" font-size="14.00">timestamp</text>
</g>
<!-- mechanics&#45;&gt;timestamp -->
<g id="edge17" class="edge">
<title>mechanics&#45;&gt;timestamp</title>
<path fill="none" stroke="black" d="M3042.3,-1095.4C3099.01,-1091.79 3192.58,-1080.28 3264,-1044 3315.87,-1017.65 3360,-1013.18 3360,-955 3360,-955 3360,-955 3360,-881 3360,-768.31 3327.95,-737.9 3260,-648 3229.73,-607.95 3186.24,-569.22 3157.81,-545.75"/>
<polygon fill="black" stroke="black" points="3160.28,-543.25 3150.31,-539.64 3155.85,-548.67 3160.28,-543.25"/>
</g>
<!-- simple_map -->
<g id="node15" class="node">
<title>simple_map</title>
<ellipse fill="none" stroke="black" cx="2509" cy="-162" rx="56.98" ry="18"/>
<text text-anchor="middle" x="2509" y="-156.95" font-family="Times,serif" font-size="14.00">simple_map</text>
</g>
<!-- mechanics&#45;&gt;simple_map -->
<g id="edge18" class="edge">
<title>mechanics&#45;&gt;simple_map</title>
<path fill="none" stroke="black" d="M3029.75,-1085.7C3082,-1067.45 3170,-1026.16 3170,-955 3170,-955 3170,-955 3170,-737 3170,-654.25 3090.31,-670.72 3032,-612 2926.21,-505.45 2927.9,-449.03 2807,-360 2775.93,-337.12 2761.28,-343.53 2728,-324 2655.32,-281.34 2577.46,-219.85 2537.03,-186.56"/>
<polygon fill="black" stroke="black" points="2539.38,-183.96 2529.44,-180.28 2534.91,-189.35 2539.38,-183.96"/>
</g>
<!-- smart_table -->
<g id="node16" class="node">
<title>smart_table</title>
<ellipse fill="none" stroke="black" cx="2550" cy="-306" rx="54.42" ry="18"/>
<text text-anchor="middle" x="2550" y="-300.95" font-family="Times,serif" font-size="14.00">smart_table</text>
</g>
<!-- mechanics&#45;&gt;smart_table -->
<g id="edge19" class="edge">
<title>mechanics&#45;&gt;smart_table</title>
<path fill="none" stroke="black" d="M2996.25,-1079.63C3002.39,-1052.99 3013,-1000.36 3013,-955 3013,-955 3013,-955 3013,-737 3013,-657.48 2930.08,-677.5 2885,-612 2815.82,-511.48 2869.61,-438.28 2776,-360 2751.33,-339.37 2669.57,-323.86 2611.5,-315.11"/>
<polygon fill="black" stroke="black" points="2612.13,-311.66 2601.72,-313.67 2611.11,-318.59 2612.13,-311.66"/>
</g>
<!-- session -->
<g id="node17" class="node">
<title>session</title>
<ellipse fill="none" stroke="black" cx="3079" cy="-594" rx="37.53" ry="18"/>
<text text-anchor="middle" x="3079" y="-588.95" font-family="Times,serif" font-size="14.00">session</text>
</g>
<!-- mechanics&#45;&gt;session -->
<g id="edge20" class="edge">
<title>mechanics&#45;&gt;session</title>
<path fill="none" stroke="black" d="M3041.86,-1094.78C3125.26,-1088.1 3284,-1061.4 3284,-955 3284,-955 3284,-955 3284,-737 3284,-659.72 3184.34,-621.17 3123.99,-604.92"/>
<polygon fill="black" stroke="black" points="3124.87,-601.53 3114.32,-602.42 3123.13,-608.31 3124.87,-601.53"/>
</g>
<!-- trust_coin -->
<g id="node18" class="node">
<title>trust_coin</title>
<ellipse fill="none" stroke="black" cx="1384" cy="-954" rx="47.77" ry="18"/>
<text text-anchor="middle" x="1384" y="-948.95" font-family="Times,serif" font-size="14.00">trust_coin</text>
</g>
<!-- mechanics&#45;&gt;trust_coin -->
<g id="edge21" class="edge">
<title>mechanics&#45;&gt;trust_coin</title>
<path fill="none" stroke="black" d="M2943.44,-1092.71C2708.94,-1072 1694.71,-982.44 1441.47,-960.07"/>
<polygon fill="black" stroke="black" points="1442.11,-956.62 1431.84,-959.22 1441.5,-963.59 1442.11,-956.62"/>
</g>
<!-- rewards_pool -->
<g id="node19" class="node">
<title>rewards_pool</title>
<ellipse fill="none" stroke="black" cx="953" cy="-1026" rx="61.08" ry="18"/>
<text text-anchor="middle" x="953" y="-1020.95" font-family="Times,serif" font-size="14.00">rewards_pool</text>
</g>
<!-- mechanics&#45;&gt;rewards_pool -->
<g id="edge22" class="edge">
<title>mechanics&#45;&gt;rewards_pool</title>
<path fill="none" stroke="black" d="M2941.85,-1095.28C2667.41,-1085.86 1348.05,-1040.56 1024.67,-1029.46"/>
<polygon fill="black" stroke="black" points="1025.21,-1025.98 1015.1,-1029.13 1024.97,-1032.97 1025.21,-1025.98"/>
</g>
<!-- utils -->
<g id="node20" class="node">
<title>utils</title>
<ellipse fill="none" stroke="black" cx="3519" cy="-306" rx="27" ry="18"/>
<text text-anchor="middle" x="3519" y="-300.95" font-family="Times,serif" font-size="14.00">utils</text>
</g>
<!-- mechanics&#45;&gt;utils -->
<g id="edge23" class="edge">
<title>mechanics&#45;&gt;utils</title>
<path fill="none" stroke="black" d="M3040.98,-1093.73C3167.96,-1083.91 3498,-1049.32 3498,-955 3498,-955 3498,-955 3498,-881 3498,-721.88 3502,-682.12 3502,-523 3502,-523 3502,-523 3502,-449 3502,-409.24 3508.65,-363.67 3513.63,-335.1"/>
<polygon fill="black" stroke="black" points="3517.04,-335.92 3515.37,-325.46 3510.15,-334.68 3517.04,-335.92"/>
</g>
<!-- short_game&#45;&gt;mechanics -->
<g id="edge25" class="edge">
<title>short_game&#45;&gt;mechanics</title>
<path fill="none" stroke="black" d="M2960.92,-1152.05C2965.56,-1144.14 2971.18,-1134.54 2976.37,-1125.69"/>
<polygon fill="black" stroke="black" points="2979.37,-1127.49 2981.4,-1117.1 2973.33,-1123.95 2979.37,-1127.49"/>
</g>
<!-- short_game&#45;&gt;type_info -->
<g id="edge24" class="edge">
<title>short_game&#45;&gt;type_info</title>
<path fill="none" stroke="black" d="M2899.27,-1164.19C2667.76,-1141.59 1729.98,-1038.05 1542,-828 1507.08,-788.98 1455.17,-401.57 1487,-360 1512.41,-326.81 1782.85,-268.78 1898.27,-245.3"/>
<polygon fill="black" stroke="black" points="1898.68,-248.78 1907.79,-243.37 1897.29,-241.92 1898.68,-248.78"/>
</g>
<!-- option&#45;&gt;vector -->
<g id="edge26" class="edge">
<title>option&#45;&gt;vector</title>
<path fill="none" stroke="black" d="M720.18,-79.28C729.83,-76.39 740.78,-73.57 751,-72 976.41,-37.47 2659.78,-21.88 2958.69,-19.37"/>
<polygon fill="black" stroke="black" points="2958.43,-22.87 2968.41,-19.29 2958.38,-15.87 2958.43,-22.87"/>
</g>
<!-- type_info&#45;&gt;string -->
<g id="edge27" class="edge">
<title>type_info&#45;&gt;string</title>
<path fill="none" stroke="black" d="M1904.1,-230.82C1835.83,-227.58 1703.5,-221.31 1591,-216 1168.57,-196.07 657.06,-172.06 507.19,-165.03"/>
<polygon fill="black" stroke="black" points="507.49,-161.54 497.33,-164.56 507.16,-168.53 507.49,-161.54"/>
</g>
<!-- type_info&#45;&gt;bcs -->
<g id="edge30" class="edge">
<title>type_info&#45;&gt;bcs</title>
<path fill="none" stroke="black" d="M1970.61,-217.81C1984.62,-207.49 2003.28,-193.74 2018.41,-182.59"/>
<polygon fill="black" stroke="black" points="2020.11,-185.69 2026.08,-176.94 2015.95,-180.05 2020.11,-185.69"/>
</g>
<!-- error -->
<g id="node21" class="node">
<title>error</title>
<ellipse fill="none" stroke="black" cx="2138" cy="-90" rx="28.83" ry="18"/>
<text text-anchor="middle" x="2138" y="-84.95" font-family="Times,serif" font-size="14.00">error</text>
</g>
<!-- type_info&#45;&gt;error -->
<g id="edge28" class="edge">
<title>type_info&#45;&gt;error</title>
<path fill="none" stroke="black" d="M1950.44,-215.57C1951.87,-195.68 1957.19,-163.43 1976,-144 2008.14,-110.82 2061.32,-98.4 2097.93,-93.75"/>
<polygon fill="black" stroke="black" points="2098.13,-97.25 2107.68,-92.67 2097.36,-90.3 2098.13,-97.25"/>
</g>
<!-- features -->
<g id="node22" class="node">
<title>features</title>
<ellipse fill="none" stroke="black" cx="1694" cy="-162" rx="40.09" ry="18"/>
<text text-anchor="middle" x="1694" y="-156.95" font-family="Times,serif" font-size="14.00">features</text>
</g>
<!-- type_info&#45;&gt;features -->
<g id="edge29" class="edge">
<title>type_info&#45;&gt;features</title>
<path fill="none" stroke="black" d="M1913.53,-222.59C1905.77,-220.4 1897.62,-218.11 1890,-216 1838.25,-201.67 1778.7,-185.63 1738.94,-174.99"/>
<polygon fill="black" stroke="black" points="1740.05,-171.66 1729.49,-172.46 1738.24,-178.42 1740.05,-171.66"/>
</g>
<!-- object&#45;&gt;signer -->
<g id="edge32" class="edge">
<title>object&#45;&gt;signer</title>
<path fill="none" stroke="black" d="M2004.28,-518.97C2087.43,-513.61 2310.81,-497.43 2495,-468 2642.38,-444.45 3018.03,-391.77 3151,-324 3172.46,-313.06 3216.81,-270.69 3232,-252 3266.92,-209.06 3265.59,-191.5 3294,-144 3299.36,-135.04 3305.36,-125.32 3310.75,-116.68"/>
<polygon fill="black" stroke="black" points="3313.58,-118.76 3315.93,-108.43 3307.65,-115.04 3313.58,-118.76"/>
</g>
<!-- object&#45;&gt;event -->
<g id="edge39" class="edge">
<title>object&#45;&gt;event</title>
<path fill="none" stroke="black" d="M2004.41,-519.65C2100.18,-515.43 2374.11,-500.73 2457,-468 2481.8,-458.21 2480.72,-443.04 2505,-432 2574.91,-400.22 2600.31,-417.63 2674,-396 2677.16,-395.07 2680.4,-394.03 2683.64,-392.93"/>
<polygon fill="black" stroke="black" points="2684.82,-396.22 2693.05,-389.55 2682.45,-389.64 2684.82,-396.22"/>
</g>
<!-- object&#45;&gt;vector -->
<g id="edge31" class="edge">
<title>object&#45;&gt;vector</title>
<path fill="none" stroke="black" d="M1937.31,-521.1C1765.88,-521.35 989.5,-519.56 755,-468 481.27,-407.81 37.74,-361.9 214,-144 310.32,-24.92 398.87,-89.73 551,-72 1042.91,-14.66 2664.99,-17.76 2958.32,-18.81"/>
<polygon fill="black" stroke="black" points="2958.22,-22.31 2968.23,-18.85 2958.24,-15.31 2958.22,-22.31"/>
</g>
<!-- object&#45;&gt;bcs -->
<g id="edge35" class="edge">
<title>object&#45;&gt;bcs</title>
<path fill="none" stroke="black" d="M1949.33,-507.83C1896.35,-473.85 1767.61,-379.45 1810,-288 1845.63,-211.12 1950.79,-180.24 2007.59,-168.91"/>
<polygon fill="black" stroke="black" points="2007.93,-172.41 2017.11,-167.12 2006.64,-165.53 2007.93,-172.41"/>
</g>
<!-- object&#45;&gt;guid -->
<g id="edge37" class="edge">
<title>object&#45;&gt;guid</title>
<path fill="none" stroke="black" d="M2004.3,-518.7C2110.22,-510.59 2435.51,-479.15 2489,-396 2497.66,-382.54 2496.87,-373.93 2489,-360 2482.68,-348.81 2455.57,-333.41 2433.09,-322.1"/>
<polygon fill="black" stroke="black" points="2434.73,-319.01 2424.21,-317.73 2431.64,-325.29 2434.73,-319.01"/>
</g>
<!-- object&#45;&gt;error -->
<g id="edge33" class="edge">
<title>object&#45;&gt;error</title>
<path fill="none" stroke="black" d="M1941.55,-513C1915.79,-504.89 1878.45,-490.32 1852,-468 1788.17,-414.14 1780.19,-369.6 1798,-288 1818.05,-196.13 1866.62,-181.14 1953,-144 2001.82,-123.01 2061.38,-107.64 2099.5,-99.02"/>
<polygon fill="black" stroke="black" points="2100.12,-102.46 2109.13,-96.88 2098.61,-95.63 2100.12,-102.46"/>
</g>
<!-- object&#45;&gt;features -->
<g id="edge34" class="edge">
<title>object&#45;&gt;features</title>
<path fill="none" stroke="black" d="M1938.33,-517.95C1875.9,-511.56 1742.57,-495.09 1706,-468 1662.22,-435.56 1677.72,-405.66 1648,-360 1636.94,-343.01 1626.58,-343.17 1620,-324 1614.81,-308.87 1611.31,-301.44 1620,-288 1641.17,-255.26 1678.83,-284.74 1700,-252 1711.63,-234.01 1708.94,-209.49 1704.01,-190.74"/>
<polygon fill="black" stroke="black" points="1707.43,-189.94 1701.2,-181.37 1700.72,-191.95 1707.43,-189.94"/>
</g>
<!-- hash -->
<g id="node23" class="node">
<title>hash</title>
<ellipse fill="none" stroke="black" cx="2194" cy="-234" rx="27.81" ry="18"/>
<text text-anchor="middle" x="2194" y="-228.95" font-family="Times,serif" font-size="14.00">hash</text>
</g>
<!-- object&#45;&gt;hash -->
<g id="edge36" class="edge">
<title>object&#45;&gt;hash</title>
<path fill="none" stroke="black" d="M2001.86,-514.3C2052.75,-501.41 2152.83,-467.82 2195,-396 2219.18,-354.82 2210.64,-296.89 2202.28,-262.92"/>
<polygon fill="black" stroke="black" points="2205.71,-262.2 2199.78,-253.43 2198.95,-263.99 2205.71,-262.2"/>
</g>
<!-- from_bcs -->
<g id="node24" class="node">
<title>from_bcs</title>
<ellipse fill="none" stroke="black" cx="758" cy="-378" rx="46.23" ry="18"/>
<text text-anchor="middle" x="758" y="-372.95" font-family="Times,serif" font-size="14.00">from_bcs</text>
</g>
<!-- object&#45;&gt;from_bcs -->
<g id="edge38" class="edge">
<title>object&#45;&gt;from_bcs</title>
<path fill="none" stroke="black" d="M1937.59,-519.79C1745.57,-512.79 790.48,-477.51 779,-468 761.6,-453.59 757.06,-427.71 756.45,-407.56"/>
<polygon fill="black" stroke="black" points="759.95,-407.72 756.49,-397.71 752.95,-407.69 759.95,-407.72"/>
</g>
<!-- create_signer -->
<g id="node25" class="node">
<title>create_signer</title>
<ellipse fill="none" stroke="black" cx="1556" cy="-378" rx="60.05" ry="18"/>
<text text-anchor="middle" x="1556" y="-372.95" font-family="Times,serif" font-size="14.00">create_signer</text>
</g>
<!-- object&#45;&gt;create_signer -->
<g id="edge40" class="edge">
<title>object&#45;&gt;create_signer</title>
<path fill="none" stroke="black" d="M1937.8,-518.82C1862.72,-513.43 1682.38,-497.69 1630,-468 1604.28,-453.42 1583.68,-426.2 1570.81,-405.68"/>
<polygon fill="black" stroke="black" points="1573.89,-404.02 1565.74,-397.25 1567.89,-407.62 1573.89,-404.02"/>
</g>
<!-- account -->
<g id="node26" class="node">
<title>account</title>
<ellipse fill="none" stroke="black" cx="2282" cy="-450" rx="39.58" ry="18"/>
<text text-anchor="middle" x="2282" y="-444.95" font-family="Times,serif" font-size="14.00">account</text>
</g>
<!-- object&#45;&gt;account -->
<g id="edge41" class="edge">
<title>object&#45;&gt;account</title>
<path fill="none" stroke="black" d="M2002.49,-515.57C2051.18,-506.94 2147.53,-488.91 2228,-468 2231.83,-467.01 2235.78,-465.9 2239.73,-464.75"/>
<polygon fill="black" stroke="black" points="2240.73,-468.11 2249.3,-461.87 2238.71,-461.41 2240.73,-468.11"/>
</g>
<!-- transaction_context -->
<g id="node27" class="node">
<title>transaction_context</title>
<ellipse fill="none" stroke="black" cx="1321" cy="-234" rx="83.08" ry="18"/>
<text text-anchor="middle" x="1321" y="-228.95" font-family="Times,serif" font-size="14.00">transaction_context</text>
</g>
<!-- object&#45;&gt;transaction_context -->
<g id="edge42" class="edge">
<title>object&#45;&gt;transaction_context</title>
<path fill="none" stroke="black" d="M1937.71,-519.21C1867.85,-514.82 1709.03,-501.35 1668,-468 1627.91,-435.41 1661.33,-396.74 1625,-360 1562.48,-296.77 1463.43,-264.2 1395.5,-248.4"/>
<polygon fill="black" stroke="black" points="1396.45,-245.02 1385.93,-246.24 1394.91,-251.85 1396.45,-245.02"/>
</g>
<!-- fungible_asset&#45;&gt;string -->
<g id="edge44" class="edge">
<title>fungible_asset&#45;&gt;string</title>
<path fill="none" stroke="black" d="M1230.73,-588.12C1116.73,-577.45 865.82,-546.4 670,-468 614.37,-445.73 594.23,-442.15 556,-396 504.32,-333.61 479.14,-238.64 469.25,-191.55"/>
<polygon fill="black" stroke="black" points="472.71,-190.99 467.31,-181.87 465.85,-192.37 472.71,-190.99"/>
</g>
<!-- fungible_asset&#45;&gt;signer -->
<g id="edge45" class="edge">
<title>fungible_asset&#45;&gt;signer</title>
<path fill="none" stroke="black" d="M1356.22,-592.5C1511.3,-590.64 1918.31,-581.82 2255,-540 2587.5,-498.7 2672.5,-486.86 2995,-396 3123.27,-359.86 3180.84,-360.65 3258,-252 3287.93,-209.86 3308.53,-152.71 3319,-119.05"/>
<polygon fill="black" stroke="black" points="3322.3,-120.23 3321.84,-109.64 3315.6,-118.2 3322.3,-120.23"/>
</g>
<!-- fungible_asset&#45;&gt;event -->
<g id="edge48" class="edge">
<title>fungible_asset&#45;&gt;event</title>
<path fill="none" stroke="black" d="M1356.56,-593.45C1538.86,-593.22 2071.77,-582.06 2495,-468 2564.84,-449.18 2642.49,-415.2 2685.56,-395.11"/>
<polygon fill="black" stroke="black" points="2686.81,-398.39 2694.37,-390.97 2683.83,-392.06 2686.81,-398.39"/>
</g>
<!-- fungible_asset&#45;&gt;option -->
<g id="edge43" class="edge">
<title>fungible_asset&#45;&gt;option</title>
<path fill="none" stroke="black" d="M1241.39,-582.55C1101.65,-553.63 719.98,-474.31 708,-468 666.83,-446.32 650.38,-438.74 632,-396 600.39,-322.51 621.71,-295.34 632,-216 636.26,-183.18 636.36,-173.68 651,-144 655.99,-133.89 663.08,-123.83 669.96,-115.24"/>
<polygon fill="black" stroke="black" points="672.52,-117.64 676.27,-107.72 667.16,-113.14 672.52,-117.64"/>
</g>
<!-- fungible_asset&#45;&gt;object -->
<g id="edge51" class="edge">
<title>fungible_asset&#45;&gt;object</title>
<path fill="none" stroke="black" d="M1351.36,-586.88C1485.39,-573.06 1808.89,-539.71 1926.94,-527.54"/>
<polygon fill="black" stroke="black" points="1927.26,-531.03 1936.85,-526.52 1926.55,-524.06 1927.26,-531.03"/>
</g>
<!-- fungible_asset&#45;&gt;error -->
<g id="edge46" class="edge">
<title>fungible_asset&#45;&gt;error</title>
<path fill="none" stroke="black" d="M1279.11,-576.05C1249.47,-537.21 1173.87,-439.08 1107,-360 1037.5,-277.82 983.56,-280.48 945,-180 939.27,-165.06 933.94,-155.56 945,-144 985.68,-101.47 1893.04,-92.69 2097.38,-91.25"/>
<polygon fill="black" stroke="black" points="2097.25,-94.75 2107.23,-91.18 2097.2,-87.75 2097.25,-94.75"/>
</g>
<!-- fungible_asset&#45;&gt;features -->
<g id="edge47" class="edge">
<title>fungible_asset&#45;&gt;features</title>
<path fill="none" stroke="black" d="M1297.68,-575.6C1311.91,-534.11 1352.6,-427.76 1416,-360 1457.46,-315.69 1477.74,-315.17 1532,-288 1571.26,-268.34 1588.75,-278.17 1624,-252 1646.85,-235.04 1666.24,-208.8 1678.78,-189.2"/>
<polygon fill="black" stroke="black" points="1681.61,-191.27 1683.9,-180.93 1675.66,-187.59 1681.61,-191.27"/>
</g>
<!-- fungible_asset&#45;&gt;create_signer -->
<g id="edge49" class="edge">
<title>fungible_asset&#45;&gt;create_signer</title>
<path fill="none" stroke="black" d="M1313.24,-576.67C1326.71,-566.26 1344.46,-552.44 1360,-540 1420.32,-491.73 1490.01,-434.01 1527.9,-402.46"/>
<polygon fill="black" stroke="black" points="1529.78,-405.45 1535.22,-396.36 1525.3,-400.07 1529.78,-405.45"/>
</g>
<!-- aggregator_v2 -->
<g id="node28" class="node">
<title>aggregator_v2</title>
<ellipse fill="none" stroke="black" cx="1156" cy="-234" rx="64.15" ry="18"/>
<text text-anchor="middle" x="1156" y="-228.95" font-family="Times,serif" font-size="14.00">aggregator_v2</text>
</g>
<!-- fungible_asset&#45;&gt;aggregator_v2 -->
<g id="edge50" class="edge">
<title>fungible_asset&#45;&gt;aggregator_v2</title>
<path fill="none" stroke="black" d="M1287.67,-575.84C1280.01,-546.14 1263.06,-483.42 1244,-432 1221.01,-369.98 1187.87,-299.8 1169.52,-262.21"/>
<polygon fill="black" stroke="black" points="1172.76,-260.87 1165.21,-253.44 1166.47,-263.96 1172.76,-260.87"/>
</g>
<!-- function_info -->
<g id="node29" class="node">
<title>function_info</title>
<ellipse fill="none" stroke="black" cx="1521" cy="-234" rx="61.08" ry="18"/>
<text text-anchor="middle" x="1521" y="-228.95" font-family="Times,serif" font-size="14.00">function_info</text>
</g>
<!-- fungible_asset&#45;&gt;function_info -->
<g id="edge52" class="edge">
<title>fungible_asset&#45;&gt;function_info</title>
<path fill="none" stroke="black" d="M1291.88,-575.58C1292.36,-534.93 1297.95,-431.82 1340,-360 1370.24,-308.35 1431.29,-273.09 1474.09,-253.52"/>
<polygon fill="black" stroke="black" points="1475.45,-256.74 1483.17,-249.49 1472.61,-250.34 1475.45,-256.74"/>
</g>
<!-- timestamp&#45;&gt;error -->
<g id="edge53" class="edge">
<title>timestamp&#45;&gt;error</title>
<path fill="none" stroke="black" d="M3134.17,-503.92C3138.93,-485.99 3144.73,-456.98 3141,-432 3118.7,-282.71 3095.42,-212.66 2961,-144 2890.94,-108.22 2334.61,-94.81 2178.57,-91.73"/>
<polygon fill="black" stroke="black" points="2178.78,-88.24 2168.71,-91.54 2178.65,-95.24 2178.78,-88.24"/>
</g>
<!-- system_addresses -->
<g id="node30" class="node">
<title>system_addresses</title>
<ellipse fill="none" stroke="black" cx="2994" cy="-306" rx="76.94" ry="18"/>
<text text-anchor="middle" x="2994" y="-300.95" font-family="Times,serif" font-size="14.00">system_addresses</text>
</g>
<!-- timestamp&#45;&gt;system_addresses -->
<g id="edge54" class="edge">
<title>timestamp&#45;&gt;system_addresses</title>
<path fill="none" stroke="black" d="M3130.05,-503.54C3131.05,-471.7 3128.85,-403.49 3096,-360 3084.5,-344.77 3067.35,-333.52 3050.38,-325.4"/>
<polygon fill="black" stroke="black" points="3051.84,-322.22 3041.28,-321.36 3049,-328.62 3051.84,-322.22"/>
</g>
<!-- simple_map&#45;&gt;vector -->
<g id="edge55" class="edge">
<title>simple_map&#45;&gt;vector</title>
<path fill="none" stroke="black" d="M2549.93,-149.26C2643.32,-122.47 2871.2,-57.1 2963.84,-30.52"/>
<polygon fill="black" stroke="black" points="2964.61,-33.94 2973.25,-27.82 2962.68,-27.21 2964.61,-33.94"/>
</g>
<!-- simple_map&#45;&gt;option -->
<g id="edge56" class="edge">
<title>simple_map&#45;&gt;option</title>
<path fill="none" stroke="black" d="M2461.29,-151.76C2443.67,-148.73 2423.49,-145.7 2405,-144 2038.91,-110.26 1114.45,-163.36 751,-108 744.45,-107 737.61,-105.49 730.99,-103.77"/>
<polygon fill="black" stroke="black" points="732.21,-100.47 721.63,-101.14 730.31,-107.21 732.21,-100.47"/>
</g>
<!-- simple_map&#45;&gt;error -->
<g id="edge57" class="edge">
<title>simple_map&#45;&gt;error</title>
<path fill="none" stroke="black" d="M2465.16,-150.07C2456.2,-147.95 2446.81,-145.83 2438,-144 2344.74,-124.62 2234.23,-106.28 2176.89,-97.1"/>
<polygon fill="black" stroke="black" points="2177.74,-93.69 2167.31,-95.58 2176.64,-100.61 2177.74,-93.69"/>
</g>
<!-- smart_table&#45;&gt;vector -->
<g id="edge58" class="edge">
<title>smart_table&#45;&gt;vector</title>
<path fill="none" stroke="black" d="M2602.98,-301.23C2705.19,-293.5 2921.81,-274.62 2947,-252 3005.55,-199.41 3008.72,-97.49 3006.36,-47.73"/>
<polygon fill="black" stroke="black" points="3009.86,-47.55 3005.77,-37.78 3002.87,-47.97 3009.86,-47.55"/>
</g>
<!-- smart_table&#45;&gt;option -->
<g id="edge59" class="edge">
<title>smart_table&#45;&gt;option</title>
<path fill="none" stroke="black" d="M2502.87,-296.59C2482.66,-293.33 2458.74,-289.92 2437,-288 2287.08,-274.78 1226.82,-296.33 1083,-252 1054.72,-243.29 1051.95,-231.9 1027,-216 976.46,-183.8 968.4,-166.84 913,-144 844.81,-115.89 822.47,-126.22 751,-108 744.93,-106.45 738.54,-104.72 732.3,-102.97"/>
<polygon fill="black" stroke="black" points="733.34,-99.63 722.77,-100.25 731.42,-106.36 733.34,-99.63"/>
</g>
<!-- smart_table&#45;&gt;type_info -->
<g id="edge61" class="edge">
<title>smart_table&#45;&gt;type_info</title>
<path fill="none" stroke="black" d="M2501.67,-297.28C2481.68,-294.21 2458.25,-290.75 2437,-288 2281.26,-267.82 2096.81,-249.18 2006.1,-240.35"/>
<polygon fill="black" stroke="black" points="2006.52,-236.88 1996.23,-239.4 2005.85,-243.84 2006.52,-236.88"/>
</g>
<!-- smart_table&#45;&gt;simple_map -->
<g id="edge62" class="edge">
<title>smart_table&#45;&gt;simple_map</title>
<path fill="none" stroke="black" d="M2549.52,-287.52C2548.59,-269.26 2545.88,-240 2538,-216 2535.05,-207.03 2530.6,-197.82 2526.05,-189.64"/>
<polygon fill="black" stroke="black" points="2529.2,-188.09 2521.12,-181.24 2523.16,-191.64 2529.2,-188.09"/>
</g>
<!-- smart_table&#45;&gt;error -->
<g id="edge60" class="edge">
<title>smart_table&#45;&gt;error</title>
<path fill="none" stroke="black" d="M2542.58,-287.76C2533.74,-268.64 2517.57,-237.64 2497,-216 2477.13,-195.09 2465.55,-197.98 2443,-180 2424.81,-165.5 2425.67,-154.68 2405,-144 2331.08,-105.78 2232.53,-95.06 2178.21,-92.1"/>
<polygon fill="black" stroke="black" points="2178.66,-88.61 2168.5,-91.63 2178.32,-95.61 2178.66,-88.61"/>
</g>
<!-- math64 -->
<g id="node31" class="node">
<title>math64</title>
<ellipse fill="none" stroke="black" cx="2781" cy="-234" rx="39.07" ry="18"/>
<text text-anchor="middle" x="2781" y="-228.95" font-family="Times,serif" font-size="14.00">math64</text>
</g>
<!-- smart_table&#45;&gt;math64 -->
<g id="edge63" class="edge">
<title>smart_table&#45;&gt;math64</title>
<path fill="none" stroke="black" d="M2589.19,-293.13C2630.54,-280.59 2695.53,-260.9 2738.2,-247.97"/>
<polygon fill="black" stroke="black" points="2739.07,-251.36 2747.63,-245.11 2737.04,-244.66 2739.07,-251.36"/>
</g>
<!-- table_with_length -->
<g id="node32" class="node">
<title>table_with_length</title>
<ellipse fill="none" stroke="black" cx="2319" cy="-162" rx="77.45" ry="18"/>
<text text-anchor="middle" x="2319" y="-156.95" font-family="Times,serif" font-size="14.00">table_with_length</text>
</g>
<!-- smart_table&#45;&gt;table_with_length -->
<g id="edge64" class="edge">
<title>smart_table&#45;&gt;table_with_length</title>
<path fill="none" stroke="black" d="M2537.11,-288.05C2521.32,-268.32 2492.86,-235.91 2462,-216 2437.17,-199.98 2406.8,-187.85 2380.45,-179.27"/>
<polygon fill="black" stroke="black" points="2381.85,-176.04 2371.26,-176.38 2379.75,-182.72 2381.85,-176.04"/>
</g>
<!-- aptos_hash -->
<g id="node33" class="node">
<title>aptos_hash</title>
<ellipse fill="none" stroke="black" cx="2368" cy="-234" rx="51.86" ry="18"/>
<text text-anchor="middle" x="2368" y="-228.95" font-family="Times,serif" font-size="14.00">aptos_hash</text>
</g>
<!-- smart_table&#45;&gt;aptos_hash -->
<g id="edge65" class="edge">
<title>smart_table&#45;&gt;aptos_hash</title>
<path fill="none" stroke="black" d="M2515.34,-291.67C2486.19,-280.46 2444.31,-264.35 2412.65,-252.17"/>
<polygon fill="black" stroke="black" points="2413.92,-248.91 2403.33,-248.59 2411.41,-255.44 2413.92,-248.91"/>
</g>
<!-- session&#45;&gt;vector -->
<g id="edge66" class="edge">
<title>session&#45;&gt;vector</title>
<path fill="none" stroke="black" d="M3105.84,-581.18C3210.55,-533.28 3580.7,-346.54 3474,-144 3447.63,-93.94 3421.7,-92.6 3369,-72 3259.83,-29.32 3120.15,-20.58 3049.42,-19.06"/>
<polygon fill="black" stroke="black" points="3049.84,-15.57 3039.78,-18.9 3049.72,-22.57 3049.84,-15.57"/>
</g>
<!-- session&#45;&gt;option -->
<g id="edge67" class="edge">
<title>session&#45;&gt;option</title>
<path fill="none" stroke="black" d="M3041.5,-591.91C2750.37,-583.34 859.53,-525.55 755,-468 634.16,-401.47 668.03,-194.4 685.03,-118.9"/>
<polygon fill="black" stroke="black" points="688.38,-119.96 687.25,-109.43 681.56,-118.37 688.38,-119.96"/>
</g>
<!-- session&#45;&gt;object -->
<g id="edge68" class="edge">
<title>session&#45;&gt;object</title>
<path fill="none" stroke="black" d="M3041.82,-590.65C2875.17,-580.12 2197.29,-537.3 2015.85,-525.83"/>
<polygon fill="black" stroke="black" points="2016.1,-522.34 2005.89,-525.2 2015.65,-529.33 2016.1,-522.34"/>
</g>
<!-- session&#45;&gt;timestamp -->
<g id="edge69" class="edge">
<title>session&#45;&gt;timestamp</title>
<path fill="none" stroke="black" d="M3090.6,-576.76C3096.51,-568.49 3103.83,-558.23 3110.5,-548.9"/>
<polygon fill="black" stroke="black" points="3113.27,-551.04 3116.24,-540.87 3107.58,-546.97 3113.27,-551.04"/>
</g>
<!-- smart_vector -->
<g id="node34" class="node">
<title>smart_vector</title>
<ellipse fill="none" stroke="black" cx="2840" cy="-306" rx="59.54" ry="18"/>
<text text-anchor="middle" x="2840" y="-300.95" font-family="Times,serif" font-size="14.00">smart_vector</text>
</g>
<!-- session&#45;&gt;smart_vector -->
<g id="edge70" class="edge">
<title>session&#45;&gt;smart_vector</title>
<path fill="none" stroke="black" d="M3073.01,-575.88C3057.63,-534.07 3013.06,-425.44 2944,-360 2928.25,-345.07 2907.48,-333.36 2888.64,-324.79"/>
<polygon fill="black" stroke="black" points="2890.08,-321.6 2879.52,-320.82 2887.3,-328.02 2890.08,-321.6"/>
</g>
<!-- trust_coin&#45;&gt;string -->
<g id="edge73" class="edge">
<title>trust_coin&#45;&gt;string</title>
<path fill="none" stroke="black" d="M1336.22,-952.04C1151.77,-948.13 492.02,-932.01 404,-900 378.94,-890.89 380.06,-875.5 356,-864 297.26,-835.92 267.54,-865.05 214,-828 174.36,-800.57 152,-787.21 152,-739 152,-739 152,-739 152,-377 152,-286.14 202.61,-266.72 278,-216 321.61,-186.66 381.44,-173.39 421.34,-167.5"/>
<polygon fill="black" stroke="black" points="421.61,-170.99 431.04,-166.17 420.66,-164.06 421.61,-170.99"/>
</g>
<!-- trust_coin&#45;&gt;signer -->
<g id="edge74" class="edge">
<title>trust_coin&#45;&gt;signer</title>
<path fill="none" stroke="black" d="M1431.72,-952.62C1682.55,-950.46 2842.8,-938.44 2998,-900 3265.61,-833.72 3426,-726.69 3426,-451 3426,-451 3426,-451 3426,-377 3426,-270.28 3415.82,-239.4 3368,-144 3362.95,-133.92 3355.84,-123.87 3348.96,-115.28"/>
<polygon fill="black" stroke="black" points="3351.77,-113.18 3342.67,-107.76 3346.4,-117.67 3351.77,-113.18"/>
</g>
<!-- trust_coin&#45;&gt;event -->
<g id="edge75" class="edge">
<title>trust_coin&#45;&gt;event</title>
<path fill="none" stroke="black" d="M1428.78,-947.21C1617.03,-922.15 2343,-818.26 2525,-684 2576.79,-645.8 2670.1,-473.06 2705.18,-405.86"/>
<polygon fill="black" stroke="black" points="2708.27,-407.49 2709.78,-397.01 2702.06,-404.27 2708.27,-407.49"/>
</g>
<!-- trust_coin&#45;&gt;vector -->
<g id="edge71" class="edge">
<title>trust_coin&#45;&gt;vector</title>
<path fill="none" stroke="black" d="M1335.98,-952.48C1159.47,-950.29 546.89,-939.89 356,-900 267.2,-881.44 226.37,-894.81 165,-828 94.85,-751.64 38,-482.69 38,-379 38,-379 38,-379 38,-305 38,-166.18 119.86,-129.95 246,-72 374.39,-13.02 2610.15,-17.74 2958.53,-18.84"/>
<polygon fill="black" stroke="black" points="2958.36,-22.34 2968.38,-18.87 2958.39,-15.34 2958.36,-22.34"/>
</g>
<!-- trust_coin&#45;&gt;option -->
<g id="edge72" class="edge">
<title>trust_coin&#45;&gt;option</title>
<path fill="none" stroke="black" d="M1335.97,-952.86C1172.24,-951.97 637.01,-945.57 472,-900 455.33,-895.4 345.94,-840.51 334,-828 163.45,-649.38 153.25,-565.16 100,-324 89.03,-274.31 99.2,-248.92 138,-216 215.69,-150.1 528.96,-109.14 646.84,-95.8"/>
<polygon fill="black" stroke="black" points="647.22,-99.28 656.77,-94.69 646.45,-92.32 647.22,-99.28"/>
</g>
<!-- trust_coin&#45;&gt;object -->
<g id="edge76" class="edge">
<title>trust_coin&#45;&gt;object</title>
<path fill="none" stroke="black" d="M1430.31,-949.22C1535.86,-938.26 1797,-897.6 1951,-756 2011.26,-700.6 2004.02,-656.65 1990,-576 1988.52,-567.49 1985.8,-558.54 1982.87,-550.47"/>
<polygon fill="black" stroke="black" points="1986.14,-549.23 1979.25,-541.19 1979.62,-551.78 1986.14,-549.23"/>
</g>
<!-- trust_coin&#45;&gt;fungible_asset -->
<g id="edge78" class="edge">
<title>trust_coin&#45;&gt;fungible_asset</title>
<path fill="none" stroke="black" d="M1375.5,-935.99C1363.23,-909.82 1342,-857.79 1342,-811 1342,-811 1342,-811 1342,-737 1342,-695.05 1322.35,-649.89 1307.68,-622.03"/>
<polygon fill="black" stroke="black" points="1310.94,-620.68 1303.08,-613.57 1304.79,-624.03 1310.94,-620.68"/>
</g>
<!-- trust_coin&#45;&gt;timestamp -->
<g id="edge83" class="edge">
<title>trust_coin&#45;&gt;timestamp</title>
<path fill="none" stroke="black" d="M1431.96,-953C1652.23,-952.73 2568.13,-948.65 2850,-900 2979.51,-877.65 3132,-942.43 3132,-811 3132,-811 3132,-811 3132,-737 3132,-670.69 3130.54,-592.83 3129.66,-551.75"/>
<polygon fill="black" stroke="black" points="3133.16,-551.91 3129.44,-541.99 3126.16,-552.06 3133.16,-551.91"/>
</g>
<!-- trust_coin&#45;&gt;smart_table -->
<g id="edge84" class="edge">
<title>trust_coin&#45;&gt;smart_table</title>
<path fill="none" stroke="black" d="M1431.66,-951.61C1584.02,-945.61 2070.38,-914.41 2432,-756 2629.99,-669.27 2709.34,-606.37 2759,-396 2762.68,-380.43 2768.83,-372.63 2759,-360 2749.55,-347.86 2666.04,-329.45 2607.49,-317.84"/>
<polygon fill="black" stroke="black" points="2608.48,-314.46 2597.99,-315.97 2607.13,-321.33 2608.48,-314.46"/>
</g>
<!-- trust_coin&#45;&gt;function_info -->
<g id="edge77" class="edge">
<title>trust_coin&#45;&gt;function_info</title>
<path fill="none" stroke="black" d="M1384,-935.51C1384,-908.71 1384,-855.87 1384,-811 1384,-811 1384,-811 1384,-521 1384,-415.71 1460.46,-308.12 1499.14,-260.43"/>
<polygon fill="black" stroke="black" points="1501.71,-262.81 1505.38,-252.87 1496.31,-258.36 1501.71,-262.81"/>
</g>
<!-- dispatchable_fungible_asset -->
<g id="node35" class="node">
<title>dispatchable_fungible_asset</title>
<ellipse fill="none" stroke="black" cx="1082" cy="-666" rx="114.82" ry="18"/>
<text text-anchor="middle" x="1082" y="-660.95" font-family="Times,serif" font-size="14.00">dispatchable_fungible_asset</text>
</g>
<!-- trust_coin&#45;&gt;dispatchable_fungible_asset -->
<g id="edge79" class="edge">
<title>trust_coin&#45;&gt;dispatchable_fungible_asset</title>
<path fill="none" stroke="black" d="M1339.38,-947.18C1250.96,-932.94 1055.16,-887.36 975,-756 966.67,-742.34 966.56,-733.59 975,-720 984.15,-705.26 998.74,-694.5 1014.25,-686.68"/>
<polygon fill="black" stroke="black" points="1015.53,-689.95 1023.15,-682.59 1012.61,-683.59 1015.53,-689.95"/>
</g>
<!-- primary_fungible_store -->
<g id="node36" class="node">
<title>primary_fungible_store</title>
<ellipse fill="none" stroke="black" cx="1082" cy="-738" rx="98.44" ry="18"/>
<text text-anchor="middle" x="1082" y="-732.95" font-family="Times,serif" font-size="14.00">primary_fungible_store</text>
</g>
<!-- trust_coin&#45;&gt;primary_fungible_store -->
<g id="edge80" class="edge">
<title>trust_coin&#45;&gt;primary_fungible_store</title>
<path fill="none" stroke="black" d="M1362.28,-937.61C1310.03,-900.58 1177.05,-806.36 1114.92,-762.33"/>
<polygon fill="black" stroke="black" points="1117,-759.51 1106.82,-756.59 1112.95,-765.22 1117,-759.51"/>
</g>
<!-- coin -->
<g id="node37" class="node">
<title>coin</title>
<ellipse fill="none" stroke="black" cx="1578" cy="-810" rx="27" ry="18"/>
<text text-anchor="middle" x="1578" y="-804.95" font-family="Times,serif" font-size="14.00">coin</text>
</g>
<!-- trust_coin&#45;&gt;coin -->
<g id="edge81" class="edge">
<title>trust_coin&#45;&gt;coin</title>
<path fill="none" stroke="black" d="M1405.13,-937.53C1440.62,-911.56 1512.13,-859.21 1551.13,-830.67"/>
<polygon fill="black" stroke="black" points="1553.08,-833.58 1559.09,-824.84 1548.95,-827.93 1553.08,-833.58"/>
</g>
<!-- aptos_coin -->
<g id="node38" class="node">
<title>aptos_coin</title>
<ellipse fill="none" stroke="black" cx="2790" cy="-882" rx="50.84" ry="18"/>
<text text-anchor="middle" x="2790" y="-876.95" font-family="Times,serif" font-size="14.00">aptos_coin</text>
</g>
<!-- trust_coin&#45;&gt;aptos_coin -->
<g id="edge82" class="edge">
<title>trust_coin&#45;&gt;aptos_coin</title>
<path fill="none" stroke="black" d="M1431.91,-951.8C1596.13,-947.48 2151.33,-931.37 2609,-900 2649.63,-897.21 2695.29,-892.92 2730.58,-889.34"/>
<polygon fill="black" stroke="black" points="2730.56,-892.86 2740.15,-888.36 2729.84,-885.9 2730.56,-892.86"/>
</g>
<!-- string_utils -->
<g id="node39" class="node">
<title>string_utils</title>
<ellipse fill="none" stroke="black" cx="395" cy="-810" rx="52.38" ry="18"/>
<text text-anchor="middle" x="395" y="-804.95" font-family="Times,serif" font-size="14.00">string_utils</text>
</g>
<!-- trust_coin&#45;&gt;string_utils -->
<g id="edge85" class="edge">
<title>trust_coin&#45;&gt;string_utils</title>
<path fill="none" stroke="black" d="M1335.88,-952.76C1181.53,-951.54 700.33,-944.21 552,-900 504.04,-885.71 454.82,-854.61 424.57,-833.23"/>
<polygon fill="black" stroke="black" points="426.83,-830.55 416.67,-827.55 422.75,-836.23 426.83,-830.55"/>
</g>
<!-- rewards_pool&#45;&gt;object -->
<g id="edge86" class="edge">
<title>rewards_pool&#45;&gt;object</title>
<path fill="none" stroke="black" d="M1014.17,-1025.06C1296.36,-1024.72 2463.4,-1016.23 2571,-900 2755.24,-700.97 2177.19,-565.15 2013.14,-531.27"/>
<polygon fill="black" stroke="black" points="2014.04,-527.89 2003.54,-529.31 2012.64,-534.74 2014.04,-527.89"/>
</g>
<!-- rewards_pool&#45;&gt;fungible_asset -->
<g id="edge87" class="edge">
<title>rewards_pool&#45;&gt;fungible_asset</title>
<path fill="none" stroke="black" d="M892.41,-1022.95C707.34,-1014.7 171.72,-974.8 334,-792 367.62,-754.13 1196.54,-711.59 1239,-684 1260.76,-669.86 1274.82,-643.39 1282.96,-622.98"/>
<polygon fill="black" stroke="black" points="1286.17,-624.39 1286.35,-613.8 1279.6,-621.96 1286.17,-624.39"/>
</g>
<!-- rewards_pool&#45;&gt;trust_coin -->
<g id="edge90" class="edge">
<title>rewards_pool&#45;&gt;trust_coin</title>
<path fill="none" stroke="black" d="M1005.42,-1016.49C1087.59,-1003.14 1245.94,-977.42 1329.42,-963.86"/>
<polygon fill="black" stroke="black" points="1329.88,-967.34 1339.19,-962.28 1328.76,-960.43 1329.88,-967.34"/>
</g>
<!-- rewards_pool&#45;&gt;dispatchable_fungible_asset -->
<g id="edge88" class="edge">
<title>rewards_pool&#45;&gt;dispatchable_fungible_asset</title>
<path fill="none" stroke="black" d="M891.53,-1025.03C748.48,-1024.33 397.33,-1017.82 290,-972 235.28,-948.64 190,-942.5 190,-883 190,-883 190,-883 190,-809 190,-760.79 210,-743.66 252,-720 311.75,-686.34 739.9,-673.45 956.77,-669.04"/>
<polygon fill="black" stroke="black" points="956.77,-672.54 966.7,-668.84 956.63,-665.54 956.77,-672.54"/>
</g>
<!-- rewards_pool&#45;&gt;primary_fungible_store -->
<g id="edge89" class="edge">
<title>rewards_pool&#45;&gt;primary_fungible_store</title>
<path fill="none" stroke="black" d="M960.68,-1007.97C982.19,-960.29 1043.13,-825.18 1069.54,-766.63"/>
<polygon fill="black" stroke="black" points="1072.65,-768.24 1073.57,-757.69 1066.27,-765.36 1072.65,-768.24"/>
</g>
<!-- utils&#45;&gt;vector -->
<g id="edge91" class="edge">
<title>utils&#45;&gt;vector</title>
<path fill="none" stroke="black" d="M3525,-288.18C3538.98,-245.63 3568.46,-132.79 3512,-72 3480.76,-38.36 3167.59,-24.46 3049.1,-20.38"/>
<polygon fill="black" stroke="black" points="3049.55,-16.89 3039.44,-20.06 3049.32,-23.89 3049.55,-16.89"/>
</g>
<!-- utils&#45;&gt;aptos_hash -->
<g id="edge92" class="edge">
<title>utils&#45;&gt;aptos_hash</title>
<path fill="none" stroke="black" d="M3491.96,-303.36C3345.34,-294.44 2644.28,-251.8 2430.21,-238.78"/>
<polygon fill="black" stroke="black" points="2430.6,-235.3 2420.41,-238.19 2430.18,-242.29 2430.6,-235.3"/>
</g>
<!-- features&#45;&gt;signer -->
<g id="edge94" class="edge">
<title>features&#45;&gt;signer</title>
<path fill="none" stroke="black" d="M1733.77,-158.68C1793.51,-155.23 1909.98,-148.66 2009,-144 2508.28,-120.49 3114.26,-98.54 3282.07,-92.58"/>
<polygon fill="black" stroke="black" points="3282,-96.09 3291.87,-92.24 3281.76,-89.09 3282,-96.09"/>
</g>
<!-- features&#45;&gt;vector -->
<g id="edge93" class="edge">
<title>features&#45;&gt;vector</title>
<path fill="none" stroke="black" d="M1725.54,-150.47C1732.87,-148.19 1740.67,-145.9 1748,-144 1902.59,-103.97 1941.67,-92.73 2100,-72 2427.22,-29.17 2825.63,-20.94 2958.47,-19.37"/>
<polygon fill="black" stroke="black" points="2958.29,-22.87 2968.25,-19.26 2958.21,-15.87 2958.29,-22.87"/>
</g>
<!-- features&#45;&gt;error -->
<g id="edge95" class="edge">
<title>features&#45;&gt;error</title>
<path fill="none" stroke="black" d="M1725.16,-150.2C1732.58,-147.91 1740.52,-145.67 1748,-144 1874.33,-115.75 2027.27,-100.28 2098.25,-94.15"/>
<polygon fill="black" stroke="black" points="2098.15,-97.68 2107.82,-93.34 2097.56,-90.7 2098.15,-97.68"/>
</g>
<!-- from_bcs&#45;&gt;string -->
<g id="edge96" class="edge">
<title>from_bcs&#45;&gt;string</title>
<path fill="none" stroke="black" d="M736.86,-361.61C684.85,-323.75 550.68,-226.09 492.08,-183.44"/>
<polygon fill="black" stroke="black" points="494.39,-180.79 484.25,-177.74 490.27,-186.45 494.39,-180.79"/>
</g>
<!-- account&#45;&gt;signer -->
<g id="edge99" class="edge">
<title>account&#45;&gt;signer</title>
<path fill="none" stroke="black" d="M2319.14,-443.2C2372.71,-434.54 2474.59,-417 2560,-396 2613.66,-382.81 2624.72,-370.34 2679,-360 2869.13,-323.78 2932.24,-393.21 3113,-324 3113.77,-323.7 3207.49,-252.65 3208,-252 3240.63,-210.84 3223.22,-185.04 3256,-144 3266.74,-130.56 3281.64,-118.74 3295.03,-109.7"/>
<polygon fill="black" stroke="black" points="3296.66,-112.82 3303.15,-104.45 3292.86,-106.94 3296.66,-112.82"/>
</g>
<!-- account&#45;&gt;event -->
<g id="edge111" class="edge">
<title>account&#45;&gt;event</title>
<path fill="none" stroke="black" d="M2320.51,-444.92C2405.61,-435.72 2607.42,-412.84 2674,-396 2677.19,-395.19 2680.46,-394.23 2683.71,-393.18"/>
<polygon fill="black" stroke="black" points="2684.86,-396.49 2693.14,-389.88 2682.54,-389.89 2684.86,-396.49"/>
</g>
<!-- account&#45;&gt;vector -->
<g id="edge97" class="edge">
<title>account&#45;&gt;vector</title>
<path fill="none" stroke="black" d="M2321.23,-447.16C2371.15,-443.36 2458.72,-431.71 2524,-396 2543.85,-385.14 2539.41,-369.38 2560,-360 2665.42,-312 2991.71,-398.98 3080,-324 3123.1,-287.4 3145.16,-119.82 3115,-72 3100.08,-48.35 3071.38,-35.03 3046.91,-27.65"/>
<polygon fill="black" stroke="black" points="3048.05,-24.34 3037.48,-25.07 3046.2,-31.09 3048.05,-24.34"/>
</g>
<!-- account&#45;&gt;option -->
<g id="edge98" class="edge">
<title>account&#45;&gt;option</title>
<path fill="none" stroke="black" d="M2243.32,-445.72C2162.54,-438.63 1970.16,-420.54 1810,-396 1727.2,-383.32 1707.95,-371.63 1625,-360 1305.42,-315.21 1199.18,-388.98 907,-252 830,-215.9 753.59,-149.52 716.01,-114.33"/>
<polygon fill="black" stroke="black" points="718.51,-111.87 708.84,-107.54 713.7,-116.96 718.51,-111.87"/>
</g>
<!-- account&#45;&gt;bcs -->
<g id="edge102" class="edge">
<title>account&#45;&gt;bcs</title>
<path fill="none" stroke="black" d="M2284.59,-431.58C2290.1,-387.09 2297.49,-269.11 2231,-216 2176.08,-172.13 2142.81,-204.69 2077,-180 2076.37,-179.77 2075.75,-179.52 2075.11,-179.27"/>
<polygon fill="black" stroke="black" points="2076.87,-176.22 2066.32,-175.24 2073.95,-182.59 2076.87,-176.22"/>
</g>
<!-- account&#45;&gt;guid -->
<g id="edge109" class="edge">
<title>account&#45;&gt;guid</title>
<path fill="none" stroke="black" d="M2301.56,-433.93C2313.9,-423.91 2329.77,-410.05 2342,-396 2359.07,-376.39 2375.15,-351.55 2386.19,-333.1"/>
<polygon fill="black" stroke="black" points="2389.12,-335.03 2391.17,-324.63 2383.09,-331.48 2389.12,-335.03"/>
</g>
<!-- account&#45;&gt;type_info -->
<g id="edge103" class="edge">
<title>account&#45;&gt;type_info</title>
<path fill="none" stroke="black" d="M2243.49,-445.08C2181.22,-438.07 2062.04,-421.68 2029,-396 1985.96,-362.56 1964.84,-299.57 1955.79,-263.08"/>
<polygon fill="black" stroke="black" points="1959.29,-262.65 1953.61,-253.71 1952.47,-264.24 1959.29,-262.65"/>
</g>
<!-- account&#45;&gt;error -->
<g id="edge100" class="edge">
<title>account&#45;&gt;error</title>
<path fill="none" stroke="black" d="M2289.28,-431.96C2305.17,-395.32 2343.28,-310.52 2365,-288 2387.65,-264.51 2412.52,-280.17 2429,-252 2437.08,-238.19 2439.24,-228.29 2429,-216 2372.31,-147.95 2311.12,-221.73 2233,-180 2213.32,-169.49 2214.15,-159.4 2198,-144 2186.84,-133.36 2174.08,-121.99 2163.21,-112.52"/>
<polygon fill="black" stroke="black" points="2165.6,-109.95 2155.74,-106.06 2161.02,-115.25 2165.6,-109.95"/>
</g>
<!-- account&#45;&gt;features -->
<g id="edge101" class="edge">
<title>account&#45;&gt;features</title>
<path fill="none" stroke="black" d="M2242.38,-447.67C2185.01,-444.45 2076.54,-433.48 1993,-396 1875.71,-343.38 1763.32,-235.4 1716.65,-187.18"/>
<polygon fill="black" stroke="black" points="1719.21,-184.79 1709.76,-179.99 1714.15,-189.64 1719.21,-184.79"/>
</g>
<!-- account&#45;&gt;hash -->
<g id="edge106" class="edge">
<title>account&#45;&gt;hash</title>
<path fill="none" stroke="black" d="M2279.38,-431.79C2273.67,-395.6 2259.54,-312.91 2246,-288 2239.5,-276.03 2229.5,-264.92 2220.01,-255.99"/>
<polygon fill="black" stroke="black" points="2222.47,-253.49 2212.67,-249.45 2217.81,-258.71 2222.47,-253.49"/>
</g>
<!-- account&#45;&gt;from_bcs -->
<g id="edge110" class="edge">
<title>account&#45;&gt;from_bcs</title>
<path fill="none" stroke="black" d="M2242.32,-448.33C2079.46,-445.42 1446.32,-432.24 927,-396 888.84,-393.34 845.97,-389.01 812.95,-385.39"/>
<polygon fill="black" stroke="black" points="813.54,-381.93 803.21,-384.3 812.76,-388.89 813.54,-381.93"/>
</g>
<!-- account&#45;&gt;create_signer -->
<g id="edge112" class="edge">
<title>account&#45;&gt;create_signer</title>
<path fill="none" stroke="black" d="M2243.48,-445.29C2126.34,-433.99 1773.3,-399.95 1623.92,-385.55"/>
<polygon fill="black" stroke="black" points="1624.47,-382.09 1614.18,-384.61 1623.8,-389.05 1624.47,-382.09"/>
</g>
<!-- account&#45;&gt;system_addresses -->
<g id="edge105" class="edge">
<title>account&#45;&gt;system_addresses</title>
<path fill="none" stroke="black" d="M2320.06,-444.43C2363.01,-438.13 2434.04,-424.18 2489,-396 2511.18,-384.63 2509.01,-369.62 2532,-360 2687.28,-295.06 2742.48,-348.54 2909,-324 2915.05,-323.11 2921.32,-322.07 2927.59,-320.96"/>
<polygon fill="black" stroke="black" points="2928.13,-324.42 2937.33,-319.16 2926.86,-317.53 2928.13,-324.42"/>
</g>
<!-- table -->
<g id="node40" class="node">
<title>table</title>
<ellipse fill="none" stroke="black" cx="789" cy="-90" rx="28.83" ry="18"/>
<text text-anchor="middle" x="789" y="-84.95" font-family="Times,serif" font-size="14.00">table</text>
</g>
<!-- account&#45;&gt;table -->
<g id="edge104" class="edge">
<title>account&#45;&gt;table</title>
<path fill="none" stroke="black" d="M2243.36,-445.37C2177.17,-438.69 2038.08,-422.64 1923,-396 1871.65,-384.11 1861.35,-371.91 1810,-360 1491.79,-286.18 1392.64,-356.07 1083,-252 978.28,-216.8 867.19,-145.27 816.77,-110.65"/>
<polygon fill="black" stroke="black" points="818.98,-107.92 808.76,-105.1 814.99,-113.67 818.98,-107.92"/>
</g>
<!-- ed25519 -->
<g id="node41" class="node">
<title>ed25519</title>
<ellipse fill="none" stroke="black" cx="2047" cy="-306" rx="42.65" ry="18"/>
<text text-anchor="middle" x="2047" y="-300.95" font-family="Times,serif" font-size="14.00">ed25519</text>
</g>
<!-- account&#45;&gt;ed25519 -->
<g id="edge107" class="edge">
<title>account&#45;&gt;ed25519</title>
<path fill="none" stroke="black" d="M2243.22,-446.15C2182.08,-440.76 2067.67,-426.74 2043,-396 2029.47,-379.14 2031.91,-354.16 2036.91,-334.95"/>
<polygon fill="black" stroke="black" points="2040.2,-336.17 2039.71,-325.59 2033.49,-334.16 2040.2,-336.17"/>
</g>
<!-- multi_ed25519 -->
<g id="node42" class="node">
<title>multi_ed25519</title>
<ellipse fill="none" stroke="black" cx="2119" cy="-378" rx="67.22" ry="18"/>
<text text-anchor="middle" x="2119" y="-372.95" font-family="Times,serif" font-size="14.00">multi_ed25519</text>
</g>
<!-- account&#45;&gt;multi_ed25519 -->
<g id="edge108" class="edge">
<title>account&#45;&gt;multi_ed25519</title>
<path fill="none" stroke="black" d="M2253.98,-436.97C2229.17,-426.31 2192.53,-410.58 2163.68,-398.19"/>
<polygon fill="black" stroke="black" points="2165.4,-395.12 2154.83,-394.39 2162.64,-401.55 2165.4,-395.12"/>
</g>
<!-- chain_id -->
<g id="node43" class="node">
<title>chain_id</title>
<ellipse fill="none" stroke="black" cx="2437" cy="-378" rx="42.65" ry="18"/>
<text text-anchor="middle" x="2437" y="-372.95" font-family="Times,serif" font-size="14.00">chain_id</text>
</g>
<!-- account&#45;&gt;chain_id -->
<g id="edge113" class="edge">
<title>account&#45;&gt;chain_id</title>
<path fill="none" stroke="black" d="M2309.35,-436.65C2334.09,-425.47 2370.77,-408.91 2398.48,-396.4"/>
<polygon fill="black" stroke="black" points="2399.56,-399.75 2407.23,-392.44 2396.68,-393.37 2399.56,-399.75"/>
</g>
<!-- transaction_context&#45;&gt;string -->
<g id="edge115" class="edge">
<title>transaction_context&#45;&gt;string</title>
<path fill="none" stroke="black" d="M1261.77,-221.03C1250.9,-219.13 1239.64,-217.35 1229,-216 955.74,-181.4 624.5,-168.11 507.48,-164.28"/>
<polygon fill="black" stroke="black" points="507.81,-160.79 497.71,-163.97 507.59,-167.79 507.81,-160.79"/>
</g>
<!-- transaction_context&#45;&gt;option -->
<g id="edge114" class="edge">
<title>transaction_context&#45;&gt;option</title>
<path fill="none" stroke="black" d="M1278.81,-218.21C1221.24,-198.55 1114.51,-163.98 1021,-144 902.61,-118.71 869.49,-132.83 751,-108 744.65,-106.67 737.99,-105.01 731.51,-103.26"/>
<polygon fill="black" stroke="black" points="732.93,-100.02 722.35,-100.66 731.02,-106.75 732.93,-100.02"/>
</g>
<!-- transaction_context&#45;&gt;error -->
<g id="edge116" class="edge">
<title>transaction_context&#45;&gt;error</title>
<path fill="none" stroke="black" d="M1333.53,-215.95C1350.17,-194.82 1381.71,-159.69 1418,-144 1541.55,-90.6 1964.55,-89.5 2097.6,-90.53"/>
<polygon fill="black" stroke="black" points="2097.29,-94.02 2107.32,-90.61 2097.35,-87.02 2097.29,-94.02"/>
</g>
<!-- transaction_context&#45;&gt;features -->
<g id="edge117" class="edge">
<title>transaction_context&#45;&gt;features</title>
<path fill="none" stroke="black" d="M1382.18,-221.52C1456.13,-207.64 1579,-184.58 1646.31,-171.95"/>
<polygon fill="black" stroke="black" points="1646.74,-175.43 1655.92,-170.15 1645.45,-168.55 1646.74,-175.43"/>
</g>
<!-- aggregator_v2&#45;&gt;string -->
<g id="edge118" class="edge">
<title>aggregator_v2&#45;&gt;string</title>
<path fill="none" stroke="black" d="M1096.4,-226.97C959.5,-213.12 625.23,-179.31 506.61,-167.31"/>
<polygon fill="black" stroke="black" points="507.3,-163.86 497,-166.34 506.6,-170.83 507.3,-163.86"/>
</g>
<!-- aggregator_v2&#45;&gt;error -->
<g id="edge119" class="edge">
<title>aggregator_v2&#45;&gt;error</title>
<path fill="none" stroke="black" d="M1183.89,-217.46C1222.85,-196.59 1296.41,-160.28 1364,-144 1505.55,-109.91 1960.05,-95.6 2097.95,-91.97"/>
<polygon fill="black" stroke="black" points="2097.77,-95.48 2107.68,-91.72 2097.59,-88.48 2097.77,-95.48"/>
</g>
<!-- aggregator_v2&#45;&gt;features -->
<g id="edge120" class="edge">
<title>aggregator_v2&#45;&gt;features</title>
<path fill="none" stroke="black" d="M1202.57,-221.31C1211.31,-219.36 1220.41,-217.48 1229,-216 1378.65,-190.14 1557.65,-173.79 1643.37,-166.85"/>
<polygon fill="black" stroke="black" points="1643.39,-170.36 1653.08,-166.07 1642.83,-163.38 1643.39,-170.36"/>
</g>
<!-- function_info&#45;&gt;string -->
<g id="edge121" class="edge">
<title>function_info&#45;&gt;string</title>
<path fill="none" stroke="black" d="M1469.77,-223.86C1451.86,-220.95 1431.59,-217.98 1413,-216 1064.97,-178.98 642.21,-166.92 507.45,-163.88"/>
<polygon fill="black" stroke="black" points="507.63,-160.38 497.56,-163.66 507.48,-167.38 507.63,-160.38"/>
</g>
<!-- function_info&#45;&gt;signer -->
<g id="edge122" class="edge">
<title>function_info&#45;&gt;signer</title>
<path fill="none" stroke="black" d="M1581.25,-230.27C1797.68,-220.45 2525.63,-187.03 2575,-180 2643.73,-170.22 2658.47,-155.08 2727,-144 2932.84,-110.71 3182.02,-97.13 3282.16,-92.75"/>
<polygon fill="black" stroke="black" points="3282.26,-96.24 3292.11,-92.32 3281.97,-89.25 3282.26,-96.24"/>
</g>
<!-- function_info&#45;&gt;error -->
<g id="edge123" class="edge">
<title>function_info&#45;&gt;error</title>
<path fill="none" stroke="black" d="M1537.76,-216.52C1560.12,-195.65 1601.93,-160.45 1645,-144 1727.67,-112.43 1995.56,-97.38 2097.82,-92.68"/>
<polygon fill="black" stroke="black" points="2097.83,-96.19 2107.66,-92.24 2097.51,-89.19 2097.83,-96.19"/>
</g>
<!-- function_info&#45;&gt;features -->
<g id="edge124" class="edge">
<title>function_info&#45;&gt;features</title>
<path fill="none" stroke="black" d="M1556.01,-218.83C1584.5,-207.31 1624.71,-191.04 1654.38,-179.03"/>
<polygon fill="black" stroke="black" points="1655.43,-182.38 1663.38,-175.39 1652.8,-175.89 1655.43,-182.38"/>
</g>
<!-- system_addresses&#45;&gt;signer -->
<g id="edge125" class="edge">
<title>system_addresses&#45;&gt;signer</title>
<path fill="none" stroke="black" d="M3027.99,-289.41C3047.88,-279.7 3073.11,-266.35 3094,-252 3154.24,-210.62 3157.05,-184.33 3218,-144 3240.82,-128.9 3268.58,-115.47 3290.37,-105.9"/>
<polygon fill="black" stroke="black" points="3291.66,-109.16 3299.46,-101.99 3288.89,-102.73 3291.66,-109.16"/>
</g>
<!-- system_addresses&#45;&gt;error -->
<g id="edge126" class="edge">
<title>system_addresses&#45;&gt;error</title>
<path fill="none" stroke="black" d="M2993.26,-287.76C2990.75,-253.38 2979.68,-176.77 2931,-144 2868.25,-101.76 2331.14,-93 2178.38,-91.35"/>
<polygon fill="black" stroke="black" points="2178.79,-87.86 2168.75,-91.25 2178.71,-94.85 2178.79,-87.86"/>
</g>
<!-- math64&#45;&gt;error -->
<g id="edge127" class="edge">
<title>math64&#45;&gt;error</title>
<path fill="none" stroke="black" d="M2764.98,-217.25C2740.01,-192.87 2693.65,-148.31 2684,-144 2593.37,-103.57 2288.45,-93.84 2178.2,-91.62"/>
<polygon fill="black" stroke="black" points="2178.52,-88.13 2168.46,-91.44 2178.39,-95.13 2178.52,-88.13"/>
</g>
<!-- fixed_point32 -->
<g id="node44" class="node">
<title>fixed_point32</title>
<ellipse fill="none" stroke="black" cx="2799" cy="-162" rx="62.61" ry="18"/>
<text text-anchor="middle" x="2799" y="-156.95" font-family="Times,serif" font-size="14.00">fixed_point32</text>
</g>
<!-- math64&#45;&gt;fixed_point32 -->
<g id="edge128" class="edge">
<title>math64&#45;&gt;fixed_point32</title>
<path fill="none" stroke="black" d="M2785.45,-215.7C2787.35,-208.32 2789.61,-199.52 2791.74,-191.25"/>
<polygon fill="black" stroke="black" points="2795.12,-192.13 2794.22,-181.57 2788.34,-190.38 2795.12,-192.13"/>
</g>
<!-- table_with_length&#45;&gt;error -->
<g id="edge129" class="edge">
<title>table_with_length&#45;&gt;error</title>
<path fill="none" stroke="black" d="M2280.17,-145.98C2248.25,-133.64 2203.44,-116.31 2172.71,-104.42"/>
<polygon fill="black" stroke="black" points="2174.07,-101.2 2163.48,-100.86 2171.55,-107.73 2174.07,-101.2"/>
</g>
<!-- table_with_length&#45;&gt;table -->
<g id="edge130" class="edge">
<title>table_with_length&#45;&gt;table</title>
<path fill="none" stroke="black" d="M2250.83,-153.09C2220.59,-149.83 2184.56,-146.29 2152,-144 1630.01,-107.32 993.64,-94.47 829.26,-91.65"/>
<polygon fill="black" stroke="black" points="829.38,-88.15 819.32,-91.48 829.26,-95.15 829.38,-88.15"/>
</g>
<!-- aptos_hash&#45;&gt;bcs -->
<g id="edge133" class="edge">
<title>aptos_hash&#45;&gt;bcs</title>
<path fill="none" stroke="black" d="M2327.59,-222.23C2319.16,-220.09 2310.3,-217.91 2302,-216 2223.34,-197.93 2203.01,-196.49 2124,-180 2110.19,-177.12 2095.04,-173.88 2081.74,-171"/>
<polygon fill="black" stroke="black" points="2082.59,-167.61 2072.08,-168.91 2081.11,-174.45 2082.59,-167.61"/>
</g>
<!-- aptos_hash&#45;&gt;error -->
<g id="edge131" class="edge">
<title>aptos_hash&#45;&gt;error</title>
<path fill="none" stroke="black" d="M2328.62,-222.03C2282.37,-208.91 2210.56,-187.77 2200,-180 2178.11,-163.91 2161.2,-137.68 2150.61,-117.86"/>
<polygon fill="black" stroke="black" points="2153.73,-116.28 2146.07,-108.96 2147.5,-119.46 2153.73,-116.28"/>
</g>
<!-- aptos_hash&#45;&gt;features -->
<g id="edge132" class="edge">
<title>aptos_hash&#45;&gt;features</title>
<path fill="none" stroke="black" d="M2320.17,-226.77C2293.87,-223.41 2260.66,-219.3 2231,-216 2052.24,-196.09 1839.57,-176.23 1744.4,-167.55"/>
<polygon fill="black" stroke="black" points="1744.9,-164.08 1734.62,-166.66 1744.26,-171.05 1744.9,-164.08"/>
</g>
<!-- smart_vector&#45;&gt;vector -->
<g id="edge134" class="edge">
<title>smart_vector&#45;&gt;vector</title>
<path fill="none" stroke="black" d="M2883.18,-293.28C2931.97,-279.85 3006.17,-258.84 3018,-252 3058.29,-228.72 3075.62,-222.74 3094,-180 3112.97,-135.91 3117.82,-113.67 3094,-72 3083.12,-52.96 3062.43,-40.08 3043.63,-31.79"/>
<polygon fill="black" stroke="black" points="3045.15,-28.63 3034.57,-28.11 3042.51,-35.12 3045.15,-28.63"/>
</g>
<!-- smart_vector&#45;&gt;option -->
<g id="edge135" class="edge">
<title>smart_vector&#45;&gt;option</title>
<path fill="none" stroke="black" d="M2793.56,-294.44C2717.52,-277.27 2561.62,-242.53 2429,-216 2342.15,-198.63 2319.68,-198.21 2233,-180 2165.06,-165.72 2149.84,-152.99 2081,-144 1494.65,-67.46 1335.35,-198.59 751,-108 744.45,-106.99 737.61,-105.46 731,-103.74"/>
<polygon fill="black" stroke="black" points="732.21,-100.44 721.64,-101.1 730.32,-107.18 732.21,-100.44"/>
</g>
<!-- smart_vector&#45;&gt;type_info -->
<g id="edge137" class="edge">
<title>smart_vector&#45;&gt;type_info</title>
<path fill="none" stroke="black" d="M2782.88,-300.65C2665.58,-291.71 2389.07,-270.53 2157,-252 2105.91,-247.92 2047.74,-243.13 2006.1,-239.68"/>
<polygon fill="black" stroke="black" points="2006.58,-236.2 1996.32,-238.86 2006,-243.18 2006.58,-236.2"/>
</g>
<!-- smart_vector&#45;&gt;error -->
<g id="edge136" class="edge">
<title>smart_vector&#45;&gt;error</title>
<path fill="none" stroke="black" d="M2886.3,-294.3C2908.74,-286.53 2933.66,-273.49 2947,-252 2975.2,-206.57 2940.84,-169.78 2894,-144 2831.08,-109.37 2325.57,-95.26 2178.19,-91.86"/>
<polygon fill="black" stroke="black" points="2178.61,-88.36 2168.53,-91.64 2178.45,-95.36 2178.61,-88.36"/>
</g>
<!-- smart_vector&#45;&gt;math64 -->
<g id="edge138" class="edge">
<title>smart_vector&#45;&gt;math64</title>
<path fill="none" stroke="black" d="M2825.72,-288.05C2818.58,-279.59 2809.82,-269.19 2801.94,-259.84"/>
<polygon fill="black" stroke="black" points="2804.84,-257.85 2795.72,-252.46 2799.49,-262.37 2804.84,-257.85"/>
</g>
<!-- big_vector -->
<g id="node45" class="node">
<title>big_vector</title>
<ellipse fill="none" stroke="black" cx="2888" cy="-234" rx="50.33" ry="18"/>
<text text-anchor="middle" x="2888" y="-228.95" font-family="Times,serif" font-size="14.00">big_vector</text>
</g>
<!-- smart_vector&#45;&gt;big_vector -->
<g id="edge139" class="edge">
<title>smart_vector&#45;&gt;big_vector</title>
<path fill="none" stroke="black" d="M2851.62,-288.05C2857.16,-279.97 2863.92,-270.12 2870.09,-261.11"/>
<polygon fill="black" stroke="black" points="2872.86,-263.26 2875.63,-253.04 2867.09,-259.31 2872.86,-263.26"/>
</g>
<!-- dispatchable_fungible_asset&#45;&gt;option -->
<g id="edge140" class="edge">
<title>dispatchable_fungible_asset&#45;&gt;option</title>
<path fill="none" stroke="black" d="M1006.68,-652.01C856.05,-623.88 532,-551.67 532,-451 532,-451 532,-451 532,-377 532,-264.13 567.06,-235.6 633,-144 641.4,-132.33 652.76,-121.37 663.27,-112.47"/>
<polygon fill="black" stroke="black" points="665.47,-115.2 671.02,-106.17 661.05,-109.76 665.47,-115.2"/>
</g>
<!-- dispatchable_fungible_asset&#45;&gt;object -->
<g id="edge143" class="edge">
<title>dispatchable_fungible_asset&#45;&gt;object</title>
<path fill="none" stroke="black" d="M1111.35,-648.23C1128.66,-638.12 1150.86,-624.76 1170,-612 1192.49,-597.01 1193.63,-585.32 1219,-576 1350,-527.89 1784.58,-523.15 1926.06,-522.92"/>
<polygon fill="black" stroke="black" points="1925.77,-526.42 1935.77,-522.91 1925.77,-519.42 1925.77,-526.42"/>
</g>
<!-- dispatchable_fungible_asset&#45;&gt;fungible_asset -->
<g id="edge145" class="edge">
<title>dispatchable_fungible_asset&#45;&gt;fungible_asset</title>
<path fill="none" stroke="black" d="M1129.39,-649.2C1162.68,-638.11 1207.17,-623.28 1241.19,-611.94"/>
<polygon fill="black" stroke="black" points="1242.03,-615.35 1250.41,-608.86 1239.82,-608.71 1242.03,-615.35"/>
</g>
<!-- dispatchable_fungible_asset&#45;&gt;error -->
<g id="edge141" class="edge">
<title>dispatchable_fungible_asset&#45;&gt;error</title>
<path fill="none" stroke="black" d="M1084.3,-647.63C1091.57,-591.67 1113.2,-416.51 1107,-360 1099.92,-295.5 1046.73,-269.8 1083,-216 1130.71,-145.24 1177.76,-162.82 1261,-144 1423.6,-107.23 1947.89,-94.61 2097.69,-91.71"/>
<polygon fill="black" stroke="black" points="2097.57,-95.21 2107.51,-91.52 2097.44,-88.21 2097.57,-95.21"/>
</g>
<!-- dispatchable_fungible_asset&#45;&gt;features -->
<g id="edge142" class="edge">
<title>dispatchable_fungible_asset&#45;&gt;features</title>
<path fill="none" stroke="black" d="M1096.35,-648.08C1153.38,-581.24 1365.17,-336.85 1454,-288 1509.16,-257.66 1537.1,-284.52 1591,-252 1609.58,-240.79 1607.95,-230.61 1624,-216 1636.31,-204.8 1650.85,-193.51 1663.48,-184.25"/>
<polygon fill="black" stroke="black" points="1665.41,-187.17 1671.47,-178.48 1661.31,-181.5 1665.41,-187.17"/>
</g>
<!-- dispatchable_fungible_asset&#45;&gt;function_info -->
<g id="edge144" class="edge">
<title>dispatchable_fungible_asset&#45;&gt;function_info</title>
<path fill="none" stroke="black" d="M1087.72,-647.88C1110.65,-580.26 1197.92,-333.33 1264,-288 1332,-241.36 1365.34,-269.12 1446,-252 1451.57,-250.82 1457.37,-249.56 1463.16,-248.28"/>
<polygon fill="black" stroke="black" points="1463.76,-251.73 1472.76,-246.14 1462.24,-244.9 1463.76,-251.73"/>
</g>
<!-- primary_fungible_store&#45;&gt;string -->
<g id="edge147" class="edge">
<title>primary_fungible_store&#45;&gt;string</title>
<path fill="none" stroke="black" d="M984.38,-735.28C848.63,-727.2 605.43,-690.99 480,-540 394.72,-437.35 435.03,-259.34 455.06,-190.91"/>
<polygon fill="black" stroke="black" points="458.32,-192.2 457.86,-181.62 451.62,-190.18 458.32,-192.2"/>
</g>
<!-- primary_fungible_store&#45;&gt;signer -->
<g id="edge148" class="edge">
<title>primary_fungible_store&#45;&gt;signer</title>
<path fill="none" stroke="black" d="M1175.9,-732.25C1571.21,-712.13 3081.72,-633.96 3126,-612 3267.2,-541.96 3294.32,-284.12 3318,-180 3322.51,-160.16 3324.76,-137.32 3325.89,-119.75"/>
<polygon fill="black" stroke="black" points="3329.38,-119.95 3326.43,-109.78 3322.39,-119.57 3329.38,-119.95"/>
</g>
<!-- primary_fungible_store&#45;&gt;option -->
<g id="edge146" class="edge">
<title>primary_fungible_store&#45;&gt;option</title>
<path fill="none" stroke="black" d="M998.96,-728.15C884.08,-711.54 677.38,-665.2 558,-540 458.62,-435.78 491.11,-345.06 555,-216 572.17,-181.31 575.88,-170.6 604,-144 619.34,-129.49 639.32,-117.06 656.36,-107.89"/>
<polygon fill="black" stroke="black" points="657.92,-111.03 665.18,-103.32 654.7,-104.82 657.92,-111.03"/>
</g>
<!-- primary_fungible_store&#45;&gt;object -->
<g id="edge149" class="edge">
<title>primary_fungible_store&#45;&gt;object</title>
<path fill="none" stroke="black" d="M1139.99,-723.04C1307.02,-682.83 1786.44,-567.43 1929.94,-532.88"/>
<polygon fill="black" stroke="black" points="1930.47,-536.36 1939.38,-530.61 1928.83,-529.55 1930.47,-536.36"/>
</g>
<!-- primary_fungible_store&#45;&gt;fungible_asset -->
<g id="edge150" class="edge">
<title>primary_fungible_store&#45;&gt;fungible_asset</title>
<path fill="none" stroke="black" d="M1154.9,-725.57C1203.13,-716.49 1260.42,-702.3 1277,-684 1291.57,-667.92 1294.77,-643.2 1294.63,-623.89"/>
<polygon fill="black" stroke="black" points="1298.13,-623.77 1294.23,-613.92 1291.13,-624.05 1298.13,-623.77"/>
</g>
<!-- primary_fungible_store&#45;&gt;dispatchable_fungible_asset -->
<g id="edge151" class="edge">
<title>primary_fungible_store&#45;&gt;dispatchable_fungible_asset</title>
<path fill="none" stroke="black" d="M1082,-719.7C1082,-712.41 1082,-703.73 1082,-695.54"/>
<polygon fill="black" stroke="black" points="1085.5,-695.62 1082,-685.62 1078.5,-695.62 1085.5,-695.62"/>
</g>
<!-- coin&#45;&gt;string -->
<g id="edge153" class="edge">
<title>coin&#45;&gt;string</title>
<path fill="none" stroke="black" d="M1551.63,-805.2C1523.17,-801.25 1476.47,-795.21 1436,-792 1333.8,-783.9 607.93,-797.07 514,-756 355.5,-686.69 381.04,-568.34 366,-396 359.04,-316.3 325.04,-284.72 366,-216 378.65,-194.78 403.07,-181.54 424.37,-173.6"/>
<polygon fill="black" stroke="black" points="425.39,-176.95 433.72,-170.41 423.12,-170.33 425.39,-176.95"/>
</g>
<!-- coin&#45;&gt;signer -->
<g id="edge154" class="edge">
<title>coin&#45;&gt;signer</title>
<path fill="none" stroke="black" d="M1605.31,-808.32C1747.13,-804.68 2400.79,-786.48 2601,-756 2856.34,-717.13 2942.42,-744.71 3164,-612 3341.15,-505.9 3315.2,-385.54 3335,-180 3336.95,-159.8 3334.81,-137 3332.26,-119.54"/>
<polygon fill="black" stroke="black" points="3335.76,-119.21 3330.72,-109.9 3328.84,-120.32 3335.76,-119.21"/>
</g>
<!-- coin&#45;&gt;event -->
<g id="edge161" class="edge">
<title>coin&#45;&gt;event</title>
<path fill="none" stroke="black" d="M1605.33,-808.77C1673.08,-807.5 1853.57,-799.92 1996,-756 2285.43,-666.75 2596.08,-463.35 2690.32,-398.95"/>
<polygon fill="black" stroke="black" points="2692.24,-401.87 2698.5,-393.33 2688.27,-396.1 2692.24,-401.87"/>
</g>
<!-- coin&#45;&gt;option -->
<g id="edge152" class="edge">
<title>coin&#45;&gt;option</title>
<path fill="none" stroke="black" d="M1551.63,-805.23C1523.16,-801.3 1476.46,-795.28 1436,-792 1342.11,-784.4 670.48,-803.27 589,-756 476.7,-690.85 323.34,-338.62 366,-216 379.41,-177.45 388.16,-165.26 423,-144 492.61,-101.53 589.52,-92.17 646.02,-90.62"/>
<polygon fill="black" stroke="black" points="645.99,-94.12 655.92,-90.43 645.86,-87.12 645.99,-94.12"/>
</g>
<!-- coin&#45;&gt;guid -->
<g id="edge160" class="edge">
<title>coin&#45;&gt;guid</title>
<path fill="none" stroke="black" d="M1605.21,-809.02C1763.32,-808.44 2557,-795.51 2557,-595 2557,-595 2557,-595 2557,-521 2557,-445.94 2554.91,-416.94 2506,-360 2482.43,-332.56 2465.2,-340.49 2433,-324 2432.54,-323.76 2432.07,-323.52 2431.6,-323.28"/>
<polygon fill="black" stroke="black" points="2433.43,-320.29 2422.95,-318.77 2430.2,-326.5 2433.43,-320.29"/>
</g>
<!-- coin&#45;&gt;type_info -->
<g id="edge157" class="edge">
<title>coin&#45;&gt;type_info</title>
<path fill="none" stroke="black" d="M1605.45,-809.64C1684.99,-809.94 1910,-799.12 1910,-667 1910,-667 1910,-667 1910,-449 1910,-376.65 1855.21,-353.47 1886,-288 1892.09,-275.05 1903.07,-264.17 1914.24,-255.71"/>
<polygon fill="black" stroke="black" points="1916.14,-258.65 1922.32,-250.05 1912.13,-252.92 1916.14,-258.65"/>
</g>
<!-- coin&#45;&gt;object -->
<g id="edge166" class="edge">
<title>coin&#45;&gt;object</title>
<path fill="none" stroke="black" d="M1605.37,-808.71C1678.92,-807.33 1878.33,-799.57 1924,-756 1980.29,-702.3 1979.16,-601.33 1974.66,-551.84"/>
<polygon fill="black" stroke="black" points="1978.14,-551.51 1973.63,-541.93 1971.18,-552.24 1978.14,-551.51"/>
</g>
<!-- coin&#45;&gt;fungible_asset -->
<g id="edge168" class="edge">
<title>coin&#45;&gt;fungible_asset</title>
<path fill="none" stroke="black" d="M1566.25,-793.6C1551.44,-774.81 1524.55,-742.74 1497,-720 1444.58,-676.74 1375.77,-637.87 1332.72,-615.36"/>
<polygon fill="black" stroke="black" points="1334.45,-612.31 1323.96,-610.82 1331.23,-618.53 1334.45,-612.31"/>
</g>
<!-- coin&#45;&gt;error -->
<g id="edge155" class="edge">
<title>coin&#45;&gt;error</title>
<path fill="none" stroke="black" d="M1605.03,-808.29C1724.06,-804.97 2202.12,-789.78 2348,-756 2608.49,-695.69 2724.15,-641.53 2830,-396 2836.33,-381.31 2839.02,-373.22 2830,-360 2805.25,-323.73 2774.14,-348.94 2738,-324 2649.17,-262.71 2670.84,-193.63 2575,-144 2506.34,-108.45 2273.2,-95.98 2178.49,-92.32"/>
<polygon fill="black" stroke="black" points="2178.76,-88.83 2168.64,-91.96 2178.5,-95.83 2178.76,-88.83"/>
</g>
<!-- coin&#45;&gt;features -->
<g id="edge156" class="edge">
<title>coin&#45;&gt;features</title>
<path fill="none" stroke="black" d="M1570.04,-792.4C1536.14,-720.64 1407.65,-437.34 1454,-360 1467.08,-338.17 1638.81,-270.77 1656,-252 1671.7,-234.87 1681.52,-210.27 1687.24,-191.28"/>
<polygon fill="black" stroke="black" points="1690.58,-192.32 1689.88,-181.75 1683.84,-190.45 1690.58,-192.32"/>
</g>
<!-- coin&#45;&gt;create_signer -->
<g id="edge162" class="edge">
<title>coin&#45;&gt;create_signer</title>
<path fill="none" stroke="black" d="M1577.64,-791.6C1576.99,-762.07 1575.46,-700.24 1573,-648 1568.87,-560.31 1561.66,-456.68 1558.11,-407.57"/>
<polygon fill="black" stroke="black" points="1561.61,-407.53 1557.4,-397.81 1554.63,-408.04 1561.61,-407.53"/>
</g>
<!-- coin&#45;&gt;account -->
<g id="edge163" class="edge">
<title>coin&#45;&gt;account</title>
<path fill="none" stroke="black" d="M1605.13,-807.24C1680.21,-802.04 1889.32,-785.25 1951,-756 2094.08,-688.14 2218.06,-536.58 2263.51,-476.37"/>
<polygon fill="black" stroke="black" points="2266.04,-478.84 2269.22,-468.73 2260.43,-474.65 2266.04,-478.84"/>
</g>
<!-- coin&#45;&gt;system_addresses -->
<g id="edge159" class="edge">
<title>coin&#45;&gt;system_addresses</title>
<path fill="none" stroke="black" d="M1605.02,-809.15C1741.12,-809.63 2352.07,-808.79 2533,-756 2705.58,-705.64 2754.84,-673.72 2875,-540 2931.68,-476.93 2968.97,-381.94 2985.02,-335.13"/>
<polygon fill="black" stroke="black" points="2988.3,-336.34 2988.16,-325.75 2981.66,-334.12 2988.3,-336.34"/>
</g>
<!-- coin&#45;&gt;primary_fungible_store -->
<g id="edge169" class="edge">
<title>coin&#45;&gt;primary_fungible_store</title>
<path fill="none" stroke="black" d="M1551.68,-805.29C1481.03,-795.32 1284.79,-767.62 1169.54,-751.35"/>
<polygon fill="black" stroke="black" points="1170.2,-747.91 1159.81,-749.98 1169.22,-754.84 1170.2,-747.91"/>
</g>
<!-- coin&#45;&gt;table -->
<g id="edge158" class="edge">
<title>coin&#45;&gt;table</title>
<path fill="none" stroke="black" d="M1551.63,-805.26C1523.16,-801.37 1476.46,-795.37 1436,-792 1350.87,-784.92 746.94,-788.64 668,-756 613.63,-733.52 570,-725.84 570,-667 570,-667 570,-667 570,-593 570,-394.12 716.19,-185.11 769.69,-115.29"/>
<polygon fill="black" stroke="black" points="772.31,-117.62 775.67,-107.57 766.78,-113.33 772.31,-117.62"/>
</g>
<!-- aggregator -->
<g id="node46" class="node">
<title>aggregator</title>
<ellipse fill="none" stroke="black" cx="800" cy="-306" rx="50.33" ry="18"/>
<text text-anchor="middle" x="800" y="-300.95" font-family="Times,serif" font-size="14.00">aggregator</text>
</g>
<!-- coin&#45;&gt;aggregator -->
<g id="edge164" class="edge">
<title>coin&#45;&gt;aggregator</title>
<path fill="none" stroke="black" d="M1551.62,-805.33C1523.15,-801.49 1476.44,-795.53 1436,-792 1291.44,-779.37 922.02,-800.82 784,-756 714.59,-733.46 646,-739.98 646,-667 646,-667 646,-667 646,-521 646,-445.09 653.78,-417.79 703,-360 716.52,-344.12 736.04,-332.18 754.03,-323.68"/>
<polygon fill="black" stroke="black" points="755.29,-326.95 763.01,-319.69 752.45,-320.56 755.29,-326.95"/>
</g>
<!-- aggregator_factory -->
<g id="node47" class="node">
<title>aggregator_factory</title>
<ellipse fill="none" stroke="black" cx="1017" cy="-378" rx="81.04" ry="18"/>
<text text-anchor="middle" x="1017" y="-372.95" font-family="Times,serif" font-size="14.00">aggregator_factory</text>
</g>
<!-- coin&#45;&gt;aggregator_factory -->
<g id="edge165" class="edge">
<title>coin&#45;&gt;aggregator_factory</title>
<path fill="none" stroke="black" d="M1553.1,-802.66C1491.6,-787.15 1327.45,-746.59 1189,-720 1137.98,-710.2 991.79,-723.46 958,-684 922.27,-642.27 980.77,-473.82 1006.15,-406.75"/>
<polygon fill="black" stroke="black" points="1009.35,-408.18 1009.66,-397.58 1002.82,-405.67 1009.35,-408.18"/>
</g>
<!-- optional_aggregator -->
<g id="node48" class="node">
<title>optional_aggregator</title>
<ellipse fill="none" stroke="black" cx="873" cy="-450" rx="85.13" ry="18"/>
<text text-anchor="middle" x="873" y="-444.95" font-family="Times,serif" font-size="14.00">optional_aggregator</text>
</g>
<!-- coin&#45;&gt;optional_aggregator -->
<g id="edge167" class="edge">
<title>coin&#45;&gt;optional_aggregator</title>
<path fill="none" stroke="black" d="M1551.34,-805.48C1522.83,-801.78 1476.27,-795.98 1436,-792 1283.97,-776.97 760,-819.77 760,-667 760,-667 760,-667 760,-593 760,-542.17 804.88,-499.01 838.07,-474.04"/>
<polygon fill="black" stroke="black" points="839.82,-477.09 845.85,-468.38 835.71,-471.43 839.82,-477.09"/>
</g>
<!-- aptos_coin&#45;&gt;string -->
<g id="edge172" class="edge">
<title>aptos_coin&#45;&gt;string</title>
<path fill="none" stroke="black" d="M2739.06,-880.36C2397.38,-875.8 449.92,-845.92 366,-756 294.33,-679.21 398.58,-322.1 436,-216 439.21,-206.89 443.78,-197.42 448.29,-189.05"/>
<polygon fill="black" stroke="black" points="451.27,-190.89 453.13,-180.46 445.17,-187.45 451.27,-190.89"/>
</g>
<!-- aptos_coin&#45;&gt;signer -->
<g id="edge173" class="edge">
<title>aptos_coin&#45;&gt;signer</title>
<path fill="none" stroke="black" d="M2833.01,-872.17C2970.12,-841.27 3388,-724.65 3388,-451 3388,-451 3388,-451 3388,-377 3388,-272 3377.98,-244.92 3349,-144 3346.54,-135.44 3343.12,-126.4 3339.7,-118.25"/>
<polygon fill="black" stroke="black" points="3342.97,-116.98 3335.75,-109.22 3336.55,-119.78 3342.97,-116.98"/>
</g>
<!-- aptos_coin&#45;&gt;vector -->
<g id="edge170" class="edge">
<title>aptos_coin&#45;&gt;vector</title>
<path fill="none" stroke="black" d="M2837.24,-874.93C2889.88,-867.35 2977.04,-852.33 3049,-828 3349.7,-726.35 3474.92,-631.15 3555,-324 3583.33,-215.35 3623.38,-143.74 3537,-72 3499.83,-41.13 3171.73,-25.45 3049.57,-20.64"/>
<polygon fill="black" stroke="black" points="3049.7,-17.15 3039.58,-20.26 3049.43,-24.14 3049.7,-17.15"/>
</g>
<!-- aptos_coin&#45;&gt;option -->
<g id="edge171" class="edge">
<title>aptos_coin&#45;&gt;option</title>
<path fill="none" stroke="black" d="M2739.22,-879.4C2414.91,-869.01 643.86,-809.94 544,-756 320.27,-635.16 315.85,-467.24 355,-216 360.17,-182.81 352.62,-166.01 378,-144 417.38,-109.85 569.12,-97.25 646.32,-92.99"/>
<polygon fill="black" stroke="black" points="646.28,-96.49 656.08,-92.47 645.91,-89.5 646.28,-96.49"/>
</g>
<!-- aptos_coin&#45;&gt;error -->
<g id="edge174" class="edge">
<title>aptos_coin&#45;&gt;error</title>
<path fill="none" stroke="black" d="M2802.64,-864.17C2854.12,-793.47 3039.09,-516.87 2906,-360 2865.83,-312.65 2823.71,-356.83 2771,-324 2680.89,-267.88 2708.05,-193.23 2614,-144 2538.61,-104.54 2279.49,-94.3 2178.63,-91.78"/>
<polygon fill="black" stroke="black" points="2178.73,-88.28 2168.65,-91.54 2178.56,-95.28 2178.73,-88.28"/>
</g>
<!-- aptos_coin&#45;&gt;system_addresses -->
<g id="edge175" class="edge">
<title>aptos_coin&#45;&gt;system_addresses</title>
<path fill="none" stroke="black" d="M2814.83,-865.81C2829.36,-856.15 2847.46,-842.71 2861,-828 2936.58,-745.9 2961.28,-720.09 2989,-612 3014.38,-513.04 3004.35,-390.03 2997.86,-335.41"/>
<polygon fill="black" stroke="black" points="3001.37,-335.22 2996.66,-325.73 2994.42,-336.09 3001.37,-335.22"/>
</g>
<!-- aptos_coin&#45;&gt;coin -->
<g id="edge176" class="edge">
<title>aptos_coin&#45;&gt;coin</title>
<path fill="none" stroke="black" d="M2740.26,-877.55C2688.5,-874 2605.08,-868.38 2533,-864 2176.58,-842.32 1745.11,-819.67 1616.15,-812.97"/>
<polygon fill="black" stroke="black" points="1616.65,-809.49 1606.48,-812.47 1616.29,-816.48 1616.65,-809.49"/>
</g>
<!-- string_utils&#45;&gt;string -->
<g id="edge177" class="edge">
<title>string_utils&#45;&gt;string</title>
<path fill="none" stroke="black" d="M369.44,-793.87C355.52,-784.49 338.94,-771.33 328,-756 274.8,-681.47 183.91,-446.49 214,-360 240.82,-282.9 262.35,-264.51 328,-216 356.79,-194.73 395.21,-180.8 423.87,-172.58"/>
<polygon fill="black" stroke="black" points="424.55,-176.02 433.27,-170 422.7,-169.27 424.55,-176.02"/>
</g>
<!-- ed25519&#45;&gt;option -->
<g id="edge178" class="edge">
<title>ed25519&#45;&gt;option</title>
<path fill="none" stroke="black" d="M2006.28,-300.31C1971.67,-296.48 1920.64,-291.19 1876,-288 1692.74,-274.91 1226.02,-304.67 1050,-252 960.26,-225.14 954.75,-181.72 869,-144 862.6,-141.19 782.85,-117.63 732.61,-102.88"/>
<polygon fill="black" stroke="black" points="733.79,-99.58 723.21,-100.13 731.82,-106.3 733.79,-99.58"/>
</g>
<!-- ed25519&#45;&gt;bcs -->
<g id="edge180" class="edge">
<title>ed25519&#45;&gt;bcs</title>
<path fill="none" stroke="black" d="M2046.75,-287.59C2046.42,-263.61 2045.8,-220.14 2045.4,-191.42"/>
<polygon fill="black" stroke="black" points="2048.9,-191.57 2045.26,-181.62 2041.9,-191.67 2048.9,-191.57"/>
</g>
<!-- ed25519&#45;&gt;type_info -->
<g id="edge181" class="edge">
<title>ed25519&#45;&gt;type_info</title>
<path fill="none" stroke="black" d="M2026.43,-290.15C2012.98,-280.45 1995.19,-267.61 1980.15,-256.76"/>
<polygon fill="black" stroke="black" points="1982.6,-254.21 1972.44,-251.19 1978.5,-259.88 1982.6,-254.21"/>
</g>
<!-- ed25519&#45;&gt;error -->
<g id="edge179" class="edge">
<title>ed25519&#45;&gt;error</title>
<path fill="none" stroke="black" d="M2039.71,-287.87C2024.72,-251.43 1993.13,-167.68 2009,-144 2028.78,-114.48 2068.28,-101.39 2098.38,-95.59"/>
<polygon fill="black" stroke="black" points="2098.64,-99.1 2107.91,-93.96 2097.46,-92.2 2098.64,-99.1"/>
</g>
<!-- ed25519&#45;&gt;hash -->
<g id="edge182" class="edge">
<title>ed25519&#45;&gt;hash</title>
<path fill="none" stroke="black" d="M2074.65,-291.83C2099.5,-280 2136,-262.62 2162.09,-250.2"/>
<polygon fill="black" stroke="black" points="2163.33,-253.48 2170.85,-246.02 2160.32,-247.16 2163.33,-253.48"/>
</g>
<!-- multi_ed25519&#45;&gt;option -->
<g id="edge183" class="edge">
<title>multi_ed25519&#45;&gt;option</title>
<path fill="none" stroke="black" d="M2055.12,-371.9C1828.88,-353.6 1073.85,-290.26 972,-252 919.71,-232.36 912.28,-215.3 869,-180 850.97,-165.3 850.69,-156.38 831,-144 813.98,-133.3 766.27,-116.02 731.48,-104.11"/>
<polygon fill="black" stroke="black" points="732.73,-100.84 722.13,-100.94 730.48,-107.47 732.73,-100.84"/>
</g>
<!-- multi_ed25519&#45;&gt;bcs -->
<g id="edge186" class="edge">
<title>multi_ed25519&#45;&gt;bcs</title>
<path fill="none" stroke="black" d="M2116.1,-359.68C2112.84,-341.56 2106.93,-312.4 2099,-288 2087.66,-253.14 2070.25,-214.65 2058.28,-189.72"/>
<polygon fill="black" stroke="black" points="2061.54,-188.42 2054.02,-180.96 2055.24,-191.48 2061.54,-188.42"/>
</g>
<!-- multi_ed25519&#45;&gt;error -->
<g id="edge184" class="edge">
<title>multi_ed25519&#45;&gt;error</title>
<path fill="none" stroke="black" d="M2120.16,-359.54C2123.33,-311.76 2132.19,-178.51 2136.1,-119.61"/>
<polygon fill="black" stroke="black" points="2139.58,-119.95 2136.75,-109.74 2132.6,-119.49 2139.58,-119.95"/>
</g>
<!-- multi_ed25519&#45;&gt;features -->
<g id="edge185" class="edge">
<title>multi_ed25519&#45;&gt;features</title>
<path fill="none" stroke="black" d="M2081.78,-362.61C2056.84,-352.61 2023.48,-338.5 1995,-324 1911.52,-281.5 1897.22,-259 1814,-216 1787.68,-202.4 1757.13,-188.94 1733.44,-178.98"/>
<polygon fill="black" stroke="black" points="1735.05,-175.86 1724.47,-175.25 1732.36,-182.33 1735.05,-175.86"/>
</g>
<!-- multi_ed25519&#45;&gt;hash -->
<g id="edge187" class="edge">
<title>multi_ed25519&#45;&gt;hash</title>
<path fill="none" stroke="black" d="M2139.22,-360.48C2149.8,-350.86 2162.14,-337.89 2170,-324 2180.55,-305.35 2186.63,-281.86 2190.03,-263.7"/>
<polygon fill="black" stroke="black" points="2193.48,-264.31 2191.68,-253.86 2186.57,-263.14 2193.48,-264.31"/>
</g>
<!-- multi_ed25519&#45;&gt;ed25519 -->
<g id="edge188" class="edge">
<title>multi_ed25519&#45;&gt;ed25519</title>
<path fill="none" stroke="black" d="M2101.94,-360.41C2092.84,-351.57 2081.49,-340.53 2071.47,-330.79"/>
<polygon fill="black" stroke="black" points="2074.14,-328.5 2064.53,-324.04 2069.26,-333.52 2074.14,-328.5"/>
</g>
<!-- chain_id&#45;&gt;system_addresses -->
<g id="edge189" class="edge">
<title>chain_id&#45;&gt;system_addresses</title>
<path fill="none" stroke="black" d="M2469.57,-366.05C2477.49,-363.73 2485.99,-361.53 2494,-360 2675.87,-325.36 2725.73,-350.19 2909,-324 2915.05,-323.13 2921.32,-322.12 2927.59,-321.01"/>
<polygon fill="black" stroke="black" points="2928.13,-324.47 2937.34,-319.23 2926.87,-317.59 2928.13,-324.47"/>
</g>
<!-- big_vector&#45;&gt;vector -->
<g id="edge190" class="edge">
<title>big_vector&#45;&gt;vector</title>
<path fill="none" stroke="black" d="M2897.3,-215.85C2917.46,-178.65 2965.34,-90.31 2989.51,-45.72"/>
<polygon fill="black" stroke="black" points="2992.57,-47.43 2994.26,-36.97 2986.42,-44.09 2992.57,-47.43"/>
</g>
<!-- big_vector&#45;&gt;error -->
<g id="edge191" class="edge">
<title>big_vector&#45;&gt;error</title>
<path fill="none" stroke="black" d="M2890.3,-215.63C2891.92,-195.19 2890.98,-161.78 2871,-144 2819.08,-97.8 2324.6,-91.85 2178.47,-91.1"/>
<polygon fill="black" stroke="black" points="2178.52,-87.6 2168.51,-91.06 2178.49,-94.6 2178.52,-87.6"/>
</g>
<!-- big_vector&#45;&gt;table_with_length -->
<g id="edge192" class="edge">
<title>big_vector&#45;&gt;table_with_length</title>
<path fill="none" stroke="black" d="M2851.43,-221.31C2844.07,-219.28 2836.33,-217.39 2829,-216 2659.7,-184.01 2614.17,-199.71 2443,-180 2427.21,-178.18 2410.33,-176.02 2394.26,-173.85"/>
<polygon fill="black" stroke="black" points="2395.17,-170.44 2384.79,-172.56 2394.23,-177.38 2395.17,-170.44"/>
</g>
<!-- aggregator_factory&#45;&gt;error -->
<g id="edge193" class="edge">
<title>aggregator_factory&#45;&gt;error</title>
<path fill="none" stroke="black" d="M1048.43,-361.11C1088.66,-341.37 1160.94,-307.87 1226,-288 1306.95,-263.28 1337.7,-290.65 1413,-252 1433.7,-241.38 1432.25,-229.78 1451,-216 1503.91,-177.12 1517.31,-163.52 1580,-144 1676.93,-113.82 1986.52,-97.63 2097.74,-92.67"/>
<polygon fill="black" stroke="black" points="2097.73,-96.17 2107.57,-92.24 2097.43,-89.18 2097.73,-96.17"/>
</g>
<!-- aggregator_factory&#45;&gt;system_addresses -->
<g id="edge195" class="edge">
<title>aggregator_factory&#45;&gt;system_addresses</title>
<path fill="none" stroke="black" d="M1096.41,-373.87C1189.85,-370.24 1349.69,-364.22 1487,-360 1802.95,-350.29 2594.86,-359.13 2909,-324 2915.52,-323.27 2922.27,-322.3 2929.01,-321.19"/>
<polygon fill="black" stroke="black" points="2929.53,-324.65 2938.77,-319.46 2928.31,-317.75 2929.53,-324.65"/>
</g>
<!-- aggregator_factory&#45;&gt;table -->
<g id="edge194" class="edge">
<title>aggregator_factory&#45;&gt;table</title>
<path fill="none" stroke="black" d="M977.6,-361.9C954.75,-352.41 925.87,-339.11 902,-324 880.94,-310.67 879.95,-301.5 859,-288 827.92,-267.98 803.69,-283.29 784,-252 758.31,-211.17 769.51,-152.26 779.55,-118.18"/>
<polygon fill="black" stroke="black" points="782.75,-119.67 782.4,-109.08 776.07,-117.57 782.75,-119.67"/>
</g>
<!-- aggregator_factory&#45;&gt;aggregator -->
<g id="edge196" class="edge">
<title>aggregator_factory&#45;&gt;aggregator</title>
<path fill="none" stroke="black" d="M972.3,-362.58C935.71,-350.78 884.11,-334.13 846.93,-322.14"/>
<polygon fill="black" stroke="black" points="848.4,-318.94 837.81,-319.2 846.26,-325.6 848.4,-318.94"/>
</g>
<!-- optional_aggregator&#45;&gt;option -->
<g id="edge197" class="edge">
<title>optional_aggregator&#45;&gt;option</title>
<path fill="none" stroke="black" d="M864.77,-431.65C854.79,-412.15 836.38,-380.53 813,-360 786.12,-336.39 762.86,-352.32 741,-324 716.47,-292.21 700.95,-174.45 694.89,-119.54"/>
<polygon fill="black" stroke="black" points="698.39,-119.29 693.84,-109.72 691.43,-120.04 698.39,-119.29"/>
</g>
<!-- optional_aggregator&#45;&gt;error -->
<g id="edge198" class="edge">
<title>optional_aggregator&#45;&gt;error</title>
<path fill="none" stroke="black" d="M872.82,-431.55C872.65,-383.63 874.38,-251.22 898,-216 916.72,-188.09 998.63,-153.03 1031,-144 1135.16,-114.95 1910.1,-96.05 2097.36,-91.87"/>
<polygon fill="black" stroke="black" points="2097.39,-95.37 2107.31,-91.65 2097.24,-88.38 2097.39,-95.37"/>
</g>
<!-- optional_aggregator&#45;&gt;aggregator -->
<g id="edge199" class="edge">
<title>optional_aggregator&#45;&gt;aggregator</title>
<path fill="none" stroke="black" d="M870.01,-431.76C866.28,-413.19 858.8,-383.18 846,-360 840.4,-349.87 832.63,-339.96 825.06,-331.5"/>
<polygon fill="black" stroke="black" points="827.77,-329.27 818.38,-324.37 822.66,-334.06 827.77,-329.27"/>
</g>
<!-- optional_aggregator&#45;&gt;aggregator_factory -->
<g id="edge200" class="edge">
<title>optional_aggregator&#45;&gt;aggregator_factory</title>
<path fill="none" stroke="black" d="M906.04,-432.94C926.3,-423.09 952.46,-410.37 974.29,-399.76"/>
<polygon fill="black" stroke="black" points="975.79,-402.92 983.25,-395.41 972.73,-396.63 975.79,-402.92"/>
</g>
</g>
</svg>
