<?xml version="1.0" encoding="UTF-8" standalone="no"?>
<!DOCTYPE svg PUBLIC "-//W3C//DTD SVG 1.1//EN"
 "http://www.w3.org/Graphics/SVG/1.1/DTD/svg11.dtd">
<!-- Generated by graphviz version 12.1.2 (20240928.0832)
 -->
<!-- Title: G Pages: 1 -->
<svg width="241pt" height="260pt"
 viewBox="0.00 0.00 240.88 260.00" xmlns="http://www.w3.org/2000/svg" xmlns:xlink="http://www.w3.org/1999/xlink">
<g id="graph0" class="graph" transform="scale(1 1) rotate(0) translate(4 256)">
<title>G</title>
<polygon fill="white" stroke="none" points="-4,4 -4,-256 236.88,-256 236.88,4 -4,4"/>
<!-- session -->
<g id="node1" class="node">
<title>session</title>
<ellipse fill="none" stroke="black" cx="85.46" cy="-18" rx="37.53" ry="18"/>
<text text-anchor="middle" x="85.46" y="-12.95" font-family="Times,serif" font-size="14.00">session</text>
</g>
<!-- admin -->
<g id="node2" class="node">
<title>admin</title>
<ellipse fill="none" stroke="black" cx="34.46" cy="-90" rx="34.46" ry="18"/>
<text text-anchor="middle" x="34.46" y="-84.95" font-family="Times,serif" font-size="14.00">admin</text>
</g>
<!-- admin&#45;&gt;session -->
<g id="edge1" class="edge">
<title>admin&#45;&gt;session</title>
<path fill="none" stroke="black" d="M46.29,-72.76C52.47,-64.28 60.17,-53.71 67.1,-44.2"/>
<polygon fill="black" stroke="black" points="69.75,-46.51 72.81,-36.37 64.09,-42.39 69.75,-46.51"/>
</g>
<!-- mechanics -->
<g id="node3" class="node">
<title>mechanics</title>
<ellipse fill="none" stroke="black" cx="137.46" cy="-90" rx="50.33" ry="18"/>
<text text-anchor="middle" x="137.46" y="-84.95" font-family="Times,serif" font-size="14.00">mechanics</text>
</g>
<!-- mechanics&#45;&gt;session -->
<g id="edge2" class="edge">
<title>mechanics&#45;&gt;session</title>
<path fill="none" stroke="black" d="M125.14,-72.41C118.99,-64.13 111.41,-53.92 104.52,-44.66"/>
<polygon fill="black" stroke="black" points="107.37,-42.63 98.6,-36.68 101.75,-46.8 107.37,-42.63"/>
</g>
<!-- short_game -->
<g id="node4" class="node">
<title>short_game</title>
<ellipse fill="none" stroke="black" cx="178.46" cy="-162" rx="54.42" ry="18"/>
<text text-anchor="middle" x="178.46" y="-156.95" font-family="Times,serif" font-size="14.00">short_game</text>
</g>
<!-- short_game&#45;&gt;mechanics -->
<g id="edge3" class="edge">
<title>short_game&#45;&gt;mechanics</title>
<path fill="none" stroke="black" d="M168.54,-144.05C163.9,-136.14 158.28,-126.54 153.09,-117.69"/>
<polygon fill="black" stroke="black" points="156.13,-115.95 148.06,-109.1 150.09,-119.49 156.13,-115.95"/>
</g>
<!-- router -->
<g id="node5" class="node">
<title>router</title>
<ellipse fill="none" stroke="black" cx="137.46" cy="-234" rx="32.93" ry="18"/>
<text text-anchor="middle" x="137.46" y="-228.95" font-family="Times,serif" font-size="14.00">router</text>
</g>
<!-- router&#45;&gt;mechanics -->
<g id="edge4" class="edge">
<title>router&#45;&gt;mechanics</title>
<path fill="none" stroke="black" d="M128.56,-216.35C123.63,-206.17 117.99,-192.7 115.46,-180 112.33,-164.31 112.33,-159.69 115.46,-144 117.18,-135.4 120.31,-126.45 123.69,-118.41"/>
<polygon fill="black" stroke="black" points="126.78,-120.05 127.71,-109.5 120.4,-117.17 126.78,-120.05"/>
</g>
<!-- router&#45;&gt;short_game -->
<g id="edge5" class="edge">
<title>router&#45;&gt;short_game</title>
<path fill="none" stroke="black" d="M147.18,-216.41C151.86,-208.42 157.59,-198.64 162.86,-189.64"/>
<polygon fill="black" stroke="black" points="165.73,-191.66 167.77,-181.26 159.69,-188.12 165.73,-191.66"/>
</g>
</g>
</svg>
