<?xml version="1.0" encoding="UTF-8" standalone="no"?>
<!DOCTYPE svg PUBLIC "-//W3C//DTD SVG 1.1//EN"
 "http://www.w3.org/Graphics/SVG/1.1/DTD/svg11.dtd">
<!-- Generated by graphviz version 12.1.2 (20240928.0832)
 -->
<!-- Title: G Pages: 1 -->
<svg width="1800pt" height="620pt"
 viewBox="0.00 0.00 1800.00 620.00" xmlns="http://www.w3.org/2000/svg" xmlns:xlink="http://www.w3.org/1999/xlink">
<g id="graph0" class="graph" transform="scale(1 1) rotate(0) translate(4 616)">
<title>G</title>
<polygon fill="white" stroke="none" points="-4,4 -4,-616 1796,-616 1796,4 -4,4"/>
<!-- session -->
<g id="node1" class="node">
<title>session</title>
<ellipse fill="none" stroke="black" cx="1619" cy="-594" rx="37.53" ry="18"/>
<text text-anchor="middle" x="1619" y="-588.95" font-family="Times,serif" font-size="14.00">session</text>
</g>
<!-- vector -->
<g id="node2" class="node">
<title>vector</title>
<ellipse fill="none" stroke="black" cx="1045" cy="-18" rx="33.95" ry="18"/>
<text text-anchor="middle" x="1045" y="-12.95" font-family="Times,serif" font-size="14.00">vector</text>
</g>
<!-- session&#45;&gt;vector -->
<g id="edge1" class="edge">
<title>session&#45;&gt;vector</title>
<path fill="none" stroke="black" d="M1649.93,-583.45C1699.69,-565.94 1792,-523.66 1792,-451 1792,-451 1792,-451 1792,-161 1792,-71.76 1697.86,-96.34 1612,-72 1514.06,-44.24 1206.8,-26.85 1090.35,-21.1"/>
<polygon fill="black" stroke="black" points="1090.71,-17.62 1080.55,-20.63 1090.37,-24.61 1090.71,-17.62"/>
</g>
<!-- option -->
<g id="node3" class="node">
<title>option</title>
<ellipse fill="none" stroke="black" cx="269" cy="-90" rx="34.46" ry="18"/>
<text text-anchor="middle" x="269" y="-84.95" font-family="Times,serif" font-size="14.00">option</text>
</g>
<!-- session&#45;&gt;option -->
<g id="edge2" class="edge">
<title>session&#45;&gt;option</title>
<path fill="none" stroke="black" d="M1581.36,-591.73C1338.28,-583.29 0,-533.09 0,-451 0,-451 0,-451 0,-233 0,-133.17 146.69,-103.34 223.42,-94.57"/>
<polygon fill="black" stroke="black" points="223.58,-98.08 233.15,-93.54 222.84,-91.11 223.58,-98.08"/>
</g>
<!-- object -->
<g id="node4" class="node">
<title>object</title>
<ellipse fill="none" stroke="black" cx="993" cy="-522" rx="33.44" ry="18"/>
<text text-anchor="middle" x="993" y="-516.95" font-family="Times,serif" font-size="14.00">object</text>
</g>
<!-- session&#45;&gt;object -->
<g id="edge3" class="edge">
<title>session&#45;&gt;object</title>
<path fill="none" stroke="black" d="M1582.64,-588.93C1474.41,-576.83 1154.6,-541.07 1037.02,-527.92"/>
<polygon fill="black" stroke="black" points="1037.47,-524.45 1027.14,-526.82 1036.69,-531.41 1037.47,-524.45"/>
</g>
<!-- timestamp -->
<g id="node5" class="node">
<title>timestamp</title>
<ellipse fill="none" stroke="black" cx="1524" cy="-378" rx="50.33" ry="18"/>
<text text-anchor="middle" x="1524" y="-372.95" font-family="Times,serif" font-size="14.00">timestamp</text>
</g>
<!-- session&#45;&gt;timestamp -->
<g id="edge4" class="edge">
<title>session&#45;&gt;timestamp</title>
<path fill="none" stroke="black" d="M1626.75,-575.92C1639.64,-544.69 1661.43,-477.43 1633,-432 1620.64,-412.25 1598.59,-399.67 1577.54,-391.76"/>
<polygon fill="black" stroke="black" points="1578.7,-388.45 1568.11,-388.52 1576.43,-395.08 1578.7,-388.45"/>
</g>
<!-- smart_vector -->
<g id="node6" class="node">
<title>smart_vector</title>
<ellipse fill="none" stroke="black" cx="1341" cy="-306" rx="59.54" ry="18"/>
<text text-anchor="middle" x="1341" y="-300.95" font-family="Times,serif" font-size="14.00">smart_vector</text>
</g>
<!-- session&#45;&gt;smart_vector -->
<g id="edge5" class="edge">
<title>session&#45;&gt;smart_vector</title>
<path fill="none" stroke="black" d="M1607.73,-576.63C1579.6,-536.53 1502.75,-431.42 1422,-360 1408.7,-348.24 1392.59,-337.16 1378.25,-328.2"/>
<polygon fill="black" stroke="black" points="1380.31,-325.36 1369.95,-323.15 1376.67,-331.34 1380.31,-325.36"/>
</g>
<!-- option&#45;&gt;vector -->
<g id="edge6" class="edge">
<title>option&#45;&gt;vector</title>
<path fill="none" stroke="black" d="M296.19,-78.55C303.79,-76.01 312.13,-73.57 320,-72 572.79,-21.45 883.77,-17.83 999.12,-18.43"/>
<polygon fill="black" stroke="black" points="999.09,-21.93 1009.11,-18.49 999.13,-14.93 999.09,-21.93"/>
</g>
<!-- object&#45;&gt;vector -->
<g id="edge7" class="edge">
<title>object&#45;&gt;vector</title>
<path fill="none" stroke="black" d="M1026.76,-521.21C1108.42,-520.9 1322.44,-515.25 1493,-468 1597.86,-438.95 1661.33,-428.69 1691,-324 1724.87,-204.46 1679.96,-129.84 1570,-72 1487.19,-28.44 1202.27,-20.65 1090.5,-19.28"/>
<polygon fill="black" stroke="black" points="1090.85,-15.79 1080.82,-19.18 1090.78,-22.79 1090.85,-15.79"/>
</g>
<!-- signer -->
<g id="node7" class="node">
<title>signer</title>
<ellipse fill="none" stroke="black" cx="1262" cy="-90" rx="33.44" ry="18"/>
<text text-anchor="middle" x="1262" y="-84.95" font-family="Times,serif" font-size="14.00">signer</text>
</g>
<!-- object&#45;&gt;signer -->
<g id="edge8" class="edge">
<title>object&#45;&gt;signer</title>
<path fill="none" stroke="black" d="M1026.19,-518.72C1141.26,-510.16 1520.81,-476.24 1607,-396 1637.88,-367.25 1640,-349.19 1640,-307 1640,-307 1640,-307 1640,-233 1640,-185.3 1620.13,-169.8 1580,-144 1535.44,-115.35 1382.93,-100.09 1306.46,-94.09"/>
<polygon fill="black" stroke="black" points="1307.05,-90.62 1296.82,-93.35 1306.52,-97.6 1307.05,-90.62"/>
</g>
<!-- error -->
<g id="node8" class="node">
<title>error</title>
<ellipse fill="none" stroke="black" cx="976" cy="-90" rx="28.83" ry="18"/>
<text text-anchor="middle" x="976" y="-84.95" font-family="Times,serif" font-size="14.00">error</text>
</g>
<!-- object&#45;&gt;error -->
<g id="edge9" class="edge">
<title>object&#45;&gt;error</title>
<path fill="none" stroke="black" d="M959.48,-519.72C842.7,-515.03 458.3,-497.47 412,-468 354.6,-431.46 364.69,-391.88 360,-324 353.58,-231.15 382.07,-182.07 467,-144 550.72,-106.47 830.67,-95 935.72,-91.97"/>
<polygon fill="black" stroke="black" points="935.65,-95.47 945.55,-91.7 935.46,-88.47 935.65,-95.47"/>
</g>
<!-- features -->
<g id="node9" class="node">
<title>features</title>
<ellipse fill="none" stroke="black" cx="516" cy="-162" rx="40.09" ry="18"/>
<text text-anchor="middle" x="516" y="-156.95" font-family="Times,serif" font-size="14.00">features</text>
</g>
<!-- object&#45;&gt;features -->
<g id="edge10" class="edge">
<title>object&#45;&gt;features</title>
<path fill="none" stroke="black" d="M959.28,-520.55C830.11,-517.94 374,-500.14 374,-379 374,-379 374,-379 374,-305 374,-246.02 436,-202.98 478.07,-180.57"/>
<polygon fill="black" stroke="black" points="479.64,-183.7 486.94,-176.01 476.44,-177.47 479.64,-183.7"/>
</g>
<!-- bcs -->
<g id="node10" class="node">
<title>bcs</title>
<ellipse fill="none" stroke="black" cx="836" cy="-162" rx="27" ry="18"/>
<text text-anchor="middle" x="836" y="-156.95" font-family="Times,serif" font-size="14.00">bcs</text>
</g>
<!-- object&#45;&gt;bcs -->
<g id="edge11" class="edge">
<title>object&#45;&gt;bcs</title>
<path fill="none" stroke="black" d="M1026.08,-518.89C1135.55,-510.76 1473.51,-475.89 1372,-360 1331.97,-314.3 1155.83,-350.16 1101,-324 1080,-313.98 1081.6,-301.97 1063,-288 1012.34,-249.97 995.69,-246.18 940,-216 908.54,-198.95 899.8,-196.39 868,-180 867.54,-179.76 867.07,-179.52 866.61,-179.28"/>
<polygon fill="black" stroke="black" points="868.44,-176.29 857.96,-174.75 865.19,-182.49 868.44,-176.29"/>
</g>
<!-- hash -->
<g id="node11" class="node">
<title>hash</title>
<ellipse fill="none" stroke="black" cx="844" cy="-234" rx="27.81" ry="18"/>
<text text-anchor="middle" x="844" y="-228.95" font-family="Times,serif" font-size="14.00">hash</text>
</g>
<!-- object&#45;&gt;hash -->
<g id="edge12" class="edge">
<title>object&#45;&gt;hash</title>
<path fill="none" stroke="black" d="M960.26,-517.33C929.58,-512.03 885.09,-499.13 862,-468 816.75,-407 828.06,-310.62 837.4,-263.22"/>
<polygon fill="black" stroke="black" points="840.81,-264 839.44,-253.49 833.96,-262.56 840.81,-264"/>
</g>
<!-- guid -->
<g id="node12" class="node">
<title>guid</title>
<ellipse fill="none" stroke="black" cx="1027" cy="-306" rx="27.3" ry="18"/>
<text text-anchor="middle" x="1027" y="-300.95" font-family="Times,serif" font-size="14.00">guid</text>
</g>
<!-- object&#45;&gt;guid -->
<g id="edge13" class="edge">
<title>object&#45;&gt;guid</title>
<path fill="none" stroke="black" d="M1026.86,-521.12C1100.69,-519.3 1275.57,-503.32 1351,-396 1404.79,-319.46 1297.67,-385.05 1068,-324 1065.2,-323.26 1062.33,-322.36 1059.49,-321.38"/>
<polygon fill="black" stroke="black" points="1060.76,-318.12 1050.17,-317.82 1058.26,-324.66 1060.76,-318.12"/>
</g>
<!-- from_bcs -->
<g id="node13" class="node">
<title>from_bcs</title>
<ellipse fill="none" stroke="black" cx="94" cy="-378" rx="46.23" ry="18"/>
<text text-anchor="middle" x="94" y="-372.95" font-family="Times,serif" font-size="14.00">from_bcs</text>
</g>
<!-- object&#45;&gt;from_bcs -->
<g id="edge14" class="edge">
<title>object&#45;&gt;from_bcs</title>
<path fill="none" stroke="black" d="M959.29,-520.61C811.46,-518.69 224.76,-508.55 154,-468 130.43,-454.49 114.24,-427.5 104.68,-406.77"/>
<polygon fill="black" stroke="black" points="107.94,-405.49 100.76,-397.7 101.51,-408.27 107.94,-405.49"/>
</g>
<!-- event -->
<g id="node14" class="node">
<title>event</title>
<ellipse fill="none" stroke="black" cx="993" cy="-378" rx="30.88" ry="18"/>
<text text-anchor="middle" x="993" y="-372.95" font-family="Times,serif" font-size="14.00">event</text>
</g>
<!-- object&#45;&gt;event -->
<g id="edge15" class="edge">
<title>object&#45;&gt;event</title>
<path fill="none" stroke="black" d="M993,-503.59C993,-479.61 993,-436.14 993,-407.42"/>
<polygon fill="black" stroke="black" points="996.5,-407.62 993,-397.62 989.5,-407.62 996.5,-407.62"/>
</g>
<!-- create_signer -->
<g id="node15" class="node">
<title>create_signer</title>
<ellipse fill="none" stroke="black" cx="1282" cy="-378" rx="60.05" ry="18"/>
<text text-anchor="middle" x="1282" y="-372.95" font-family="Times,serif" font-size="14.00">create_signer</text>
</g>
<!-- object&#45;&gt;create_signer -->
<g id="edge16" class="edge">
<title>object&#45;&gt;create_signer</title>
<path fill="none" stroke="black" d="M1017.14,-509.14C1066.77,-484.75 1180.7,-428.77 1241.7,-398.8"/>
<polygon fill="black" stroke="black" points="1242.95,-402.09 1250.38,-394.54 1239.86,-395.81 1242.95,-402.09"/>
</g>
<!-- account -->
<g id="node16" class="node">
<title>account</title>
<ellipse fill="none" stroke="black" cx="911" cy="-450" rx="39.58" ry="18"/>
<text text-anchor="middle" x="911" y="-444.95" font-family="Times,serif" font-size="14.00">account</text>
</g>
<!-- object&#45;&gt;account -->
<g id="edge17" class="edge">
<title>object&#45;&gt;account</title>
<path fill="none" stroke="black" d="M975.61,-506.15C964.56,-496.72 950.05,-484.33 937.57,-473.69"/>
<polygon fill="black" stroke="black" points="939.96,-471.12 930.08,-467.29 935.42,-476.45 939.96,-471.12"/>
</g>
<!-- transaction_context -->
<g id="node17" class="node">
<title>transaction_context</title>
<ellipse fill="none" stroke="black" cx="187" cy="-234" rx="83.08" ry="18"/>
<text text-anchor="middle" x="187" y="-228.95" font-family="Times,serif" font-size="14.00">transaction_context</text>
</g>
<!-- object&#45;&gt;transaction_context -->
<g id="edge18" class="edge">
<title>object&#45;&gt;transaction_context</title>
<path fill="none" stroke="black" d="M959.52,-520.53C826.4,-518.39 339.22,-507.88 284,-468 216.56,-419.3 195.8,-314.69 189.57,-263.88"/>
<polygon fill="black" stroke="black" points="193.06,-263.53 188.48,-253.97 186.1,-264.3 193.06,-263.53"/>
</g>
<!-- timestamp&#45;&gt;error -->
<g id="edge19" class="edge">
<title>timestamp&#45;&gt;error</title>
<path fill="none" stroke="black" d="M1503.87,-361.02C1475.59,-338.18 1423.07,-294.25 1383,-252 1372.44,-240.87 1310.23,-151.77 1297,-144 1249.96,-116.38 1091.15,-100.26 1016.02,-94.02"/>
<polygon fill="black" stroke="black" points="1016.47,-90.54 1006.22,-93.22 1015.9,-97.52 1016.47,-90.54"/>
</g>
<!-- system_addresses -->
<g id="node18" class="node">
<title>system_addresses</title>
<ellipse fill="none" stroke="black" cx="1187" cy="-306" rx="76.94" ry="18"/>
<text text-anchor="middle" x="1187" y="-300.95" font-family="Times,serif" font-size="14.00">system_addresses</text>
</g>
<!-- timestamp&#45;&gt;system_addresses -->
<g id="edge20" class="edge">
<title>timestamp&#45;&gt;system_addresses</title>
<path fill="none" stroke="black" d="M1481.32,-368.13C1424.02,-356.23 1321.64,-334.97 1254.01,-320.92"/>
<polygon fill="black" stroke="black" points="1255.04,-317.56 1244.54,-318.95 1253.62,-324.41 1255.04,-317.56"/>
</g>
<!-- smart_vector&#45;&gt;vector -->
<g id="edge21" class="edge">
<title>smart_vector&#45;&gt;vector</title>
<path fill="none" stroke="black" d="M1391.1,-295.92C1424.37,-288.16 1467.87,-274.57 1501,-252 1568.89,-205.75 1604.98,-125.92 1543,-72 1509.19,-42.59 1206.84,-26.17 1090.42,-20.9"/>
<polygon fill="black" stroke="black" points="1090.76,-17.41 1080.61,-20.46 1090.44,-24.4 1090.76,-17.41"/>
</g>
<!-- smart_vector&#45;&gt;option -->
<g id="edge22" class="edge">
<title>smart_vector&#45;&gt;option</title>
<path fill="none" stroke="black" d="M1296.41,-293.7C1288.61,-291.77 1280.58,-289.8 1273,-288 1202.52,-271.21 1182.75,-274.88 1114,-252 1002.24,-214.82 986.01,-173.56 872,-144 766.66,-116.69 437.11,-98.88 315.06,-93.07"/>
<polygon fill="black" stroke="black" points="315.24,-89.58 305.09,-92.6 314.91,-96.57 315.24,-89.58"/>
</g>
<!-- smart_vector&#45;&gt;error -->
<g id="edge23" class="edge">
<title>smart_vector&#45;&gt;error</title>
<path fill="none" stroke="black" d="M1297.53,-293.28C1265.61,-283.96 1221.62,-269.57 1185,-252 1131.31,-226.24 1116.38,-219.71 1072,-180 1056.69,-166.3 1057.59,-158.46 1043,-144 1031,-132.1 1016.4,-120.3 1003.91,-110.86"/>
<polygon fill="black" stroke="black" points="1006.17,-108.18 996.05,-105.04 1002,-113.8 1006.17,-108.18"/>
</g>
<!-- type_info -->
<g id="node19" class="node">
<title>type_info</title>
<ellipse fill="none" stroke="black" cx="638" cy="-234" rx="46.23" ry="18"/>
<text text-anchor="middle" x="638" y="-228.95" font-family="Times,serif" font-size="14.00">type_info</text>
</g>
<!-- smart_vector&#45;&gt;type_info -->
<g id="edge24" class="edge">
<title>smart_vector&#45;&gt;type_info</title>
<path fill="none" stroke="black" d="M1298.06,-293.11C1289.79,-291.15 1281.17,-289.33 1273,-288 1067.96,-254.69 1013.91,-270.4 807,-252 769.03,-248.62 726.32,-244.32 693.34,-240.89"/>
<polygon fill="black" stroke="black" points="693.91,-237.43 683.6,-239.88 693.18,-244.4 693.91,-237.43"/>
</g>
<!-- math64 -->
<g id="node20" class="node">
<title>math64</title>
<ellipse fill="none" stroke="black" cx="1233" cy="-234" rx="39.07" ry="18"/>
<text text-anchor="middle" x="1233" y="-228.95" font-family="Times,serif" font-size="14.00">math64</text>
</g>
<!-- smart_vector&#45;&gt;math64 -->
<g id="edge25" class="edge">
<title>smart_vector&#45;&gt;math64</title>
<path fill="none" stroke="black" d="M1316.49,-289.12C1300.99,-279.07 1280.81,-265.99 1264.17,-255.2"/>
<polygon fill="black" stroke="black" points="1266.41,-252.48 1256.12,-249.98 1262.6,-258.36 1266.41,-252.48"/>
</g>
<!-- big_vector -->
<g id="node21" class="node">
<title>big_vector</title>
<ellipse fill="none" stroke="black" cx="1442" cy="-234" rx="50.33" ry="18"/>
<text text-anchor="middle" x="1442" y="-228.95" font-family="Times,serif" font-size="14.00">big_vector</text>
</g>
<!-- smart_vector&#45;&gt;big_vector -->
<g id="edge26" class="edge">
<title>smart_vector&#45;&gt;big_vector</title>
<path fill="none" stroke="black" d="M1364.17,-288.94C1377.83,-279.47 1395.32,-267.35 1410.25,-257"/>
<polygon fill="black" stroke="black" points="1412.16,-259.94 1418.39,-251.37 1408.17,-254.19 1412.16,-259.94"/>
</g>
<!-- features&#45;&gt;vector -->
<g id="edge27" class="edge">
<title>features&#45;&gt;vector</title>
<path fill="none" stroke="black" d="M547.9,-150.68C555.15,-148.41 562.82,-146.07 570,-144 729.42,-97.96 920.94,-49.69 1003.64,-29.18"/>
<polygon fill="black" stroke="black" points="1004.24,-32.64 1013.11,-26.83 1002.56,-25.84 1004.24,-32.64"/>
</g>
<!-- features&#45;&gt;signer -->
<g id="edge28" class="edge">
<title>features&#45;&gt;signer</title>
<path fill="none" stroke="black" d="M555.06,-157.34C682.08,-145.42 1083.02,-107.79 1217.52,-95.17"/>
<polygon fill="black" stroke="black" points="1217.82,-98.66 1227.45,-94.24 1217.16,-91.69 1217.82,-98.66"/>
</g>
<!-- features&#45;&gt;error -->
<g id="edge29" class="edge">
<title>features&#45;&gt;error</title>
<path fill="none" stroke="black" d="M547.16,-150.17C554.58,-147.88 562.51,-145.65 570,-144 702.16,-114.81 862.32,-99.72 935.72,-93.91"/>
<polygon fill="black" stroke="black" points="935.94,-97.4 945.64,-93.14 935.4,-90.42 935.94,-97.4"/>
</g>
<!-- string -->
<g id="node22" class="node">
<title>string</title>
<ellipse fill="none" stroke="black" cx="198" cy="-162" rx="31.9" ry="18"/>
<text text-anchor="middle" x="198" y="-156.95" font-family="Times,serif" font-size="14.00">string</text>
</g>
<!-- from_bcs&#45;&gt;string -->
<g id="edge30" class="edge">
<title>from_bcs&#45;&gt;string</title>
<path fill="none" stroke="black" d="M88.76,-359.93C80.25,-328.72 67.05,-261.49 95,-216 108.75,-193.62 135.29,-180.28 157.98,-172.58"/>
<polygon fill="black" stroke="black" points="158.78,-176 167.29,-169.69 156.7,-169.31 158.78,-176"/>
</g>
<!-- event&#45;&gt;bcs -->
<g id="edge31" class="edge">
<title>event&#45;&gt;bcs</title>
<path fill="none" stroke="black" d="M987.85,-359.82C977.78,-328.42 952.99,-260.9 914,-216 900.97,-200.99 882.75,-188.3 867.2,-179.1"/>
<polygon fill="black" stroke="black" points="869.19,-176.21 858.77,-174.32 865.74,-182.29 869.19,-176.21"/>
</g>
<!-- event&#45;&gt;guid -->
<g id="edge32" class="edge">
<title>event&#45;&gt;guid</title>
<path fill="none" stroke="black" d="M1001.06,-360.41C1004.95,-352.39 1009.72,-342.57 1014.11,-333.54"/>
<polygon fill="black" stroke="black" points="1017.12,-335.36 1018.34,-324.83 1010.82,-332.3 1017.12,-335.36"/>
</g>
<!-- account&#45;&gt;vector -->
<g id="edge33" class="edge">
<title>account&#45;&gt;vector</title>
<path fill="none" stroke="black" d="M871.53,-447.27C766,-442.26 483.38,-426.14 455,-396 420.29,-359.13 455.15,-158.41 467,-144 535.01,-61.34 875.72,-30.4 999.75,-21.77"/>
<polygon fill="black" stroke="black" points="999.81,-25.28 1009.55,-21.11 999.34,-18.29 999.81,-25.28"/>
</g>
<!-- account&#45;&gt;option -->
<g id="edge34" class="edge">
<title>account&#45;&gt;option</title>
<path fill="none" stroke="black" d="M871.22,-449.44C783.85,-449.43 569.35,-444.03 398,-396 254.43,-355.76 174.65,-378.04 95,-252 53.54,-186.39 167.59,-130.07 230.53,-104.96"/>
<polygon fill="black" stroke="black" points="231.45,-108.36 239.49,-101.47 228.91,-101.84 231.45,-108.36"/>
</g>
<!-- account&#45;&gt;signer -->
<g id="edge35" class="edge">
<title>account&#45;&gt;signer</title>
<path fill="none" stroke="black" d="M950.66,-448.59C1087.68,-446.79 1535.36,-437.75 1583,-396 1613.42,-369.34 1602,-347.45 1602,-307 1602,-307 1602,-307 1602,-233 1602,-186.03 1583.95,-170.26 1545,-144 1506.7,-118.18 1376.21,-102.02 1306.6,-95.03"/>
<polygon fill="black" stroke="black" points="1306.96,-91.55 1296.66,-94.05 1306.28,-98.51 1306.96,-91.55"/>
</g>
<!-- account&#45;&gt;error -->
<g id="edge36" class="edge">
<title>account&#45;&gt;error</title>
<path fill="none" stroke="black" d="M914.14,-431.73C924.54,-374.43 957.99,-190.18 970.88,-119.22"/>
<polygon fill="black" stroke="black" points="974.28,-120.05 972.63,-109.58 967.4,-118.8 974.28,-120.05"/>
</g>
<!-- account&#45;&gt;features -->
<g id="edge37" class="edge">
<title>account&#45;&gt;features</title>
<path fill="none" stroke="black" d="M871.6,-447.11C769.76,-441.81 503.91,-425.28 478,-396 426.23,-337.51 472.6,-236.97 499.68,-189.41"/>
<polygon fill="black" stroke="black" points="502.65,-191.27 504.68,-180.87 496.61,-187.73 502.65,-191.27"/>
</g>
<!-- account&#45;&gt;bcs -->
<g id="edge38" class="edge">
<title>account&#45;&gt;bcs</title>
<path fill="none" stroke="black" d="M912.03,-431.74C913.73,-391.86 914.13,-290.99 881,-216 875.95,-204.57 867.63,-193.72 859.51,-184.85"/>
<polygon fill="black" stroke="black" points="862.11,-182.51 852.63,-177.77 857.09,-187.39 862.11,-182.51"/>
</g>
<!-- account&#45;&gt;hash -->
<g id="edge42" class="edge">
<title>account&#45;&gt;hash</title>
<path fill="none" stroke="black" d="M900.39,-432.37C894.28,-422.2 886.88,-408.73 882,-396 864.78,-351.1 853.83,-296.06 848.31,-263.35"/>
<polygon fill="black" stroke="black" points="851.83,-263.17 846.77,-253.87 844.92,-264.3 851.83,-263.17"/>
</g>
<!-- account&#45;&gt;guid -->
<g id="edge45" class="edge">
<title>account&#45;&gt;guid</title>
<path fill="none" stroke="black" d="M948.68,-443.73C977.17,-437.56 1014.45,-424.29 1033,-396 1044.82,-377.98 1042.02,-353.26 1037,-334.45"/>
<polygon fill="black" stroke="black" points="1040.4,-333.6 1034.14,-325.06 1033.7,-335.64 1040.4,-333.6"/>
</g>
<!-- account&#45;&gt;from_bcs -->
<g id="edge46" class="edge">
<title>account&#45;&gt;from_bcs</title>
<path fill="none" stroke="black" d="M871.51,-447.45C762.79,-442.9 450.08,-427.82 192,-396 176.84,-394.13 160.46,-391.52 145.51,-388.91"/>
<polygon fill="black" stroke="black" points="146.35,-385.51 135.89,-387.19 145.11,-392.4 146.35,-385.51"/>
</g>
<!-- account&#45;&gt;event -->
<g id="edge47" class="edge">
<title>account&#45;&gt;event</title>
<path fill="none" stroke="black" d="M928.79,-433.81C940.09,-424.17 954.89,-411.54 967.43,-400.83"/>
<polygon fill="black" stroke="black" points="969.6,-403.58 974.93,-394.42 965.05,-398.26 969.6,-403.58"/>
</g>
<!-- account&#45;&gt;create_signer -->
<g id="edge48" class="edge">
<title>account&#45;&gt;create_signer</title>
<path fill="none" stroke="black" d="M947.88,-443.35C1004.93,-434.44 1117.94,-416.03 1213,-396 1217.36,-395.08 1221.86,-394.08 1226.37,-393.05"/>
<polygon fill="black" stroke="black" points="1227.15,-396.46 1236.09,-390.77 1225.55,-389.65 1227.15,-396.46"/>
</g>
<!-- account&#45;&gt;system_addresses -->
<g id="edge41" class="edge">
<title>account&#45;&gt;system_addresses</title>
<path fill="none" stroke="black" d="M942.98,-439.11C971.91,-429.64 1015.33,-414.15 1051,-396 1061.53,-390.64 1116.52,-354.18 1153.27,-329.62"/>
<polygon fill="black" stroke="black" points="1155.02,-332.66 1161.38,-324.19 1151.13,-326.85 1155.02,-332.66"/>
</g>
<!-- account&#45;&gt;type_info -->
<g id="edge39" class="edge">
<title>account&#45;&gt;type_info</title>
<path fill="none" stroke="black" d="M872.09,-445.9C806.2,-438.27 674.63,-412.18 621,-324 609.71,-305.44 615.55,-281 623.32,-262.43"/>
<polygon fill="black" stroke="black" points="626.49,-263.91 627.51,-253.37 620.14,-260.98 626.49,-263.91"/>
</g>
<!-- table -->
<g id="node23" class="node">
<title>table</title>
<ellipse fill="none" stroke="black" cx="1483" cy="-90" rx="28.83" ry="18"/>
<text text-anchor="middle" x="1483" y="-84.95" font-family="Times,serif" font-size="14.00">table</text>
</g>
<!-- account&#45;&gt;table -->
<g id="edge40" class="edge">
<title>account&#45;&gt;table</title>
<path fill="none" stroke="black" d="M950.49,-447.83C1089.2,-443.45 1548.89,-426.75 1607,-396 1651.72,-372.33 1678,-357.6 1678,-307 1678,-307 1678,-307 1678,-233 1678,-192.03 1682.43,-173.5 1654,-144 1619.8,-108.5 1562.35,-96.65 1523.58,-92.76"/>
<polygon fill="black" stroke="black" points="1523.96,-89.28 1513.7,-91.92 1523.37,-96.26 1523.96,-89.28"/>
</g>
<!-- ed25519 -->
<g id="node24" class="node">
<title>ed25519</title>
<ellipse fill="none" stroke="black" cx="673" cy="-306" rx="42.65" ry="18"/>
<text text-anchor="middle" x="673" y="-300.95" font-family="Times,serif" font-size="14.00">ed25519</text>
</g>
<!-- account&#45;&gt;ed25519 -->
<g id="edge43" class="edge">
<title>account&#45;&gt;ed25519</title>
<path fill="none" stroke="black" d="M887.75,-435.13C845.49,-409.91 755.93,-356.48 706.88,-327.21"/>
<polygon fill="black" stroke="black" points="708.74,-324.25 698.36,-322.13 705.15,-330.26 708.74,-324.25"/>
</g>
<!-- multi_ed25519 -->
<g id="node25" class="node">
<title>multi_ed25519</title>
<ellipse fill="none" stroke="black" cx="554" cy="-378" rx="67.22" ry="18"/>
<text text-anchor="middle" x="554" y="-372.95" font-family="Times,serif" font-size="14.00">multi_ed25519</text>
</g>
<!-- account&#45;&gt;multi_ed25519 -->
<g id="edge44" class="edge">
<title>account&#45;&gt;multi_ed25519</title>
<path fill="none" stroke="black" d="M874.79,-442.25C822.01,-432.37 720.87,-413.25 635,-396 629.01,-394.8 622.78,-393.52 616.55,-392.24"/>
<polygon fill="black" stroke="black" points="617.38,-388.84 606.87,-390.23 615.95,-395.69 617.38,-388.84"/>
</g>
<!-- chain_id -->
<g id="node26" class="node">
<title>chain_id</title>
<ellipse fill="none" stroke="black" cx="1161" cy="-378" rx="42.65" ry="18"/>
<text text-anchor="middle" x="1161" y="-372.95" font-family="Times,serif" font-size="14.00">chain_id</text>
</g>
<!-- account&#45;&gt;chain_id -->
<g id="edge49" class="edge">
<title>account&#45;&gt;chain_id</title>
<path fill="none" stroke="black" d="M944.53,-440.03C983.08,-429.66 1048.21,-411.98 1104,-396 1107.96,-394.87 1112.06,-393.68 1116.17,-392.47"/>
<polygon fill="black" stroke="black" points="1116.93,-395.9 1125.52,-389.71 1114.94,-389.18 1116.93,-395.9"/>
</g>
<!-- transaction_context&#45;&gt;option -->
<g id="edge50" class="edge">
<title>transaction_context&#45;&gt;option</title>
<path fill="none" stroke="black" d="M207.55,-216.12C218.18,-206.48 230.64,-193.62 239,-180 250.48,-161.3 258.17,-137.68 262.9,-119.47"/>
<polygon fill="black" stroke="black" points="266.27,-120.41 265.22,-109.86 259.47,-118.76 266.27,-120.41"/>
</g>
<!-- transaction_context&#45;&gt;error -->
<g id="edge52" class="edge">
<title>transaction_context&#45;&gt;error</title>
<path fill="none" stroke="black" d="M221.76,-217.35C268.84,-196.89 355.96,-161.59 434,-144 618.04,-102.52 844.47,-93.51 935.4,-91.54"/>
<polygon fill="black" stroke="black" points="935.36,-95.05 945.29,-91.35 935.23,-88.05 935.36,-95.05"/>
</g>
<!-- transaction_context&#45;&gt;features -->
<g id="edge53" class="edge">
<title>transaction_context&#45;&gt;features</title>
<path fill="none" stroke="black" d="M244.68,-220.73C308.44,-207.16 409.9,-185.57 469.01,-173"/>
<polygon fill="black" stroke="black" points="469.71,-176.43 478.76,-170.92 468.25,-169.58 469.71,-176.43"/>
</g>
<!-- transaction_context&#45;&gt;string -->
<g id="edge51" class="edge">
<title>transaction_context&#45;&gt;string</title>
<path fill="none" stroke="black" d="M189.72,-215.7C190.88,-208.32 192.26,-199.52 193.56,-191.25"/>
<polygon fill="black" stroke="black" points="196.98,-192.02 195.08,-181.6 190.07,-190.93 196.98,-192.02"/>
</g>
<!-- system_addresses&#45;&gt;signer -->
<g id="edge54" class="edge">
<title>system_addresses&#45;&gt;signer</title>
<path fill="none" stroke="black" d="M1175.94,-288.08C1157.23,-257.11 1124.06,-190.26 1153,-144 1167.55,-120.75 1195.54,-107.43 1219.52,-99.96"/>
<polygon fill="black" stroke="black" points="1220.42,-103.35 1229.08,-97.25 1218.51,-96.61 1220.42,-103.35"/>
</g>
<!-- system_addresses&#45;&gt;error -->
<g id="edge55" class="edge">
<title>system_addresses&#45;&gt;error</title>
<path fill="none" stroke="black" d="M1162.2,-288.58C1147.69,-278.58 1129.27,-265.23 1114,-252 1080.26,-222.78 1073.16,-213.79 1044,-180 1025.94,-159.06 1006.96,-133.92 993.65,-115.71"/>
<polygon fill="black" stroke="black" points="996.84,-114.14 988.14,-108.1 991.17,-118.25 996.84,-114.14"/>
</g>
<!-- type_info&#45;&gt;error -->
<g id="edge57" class="edge">
<title>type_info&#45;&gt;error</title>
<path fill="none" stroke="black" d="M644.65,-215.88C653.56,-195.36 671.4,-161.54 698,-144 736.6,-118.55 868.69,-101.87 935.95,-94.83"/>
<polygon fill="black" stroke="black" points="936.23,-98.32 945.83,-93.82 935.52,-91.35 936.23,-98.32"/>
</g>
<!-- type_info&#45;&gt;features -->
<g id="edge58" class="edge">
<title>type_info&#45;&gt;features</title>
<path fill="none" stroke="black" d="M612.72,-218.5C594.53,-208.06 569.81,-193.87 549.91,-182.45"/>
<polygon fill="black" stroke="black" points="551.73,-179.47 541.31,-177.52 548.25,-185.54 551.73,-179.47"/>
</g>
<!-- type_info&#45;&gt;bcs -->
<g id="edge59" class="edge">
<title>type_info&#45;&gt;bcs</title>
<path fill="none" stroke="black" d="M671.14,-221.28C707.36,-208.48 765.09,-188.07 801.74,-175.11"/>
<polygon fill="black" stroke="black" points="802.71,-178.48 810.97,-171.85 800.37,-171.88 802.71,-178.48"/>
</g>
<!-- type_info&#45;&gt;string -->
<g id="edge56" class="edge">
<title>type_info&#45;&gt;string</title>
<path fill="none" stroke="black" d="M595.81,-226.29C511.67,-212.9 323.88,-183.03 239.94,-169.67"/>
<polygon fill="black" stroke="black" points="240.49,-166.22 230.07,-168.1 239.39,-173.13 240.49,-166.22"/>
</g>
<!-- math64&#45;&gt;error -->
<g id="edge60" class="edge">
<title>math64&#45;&gt;error</title>
<path fill="none" stroke="black" d="M1208.73,-219.58C1177.21,-202.15 1120.5,-170.79 1072,-144 1050.31,-132.02 1025.85,-118.52 1007.06,-108.14"/>
<polygon fill="black" stroke="black" points="1008.75,-105.08 998.3,-103.31 1005.37,-111.2 1008.75,-105.08"/>
</g>
<!-- fixed_point32 -->
<g id="node27" class="node">
<title>fixed_point32</title>
<ellipse fill="none" stroke="black" cx="1225" cy="-162" rx="62.61" ry="18"/>
<text text-anchor="middle" x="1225" y="-156.95" font-family="Times,serif" font-size="14.00">fixed_point32</text>
</g>
<!-- math64&#45;&gt;fixed_point32 -->
<g id="edge61" class="edge">
<title>math64&#45;&gt;fixed_point32</title>
<path fill="none" stroke="black" d="M1231.02,-215.7C1230.19,-208.41 1229.2,-199.73 1228.26,-191.54"/>
<polygon fill="black" stroke="black" points="1231.74,-191.15 1227.13,-181.61 1224.78,-191.94 1231.74,-191.15"/>
</g>
<!-- big_vector&#45;&gt;vector -->
<g id="edge62" class="edge">
<title>big_vector&#45;&gt;vector</title>
<path fill="none" stroke="black" d="M1482.92,-223.16C1505.44,-215.43 1531.49,-202.15 1545,-180 1562.65,-151.06 1521.15,-72.12 1521,-72 1487.86,-45.21 1202.57,-27.34 1090.21,-21.28"/>
<polygon fill="black" stroke="black" points="1090.63,-17.8 1080.46,-20.76 1090.26,-24.79 1090.63,-17.8"/>
</g>
<!-- big_vector&#45;&gt;error -->
<g id="edge63" class="edge">
<title>big_vector&#45;&gt;error</title>
<path fill="none" stroke="black" d="M1420.99,-217.22C1407.23,-206.8 1388.91,-192.76 1373,-180 1353.56,-164.41 1352.73,-154.23 1330,-144 1224.15,-96.37 1084.31,-90.03 1016.43,-90.08"/>
<polygon fill="black" stroke="black" points="1016.49,-86.58 1006.51,-90.14 1016.54,-93.58 1016.49,-86.58"/>
</g>
<!-- table_with_length -->
<g id="node28" class="node">
<title>table_with_length</title>
<ellipse fill="none" stroke="black" cx="1459" cy="-162" rx="77.45" ry="18"/>
<text text-anchor="middle" x="1459" y="-156.95" font-family="Times,serif" font-size="14.00">table_with_length</text>
</g>
<!-- big_vector&#45;&gt;table_with_length -->
<g id="edge64" class="edge">
<title>big_vector&#45;&gt;table_with_length</title>
<path fill="none" stroke="black" d="M1446.2,-215.7C1447.99,-208.32 1450.13,-199.52 1452.14,-191.25"/>
<polygon fill="black" stroke="black" points="1455.53,-192.12 1454.49,-181.58 1448.73,-190.47 1455.53,-192.12"/>
</g>
<!-- string&#45;&gt;vector -->
<g id="edge65" class="edge">
<title>string&#45;&gt;vector</title>
<path fill="none" stroke="black" d="M198,-143.74C199.04,-123.06 204.21,-89.1 226,-72 287.03,-24.11 836.9,-19.35 999.75,-18.99"/>
<polygon fill="black" stroke="black" points="999.29,-22.49 1009.28,-18.97 999.28,-15.49 999.29,-22.49"/>
</g>
<!-- string&#45;&gt;option -->
<g id="edge66" class="edge">
<title>string&#45;&gt;option</title>
<path fill="none" stroke="black" d="M213.41,-145.81C222.8,-136.55 235,-124.52 245.58,-114.09"/>
<polygon fill="black" stroke="black" points="247.88,-116.74 252.55,-107.22 242.97,-111.75 247.88,-116.74"/>
</g>
<!-- ed25519&#45;&gt;option -->
<g id="edge67" class="edge">
<title>ed25519&#45;&gt;option</title>
<path fill="none" stroke="black" d="M647.11,-291.29C576.61,-253.94 381.22,-150.44 302.5,-108.75"/>
<polygon fill="black" stroke="black" points="304.44,-105.81 293.96,-104.22 301.16,-112 304.44,-105.81"/>
</g>
<!-- ed25519&#45;&gt;error -->
<g id="edge68" class="edge">
<title>ed25519&#45;&gt;error</title>
<path fill="none" stroke="black" d="M681.24,-287.85C698.32,-254.31 740.95,-180.17 800,-144 842.91,-117.72 899.73,-103.7 937.05,-96.82"/>
<polygon fill="black" stroke="black" points="937.23,-100.34 946.48,-95.16 936.02,-93.44 937.23,-100.34"/>
</g>
<!-- ed25519&#45;&gt;bcs -->
<g id="edge69" class="edge">
<title>ed25519&#45;&gt;bcs</title>
<path fill="none" stroke="black" d="M690.81,-289.16C710.93,-271.3 744.7,-241.43 774,-216 786.24,-205.38 799.92,-193.67 811.31,-183.96"/>
<polygon fill="black" stroke="black" points="813.39,-186.79 818.73,-177.64 808.85,-181.46 813.39,-186.79"/>
</g>
<!-- ed25519&#45;&gt;hash -->
<g id="edge71" class="edge">
<title>ed25519&#45;&gt;hash</title>
<path fill="none" stroke="black" d="M702.79,-292.81C732.83,-280.51 779.13,-261.55 810.45,-248.73"/>
<polygon fill="black" stroke="black" points="811.53,-252.08 819.45,-245.05 808.87,-245.6 811.53,-252.08"/>
</g>
<!-- ed25519&#45;&gt;type_info -->
<g id="edge70" class="edge">
<title>ed25519&#45;&gt;type_info</title>
<path fill="none" stroke="black" d="M664.53,-288.05C660.62,-280.23 655.87,-270.75 651.49,-261.98"/>
<polygon fill="black" stroke="black" points="654.67,-260.52 647.07,-253.14 648.41,-263.65 654.67,-260.52"/>
</g>
<!-- multi_ed25519&#45;&gt;option -->
<g id="edge72" class="edge">
<title>multi_ed25519&#45;&gt;option</title>
<path fill="none" stroke="black" d="M537.45,-360.39C489.08,-311.85 347.91,-170.19 292.1,-114.18"/>
<polygon fill="black" stroke="black" points="294.81,-111.94 285.27,-107.33 289.85,-116.88 294.81,-111.94"/>
</g>
<!-- multi_ed25519&#45;&gt;error -->
<g id="edge73" class="edge">
<title>multi_ed25519&#45;&gt;error</title>
<path fill="none" stroke="black" d="M553.64,-359.86C553.72,-329.12 557.2,-263.39 583,-216 605.4,-174.85 618,-164.76 660,-144 708.05,-120.25 862.8,-102.23 936.4,-94.76"/>
<polygon fill="black" stroke="black" points="936.37,-98.28 945.98,-93.81 935.68,-91.32 936.37,-98.28"/>
</g>
<!-- multi_ed25519&#45;&gt;features -->
<g id="edge74" class="edge">
<title>multi_ed25519&#45;&gt;features</title>
<path fill="none" stroke="black" d="M550.95,-359.85C544.44,-323.14 529.08,-236.66 521.07,-191.53"/>
<polygon fill="black" stroke="black" points="524.52,-190.96 519.32,-181.72 517.63,-192.18 524.52,-190.96"/>
</g>
<!-- multi_ed25519&#45;&gt;bcs -->
<g id="edge75" class="edge">
<title>multi_ed25519&#45;&gt;bcs</title>
<path fill="none" stroke="black" d="M612.63,-368.76C647.85,-361.53 692.07,-348.21 725,-324 750.29,-305.41 796.96,-229.68 820.92,-189.05"/>
<polygon fill="black" stroke="black" points="823.84,-191.01 825.87,-180.61 817.8,-187.47 823.84,-191.01"/>
</g>
<!-- multi_ed25519&#45;&gt;hash -->
<g id="edge76" class="edge">
<title>multi_ed25519&#45;&gt;hash</title>
<path fill="none" stroke="black" d="M614.9,-370.05C657.3,-363.16 713.91,-349.73 758,-324 785.87,-307.73 810.65,-279.91 826.36,-259.7"/>
<polygon fill="black" stroke="black" points="828.98,-262.04 832.21,-251.95 823.39,-257.82 828.98,-262.04"/>
</g>
<!-- multi_ed25519&#45;&gt;ed25519 -->
<g id="edge77" class="edge">
<title>multi_ed25519&#45;&gt;ed25519</title>
<path fill="none" stroke="black" d="M581,-361.12C598.25,-350.97 620.74,-337.74 639.17,-326.9"/>
<polygon fill="black" stroke="black" points="640.78,-330.01 647.63,-321.93 637.23,-323.98 640.78,-330.01"/>
</g>
<!-- chain_id&#45;&gt;system_addresses -->
<g id="edge78" class="edge">
<title>chain_id&#45;&gt;system_addresses</title>
<path fill="none" stroke="black" d="M1167.29,-360.05C1170.09,-352.52 1173.47,-343.44 1176.62,-334.94"/>
<polygon fill="black" stroke="black" points="1179.86,-336.29 1180.06,-325.69 1173.29,-333.85 1179.86,-336.29"/>
</g>
<!-- table_with_length&#45;&gt;error -->
<g id="edge79" class="edge">
<title>table_with_length&#45;&gt;error</title>
<path fill="none" stroke="black" d="M1401.31,-149.77C1390.27,-147.75 1378.79,-145.74 1368,-144 1239.22,-123.28 1085.76,-104.13 1015.12,-95.63"/>
<polygon fill="black" stroke="black" points="1015.96,-92.2 1005.62,-94.49 1015.13,-99.15 1015.96,-92.2"/>
</g>
<!-- table_with_length&#45;&gt;table -->
<g id="edge80" class="edge">
<title>table_with_length&#45;&gt;table</title>
<path fill="none" stroke="black" d="M1464.93,-143.7C1467.49,-136.24 1470.55,-127.32 1473.41,-118.97"/>
<polygon fill="black" stroke="black" points="1476.71,-120.13 1476.64,-109.54 1470.09,-117.86 1476.71,-120.13"/>
</g>
</g>
</svg>
