<?xml version="1.0" encoding="UTF-8" standalone="no"?>
<!DOCTYPE svg PUBLIC "-//W3C//DTD SVG 1.1//EN"
 "http://www.w3.org/Graphics/SVG/1.1/DTD/svg11.dtd">
<!-- Generated by graphviz version 12.1.2 (20240928.0832)
 -->
<!-- Title: G Pages: 1 -->
<svg width="4100pt" height="1196pt"
 viewBox="0.00 0.00 4100.00 1196.00" xmlns="http://www.w3.org/2000/svg" xmlns:xlink="http://www.w3.org/1999/xlink">
<g id="graph0" class="graph" transform="scale(1 1) rotate(0) translate(4 1192)">
<title>G</title>
<polygon fill="white" stroke="none" points="-4,4 -4,-1192 4096,-1192 4096,4 -4,4"/>
<!-- short_game -->
<g id="node1" class="node">
<title>short_game</title>
<ellipse fill="none" stroke="black" cx="1428" cy="-1170" rx="54.42" ry="18"/>
<text text-anchor="middle" x="1428" y="-1164.95" font-family="Times,serif" font-size="14.00">short_game</text>
</g>
<!-- type_info -->
<g id="node2" class="node">
<title>type_info</title>
<ellipse fill="none" stroke="black" cx="1698" cy="-234" rx="46.23" ry="18"/>
<text text-anchor="middle" x="1698" y="-228.95" font-family="Times,serif" font-size="14.00">type_info</text>
</g>
<!-- short_game&#45;&gt;type_info -->
<g id="edge1" class="edge">
<title>short_game&#45;&gt;type_info</title>
<path fill="none" stroke="black" d="M1416.19,-1151.96C1399.49,-1126.16 1371,-1075.08 1371,-1027 1371,-1027 1371,-1027 1371,-809 1371,-577.03 1247.91,-461.39 1402,-288 1417.84,-270.18 1561.77,-250.81 1642.94,-241.17"/>
<polygon fill="black" stroke="black" points="1642.93,-244.7 1652.45,-240.05 1642.11,-237.74 1642.93,-244.7"/>
</g>
<!-- mechanics -->
<g id="node3" class="node">
<title>mechanics</title>
<ellipse fill="none" stroke="black" cx="1485" cy="-1098" rx="50.33" ry="18"/>
<text text-anchor="middle" x="1485" y="-1092.95" font-family="Times,serif" font-size="14.00">mechanics</text>
</g>
<!-- short_game&#45;&gt;mechanics -->
<g id="edge2" class="edge">
<title>short_game&#45;&gt;mechanics</title>
<path fill="none" stroke="black" d="M1441.51,-1152.41C1448.32,-1144.04 1456.74,-1133.71 1464.34,-1124.37"/>
<polygon fill="black" stroke="black" points="1467.03,-1126.61 1470.63,-1116.64 1461.6,-1122.19 1467.03,-1126.61"/>
</g>
<!-- string -->
<g id="node4" class="node">
<title>string</title>
<ellipse fill="none" stroke="black" cx="551" cy="-162" rx="31.9" ry="18"/>
<text text-anchor="middle" x="551" y="-156.95" font-family="Times,serif" font-size="14.00">string</text>
</g>
<!-- type_info&#45;&gt;string -->
<g id="edge3" class="edge">
<title>type_info&#45;&gt;string</title>
<path fill="none" stroke="black" d="M1652.33,-230.21C1467.32,-218.92 774.9,-176.66 594.3,-165.64"/>
<polygon fill="black" stroke="black" points="594.62,-162.16 584.43,-165.04 594.19,-169.14 594.62,-162.16"/>
</g>
<!-- error -->
<g id="node5" class="node">
<title>error</title>
<ellipse fill="none" stroke="black" cx="2808" cy="-90" rx="28.83" ry="18"/>
<text text-anchor="middle" x="2808" y="-84.95" font-family="Times,serif" font-size="14.00">error</text>
</g>
<!-- type_info&#45;&gt;error -->
<g id="edge4" class="edge">
<title>type_info&#45;&gt;error</title>
<path fill="none" stroke="black" d="M1737.99,-224.71C1823.03,-207.35 2028.24,-166.9 2202,-144 2414.33,-116.02 2670.54,-99.11 2767.86,-93.29"/>
<polygon fill="black" stroke="black" points="2767.91,-96.79 2777.69,-92.71 2767.5,-89.81 2767.91,-96.79"/>
</g>
<!-- features -->
<g id="node6" class="node">
<title>features</title>
<ellipse fill="none" stroke="black" cx="1048" cy="-162" rx="40.09" ry="18"/>
<text text-anchor="middle" x="1048" y="-156.95" font-family="Times,serif" font-size="14.00">features</text>
</g>
<!-- type_info&#45;&gt;features -->
<g id="edge5" class="edge">
<title>type_info&#45;&gt;features</title>
<path fill="none" stroke="black" d="M1663.04,-221.91C1654.89,-219.66 1646.2,-217.52 1638,-216 1441.06,-179.58 1202.32,-167.9 1099.35,-164.4"/>
<polygon fill="black" stroke="black" points="1099.68,-160.91 1089.57,-164.08 1099.45,-167.9 1099.68,-160.91"/>
</g>
<!-- bcs -->
<g id="node7" class="node">
<title>bcs</title>
<ellipse fill="none" stroke="black" cx="2238" cy="-162" rx="27" ry="18"/>
<text text-anchor="middle" x="2238" y="-156.95" font-family="Times,serif" font-size="14.00">bcs</text>
</g>
<!-- type_info&#45;&gt;bcs -->
<g id="edge6" class="edge">
<title>type_info&#45;&gt;bcs</title>
<path fill="none" stroke="black" d="M1738.91,-225.27C1756.45,-222.13 1777.19,-218.62 1796,-216 1947.38,-194.93 1986.58,-200.82 2138,-180 2158.95,-177.12 2182.25,-173.2 2201.08,-169.85"/>
<polygon fill="black" stroke="black" points="2201.46,-173.34 2210.68,-168.12 2200.22,-166.45 2201.46,-173.34"/>
</g>
<!-- mechanics&#45;&gt;type_info -->
<g id="edge10" class="edge">
<title>mechanics&#45;&gt;type_info</title>
<path fill="none" stroke="black" d="M1468.8,-1080.79C1422.85,-1033.01 1295,-886.76 1295,-739 1295,-739 1295,-739 1295,-521 1295,-411.65 1290.58,-358.7 1374,-288 1394.16,-270.92 1555.1,-250.78 1642.3,-240.97"/>
<polygon fill="black" stroke="black" points="1642.52,-244.47 1652.08,-239.88 1641.75,-237.51 1642.52,-244.47"/>
</g>
<!-- vector -->
<g id="node8" class="node">
<title>vector</title>
<ellipse fill="none" stroke="black" cx="3626" cy="-18" rx="33.95" ry="18"/>
<text text-anchor="middle" x="3626" y="-12.95" font-family="Times,serif" font-size="14.00">vector</text>
</g>
<!-- mechanics&#45;&gt;vector -->
<g id="edge7" class="edge">
<title>mechanics&#45;&gt;vector</title>
<path fill="none" stroke="black" d="M1535.62,-1096.98C1898.67,-1096.49 4092,-1088.04 4092,-955 4092,-955 4092,-955 4092,-161 4092,-113.05 4071.88,-97.07 4031,-72 3971.5,-35.52 3764.08,-23.81 3671.37,-20.34"/>
<polygon fill="black" stroke="black" points="3671.76,-16.85 3661.64,-19.99 3671.51,-23.85 3671.76,-16.85"/>
</g>
<!-- option -->
<g id="node9" class="node">
<title>option</title>
<ellipse fill="none" stroke="black" cx="2333" cy="-90" rx="34.46" ry="18"/>
<text text-anchor="middle" x="2333" y="-84.95" font-family="Times,serif" font-size="14.00">option</text>
</g>
<!-- mechanics&#45;&gt;option -->
<g id="edge8" class="edge">
<title>mechanics&#45;&gt;option</title>
<path fill="none" stroke="black" d="M1485,-1079.51C1485,-1052.71 1485,-999.87 1485,-955 1485,-955 1485,-955 1485,-809 1485,-577.29 1336.66,-480.25 1466,-288 1559.93,-148.39 2122.69,-103.69 2287.61,-93.5"/>
<polygon fill="black" stroke="black" points="2287.5,-97.02 2297.27,-92.92 2287.08,-90.03 2287.5,-97.02"/>
</g>
<!-- signer -->
<g id="node10" class="node">
<title>signer</title>
<ellipse fill="none" stroke="black" cx="266" cy="-90" rx="33.44" ry="18"/>
<text text-anchor="middle" x="266" y="-84.95" font-family="Times,serif" font-size="14.00">signer</text>
</g>
<!-- mechanics&#45;&gt;signer -->
<g id="edge9" class="edge">
<title>mechanics&#45;&gt;signer</title>
<path fill="none" stroke="black" d="M1434.43,-1096.44C1289.03,-1094.37 857.49,-1084.94 502,-1044 276.9,-1018.07 0,-1181.59 0,-955 0,-955 0,-955 0,-233 0,-133.66 146.15,-103.57 221.79,-94.65"/>
<polygon fill="black" stroke="black" points="221.79,-98.17 231.34,-93.6 221.02,-91.21 221.79,-98.17"/>
</g>
<!-- event -->
<g id="node11" class="node">
<title>event</title>
<ellipse fill="none" stroke="black" cx="1523" cy="-378" rx="30.88" ry="18"/>
<text text-anchor="middle" x="1523" y="-372.95" font-family="Times,serif" font-size="14.00">event</text>
</g>
<!-- mechanics&#45;&gt;event -->
<g id="edge11" class="edge">
<title>mechanics&#45;&gt;event</title>
<path fill="none" stroke="black" d="M1535.18,-1095.26C1738.48,-1087.57 2490,-1052.52 2490,-955 2490,-955 2490,-955 2490,-809 2490,-782.96 1731.21,-465.64 1557.94,-393.52"/>
<polygon fill="black" stroke="black" points="1559.36,-390.32 1548.78,-389.71 1556.67,-396.78 1559.36,-390.32"/>
</g>
<!-- object -->
<g id="node12" class="node">
<title>object</title>
<ellipse fill="none" stroke="black" cx="1140" cy="-522" rx="33.44" ry="18"/>
<text text-anchor="middle" x="1140" y="-516.95" font-family="Times,serif" font-size="14.00">object</text>
</g>
<!-- mechanics&#45;&gt;object -->
<g id="edge12" class="edge">
<title>mechanics&#45;&gt;object</title>
<path fill="none" stroke="black" d="M1434.38,-1097.17C1352.2,-1094.32 1192.11,-1075.05 1124,-972 1100.92,-937.09 1127.78,-645.15 1137.07,-551.67"/>
<polygon fill="black" stroke="black" points="1140.54,-552.13 1138.06,-541.83 1133.58,-551.43 1140.54,-552.13"/>
</g>
<!-- fungible_asset -->
<g id="node13" class="node">
<title>fungible_asset</title>
<ellipse fill="none" stroke="black" cx="724" cy="-594" rx="64.15" ry="18"/>
<text text-anchor="middle" x="724" y="-588.95" font-family="Times,serif" font-size="14.00">fungible_asset</text>
</g>
<!-- mechanics&#45;&gt;fungible_asset -->
<g id="edge13" class="edge">
<title>mechanics&#45;&gt;fungible_asset</title>
<path fill="none" stroke="black" d="M1434.78,-1095.7C1223.04,-1089.57 414,-1059.33 414,-955 414,-955 414,-955 414,-737 414,-634.11 556.91,-605.47 648.67,-597.69"/>
<polygon fill="black" stroke="black" points="648.93,-601.18 658.63,-596.92 648.39,-594.21 648.93,-601.18"/>
</g>
<!-- timestamp -->
<g id="node14" class="node">
<title>timestamp</title>
<ellipse fill="none" stroke="black" cx="3081" cy="-522" rx="50.33" ry="18"/>
<text text-anchor="middle" x="3081" y="-516.95" font-family="Times,serif" font-size="14.00">timestamp</text>
</g>
<!-- mechanics&#45;&gt;timestamp -->
<g id="edge14" class="edge">
<title>mechanics&#45;&gt;timestamp</title>
<path fill="none" stroke="black" d="M1535.19,-1095.52C1817.32,-1086.9 3193,-1040.45 3193,-955 3193,-955 3193,-955 3193,-881 3193,-755.21 3140.94,-732.55 3105,-612 3098.95,-591.72 3092.75,-568.64 3088.16,-551.06"/>
<polygon fill="black" stroke="black" points="3091.61,-550.41 3085.71,-541.6 3084.83,-552.16 3091.61,-550.41"/>
</g>
<!-- simple_map -->
<g id="node15" class="node">
<title>simple_map</title>
<ellipse fill="none" stroke="black" cx="3197" cy="-162" rx="56.98" ry="18"/>
<text text-anchor="middle" x="3197" y="-156.95" font-family="Times,serif" font-size="14.00">simple_map</text>
</g>
<!-- mechanics&#45;&gt;simple_map -->
<g id="edge15" class="edge">
<title>mechanics&#45;&gt;simple_map</title>
<path fill="none" stroke="black" d="M1535.4,-1097.17C1816.28,-1097.93 3182.26,-1098.75 3361,-1044 3431.5,-1022.4 3501,-1028.73 3501,-955 3501,-955 3501,-955 3501,-521 3501,-402.63 3452.2,-375.05 3372,-288 3349.72,-263.81 3275.22,-213.72 3230.93,-184.83"/>
<polygon fill="black" stroke="black" points="3233,-181.99 3222.71,-179.48 3229.19,-187.86 3233,-181.99"/>
</g>
<!-- smart_table -->
<g id="node16" class="node">
<title>smart_table</title>
<ellipse fill="none" stroke="black" cx="3236" cy="-306" rx="54.42" ry="18"/>
<text text-anchor="middle" x="3236" y="-300.95" font-family="Times,serif" font-size="14.00">smart_table</text>
</g>
<!-- mechanics&#45;&gt;smart_table -->
<g id="edge16" class="edge">
<title>mechanics&#45;&gt;smart_table</title>
<path fill="none" stroke="black" d="M1535.52,-1097.31C1805.28,-1098.73 3069.63,-1102.23 3233,-1044 3294.21,-1022.18 3349,-1019.98 3349,-955 3349,-955 3349,-955 3349,-593 3349,-491.07 3286.15,-382.11 3254.2,-333.29"/>
<polygon fill="black" stroke="black" points="3257.18,-331.45 3248.72,-325.07 3251.35,-335.33 3257.18,-331.45"/>
</g>
<!-- session -->
<g id="node17" class="node">
<title>session</title>
<ellipse fill="none" stroke="black" cx="3152" cy="-594" rx="37.53" ry="18"/>
<text text-anchor="middle" x="3152" y="-588.95" font-family="Times,serif" font-size="14.00">session</text>
</g>
<!-- mechanics&#45;&gt;session -->
<g id="edge17" class="edge">
<title>mechanics&#45;&gt;session</title>
<path fill="none" stroke="black" d="M1535.73,-1097.13C1813.47,-1097.61 3139.81,-1097.13 3207,-1044 3239.14,-1018.59 3231,-995.97 3231,-955 3231,-955 3231,-955 3231,-881 3231,-782.82 3187.21,-672.31 3164.84,-622.25"/>
<polygon fill="black" stroke="black" points="3168.11,-620.99 3160.78,-613.33 3161.74,-623.89 3168.11,-620.99"/>
</g>
<!-- trust_coin -->
<g id="node18" class="node">
<title>trust_coin</title>
<ellipse fill="none" stroke="black" cx="1181" cy="-954" rx="47.77" ry="18"/>
<text text-anchor="middle" x="1181" y="-948.95" font-family="Times,serif" font-size="14.00">trust_coin</text>
</g>
<!-- mechanics&#45;&gt;trust_coin -->
<g id="edge18" class="edge">
<title>mechanics&#45;&gt;trust_coin</title>
<path fill="none" stroke="black" d="M1455.3,-1083.13C1400.08,-1057.33 1281.63,-1002.01 1220.03,-973.23"/>
<polygon fill="black" stroke="black" points="1221.84,-970.22 1211.3,-969.15 1218.88,-976.56 1221.84,-970.22"/>
</g>
<!-- rewards_pool -->
<g id="node19" class="node">
<title>rewards_pool</title>
<ellipse fill="none" stroke="black" cx="772" cy="-1026" rx="61.08" ry="18"/>
<text text-anchor="middle" x="772" y="-1020.95" font-family="Times,serif" font-size="14.00">rewards_pool</text>
</g>
<!-- mechanics&#45;&gt;rewards_pool -->
<g id="edge19" class="edge">
<title>mechanics&#45;&gt;rewards_pool</title>
<path fill="none" stroke="black" d="M1436.83,-1092.27C1313.17,-1080.13 984.17,-1047.83 840.6,-1033.74"/>
<polygon fill="black" stroke="black" points="841.16,-1030.27 830.86,-1032.78 840.47,-1037.24 841.16,-1030.27"/>
</g>
<!-- utils -->
<g id="node20" class="node">
<title>utils</title>
<ellipse fill="none" stroke="black" cx="3336" cy="-306" rx="27" ry="18"/>
<text text-anchor="middle" x="3336" y="-300.95" font-family="Times,serif" font-size="14.00">utils</text>
</g>
<!-- mechanics&#45;&gt;utils -->
<g id="edge20" class="edge">
<title>mechanics&#45;&gt;utils</title>
<path fill="none" stroke="black" d="M1535.38,-1097.19C1810.16,-1098.02 3121.86,-1099.06 3293,-1044 3360.36,-1022.33 3425,-1025.76 3425,-955 3425,-955 3425,-955 3425,-449 3425,-399.91 3386.33,-353.84 3359.97,-328.14"/>
<polygon fill="black" stroke="black" points="3362.69,-325.89 3353.01,-321.57 3357.88,-330.98 3362.69,-325.89"/>
</g>
<!-- string&#45;&gt;vector -->
<g id="edge21" class="edge">
<title>string&#45;&gt;vector</title>
<path fill="none" stroke="black" d="M581.78,-156.76C690.59,-141.96 1067.28,-92.44 1380,-72 2263.71,-14.24 3346.63,-17.25 3580.24,-18.66"/>
<polygon fill="black" stroke="black" points="3580.11,-22.16 3590.13,-18.73 3580.16,-15.16 3580.11,-22.16"/>
</g>
<!-- string&#45;&gt;option -->
<g id="edge22" class="edge">
<title>string&#45;&gt;option</title>
<path fill="none" stroke="black" d="M582.97,-159.65C652.12,-156.73 820.71,-149.65 962,-144 1482.32,-123.18 2113.78,-99.27 2287.11,-92.73"/>
<polygon fill="black" stroke="black" points="2287.19,-96.23 2297.05,-92.35 2286.93,-89.23 2287.19,-96.23"/>
</g>
<!-- features&#45;&gt;error -->
<g id="edge25" class="edge">
<title>features&#45;&gt;error</title>
<path fill="none" stroke="black" d="M1084.83,-154.38C1107.1,-150.66 1136.09,-146.31 1162,-144 1699.66,-96.11 1836.53,-126.61 2376,-108 2520.01,-103.03 2690.98,-95.95 2767.48,-92.73"/>
<polygon fill="black" stroke="black" points="2767.57,-96.22 2777.42,-92.31 2767.28,-89.23 2767.57,-96.22"/>
</g>
<!-- features&#45;&gt;vector -->
<g id="edge23" class="edge">
<title>features&#45;&gt;vector</title>
<path fill="none" stroke="black" d="M1083.84,-153.53C1100.03,-150.32 1119.43,-146.69 1137,-144 1411.64,-101.91 1480.87,-91.96 1758,-72 2483.74,-19.73 3371.55,-18.37 3580.47,-18.83"/>
<polygon fill="black" stroke="black" points="3580.34,-22.33 3590.35,-18.86 3580.36,-15.33 3580.34,-22.33"/>
</g>
<!-- features&#45;&gt;signer -->
<g id="edge24" class="edge">
<title>features&#45;&gt;signer</title>
<path fill="none" stroke="black" d="M1010.46,-155.14C986.61,-151.56 955.04,-147.09 927,-144 695.65,-118.5 417.46,-100.22 310.7,-93.66"/>
<polygon fill="black" stroke="black" points="311.13,-90.18 300.94,-93.07 310.71,-97.17 311.13,-90.18"/>
</g>
<!-- option&#45;&gt;vector -->
<g id="edge26" class="edge">
<title>option&#45;&gt;vector</title>
<path fill="none" stroke="black" d="M2367.25,-87.15C2546.59,-77.44 3376.97,-32.48 3580.75,-21.45"/>
<polygon fill="black" stroke="black" points="3580.87,-24.95 3590.66,-20.91 3580.49,-17.96 3580.87,-24.95"/>
</g>
<!-- event&#45;&gt;bcs -->
<g id="edge27" class="edge">
<title>event&#45;&gt;bcs</title>
<path fill="none" stroke="black" d="M1545.51,-365.46C1604.1,-335.92 1766.84,-256.99 1911,-216 1964.95,-200.66 2126.54,-177.93 2200.41,-167.97"/>
<polygon fill="black" stroke="black" points="2200.54,-171.49 2209.98,-166.69 2199.61,-164.55 2200.54,-171.49"/>
</g>
<!-- guid -->
<g id="node21" class="node">
<title>guid</title>
<ellipse fill="none" stroke="black" cx="1502" cy="-306" rx="27.3" ry="18"/>
<text text-anchor="middle" x="1502" y="-300.95" font-family="Times,serif" font-size="14.00">guid</text>
</g>
<!-- event&#45;&gt;guid -->
<g id="edge28" class="edge">
<title>event&#45;&gt;guid</title>
<path fill="none" stroke="black" d="M1517.92,-360.05C1515.62,-352.4 1512.85,-343.16 1510.27,-334.56"/>
<polygon fill="black" stroke="black" points="1513.7,-333.81 1507.47,-325.24 1506.99,-335.82 1513.7,-333.81"/>
</g>
<!-- object&#45;&gt;error -->
<g id="edge31" class="edge">
<title>object&#45;&gt;error</title>
<path fill="none" stroke="black" d="M1170.96,-514.84C1191.34,-511.04 1218.66,-506.45 1243,-504 1457.62,-482.39 2002.92,-516.93 2213,-468 2472.72,-407.51 2497.95,-294.63 2718,-144 2737.01,-130.99 2759.32,-117.83 2776.97,-107.89"/>
<polygon fill="black" stroke="black" points="2778.42,-111.09 2785.45,-103.16 2775.01,-104.98 2778.42,-111.09"/>
</g>
<!-- object&#45;&gt;features -->
<g id="edge32" class="edge">
<title>object&#45;&gt;features</title>
<path fill="none" stroke="black" d="M1110.12,-513.26C1062.41,-499.1 970.48,-464.02 932,-396 908.37,-354.22 914.46,-332.68 932,-288 932.31,-287.21 991.95,-223.14 1025.58,-187.05"/>
<polygon fill="black" stroke="black" points="1027.83,-189.77 1032.09,-180.06 1022.71,-184.99 1027.83,-189.77"/>
</g>
<!-- object&#45;&gt;bcs -->
<g id="edge33" class="edge">
<title>object&#45;&gt;bcs</title>
<path fill="none" stroke="black" d="M1170.98,-515.03C1191.37,-511.31 1218.69,-506.73 1243,-504 1477.41,-477.63 2131.35,-561.95 2299,-396 2355.93,-339.65 2330.48,-285.12 2290,-216 2283.02,-204.08 2272.77,-192.85 2263.21,-183.82"/>
<polygon fill="black" stroke="black" points="2265.63,-181.3 2255.86,-177.21 2260.95,-186.5 2265.63,-181.3"/>
</g>
<!-- object&#45;&gt;vector -->
<g id="edge29" class="edge">
<title>object&#45;&gt;vector</title>
<path fill="none" stroke="black" d="M1107.29,-517.33C913.77,-494.53 -63.02,-363.53 224,-72 254.87,-40.64 3178.6,-21.72 3580.42,-19.27"/>
<polygon fill="black" stroke="black" points="3580.34,-22.77 3590.32,-19.21 3580.29,-15.77 3580.34,-22.77"/>
</g>
<!-- object&#45;&gt;signer -->
<g id="edge30" class="edge">
<title>object&#45;&gt;signer</title>
<path fill="none" stroke="black" d="M1106.81,-519.24C1052.47,-515.41 941.98,-503.55 856,-468 777.39,-435.5 769.23,-406.49 698,-360 549.91,-263.34 369.31,-153.39 297.56,-110.02"/>
<polygon fill="black" stroke="black" points="299.45,-107.07 289.08,-104.89 295.83,-113.06 299.45,-107.07"/>
</g>
<!-- object&#45;&gt;event -->
<g id="edge37" class="edge">
<title>object&#45;&gt;event</title>
<path fill="none" stroke="black" d="M1171.75,-515.52C1243.28,-503.12 1411.71,-473.54 1423,-468 1454.81,-452.39 1484.19,-423.81 1502.76,-403.25"/>
<polygon fill="black" stroke="black" points="1505.29,-405.67 1509.27,-395.85 1500.04,-401.05 1505.29,-405.67"/>
</g>
<!-- object&#45;&gt;guid -->
<g id="edge35" class="edge">
<title>object&#45;&gt;guid</title>
<path fill="none" stroke="black" d="M1130.27,-504.51C1112.77,-472.46 1081.01,-401.29 1117,-360 1161.61,-308.82 1374.01,-305.36 1462.82,-306.21"/>
<polygon fill="black" stroke="black" points="1462.7,-309.71 1472.75,-306.34 1462.79,-302.71 1462.7,-309.71"/>
</g>
<!-- hash -->
<g id="node22" class="node">
<title>hash</title>
<ellipse fill="none" stroke="black" cx="1948" cy="-234" rx="27.81" ry="18"/>
<text text-anchor="middle" x="1948" y="-228.95" font-family="Times,serif" font-size="14.00">hash</text>
</g>
<!-- object&#45;&gt;hash -->
<g id="edge34" class="edge">
<title>object&#45;&gt;hash</title>
<path fill="none" stroke="black" d="M1167.11,-510.97C1191.12,-501.52 1226.67,-486.12 1255,-468 1358.84,-401.58 1352.85,-336.9 1466,-288 1486.29,-279.23 1797.91,-249.16 1909.02,-238.66"/>
<polygon fill="black" stroke="black" points="1909.21,-242.15 1918.84,-237.73 1908.55,-235.18 1909.21,-242.15"/>
</g>
<!-- from_bcs -->
<g id="node23" class="node">
<title>from_bcs</title>
<ellipse fill="none" stroke="black" cx="834" cy="-378" rx="46.23" ry="18"/>
<text text-anchor="middle" x="834" y="-372.95" font-family="Times,serif" font-size="14.00">from_bcs</text>
</g>
<!-- object&#45;&gt;from_bcs -->
<g id="edge36" class="edge">
<title>object&#45;&gt;from_bcs</title>
<path fill="none" stroke="black" d="M1106.31,-521.44C1055.88,-520.51 959.67,-512.44 894,-468 871.73,-452.93 855.51,-426.58 845.58,-406.45"/>
<polygon fill="black" stroke="black" points="848.76,-404.97 841.36,-397.39 842.41,-407.93 848.76,-404.97"/>
</g>
<!-- create_signer -->
<g id="node24" class="node">
<title>create_signer</title>
<ellipse fill="none" stroke="black" cx="1186" cy="-378" rx="60.05" ry="18"/>
<text text-anchor="middle" x="1186" y="-372.95" font-family="Times,serif" font-size="14.00">create_signer</text>
</g>
<!-- object&#45;&gt;create_signer -->
<g id="edge38" class="edge">
<title>object&#45;&gt;create_signer</title>
<path fill="none" stroke="black" d="M1145.55,-503.87C1153.35,-479.78 1167.66,-435.6 1177,-406.77"/>
<polygon fill="black" stroke="black" points="1180.21,-408.22 1179.97,-397.63 1173.55,-406.06 1180.21,-408.22"/>
</g>
<!-- account -->
<g id="node25" class="node">
<title>account</title>
<ellipse fill="none" stroke="black" cx="1789" cy="-450" rx="39.58" ry="18"/>
<text text-anchor="middle" x="1789" y="-444.95" font-family="Times,serif" font-size="14.00">account</text>
</g>
<!-- object&#45;&gt;account -->
<g id="edge39" class="edge">
<title>object&#45;&gt;account</title>
<path fill="none" stroke="black" d="M1171.47,-515.25C1191.83,-511.66 1218.92,-507.15 1243,-504 1424.75,-480.21 1641.84,-462.23 1738.4,-454.78"/>
<polygon fill="black" stroke="black" points="1738.62,-458.27 1748.33,-454.01 1738.09,-451.29 1738.62,-458.27"/>
</g>
<!-- transaction_context -->
<g id="node26" class="node">
<title>transaction_context</title>
<ellipse fill="none" stroke="black" cx="1138" cy="-234" rx="83.08" ry="18"/>
<text text-anchor="middle" x="1138" y="-228.95" font-family="Times,serif" font-size="14.00">transaction_context</text>
</g>
<!-- object&#45;&gt;transaction_context -->
<g id="edge40" class="edge">
<title>object&#45;&gt;transaction_context</title>
<path fill="none" stroke="black" d="M1124.03,-505.95C1114.81,-496.13 1104.07,-482.5 1099,-468 1073.99,-396.43 1105.43,-306.75 1124.84,-262.41"/>
<polygon fill="black" stroke="black" points="1127.92,-264.09 1128.85,-253.54 1121.54,-261.21 1127.92,-264.09"/>
</g>
<!-- fungible_asset&#45;&gt;string -->
<g id="edge42" class="edge">
<title>fungible_asset&#45;&gt;string</title>
<path fill="none" stroke="black" d="M682.05,-580.09C661.47,-571.74 637.96,-558.84 623,-540 538.95,-434.16 542.89,-259.39 548.15,-191.34"/>
<polygon fill="black" stroke="black" points="551.6,-192.05 548.96,-181.79 544.63,-191.45 551.6,-192.05"/>
</g>
<!-- fungible_asset&#45;&gt;error -->
<g id="edge44" class="edge">
<title>fungible_asset&#45;&gt;error</title>
<path fill="none" stroke="black" d="M782.48,-586.22C944.56,-567.51 1397.46,-515.73 1547,-504 1710.47,-491.18 2124.7,-506.88 2284,-468 2515.27,-411.55 2723.51,-189.22 2787.72,-115.15"/>
<polygon fill="black" stroke="black" points="2790.31,-117.5 2794.17,-107.64 2785,-112.95 2790.31,-117.5"/>
</g>
<!-- fungible_asset&#45;&gt;features -->
<g id="edge45" class="edge">
<title>fungible_asset&#45;&gt;features</title>
<path fill="none" stroke="black" d="M716.01,-575.75C693.87,-525.07 637.82,-374.79 708,-288 750.57,-235.36 792.1,-274.34 856,-252 871.54,-246.57 959.45,-205.11 1010.77,-180.74"/>
<polygon fill="black" stroke="black" points="1012.23,-183.92 1019.75,-176.46 1009.22,-177.6 1012.23,-183.92"/>
</g>
<!-- fungible_asset&#45;&gt;option -->
<g id="edge41" class="edge">
<title>fungible_asset&#45;&gt;option</title>
<path fill="none" stroke="black" d="M737.26,-576.09C783.56,-517.53 938.93,-324.92 1008,-288 1096.15,-240.88 1151.31,-313.64 1230,-252 1271.07,-219.83 1233.21,-173.85 1276,-144 1318,-114.7 2088.51,-96.24 2286.79,-91.96"/>
<polygon fill="black" stroke="black" points="2286.77,-95.46 2296.7,-91.75 2286.62,-88.46 2286.77,-95.46"/>
</g>
<!-- fungible_asset&#45;&gt;signer -->
<g id="edge43" class="edge">
<title>fungible_asset&#45;&gt;signer</title>
<path fill="none" stroke="black" d="M681.11,-580.21C655.35,-571.32 622.7,-557.86 597,-540 453.18,-440.03 420.95,-400.45 328,-252 300.98,-208.85 282.51,-152.03 273.15,-118.71"/>
<polygon fill="black" stroke="black" points="276.62,-118.15 270.61,-109.43 269.87,-120 276.62,-118.15"/>
</g>
<!-- fungible_asset&#45;&gt;event -->
<g id="edge46" class="edge">
<title>fungible_asset&#45;&gt;event</title>
<path fill="none" stroke="black" d="M769.25,-580.88C911.99,-542.65 1351.23,-425.01 1484.36,-389.35"/>
<polygon fill="black" stroke="black" points="1484.99,-392.8 1493.74,-386.84 1483.18,-386.04 1484.99,-392.8"/>
</g>
<!-- fungible_asset&#45;&gt;object -->
<g id="edge49" class="edge">
<title>fungible_asset&#45;&gt;object</title>
<path fill="none" stroke="black" d="M777.96,-583.92C861.6,-569.85 1020.85,-543.05 1097.16,-530.21"/>
<polygon fill="black" stroke="black" points="1097.46,-533.71 1106.74,-528.6 1096.3,-526.8 1097.46,-533.71"/>
</g>
<!-- fungible_asset&#45;&gt;create_signer -->
<g id="edge47" class="edge">
<title>fungible_asset&#45;&gt;create_signer</title>
<path fill="none" stroke="black" d="M744.01,-576.44C784.25,-543.95 878.95,-471.58 970,-432 1018.86,-410.76 1077.81,-397.02 1121.77,-388.86"/>
<polygon fill="black" stroke="black" points="1122.18,-392.34 1131.4,-387.13 1120.94,-385.46 1122.18,-392.34"/>
</g>
<!-- aggregator_v2 -->
<g id="node27" class="node">
<title>aggregator_v2</title>
<ellipse fill="none" stroke="black" cx="783" cy="-234" rx="64.15" ry="18"/>
<text text-anchor="middle" x="783" y="-228.95" font-family="Times,serif" font-size="14.00">aggregator_v2</text>
</g>
<!-- fungible_asset&#45;&gt;aggregator_v2 -->
<g id="edge48" class="edge">
<title>fungible_asset&#45;&gt;aggregator_v2</title>
<path fill="none" stroke="black" d="M700.47,-576.89C688.44,-567.47 674.57,-554.58 666,-540 624.76,-469.8 621.53,-440.74 632,-360 636.26,-327.18 629.09,-312.8 651,-288 661.93,-275.62 697.46,-261.71 728.91,-251.25"/>
<polygon fill="black" stroke="black" points="729.95,-254.59 738.38,-248.17 727.79,-247.94 729.95,-254.59"/>
</g>
<!-- function_info -->
<g id="node28" class="node">
<title>function_info</title>
<ellipse fill="none" stroke="black" cx="640" cy="-234" rx="61.08" ry="18"/>
<text text-anchor="middle" x="640" y="-228.95" font-family="Times,serif" font-size="14.00">function_info</text>
</g>
<!-- fungible_asset&#45;&gt;function_info -->
<g id="edge50" class="edge">
<title>fungible_asset&#45;&gt;function_info</title>
<path fill="none" stroke="black" d="M690.6,-578.24C674.06,-569.37 655.1,-556.55 643,-540 623.4,-513.19 627.49,-500.91 623,-468 613.01,-394.72 625.88,-307.61 634.11,-263.56"/>
<polygon fill="black" stroke="black" points="637.53,-264.29 636,-253.81 630.66,-262.96 637.53,-264.29"/>
</g>
<!-- timestamp&#45;&gt;error -->
<g id="edge51" class="edge">
<title>timestamp&#45;&gt;error</title>
<path fill="none" stroke="black" d="M3085.61,-503.63C3095.32,-463.51 3114.32,-362.17 3081,-288 3079.98,-285.73 2976.03,-145.45 2974,-144 2935.8,-116.7 2882.9,-103.02 2847.17,-96.48"/>
<polygon fill="black" stroke="black" points="2848.15,-93.1 2837.71,-94.86 2846.97,-100 2848.15,-93.1"/>
</g>
<!-- system_addresses -->
<g id="node29" class="node">
<title>system_addresses</title>
<ellipse fill="none" stroke="black" cx="1915" cy="-306" rx="76.94" ry="18"/>
<text text-anchor="middle" x="1915" y="-300.95" font-family="Times,serif" font-size="14.00">system_addresses</text>
</g>
<!-- timestamp&#45;&gt;system_addresses -->
<g id="edge52" class="edge">
<title>timestamp&#45;&gt;system_addresses</title>
<path fill="none" stroke="black" d="M3033.14,-515.91C2949.75,-506.93 2772.43,-487.4 2623,-468 2567.34,-460.77 2174.25,-418.89 2123,-396 2100.24,-385.84 2101.83,-372.03 2080,-360 2049.13,-342.98 2011.94,-330.43 1980.7,-321.83"/>
<polygon fill="black" stroke="black" points="1981.94,-318.54 1971.38,-319.35 1980.13,-325.31 1981.94,-318.54"/>
</g>
<!-- simple_map&#45;&gt;error -->
<g id="edge55" class="edge">
<title>simple_map&#45;&gt;error</title>
<path fill="none" stroke="black" d="M3153.55,-150.09C3144.47,-147.95 3134.94,-145.81 3126,-144 3026.24,-123.77 2907.72,-105.53 2847.45,-96.67"/>
<polygon fill="black" stroke="black" points="2848.1,-93.23 2837.69,-95.24 2847.08,-100.15 2848.1,-93.23"/>
</g>
<!-- simple_map&#45;&gt;vector -->
<g id="edge53" class="edge">
<title>simple_map&#45;&gt;vector</title>
<path fill="none" stroke="black" d="M3235.45,-148.27C3316.67,-121.39 3504.96,-59.07 3586.82,-31.97"/>
<polygon fill="black" stroke="black" points="3587.81,-35.33 3596.2,-28.86 3585.61,-28.68 3587.81,-35.33"/>
</g>
<!-- simple_map&#45;&gt;option -->
<g id="edge54" class="edge">
<title>simple_map&#45;&gt;option</title>
<path fill="none" stroke="black" d="M3143.18,-155.86C3106.28,-152.38 3056.19,-147.75 3012,-144 2773.57,-123.74 2487.78,-102.39 2378.51,-94.34"/>
<polygon fill="black" stroke="black" points="2379.02,-90.86 2368.79,-93.62 2378.51,-97.84 2379.02,-90.86"/>
</g>
<!-- smart_table&#45;&gt;type_info -->
<g id="edge59" class="edge">
<title>smart_table&#45;&gt;type_info</title>
<path fill="none" stroke="black" d="M3182,-302.84C2933.39,-292.9 1911,-252 1911,-252 1857.74,-248.81 1797.1,-243.84 1754.18,-240.1"/>
<polygon fill="black" stroke="black" points="1754.62,-236.62 1744.35,-239.23 1754.01,-243.59 1754.62,-236.62"/>
</g>
<!-- smart_table&#45;&gt;error -->
<g id="edge58" class="edge">
<title>smart_table&#45;&gt;error</title>
<path fill="none" stroke="black" d="M3227.06,-288.05C3216.62,-269.2 3198.06,-238.44 3177,-216 3174.73,-213.59 3085.02,-145.35 3082,-144 3003.89,-109.14 2903.2,-97.15 2848.23,-93.07"/>
<polygon fill="black" stroke="black" points="2848.61,-89.59 2838.4,-92.4 2848.14,-96.57 2848.61,-89.59"/>
</g>
<!-- smart_table&#45;&gt;vector -->
<g id="edge56" class="edge">
<title>smart_table&#45;&gt;vector</title>
<path fill="none" stroke="black" d="M3277.52,-294.01C3331.22,-279.7 3418.65,-256.03 3425,-252 3430.75,-248.34 3555.07,-102.44 3605.26,-43.41"/>
<polygon fill="black" stroke="black" points="3607.86,-45.76 3611.67,-35.87 3602.53,-41.22 3607.86,-45.76"/>
</g>
<!-- smart_table&#45;&gt;option -->
<g id="edge57" class="edge">
<title>smart_table&#45;&gt;option</title>
<path fill="none" stroke="black" d="M3196.27,-293.4C3076.34,-258.41 2722.88,-155.63 2670,-144 2566.27,-121.18 2442.49,-104.32 2377.66,-96.27"/>
<polygon fill="black" stroke="black" points="2378.11,-92.8 2367.76,-95.06 2377.26,-99.75 2378.11,-92.8"/>
</g>
<!-- smart_table&#45;&gt;simple_map -->
<g id="edge60" class="edge">
<title>smart_table&#45;&gt;simple_map</title>
<path fill="none" stroke="black" d="M3231.22,-287.59C3224.6,-263.5 3212.59,-219.75 3204.7,-191.03"/>
<polygon fill="black" stroke="black" points="3208.12,-190.29 3202.1,-181.57 3201.37,-192.14 3208.12,-190.29"/>
</g>
<!-- math64 -->
<g id="node30" class="node">
<title>math64</title>
<ellipse fill="none" stroke="black" cx="3377" cy="-234" rx="39.07" ry="18"/>
<text text-anchor="middle" x="3377" y="-228.95" font-family="Times,serif" font-size="14.00">math64</text>
</g>
<!-- smart_table&#45;&gt;math64 -->
<g id="edge61" class="edge">
<title>smart_table&#45;&gt;math64</title>
<path fill="none" stroke="black" d="M3265.22,-290.5C3287.18,-279.59 3317.4,-264.59 3340.88,-252.93"/>
<polygon fill="black" stroke="black" points="3342.38,-256.09 3349.79,-248.51 3339.27,-249.82 3342.38,-256.09"/>
</g>
<!-- table_with_length -->
<g id="node31" class="node">
<title>table_with_length</title>
<ellipse fill="none" stroke="black" cx="3607" cy="-162" rx="77.45" ry="18"/>
<text text-anchor="middle" x="3607" y="-156.95" font-family="Times,serif" font-size="14.00">table_with_length</text>
</g>
<!-- smart_table&#45;&gt;table_with_length -->
<g id="edge62" class="edge">
<title>smart_table&#45;&gt;table_with_length</title>
<path fill="none" stroke="black" d="M3277.26,-293.81C3284.81,-291.83 3292.63,-289.82 3300,-288 3369.93,-270.75 3391.15,-278.8 3458,-252 3500.97,-234.78 3546.03,-206.17 3575.19,-186.05"/>
<polygon fill="black" stroke="black" points="3577.02,-189.04 3583.21,-180.45 3573,-183.31 3577.02,-189.04"/>
</g>
<!-- aptos_hash -->
<g id="node32" class="node">
<title>aptos_hash</title>
<ellipse fill="none" stroke="black" cx="3116" cy="-234" rx="51.86" ry="18"/>
<text text-anchor="middle" x="3116" y="-228.95" font-family="Times,serif" font-size="14.00">aptos_hash</text>
</g>
<!-- smart_table&#45;&gt;aptos_hash -->
<g id="edge63" class="edge">
<title>smart_table&#45;&gt;aptos_hash</title>
<path fill="none" stroke="black" d="M3209.96,-289.81C3192.78,-279.79 3170.07,-266.54 3151.27,-255.58"/>
<polygon fill="black" stroke="black" points="3153.28,-252.7 3142.88,-250.68 3149.76,-258.74 3153.28,-252.7"/>
</g>
<!-- session&#45;&gt;vector -->
<g id="edge64" class="edge">
<title>session&#45;&gt;vector</title>
<path fill="none" stroke="black" d="M3168.67,-577.56C3203.79,-545.8 3289.1,-472.76 3373,-432 3500.18,-370.22 3978,-376.39 3978,-235 3978,-235 3978,-235 3978,-161 3978,-116.06 3966.46,-98.27 3930,-72 3889.31,-42.68 3745.52,-27.9 3671.21,-22.07"/>
<polygon fill="black" stroke="black" points="3671.66,-18.59 3661.42,-21.33 3671.13,-25.57 3671.66,-18.59"/>
</g>
<!-- session&#45;&gt;option -->
<g id="edge65" class="edge">
<title>session&#45;&gt;option</title>
<path fill="none" stroke="black" d="M3153.71,-575.86C3154.74,-556.82 3153.79,-525.9 3140,-504 2969.61,-233.38 2815.39,-259.03 2517,-144 2469.49,-125.69 2412.97,-110.32 2375.23,-100.92"/>
<polygon fill="black" stroke="black" points="2376.16,-97.55 2365.62,-98.56 2374.49,-104.35 2376.16,-97.55"/>
</g>
<!-- session&#45;&gt;object -->
<g id="edge66" class="edge">
<title>session&#45;&gt;object</title>
<path fill="none" stroke="black" d="M3114.49,-591.69C2865.62,-583.04 1454.47,-533.94 1184.61,-524.55"/>
<polygon fill="black" stroke="black" points="1184.96,-521.06 1174.85,-524.21 1184.72,-528.06 1184.96,-521.06"/>
</g>
<!-- session&#45;&gt;timestamp -->
<g id="edge67" class="edge">
<title>session&#45;&gt;timestamp</title>
<path fill="none" stroke="black" d="M3136.24,-577.46C3127.31,-568.65 3115.92,-557.43 3105.81,-547.46"/>
<polygon fill="black" stroke="black" points="3108.36,-545.06 3098.78,-540.53 3103.44,-550.04 3108.36,-545.06"/>
</g>
<!-- smart_vector -->
<g id="node33" class="node">
<title>smart_vector</title>
<ellipse fill="none" stroke="black" cx="3479" cy="-306" rx="59.54" ry="18"/>
<text text-anchor="middle" x="3479" y="-300.95" font-family="Times,serif" font-size="14.00">smart_vector</text>
</g>
<!-- session&#45;&gt;smart_vector -->
<g id="edge68" class="edge">
<title>session&#45;&gt;smart_vector</title>
<path fill="none" stroke="black" d="M3160.7,-576.17C3177.14,-545.34 3215.1,-478.71 3259,-432 3295.28,-393.4 3308.15,-386.54 3354,-360 3378.24,-345.97 3406.9,-333.55 3430.66,-324.26"/>
<polygon fill="black" stroke="black" points="3431.7,-327.61 3439.78,-320.76 3429.19,-321.07 3431.7,-327.61"/>
</g>
<!-- trust_coin&#45;&gt;string -->
<g id="edge71" class="edge">
<title>trust_coin&#45;&gt;string</title>
<path fill="none" stroke="black" d="M1134.49,-949.44C1066.15,-943.45 935.02,-929.04 827,-900 785,-888.71 682.5,-850.03 645,-828 623.22,-815.2 623.49,-803.51 601,-792 545.73,-763.7 523.59,-779.22 466,-756 404.74,-731.31 377.57,-735.32 336,-684 204.56,-521.72 237.01,-370.06 378,-216 411.03,-179.91 467.91,-168.11 507.39,-164.41"/>
<polygon fill="black" stroke="black" points="507.58,-167.91 517.28,-163.64 507.03,-160.93 507.58,-167.91"/>
</g>
<!-- trust_coin&#45;&gt;vector -->
<g id="edge69" class="edge">
<title>trust_coin&#45;&gt;vector</title>
<path fill="none" stroke="black" d="M1228.92,-952.62C1494.55,-950.35 2780.54,-937.52 2953,-900 3224.26,-840.99 3246.77,-715.12 3487,-576 3728.37,-436.22 4054,-585.92 4054,-307 4054,-307 4054,-307 4054,-161 4054,-113.79 4035.81,-97.39 3996,-72 3942.97,-38.18 3758.12,-25.19 3671.47,-20.87"/>
<polygon fill="black" stroke="black" points="3671.84,-17.39 3661.68,-20.41 3671.5,-24.38 3671.84,-17.39"/>
</g>
<!-- trust_coin&#45;&gt;option -->
<g id="edge70" class="edge">
<title>trust_coin&#45;&gt;option</title>
<path fill="none" stroke="black" d="M1229.16,-953.36C1477.73,-954.59 2604,-952.36 2604,-811 2604,-811 2604,-811 2604,-521 2604,-339.01 2428.11,-171.17 2359.74,-112.79"/>
<polygon fill="black" stroke="black" points="2362.26,-110.35 2352.36,-106.58 2357.75,-115.7 2362.26,-110.35"/>
</g>
<!-- trust_coin&#45;&gt;signer -->
<g id="edge72" class="edge">
<title>trust_coin&#45;&gt;signer</title>
<path fill="none" stroke="black" d="M1133.43,-951.15C1040.14,-946.89 826.91,-933.99 651,-900 425.2,-856.38 336.78,-895.57 154,-756 12.82,-648.2 51.52,-530.88 100,-360 128.46,-259.7 206.1,-160.12 244.26,-115.43"/>
<polygon fill="black" stroke="black" points="246.88,-117.74 250.77,-107.89 241.59,-113.16 246.88,-117.74"/>
</g>
<!-- trust_coin&#45;&gt;event -->
<g id="edge73" class="edge">
<title>trust_coin&#45;&gt;event</title>
<path fill="none" stroke="black" d="M1196.75,-936.61C1219.01,-911.64 1257,-861.61 1257,-811 1257,-811 1257,-811 1257,-665 1257,-538.64 1380.3,-564.4 1462,-468 1478.89,-448.08 1495.47,-423.46 1507.08,-405.17"/>
<polygon fill="black" stroke="black" points="1510,-407.09 1512.34,-396.75 1504.07,-403.38 1510,-407.09"/>
</g>
<!-- trust_coin&#45;&gt;object -->
<g id="edge74" class="edge">
<title>trust_coin&#45;&gt;object</title>
<path fill="none" stroke="black" d="M1181,-935.51C1181,-908.71 1181,-855.87 1181,-811 1181,-811 1181,-811 1181,-665 1181,-623.55 1164.67,-577.86 1152.62,-549.79"/>
<polygon fill="black" stroke="black" points="1155.97,-548.7 1148.71,-540.98 1149.57,-551.54 1155.97,-548.7"/>
</g>
<!-- trust_coin&#45;&gt;fungible_asset -->
<g id="edge76" class="edge">
<title>trust_coin&#45;&gt;fungible_asset</title>
<path fill="none" stroke="black" d="M1143.15,-942.66C1066.37,-920.08 890.16,-859.88 779,-756 751.6,-730.39 747.36,-719.41 735,-684 728.21,-664.53 725.5,-641.39 724.47,-623.58"/>
<polygon fill="black" stroke="black" points="727.97,-623.57 724.05,-613.73 720.97,-623.87 727.97,-623.57"/>
</g>
<!-- trust_coin&#45;&gt;timestamp -->
<g id="edge81" class="edge">
<title>trust_coin&#45;&gt;timestamp</title>
<path fill="none" stroke="black" d="M1228.99,-952.14C1446.31,-948.13 2339.7,-930.09 2618,-900 2809,-879.35 3041,-1003.12 3041,-811 3041,-811 3041,-811 3041,-665 3041,-623.85 3056.76,-578.42 3068.49,-550.29"/>
<polygon fill="black" stroke="black" points="3071.56,-552.01 3072.31,-541.44 3065.13,-549.24 3071.56,-552.01"/>
</g>
<!-- trust_coin&#45;&gt;smart_table -->
<g id="edge82" class="edge">
<title>trust_coin&#45;&gt;smart_table</title>
<path fill="none" stroke="black" d="M1229.14,-953.04C1466.82,-953.03 2516.71,-950.06 2839,-900 2954.95,-881.99 3002.91,-903.18 3093,-828 3246.21,-700.15 3243.53,-424.99 3238.25,-335.65"/>
<polygon fill="black" stroke="black" points="3241.76,-335.57 3237.61,-325.82 3234.77,-336.03 3241.76,-335.57"/>
</g>
<!-- trust_coin&#45;&gt;function_info -->
<g id="edge75" class="edge">
<title>trust_coin&#45;&gt;function_info</title>
<path fill="none" stroke="black" d="M1138.47,-945.54C1090.13,-936.61 1009.08,-920.3 941,-900 724.65,-835.49 678.25,-796.93 466,-720 420.01,-703.33 390.37,-723.84 362,-684 297.04,-592.77 310.56,-531.49 362,-432 410.31,-338.55 525.67,-279.86 591.6,-252.74"/>
<polygon fill="black" stroke="black" points="592.76,-256.05 600.73,-249.07 590.15,-249.55 592.76,-256.05"/>
</g>
<!-- dispatchable_fungible_asset -->
<g id="node34" class="node">
<title>dispatchable_fungible_asset</title>
<ellipse fill="none" stroke="black" cx="886" cy="-666" rx="114.82" ry="18"/>
<text text-anchor="middle" x="886" y="-660.95" font-family="Times,serif" font-size="14.00">dispatchable_fungible_asset</text>
</g>
<!-- trust_coin&#45;&gt;dispatchable_fungible_asset -->
<g id="edge77" class="edge">
<title>trust_coin&#45;&gt;dispatchable_fungible_asset</title>
<path fill="none" stroke="black" d="M1170.93,-935.97C1145.64,-894.37 1075.52,-786.17 993,-720 976.98,-707.15 957.34,-696.31 939.27,-687.85"/>
<polygon fill="black" stroke="black" points="940.79,-684.7 930.24,-683.77 937.91,-691.07 940.79,-684.7"/>
</g>
<!-- primary_fungible_store -->
<g id="node35" class="node">
<title>primary_fungible_store</title>
<ellipse fill="none" stroke="black" cx="886" cy="-738" rx="98.44" ry="18"/>
<text text-anchor="middle" x="886" y="-732.95" font-family="Times,serif" font-size="14.00">primary_fungible_store</text>
</g>
<!-- trust_coin&#45;&gt;primary_fungible_store -->
<g id="edge78" class="edge">
<title>trust_coin&#45;&gt;primary_fungible_store</title>
<path fill="none" stroke="black" d="M1159.78,-937.61C1108.75,-900.58 978.85,-806.36 918.16,-762.33"/>
<polygon fill="black" stroke="black" points="920.41,-759.64 910.26,-756.6 916.3,-765.31 920.41,-759.64"/>
</g>
<!-- coin -->
<g id="node36" class="node">
<title>coin</title>
<ellipse fill="none" stroke="black" cx="1675" cy="-810" rx="27" ry="18"/>
<text text-anchor="middle" x="1675" y="-804.95" font-family="Times,serif" font-size="14.00">coin</text>
</g>
<!-- trust_coin&#45;&gt;coin -->
<g id="edge79" class="edge">
<title>trust_coin&#45;&gt;coin</title>
<path fill="none" stroke="black" d="M1218.13,-942.33C1310.35,-915.82 1548.9,-847.25 1639.44,-821.22"/>
<polygon fill="black" stroke="black" points="1640.36,-824.6 1649.01,-818.47 1638.43,-817.87 1640.36,-824.6"/>
</g>
<!-- aptos_coin -->
<g id="node37" class="node">
<title>aptos_coin</title>
<ellipse fill="none" stroke="black" cx="2079" cy="-882" rx="50.84" ry="18"/>
<text text-anchor="middle" x="2079" y="-876.95" font-family="Times,serif" font-size="14.00">aptos_coin</text>
</g>
<!-- trust_coin&#45;&gt;aptos_coin -->
<g id="edge80" class="edge">
<title>trust_coin&#45;&gt;aptos_coin</title>
<path fill="none" stroke="black" d="M1227.7,-949.36C1378.08,-937.64 1849.66,-900.88 2018.29,-887.73"/>
<polygon fill="black" stroke="black" points="2018.46,-891.23 2028.16,-886.96 2017.92,-884.25 2018.46,-891.23"/>
</g>
<!-- string_utils -->
<g id="node38" class="node">
<title>string_utils</title>
<ellipse fill="none" stroke="black" cx="540" cy="-810" rx="52.38" ry="18"/>
<text text-anchor="middle" x="540" y="-804.95" font-family="Times,serif" font-size="14.00">string_utils</text>
</g>
<!-- trust_coin&#45;&gt;string_utils -->
<g id="edge83" class="edge">
<title>trust_coin&#45;&gt;string_utils</title>
<path fill="none" stroke="black" d="M1133.6,-951.12C1054.56,-947.08 891.35,-934.92 758,-900 692.92,-882.96 621.44,-851.05 578.67,-830.43"/>
<polygon fill="black" stroke="black" points="580.32,-827.34 569.79,-826.11 577.25,-833.64 580.32,-827.34"/>
</g>
<!-- rewards_pool&#45;&gt;object -->
<g id="edge84" class="edge">
<title>rewards_pool&#45;&gt;object</title>
<path fill="none" stroke="black" d="M786.99,-1008.28C823.82,-966.88 921.01,-855.73 993,-756 1045.11,-683.81 1099.17,-593.41 1124.78,-549.45"/>
<polygon fill="black" stroke="black" points="1127.77,-551.27 1129.76,-540.87 1121.71,-547.76 1127.77,-551.27"/>
</g>
<!-- rewards_pool&#45;&gt;fungible_asset -->
<g id="edge85" class="edge">
<title>rewards_pool&#45;&gt;fungible_asset</title>
<path fill="none" stroke="black" d="M731.06,-1012.22C663.33,-988.54 530.33,-930.66 479,-828 428.84,-727.68 590.05,-647.31 675.04,-613"/>
<polygon fill="black" stroke="black" points="676.09,-616.35 684.1,-609.41 673.51,-609.84 676.09,-616.35"/>
</g>
<!-- rewards_pool&#45;&gt;trust_coin -->
<g id="edge88" class="edge">
<title>rewards_pool&#45;&gt;trust_coin</title>
<path fill="none" stroke="black" d="M823.8,-1016.13C901.55,-1002.83 1047.72,-977.81 1126.83,-964.27"/>
<polygon fill="black" stroke="black" points="1127.25,-967.75 1136.51,-962.61 1126.07,-960.85 1127.25,-967.75"/>
</g>
<!-- rewards_pool&#45;&gt;dispatchable_fungible_asset -->
<g id="edge86" class="edge">
<title>rewards_pool&#45;&gt;dispatchable_fungible_asset</title>
<path fill="none" stroke="black" d="M746.7,-1009.16C713.11,-985.94 658,-939.27 658,-883 658,-883 658,-883 658,-809 658,-738.21 738.17,-701.45 803.43,-683.24"/>
<polygon fill="black" stroke="black" points="803.95,-686.73 812.71,-680.76 802.15,-679.96 803.95,-686.73"/>
</g>
<!-- rewards_pool&#45;&gt;primary_fungible_store -->
<g id="edge87" class="edge">
<title>rewards_pool&#45;&gt;primary_fungible_store</title>
<path fill="none" stroke="black" d="M770,-1007.58C766.17,-966.49 761.77,-861.73 806,-792 814.11,-779.22 826.53,-768.84 839.2,-760.76"/>
<polygon fill="black" stroke="black" points="840.74,-763.91 847.55,-755.8 837.17,-757.89 840.74,-763.91"/>
</g>
<!-- utils&#45;&gt;vector -->
<g id="edge89" class="edge">
<title>utils&#45;&gt;vector</title>
<path fill="none" stroke="black" d="M3360.85,-298.49C3375.14,-294.95 3393.49,-290.74 3410,-288 3486.48,-275.3 3705.09,-309.58 3757,-252 3813.19,-189.68 3752.24,-137.67 3700,-72 3688.89,-58.03 3673.18,-46.08 3659.09,-37.07"/>
<polygon fill="black" stroke="black" points="3661.32,-34.33 3650.96,-32.11 3657.68,-40.31 3661.32,-34.33"/>
</g>
<!-- utils&#45;&gt;aptos_hash -->
<g id="edge90" class="edge">
<title>utils&#45;&gt;aptos_hash</title>
<path fill="none" stroke="black" d="M3314.71,-294.56C3309.62,-292.25 3304.17,-289.92 3299,-288 3255.88,-271.95 3205.58,-257.69 3168.65,-248.02"/>
<polygon fill="black" stroke="black" points="3169.66,-244.67 3159.1,-245.55 3167.9,-251.44 3169.66,-244.67"/>
</g>
<!-- from_bcs&#45;&gt;string -->
<g id="edge91" class="edge">
<title>from_bcs&#45;&gt;string</title>
<path fill="none" stroke="black" d="M827.39,-359.82C818.52,-339.24 800.72,-305.36 774,-288 696.8,-237.84 636.25,-315.93 570,-252 554.09,-236.65 549.9,-211.48 549.36,-191.82"/>
<polygon fill="black" stroke="black" points="552.86,-191.96 549.42,-181.94 545.86,-191.92 552.86,-191.96"/>
</g>
<!-- account&#45;&gt;type_info -->
<g id="edge98" class="edge">
<title>account&#45;&gt;type_info</title>
<path fill="none" stroke="black" d="M1778.18,-432.22C1771.84,-421.99 1763.94,-408.52 1758,-396 1736.59,-350.88 1717.52,-295.91 1706.89,-263.27"/>
<polygon fill="black" stroke="black" points="1710.22,-262.21 1703.83,-253.76 1703.56,-264.35 1710.22,-262.21"/>
</g>
<!-- account&#45;&gt;error -->
<g id="edge95" class="edge">
<title>account&#45;&gt;error</title>
<path fill="none" stroke="black" d="M1828.63,-447.67C1936.15,-443.64 2231.36,-429.73 2322,-396 2504.36,-328.14 2509.52,-237.79 2680,-144 2710.06,-127.46 2746.35,-112.9 2772.61,-103.25"/>
<polygon fill="black" stroke="black" points="2773.56,-106.63 2781.77,-99.93 2771.18,-100.04 2773.56,-106.63"/>
</g>
<!-- account&#45;&gt;features -->
<g id="edge96" class="edge">
<title>account&#45;&gt;features</title>
<path fill="none" stroke="black" d="M1772.8,-433.52C1762.55,-423.33 1749.34,-409.43 1739,-396 1704.56,-351.23 1718.41,-320.2 1672,-288 1578.27,-222.96 1229.68,-181.51 1098.42,-167.92"/>
<polygon fill="black" stroke="black" points="1098.96,-164.45 1088.65,-166.91 1098.24,-171.42 1098.96,-164.45"/>
</g>
<!-- account&#45;&gt;bcs -->
<g id="edge97" class="edge">
<title>account&#45;&gt;bcs</title>
<path fill="none" stroke="black" d="M1828.74,-447.65C1939.47,-443.48 2245.35,-429.05 2275,-396 2327.37,-337.6 2280.68,-236.18 2253.83,-188.79"/>
<polygon fill="black" stroke="black" points="2256.95,-187.19 2248.89,-180.31 2250.9,-190.71 2256.95,-187.19"/>
</g>
<!-- account&#45;&gt;vector -->
<g id="edge92" class="edge">
<title>account&#45;&gt;vector</title>
<path fill="none" stroke="black" d="M1785.56,-431.59C1780.59,-404.9 1772,-352.19 1772,-307 1772,-307 1772,-307 1772,-161 1772,72.6 2057.69,-96.46 2290,-72 2793.86,-18.95 3409.69,-17.83 3580.31,-18.66"/>
<polygon fill="black" stroke="black" points="3580.28,-22.16 3590.3,-18.71 3580.32,-15.16 3580.28,-22.16"/>
</g>
<!-- account&#45;&gt;option -->
<g id="edge93" class="edge">
<title>account&#45;&gt;option</title>
<path fill="none" stroke="black" d="M1828.32,-447.56C1941.86,-443.04 2264.34,-427.51 2299,-396 2339.17,-359.49 2336.93,-187.87 2334.35,-119.35"/>
<polygon fill="black" stroke="black" points="2337.86,-119.54 2333.95,-109.69 2330.86,-119.82 2337.86,-119.54"/>
</g>
<!-- account&#45;&gt;signer -->
<g id="edge94" class="edge">
<title>account&#45;&gt;signer</title>
<path fill="none" stroke="black" d="M1767.73,-434.49C1711.84,-396.51 1563.42,-296.47 1538,-288 1330,-218.68 1262.42,-287.14 1046,-252 853.63,-220.77 812.06,-182.44 621,-144 509.77,-121.62 377.19,-104.27 309.89,-96.11"/>
<polygon fill="black" stroke="black" points="310.34,-92.64 300,-94.92 309.51,-99.59 310.34,-92.64"/>
</g>
<!-- account&#45;&gt;event -->
<g id="edge106" class="edge">
<title>account&#45;&gt;event</title>
<path fill="none" stroke="black" d="M1753.42,-441.91C1709.43,-432.81 1632.49,-415.83 1568,-396 1564.93,-395.06 1561.77,-394.01 1558.61,-392.92"/>
<polygon fill="black" stroke="black" points="1560.05,-389.72 1549.46,-389.61 1557.67,-396.3 1560.05,-389.72"/>
</g>
<!-- account&#45;&gt;guid -->
<g id="edge104" class="edge">
<title>account&#45;&gt;guid</title>
<path fill="none" stroke="black" d="M1756.52,-439.29C1726.6,-429.84 1681.31,-414.26 1644,-396 1601.92,-375.41 1556.6,-345.51 1528.76,-326.16"/>
<polygon fill="black" stroke="black" points="1531.11,-323.53 1520.92,-320.66 1527.09,-329.26 1531.11,-323.53"/>
</g>
<!-- account&#45;&gt;hash -->
<g id="edge101" class="edge">
<title>account&#45;&gt;hash</title>
<path fill="none" stroke="black" d="M1788.59,-431.54C1788.76,-399.39 1793.57,-330.27 1829,-288 1849.6,-263.43 1883.87,-249.82 1910.36,-242.57"/>
<polygon fill="black" stroke="black" points="1910.87,-246.05 1919.7,-240.2 1909.15,-239.26 1910.87,-246.05"/>
</g>
<!-- account&#45;&gt;from_bcs -->
<g id="edge105" class="edge">
<title>account&#45;&gt;from_bcs</title>
<path fill="none" stroke="black" d="M1750.08,-446.15C1601.1,-435.23 1066.6,-396.05 890.62,-383.15"/>
<polygon fill="black" stroke="black" points="891.05,-379.67 880.82,-382.43 890.54,-386.65 891.05,-379.67"/>
</g>
<!-- account&#45;&gt;create_signer -->
<g id="edge107" class="edge">
<title>account&#45;&gt;create_signer</title>
<path fill="none" stroke="black" d="M1750.82,-444.57C1650.65,-432.94 1379.32,-401.44 1252.72,-386.75"/>
<polygon fill="black" stroke="black" points="1253.14,-383.27 1242.8,-385.59 1252.33,-390.22 1253.14,-383.27"/>
</g>
<!-- account&#45;&gt;system_addresses -->
<g id="edge100" class="edge">
<title>account&#45;&gt;system_addresses</title>
<path fill="none" stroke="black" d="M1828.19,-446.49C1862.19,-441.99 1909.53,-429.65 1933,-396 1945.51,-378.06 1939.17,-353.42 1930.74,-334.61"/>
<polygon fill="black" stroke="black" points="1933.89,-333.09 1926.33,-325.67 1927.61,-336.18 1933.89,-333.09"/>
</g>
<!-- table -->
<g id="node39" class="node">
<title>table</title>
<ellipse fill="none" stroke="black" cx="3892" cy="-90" rx="28.83" ry="18"/>
<text text-anchor="middle" x="3892" y="-84.95" font-family="Times,serif" font-size="14.00">table</text>
</g>
<!-- account&#45;&gt;table -->
<g id="edge99" class="edge">
<title>account&#45;&gt;table</title>
<path fill="none" stroke="black" d="M1828.79,-447.79C1973.84,-443.25 2487.91,-425.89 2911,-396 2953.58,-392.99 3634.51,-334.03 3676,-324 3759.75,-303.76 3793.94,-311.77 3856,-252 3891.87,-217.46 3895.62,-155.58 3894.34,-119.43"/>
<polygon fill="black" stroke="black" points="3897.85,-119.54 3893.83,-109.74 3890.86,-119.91 3897.85,-119.54"/>
</g>
<!-- ed25519 -->
<g id="node40" class="node">
<title>ed25519</title>
<ellipse fill="none" stroke="black" cx="2129" cy="-306" rx="42.65" ry="18"/>
<text text-anchor="middle" x="2129" y="-300.95" font-family="Times,serif" font-size="14.00">ed25519</text>
</g>
<!-- account&#45;&gt;ed25519 -->
<g id="edge102" class="edge">
<title>account&#45;&gt;ed25519</title>
<path fill="none" stroke="black" d="M1822.09,-439.73C1855.2,-430.1 1907.34,-413.94 1951,-396 2002.05,-375.02 2058.69,-345.57 2094.07,-326.39"/>
<polygon fill="black" stroke="black" points="2095.47,-329.62 2102.58,-321.75 2092.12,-323.47 2095.47,-329.62"/>
</g>
<!-- multi_ed25519 -->
<g id="node41" class="node">
<title>multi_ed25519</title>
<ellipse fill="none" stroke="black" cx="2199" cy="-378" rx="67.22" ry="18"/>
<text text-anchor="middle" x="2199" y="-372.95" font-family="Times,serif" font-size="14.00">multi_ed25519</text>
</g>
<!-- account&#45;&gt;multi_ed25519 -->
<g id="edge103" class="edge">
<title>account&#45;&gt;multi_ed25519</title>
<path fill="none" stroke="black" d="M1825.75,-442.73C1894.85,-430.93 2045.06,-405.28 2132.39,-390.37"/>
<polygon fill="black" stroke="black" points="2132.74,-393.86 2142.01,-388.73 2131.56,-386.96 2132.74,-393.86"/>
</g>
<!-- chain_id -->
<g id="node42" class="node">
<title>chain_id</title>
<ellipse fill="none" stroke="black" cx="1881" cy="-378" rx="42.65" ry="18"/>
<text text-anchor="middle" x="1881" y="-372.95" font-family="Times,serif" font-size="14.00">chain_id</text>
</g>
<!-- account&#45;&gt;chain_id -->
<g id="edge108" class="edge">
<title>account&#45;&gt;chain_id</title>
<path fill="none" stroke="black" d="M1808.51,-434.15C1821.15,-424.54 1837.82,-411.85 1852,-401.07"/>
<polygon fill="black" stroke="black" points="1853.84,-404.06 1859.68,-395.22 1849.6,-398.49 1853.84,-404.06"/>
</g>
<!-- transaction_context&#45;&gt;string -->
<g id="edge110" class="edge">
<title>transaction_context&#45;&gt;string</title>
<path fill="none" stroke="black" d="M1066.61,-224.49C943.15,-209.76 693.41,-179.98 593.61,-168.08"/>
<polygon fill="black" stroke="black" points="594.05,-164.61 583.71,-166.9 593.22,-171.56 594.05,-164.61"/>
</g>
<!-- transaction_context&#45;&gt;error -->
<g id="edge111" class="edge">
<title>transaction_context&#45;&gt;error</title>
<path fill="none" stroke="black" d="M1209.37,-224.39C1353.87,-207.19 1691.55,-168.15 1976,-144 2280.26,-118.16 2648.1,-98.92 2768.08,-92.94"/>
<polygon fill="black" stroke="black" points="2767.9,-96.46 2777.72,-92.47 2767.56,-89.47 2767.9,-96.46"/>
</g>
<!-- transaction_context&#45;&gt;features -->
<g id="edge112" class="edge">
<title>transaction_context&#45;&gt;features</title>
<path fill="none" stroke="black" d="M1116.67,-216.41C1104.62,-207.04 1089.41,-195.21 1076.37,-185.07"/>
<polygon fill="black" stroke="black" points="1078.57,-182.34 1068.53,-178.97 1074.27,-187.87 1078.57,-182.34"/>
</g>
<!-- transaction_context&#45;&gt;option -->
<g id="edge109" class="edge">
<title>transaction_context&#45;&gt;option</title>
<path fill="none" stroke="black" d="M1137.12,-215.75C1137.12,-195.08 1140.66,-161.13 1162,-144 1206.59,-108.21 2075.45,-94.41 2286.91,-91.58"/>
<polygon fill="black" stroke="black" points="2286.72,-95.08 2296.67,-91.45 2286.63,-88.08 2286.72,-95.08"/>
</g>
<!-- aggregator_v2&#45;&gt;string -->
<g id="edge113" class="edge">
<title>aggregator_v2&#45;&gt;string</title>
<path fill="none" stroke="black" d="M740.45,-220.16C697.31,-207.15 631.15,-187.18 589.52,-174.62"/>
<polygon fill="black" stroke="black" points="590.76,-171.34 580.17,-171.8 588.74,-178.04 590.76,-171.34"/>
</g>
<!-- aggregator_v2&#45;&gt;error -->
<g id="edge114" class="edge">
<title>aggregator_v2&#45;&gt;error</title>
<path fill="none" stroke="black" d="M811.27,-217.41C851.53,-196.13 928.37,-158.94 999,-144 1148.74,-112.32 2223.03,-113.01 2376,-108 2520.02,-103.28 2690.98,-96.08 2767.48,-92.77"/>
<polygon fill="black" stroke="black" points="2767.58,-96.27 2777.42,-92.34 2767.28,-89.28 2767.58,-96.27"/>
</g>
<!-- aggregator_v2&#45;&gt;features -->
<g id="edge115" class="edge">
<title>aggregator_v2&#45;&gt;features</title>
<path fill="none" stroke="black" d="M829.98,-221.46C872.02,-211.02 935.27,-195.02 990,-180 994.61,-178.73 999.42,-177.38 1004.2,-176.01"/>
<polygon fill="black" stroke="black" points="1005.15,-179.38 1013.78,-173.24 1003.2,-172.66 1005.15,-179.38"/>
</g>
<!-- function_info&#45;&gt;string -->
<g id="edge116" class="edge">
<title>function_info&#45;&gt;string</title>
<path fill="none" stroke="black" d="M619.36,-216.76C607.01,-207.05 591.18,-194.6 577.86,-184.13"/>
<polygon fill="black" stroke="black" points="580.33,-181.62 570.31,-178.19 576,-187.12 580.33,-181.62"/>
</g>
<!-- function_info&#45;&gt;error -->
<g id="edge118" class="edge">
<title>function_info&#45;&gt;error</title>
<path fill="none" stroke="black" d="M683.83,-221.09C692.45,-219.1 701.47,-217.28 710,-216 920.78,-184.39 2494.48,-106.35 2767.64,-92.97"/>
<polygon fill="black" stroke="black" points="2767.63,-96.47 2777.44,-92.49 2767.28,-89.48 2767.63,-96.47"/>
</g>
<!-- function_info&#45;&gt;features -->
<g id="edge119" class="edge">
<title>function_info&#45;&gt;features</title>
<path fill="none" stroke="black" d="M685.06,-221.48C693.33,-219.53 701.91,-217.61 710,-216 811.93,-195.67 932.45,-178.37 998.51,-169.45"/>
<polygon fill="black" stroke="black" points="998.85,-172.94 1008.3,-168.14 997.92,-166 998.85,-172.94"/>
</g>
<!-- function_info&#45;&gt;signer -->
<g id="edge117" class="edge">
<title>function_info&#45;&gt;signer</title>
<path fill="none" stroke="black" d="M635.73,-215.84C629.66,-195.27 616.46,-161.41 592,-144 547.62,-112.41 389.55,-98.52 310.99,-93.45"/>
<polygon fill="black" stroke="black" points="311.25,-89.96 301.05,-92.84 310.82,-96.95 311.25,-89.96"/>
</g>
<!-- system_addresses&#45;&gt;error -->
<g id="edge121" class="edge">
<title>system_addresses&#45;&gt;error</title>
<path fill="none" stroke="black" d="M1953.97,-290.02C2037.89,-258.32 2242.5,-184.1 2420,-144 2545.38,-115.67 2697.19,-100.28 2768.01,-94.17"/>
<polygon fill="black" stroke="black" points="2768.29,-97.65 2777.96,-93.32 2767.7,-90.68 2768.29,-97.65"/>
</g>
<!-- system_addresses&#45;&gt;signer -->
<g id="edge120" class="edge">
<title>system_addresses&#45;&gt;signer</title>
<path fill="none" stroke="black" d="M1891.91,-288.45C1861.63,-267.68 1806.09,-232.76 1753,-216 1473.72,-127.82 527.91,-97.9 310.71,-92.11"/>
<polygon fill="black" stroke="black" points="311.08,-88.62 300.99,-91.85 310.89,-95.62 311.08,-88.62"/>
</g>
<!-- math64&#45;&gt;error -->
<g id="edge122" class="edge">
<title>math64&#45;&gt;error</title>
<path fill="none" stroke="black" d="M3354.75,-218.76C3339.25,-208.53 3318.33,-194.12 3301,-180 3282.96,-165.31 3284.08,-153.85 3263,-144 3189.69,-109.74 2945.39,-96.46 2848.29,-92.45"/>
<polygon fill="black" stroke="black" points="2848.58,-88.96 2838.45,-92.06 2848.3,-95.95 2848.58,-88.96"/>
</g>
<!-- fixed_point32 -->
<g id="node43" class="node">
<title>fixed_point32</title>
<ellipse fill="none" stroke="black" cx="3373" cy="-162" rx="62.61" ry="18"/>
<text text-anchor="middle" x="3373" y="-156.95" font-family="Times,serif" font-size="14.00">fixed_point32</text>
</g>
<!-- math64&#45;&gt;fixed_point32 -->
<g id="edge123" class="edge">
<title>math64&#45;&gt;fixed_point32</title>
<path fill="none" stroke="black" d="M3376.01,-215.7C3375.59,-208.41 3375.1,-199.73 3374.63,-191.54"/>
<polygon fill="black" stroke="black" points="3378.13,-191.4 3374.06,-181.62 3371.14,-191.8 3378.13,-191.4"/>
</g>
<!-- table_with_length&#45;&gt;error -->
<g id="edge124" class="edge">
<title>table_with_length&#45;&gt;error</title>
<path fill="none" stroke="black" d="M3542.11,-151.78C3521.63,-149.05 3498.89,-146.2 3478,-144 3239.45,-118.86 2951.97,-99.92 2847.97,-93.43"/>
<polygon fill="black" stroke="black" points="2848.49,-89.96 2838.29,-92.83 2848.06,-96.94 2848.49,-89.96"/>
</g>
<!-- table_with_length&#45;&gt;table -->
<g id="edge125" class="edge">
<title>table_with_length&#45;&gt;table</title>
<path fill="none" stroke="black" d="M3658.94,-148.24C3715.39,-134.38 3804.22,-112.56 3854.34,-100.25"/>
<polygon fill="black" stroke="black" points="3854.96,-103.7 3863.84,-97.92 3853.29,-96.9 3854.96,-103.7"/>
</g>
<!-- aptos_hash&#45;&gt;error -->
<g id="edge126" class="edge">
<title>aptos_hash&#45;&gt;error</title>
<path fill="none" stroke="black" d="M3108.14,-215.99C3097.79,-195.57 3077.62,-161.87 3050,-144 2987.65,-103.67 2899.32,-93.63 2848.42,-91.37"/>
<polygon fill="black" stroke="black" points="2848.56,-87.87 2838.44,-91.02 2848.32,-94.87 2848.56,-87.87"/>
</g>
<!-- aptos_hash&#45;&gt;features -->
<g id="edge127" class="edge">
<title>aptos_hash&#45;&gt;features</title>
<path fill="none" stroke="black" d="M3064.36,-231.25C2777.77,-221.55 1385.17,-174.41 1099.34,-164.74"/>
<polygon fill="black" stroke="black" points="1099.72,-161.25 1089.61,-164.41 1099.48,-168.24 1099.72,-161.25"/>
</g>
<!-- aptos_hash&#45;&gt;bcs -->
<g id="edge128" class="edge">
<title>aptos_hash&#45;&gt;bcs</title>
<path fill="none" stroke="black" d="M3065.64,-228.99C2906.67,-216.31 2417.67,-177.32 2276.52,-166.07"/>
<polygon fill="black" stroke="black" points="2276.83,-162.59 2266.59,-165.28 2276.28,-169.56 2276.83,-162.59"/>
</g>
<!-- smart_vector&#45;&gt;type_info -->
<g id="edge132" class="edge">
<title>smart_vector&#45;&gt;type_info</title>
<path fill="none" stroke="black" d="M3429.36,-295.71C3411.36,-292.71 3390.83,-289.72 3372,-288 2725.16,-228.91 2559.65,-285.85 1911,-252 1857.55,-249.21 1796.7,-244.17 1753.76,-240.29"/>
<polygon fill="black" stroke="black" points="1754.2,-236.82 1743.93,-239.4 1753.57,-243.79 1754.2,-236.82"/>
</g>
<!-- smart_vector&#45;&gt;error -->
<g id="edge131" class="edge">
<title>smart_vector&#45;&gt;error</title>
<path fill="none" stroke="black" d="M3481.3,-287.7C3484.66,-254.22 3486.56,-180.66 3445,-144 3400.27,-104.54 2981.33,-93.98 2848.32,-91.61"/>
<polygon fill="black" stroke="black" points="2848.65,-88.11 2838.59,-91.44 2848.53,-95.11 2848.65,-88.11"/>
</g>
<!-- smart_vector&#45;&gt;vector -->
<g id="edge129" class="edge">
<title>smart_vector&#45;&gt;vector</title>
<path fill="none" stroke="black" d="M3538.4,-304.08C3622.25,-301.38 3768.85,-291.04 3802,-252 3853.79,-191.02 3849.72,-136.21 3802,-72 3772.22,-31.94 3713.12,-21.05 3671.65,-18.63"/>
<polygon fill="black" stroke="black" points="3671.85,-15.14 3661.71,-18.22 3671.55,-22.13 3671.85,-15.14"/>
</g>
<!-- smart_vector&#45;&gt;option -->
<g id="edge130" class="edge">
<title>smart_vector&#45;&gt;option</title>
<path fill="none" stroke="black" d="M3440.3,-291.97C3383.23,-273.13 3272.87,-238.11 3177,-216 2875.72,-146.53 2504.64,-107.24 2377.88,-95.11"/>
<polygon fill="black" stroke="black" points="2378.52,-91.65 2368.24,-94.19 2377.86,-98.62 2378.52,-91.65"/>
</g>
<!-- smart_vector&#45;&gt;math64 -->
<g id="edge133" class="edge">
<title>smart_vector&#45;&gt;math64</title>
<path fill="none" stroke="black" d="M3455.85,-289.12C3441.45,-279.23 3422.76,-266.4 3407.19,-255.72"/>
<polygon fill="black" stroke="black" points="3409.45,-253.02 3399.22,-250.25 3405.48,-258.79 3409.45,-253.02"/>
</g>
<!-- big_vector -->
<g id="node44" class="node">
<title>big_vector</title>
<ellipse fill="none" stroke="black" cx="3698" cy="-234" rx="50.33" ry="18"/>
<text text-anchor="middle" x="3698" y="-228.95" font-family="Times,serif" font-size="14.00">big_vector</text>
</g>
<!-- smart_vector&#45;&gt;big_vector -->
<g id="edge134" class="edge">
<title>smart_vector&#45;&gt;big_vector</title>
<path fill="none" stroke="black" d="M3518.91,-292.24C3555.94,-280.41 3611.08,-262.78 3650.38,-250.22"/>
<polygon fill="black" stroke="black" points="3651.37,-253.58 3659.83,-247.2 3649.24,-246.91 3651.37,-253.58"/>
</g>
<!-- dispatchable_fungible_asset&#45;&gt;error -->
<g id="edge136" class="edge">
<title>dispatchable_fungible_asset&#45;&gt;error</title>
<path fill="none" stroke="black" d="M995.39,-660.22C1350.86,-643.7 2470.07,-583.57 2811,-468 2868.83,-448.4 2898.22,-449.3 2928,-396 2935.8,-382.03 2930.46,-375.81 2928,-360 2920.23,-310.15 2851.68,-148.73 2849,-144 2843.28,-133.89 2835.78,-123.6 2828.77,-114.81"/>
<polygon fill="black" stroke="black" points="2831.48,-112.59 2822.41,-107.11 2826.08,-117.05 2831.48,-112.59"/>
</g>
<!-- dispatchable_fungible_asset&#45;&gt;features -->
<g id="edge137" class="edge">
<title>dispatchable_fungible_asset&#45;&gt;features</title>
<path fill="none" stroke="black" d="M870.7,-647.91C830.36,-600.65 727.6,-464.79 779,-360 790.51,-336.53 943.63,-231.05 965,-216 981.17,-204.61 999.67,-192.7 1015.1,-183.05"/>
<polygon fill="black" stroke="black" points="1016.8,-186.12 1023.45,-177.87 1013.1,-180.17 1016.8,-186.12"/>
</g>
<!-- dispatchable_fungible_asset&#45;&gt;option -->
<g id="edge135" class="edge">
<title>dispatchable_fungible_asset&#45;&gt;option</title>
<path fill="none" stroke="black" d="M899.4,-647.63C914.54,-628.68 940.53,-598.09 967,-576 1082.88,-479.28 1158.27,-511.88 1255,-396 1288.11,-356.34 1261.71,-324.78 1298,-288 1439.74,-144.35 2106.07,-101.98 2287.37,-93.01"/>
<polygon fill="black" stroke="black" points="2287.26,-96.52 2297.08,-92.54 2286.93,-89.53 2287.26,-96.52"/>
</g>
<!-- dispatchable_fungible_asset&#45;&gt;object -->
<g id="edge138" class="edge">
<title>dispatchable_fungible_asset&#45;&gt;object</title>
<path fill="none" stroke="black" d="M912.55,-648.24C928.5,-638.01 949.11,-624.54 967,-612 988.84,-596.69 991.89,-589.3 1015,-576 1042.76,-560.02 1076.27,-546.07 1101.61,-536.5"/>
<polygon fill="black" stroke="black" points="1102.69,-539.83 1110.85,-533.07 1100.26,-533.27 1102.69,-539.83"/>
</g>
<!-- dispatchable_fungible_asset&#45;&gt;fungible_asset -->
<g id="edge140" class="edge">
<title>dispatchable_fungible_asset&#45;&gt;fungible_asset</title>
<path fill="none" stroke="black" d="M848.02,-648.59C824.12,-638.26 793.19,-624.9 768.2,-614.1"/>
<polygon fill="black" stroke="black" points="769.85,-611 759.28,-610.24 767.07,-617.42 769.85,-611"/>
</g>
<!-- dispatchable_fungible_asset&#45;&gt;function_info -->
<g id="edge139" class="edge">
<title>dispatchable_fungible_asset&#45;&gt;function_info</title>
<path fill="none" stroke="black" d="M783.32,-657.63C739.77,-650.66 690.15,-637.34 651,-612 617.42,-590.26 617.05,-574.61 597,-540 571.97,-496.79 557.08,-481.13 566,-432 577.5,-368.69 608.2,-299.25 626.24,-262.08"/>
<polygon fill="black" stroke="black" points="629.23,-263.93 630.51,-253.41 622.95,-260.84 629.23,-263.93"/>
</g>
<!-- primary_fungible_store&#45;&gt;string -->
<g id="edge142" class="edge">
<title>primary_fungible_store&#45;&gt;string</title>
<path fill="none" stroke="black" d="M801.09,-728.53C743.85,-721.04 667.32,-707.51 603,-684 542.06,-661.72 521.18,-658.57 476,-612 414.17,-548.28 373.67,-289.82 423,-216 441.88,-187.75 478.89,-174.54 508.28,-168.37"/>
<polygon fill="black" stroke="black" points="508.85,-171.83 518.03,-166.55 507.56,-164.95 508.85,-171.83"/>
</g>
<!-- primary_fungible_store&#45;&gt;option -->
<g id="edge141" class="edge">
<title>primary_fungible_store&#45;&gt;option</title>
<path fill="none" stroke="black" d="M946.09,-723.35C968.97,-715.37 993.48,-702.99 1010,-684 1107.95,-571.43 1006.9,-478.18 1098,-360 1176.28,-258.44 1231.22,-268.95 1348,-216 1438.24,-175.08 1461.86,-163.55 1559,-144 1699.79,-115.66 2143.12,-97.76 2287.24,-92.57"/>
<polygon fill="black" stroke="black" points="2287.3,-96.07 2297.16,-92.22 2287.05,-89.07 2287.3,-96.07"/>
</g>
<!-- primary_fungible_store&#45;&gt;signer -->
<g id="edge143" class="edge">
<title>primary_fungible_store&#45;&gt;signer</title>
<path fill="none" stroke="black" d="M802.8,-728.15C701,-716.85 539.03,-697.2 514,-684 442.23,-646.16 318.38,-472.55 290,-396 254.3,-299.69 258.84,-174.85 263.2,-119.54"/>
<polygon fill="black" stroke="black" points="266.67,-119.99 264.04,-109.73 259.7,-119.39 266.67,-119.99"/>
</g>
<!-- primary_fungible_store&#45;&gt;object -->
<g id="edge144" class="edge">
<title>primary_fungible_store&#45;&gt;object</title>
<path fill="none" stroke="black" d="M943.13,-723.05C966.36,-714.93 991.94,-702.52 1010,-684 1046.07,-647.01 1019.67,-615.47 1053,-576 1066.51,-560 1086.14,-547.46 1103.33,-538.6"/>
<polygon fill="black" stroke="black" points="1104.84,-541.76 1112.29,-534.23 1101.77,-535.47 1104.84,-541.76"/>
</g>
<!-- primary_fungible_store&#45;&gt;fungible_asset -->
<g id="edge145" class="edge">
<title>primary_fungible_store&#45;&gt;fungible_asset</title>
<path fill="none" stroke="black" d="M829.4,-722.94C806.12,-714.78 780.37,-702.38 762,-684 745.48,-667.47 735.69,-642.62 730.2,-623.38"/>
<polygon fill="black" stroke="black" points="733.59,-622.51 727.69,-613.71 726.81,-624.27 733.59,-622.51"/>
</g>
<!-- primary_fungible_store&#45;&gt;dispatchable_fungible_asset -->
<g id="edge146" class="edge">
<title>primary_fungible_store&#45;&gt;dispatchable_fungible_asset</title>
<path fill="none" stroke="black" d="M886,-719.7C886,-712.41 886,-703.73 886,-695.54"/>
<polygon fill="black" stroke="black" points="889.5,-695.62 886,-685.62 882.5,-695.62 889.5,-695.62"/>
</g>
<!-- coin&#45;&gt;type_info -->
<g id="edge152" class="edge">
<title>coin&#45;&gt;type_info</title>
<path fill="none" stroke="black" d="M1682.51,-792.34C1693.58,-766.2 1713,-713.7 1713,-667 1713,-667 1713,-667 1713,-521 1713,-426.64 1704.76,-315 1700.49,-263.56"/>
<polygon fill="black" stroke="black" points="1704,-263.57 1699.68,-253.9 1697.03,-264.16 1704,-263.57"/>
</g>
<!-- coin&#45;&gt;string -->
<g id="edge148" class="edge">
<title>coin&#45;&gt;string</title>
<path fill="none" stroke="black" d="M1648.62,-805.62C1503.34,-787 805.91,-697.19 762,-684 691.18,-662.73 665.82,-662.71 612,-612 492.18,-499.12 527.49,-270.77 544.37,-191.15"/>
<polygon fill="black" stroke="black" points="547.75,-192.1 546.48,-181.58 540.91,-190.59 547.75,-192.1"/>
</g>
<!-- coin&#45;&gt;error -->
<g id="edge150" class="edge">
<title>coin&#45;&gt;error</title>
<path fill="none" stroke="black" d="M1702.15,-808.94C1816.43,-808.39 2258.39,-803.18 2388,-756 2413.73,-746.63 2414.76,-734.48 2438,-720 2582.11,-630.19 2632.24,-631.93 2775,-540 2857.97,-486.57 2905.31,-486.78 2944,-396 2989.72,-288.73 2939.43,-238.42 2871,-144 2861.67,-131.12 2848.55,-119.43 2836.7,-110.32"/>
<polygon fill="black" stroke="black" points="2838.91,-107.6 2828.78,-104.49 2834.76,-113.24 2838.91,-107.6"/>
</g>
<!-- coin&#45;&gt;features -->
<g id="edge151" class="edge">
<title>coin&#45;&gt;features</title>
<path fill="none" stroke="black" d="M1651.51,-800.8C1626.62,-791.63 1586.61,-775.46 1555,-756 1447.72,-689.94 1195.28,-494.72 1117,-396 1072.66,-340.09 1062.2,-321.49 1046,-252 1041.38,-232.19 1042.04,-209.22 1043.77,-191.58"/>
<polygon fill="black" stroke="black" points="1047.23,-192.17 1044.91,-181.83 1040.27,-191.35 1047.23,-192.17"/>
</g>
<!-- coin&#45;&gt;option -->
<g id="edge147" class="edge">
<title>coin&#45;&gt;option</title>
<path fill="none" stroke="black" d="M1702.28,-809.6C1756.97,-809.67 1882.51,-804.09 1973,-756 2169.78,-651.43 2209.95,-588.63 2322,-396 2374.11,-306.42 2353.01,-175.69 2340.16,-118.97"/>
<polygon fill="black" stroke="black" points="2343.63,-118.43 2337.92,-109.51 2336.81,-120.05 2343.63,-118.43"/>
</g>
<!-- coin&#45;&gt;signer -->
<g id="edge149" class="edge">
<title>coin&#45;&gt;signer</title>
<path fill="none" stroke="black" d="M1648.2,-807.54C1503.79,-799.66 823.11,-762.29 779,-756 707.7,-745.84 528.71,-713.48 463,-684 295.8,-609 284.66,-505.84 262,-324 252.1,-244.57 248.55,-223.7 256,-144 256.76,-135.86 258.17,-127.1 259.69,-119.1"/>
<polygon fill="black" stroke="black" points="263.07,-120.05 261.64,-109.55 256.21,-118.65 263.07,-120.05"/>
</g>
<!-- coin&#45;&gt;event -->
<g id="edge156" class="edge">
<title>coin&#45;&gt;event</title>
<path fill="none" stroke="black" d="M1667.49,-792.34C1656.42,-766.2 1637,-713.7 1637,-667 1637,-667 1637,-667 1637,-521 1637,-480.03 1637.83,-464.59 1613,-432 1599.5,-414.27 1578.22,-401.35 1559.74,-392.71"/>
<polygon fill="black" stroke="black" points="1561.22,-389.53 1550.65,-388.72 1558.4,-395.94 1561.22,-389.53"/>
</g>
<!-- coin&#45;&gt;object -->
<g id="edge161" class="edge">
<title>coin&#45;&gt;object</title>
<path fill="none" stroke="black" d="M1649.79,-803.09C1616.6,-794.82 1556.85,-778.3 1509,-756 1373.37,-692.79 1227.38,-588.43 1167.75,-544.03"/>
<polygon fill="black" stroke="black" points="1169.92,-541.29 1159.82,-538.1 1165.73,-546.9 1169.92,-541.29"/>
</g>
<!-- coin&#45;&gt;fungible_asset -->
<g id="edge163" class="edge">
<title>coin&#45;&gt;fungible_asset</title>
<path fill="none" stroke="black" d="M1649.5,-803.72C1605.31,-794.49 1511.68,-774.65 1433,-756 1244.2,-711.24 1199.5,-689.7 1010,-648 934.75,-631.44 847.61,-615.79 789.47,-605.85"/>
<polygon fill="black" stroke="black" points="790.19,-602.42 779.74,-604.2 789.01,-609.32 790.19,-602.42"/>
</g>
<!-- coin&#45;&gt;guid -->
<g id="edge155" class="edge">
<title>coin&#45;&gt;guid</title>
<path fill="none" stroke="black" d="M1660.7,-794.23C1638.69,-769.85 1599,-718.73 1599,-667 1599,-667 1599,-667 1599,-521 1599,-480.03 1602.34,-462.51 1575,-432 1545.7,-399.3 1507.75,-432.27 1483,-396 1470.28,-377.37 1477.66,-351.84 1486.67,-332.9"/>
<polygon fill="black" stroke="black" points="1489.68,-334.7 1491.18,-324.22 1483.47,-331.48 1489.68,-334.7"/>
</g>
<!-- coin&#45;&gt;create_signer -->
<g id="edge157" class="edge">
<title>coin&#45;&gt;create_signer</title>
<path fill="none" stroke="black" d="M1652.12,-800.1C1632.24,-791.39 1603.75,-776.45 1585,-756 1525.08,-690.65 1551.17,-647.69 1499,-576 1444.25,-500.76 1426.9,-479.7 1347,-432 1315.7,-413.31 1276.98,-400.3 1245.36,-391.85"/>
<polygon fill="black" stroke="black" points="1246.52,-388.53 1235.97,-389.42 1244.77,-395.31 1246.52,-388.53"/>
</g>
<!-- coin&#45;&gt;account -->
<g id="edge158" class="edge">
<title>coin&#45;&gt;account</title>
<path fill="none" stroke="black" d="M1694.34,-797.19C1726.86,-775.67 1789,-726.75 1789,-667 1789,-667 1789,-667 1789,-593 1789,-553.74 1789,-508.38 1789,-479.69"/>
<polygon fill="black" stroke="black" points="1792.5,-480 1789,-470 1785.5,-480 1792.5,-480"/>
</g>
<!-- coin&#45;&gt;system_addresses -->
<g id="edge154" class="edge">
<title>coin&#45;&gt;system_addresses</title>
<path fill="none" stroke="black" d="M1702.4,-809.09C1779.04,-807.75 1990,-792.67 1990,-667 1990,-667 1990,-667 1990,-449 1990,-404.11 1960.33,-359.51 1938.31,-332.6"/>
<polygon fill="black" stroke="black" points="1941.01,-330.37 1931.88,-325 1935.67,-334.9 1941.01,-330.37"/>
</g>
<!-- coin&#45;&gt;primary_fungible_store -->
<g id="edge164" class="edge">
<title>coin&#45;&gt;primary_fungible_store</title>
<path fill="none" stroke="black" d="M1648.3,-806.63C1544.66,-797.44 1165.87,-763.83 984.32,-747.72"/>
<polygon fill="black" stroke="black" points="984.69,-744.24 974.42,-746.84 984.07,-751.21 984.69,-744.24"/>
</g>
<!-- coin&#45;&gt;table -->
<g id="edge153" class="edge">
<title>coin&#45;&gt;table</title>
<path fill="none" stroke="black" d="M1702.09,-808.21C1800.05,-805.1 2144.97,-792.12 2427,-756 2773.2,-711.66 2891.6,-777.3 3199,-612 3297,-559.3 3277.48,-489.07 3373,-432 3524.82,-341.28 3592.89,-392.38 3756,-324 3815.48,-299.06 3841.11,-301.88 3882,-252 3913.17,-213.97 3912.33,-192.76 3906,-144 3904.93,-135.76 3902.96,-126.97 3900.83,-118.97"/>
<polygon fill="black" stroke="black" points="3904.21,-118.07 3898.09,-109.42 3897.48,-119.99 3904.21,-118.07"/>
</g>
<!-- aggregator -->
<g id="node45" class="node">
<title>aggregator</title>
<ellipse fill="none" stroke="black" cx="2752" cy="-306" rx="50.33" ry="18"/>
<text text-anchor="middle" x="2752" y="-300.95" font-family="Times,serif" font-size="14.00">aggregator</text>
</g>
<!-- coin&#45;&gt;aggregator -->
<g id="edge159" class="edge">
<title>coin&#45;&gt;aggregator</title>
<path fill="none" stroke="black" d="M1702.27,-809.26C1805.78,-809.82 2173.65,-808.06 2276,-756 2292.56,-747.57 2482.46,-516.73 2496,-504 2570.7,-433.78 2669.26,-363.39 2719.51,-328.88"/>
<polygon fill="black" stroke="black" points="2721.36,-331.85 2727.64,-323.32 2717.41,-326.07 2721.36,-331.85"/>
</g>
<!-- aggregator_factory -->
<g id="node46" class="node">
<title>aggregator_factory</title>
<ellipse fill="none" stroke="black" cx="2821" cy="-378" rx="81.04" ry="18"/>
<text text-anchor="middle" x="2821" y="-372.95" font-family="Times,serif" font-size="14.00">aggregator_factory</text>
</g>
<!-- coin&#45;&gt;aggregator_factory -->
<g id="edge160" class="edge">
<title>coin&#45;&gt;aggregator_factory</title>
<path fill="none" stroke="black" d="M1702.38,-809.28C1813.62,-810.07 2231.41,-809.36 2350,-756 2413.06,-727.63 2405.79,-688.27 2462,-648 2603.87,-546.35 2711.99,-611.72 2811,-468 2823.01,-450.56 2825.07,-426.5 2824.37,-407.78"/>
<polygon fill="black" stroke="black" points="2827.87,-407.63 2823.69,-397.89 2820.89,-408.11 2827.87,-407.63"/>
</g>
<!-- optional_aggregator -->
<g id="node47" class="node">
<title>optional_aggregator</title>
<ellipse fill="none" stroke="black" cx="2717" cy="-450" rx="85.13" ry="18"/>
<text text-anchor="middle" x="2717" y="-444.95" font-family="Times,serif" font-size="14.00">optional_aggregator</text>
</g>
<!-- coin&#45;&gt;optional_aggregator -->
<g id="edge162" class="edge">
<title>coin&#45;&gt;optional_aggregator</title>
<path fill="none" stroke="black" d="M1702.14,-809.42C1809.57,-810.7 2204.51,-811.44 2314,-756 2370.77,-727.26 2364.83,-694.75 2408,-648 2468.76,-582.19 2472.67,-550.88 2549,-504 2577.9,-486.25 2613.28,-473.94 2644.11,-465.68"/>
<polygon fill="black" stroke="black" points="2644.96,-469.07 2653.77,-463.19 2643.22,-462.29 2644.96,-469.07"/>
</g>
<!-- aptos_coin&#45;&gt;string -->
<g id="edge167" class="edge">
<title>aptos_coin&#45;&gt;string</title>
<path fill="none" stroke="black" d="M2031.46,-875.32C1950.77,-865.66 1781.82,-845.41 1639,-828 1509.2,-812.18 1477.2,-804.14 1347,-792 1095.14,-768.51 1028.54,-797.37 779,-756 683.86,-740.23 376,-691.44 376,-595 376,-595 376,-595 376,-521 376,-384.83 320.8,-323.02 405,-216 429.61,-184.72 474.37,-171.89 507.87,-166.64"/>
<polygon fill="black" stroke="black" points="508.27,-170.11 517.7,-165.28 507.32,-163.18 508.27,-170.11"/>
</g>
<!-- aptos_coin&#45;&gt;error -->
<g id="edge169" class="edge">
<title>aptos_coin&#45;&gt;error</title>
<path fill="none" stroke="black" d="M2129.33,-878.63C2322.15,-868.88 3003,-828.16 3003,-739 3003,-739 3003,-739 3003,-593 3003,-423.67 3025.71,-366.45 2948,-216 2930.12,-181.39 2926.56,-170.5 2898,-144 2881.33,-128.53 2859.4,-115.5 2841.36,-106.23"/>
<polygon fill="black" stroke="black" points="2843.13,-103.2 2832.61,-101.89 2840.01,-109.47 2843.13,-103.2"/>
</g>
<!-- aptos_coin&#45;&gt;vector -->
<g id="edge165" class="edge">
<title>aptos_coin&#45;&gt;vector</title>
<path fill="none" stroke="black" d="M2129.68,-879.44C2276.06,-874.62 2697.63,-858.41 2832,-828 2917.25,-808.71 2937.24,-795.9 3015,-756 3119.97,-702.14 3143.36,-682.44 3238,-612 3336.88,-538.4 3337.76,-485.1 3449,-432 3527.75,-394.41 3556.73,-414.52 3642,-396 3818.85,-357.59 4016,-415.97 4016,-235 4016,-235 4016,-235 4016,-161 4016,-114.73 4000.42,-97.78 3962,-72 3915.2,-40.6 3751.42,-26.56 3671.1,-21.45"/>
<polygon fill="black" stroke="black" points="3671.59,-17.97 3661.39,-20.85 3671.16,-24.96 3671.59,-17.97"/>
</g>
<!-- aptos_coin&#45;&gt;option -->
<g id="edge166" class="edge">
<title>aptos_coin&#45;&gt;option</title>
<path fill="none" stroke="black" d="M2126.9,-875.42C2189.5,-867.35 2294.82,-850.84 2326,-828 2355.71,-806.24 2357.5,-791.58 2367,-756 2424.76,-539.57 2368.56,-476 2369,-252 2369.1,-203.9 2376.16,-189.97 2362,-144 2359.18,-134.84 2354.67,-125.46 2350.05,-117.19"/>
<polygon fill="black" stroke="black" points="2353.13,-115.52 2345.02,-108.71 2347.11,-119.1 2353.13,-115.52"/>
</g>
<!-- aptos_coin&#45;&gt;signer -->
<g id="edge168" class="edge">
<title>aptos_coin&#45;&gt;signer</title>
<path fill="none" stroke="black" d="M2027.79,-880.98C1776.48,-880.02 674.49,-865.35 395,-684 224.87,-573.61 256.43,-454.64 248,-252 247.05,-229.07 248.65,-146.15 249,-144 250.38,-135.57 252.83,-126.65 255.45,-118.58"/>
<polygon fill="black" stroke="black" points="258.7,-119.89 258.68,-109.3 252.09,-117.6 258.7,-119.89"/>
</g>
<!-- aptos_coin&#45;&gt;system_addresses -->
<g id="edge170" class="edge">
<title>aptos_coin&#45;&gt;system_addresses</title>
<path fill="none" stroke="black" d="M2125.89,-874.52C2213.85,-859.97 2391.22,-817.99 2350,-720 2268.54,-526.36 2045.36,-381.45 1954.38,-328.71"/>
<polygon fill="black" stroke="black" points="1956.2,-325.72 1945.78,-323.78 1952.72,-331.79 1956.2,-325.72"/>
</g>
<!-- aptos_coin&#45;&gt;coin -->
<g id="edge171" class="edge">
<title>aptos_coin&#45;&gt;coin</title>
<path fill="none" stroke="black" d="M2034.22,-873.24C1953.88,-859.32 1786.69,-830.35 1712.2,-817.45"/>
<polygon fill="black" stroke="black" points="1713.01,-814.03 1702.56,-815.78 1711.82,-820.93 1713.01,-814.03"/>
</g>
<!-- string_utils&#45;&gt;string -->
<g id="edge172" class="edge">
<title>string_utils&#45;&gt;string</title>
<path fill="none" stroke="black" d="M491.13,-803.22C379.24,-788.63 114,-745.74 114,-667 114,-667 114,-667 114,-377 114,-202.98 396.95,-170.45 507.49,-164.39"/>
<polygon fill="black" stroke="black" points="507.54,-167.89 517.35,-163.9 507.19,-160.9 507.54,-167.89"/>
</g>
<!-- ed25519&#45;&gt;type_info -->
<g id="edge176" class="edge">
<title>ed25519&#45;&gt;type_info</title>
<path fill="none" stroke="black" d="M2089.61,-298.6C2011.95,-285.99 1839.02,-257.9 1751.27,-243.65"/>
<polygon fill="black" stroke="black" points="1751.91,-240.21 1741.48,-242.06 1750.79,-247.12 1751.91,-240.21"/>
</g>
<!-- ed25519&#45;&gt;error -->
<g id="edge174" class="edge">
<title>ed25519&#45;&gt;error</title>
<path fill="none" stroke="black" d="M2156.39,-291.75C2220.12,-261.41 2383.93,-186.26 2528,-144 2612.04,-119.35 2713.73,-103.45 2768.48,-95.98"/>
<polygon fill="black" stroke="black" points="2768.8,-99.47 2778.25,-94.68 2767.87,-92.53 2768.8,-99.47"/>
</g>
<!-- ed25519&#45;&gt;bcs -->
<g id="edge175" class="edge">
<title>ed25519&#45;&gt;bcs</title>
<path fill="none" stroke="black" d="M2141.72,-288.43C2160.79,-263.59 2196.92,-216.52 2219.09,-187.63"/>
<polygon fill="black" stroke="black" points="2221.79,-189.86 2225.11,-179.8 2216.24,-185.6 2221.79,-189.86"/>
</g>
<!-- ed25519&#45;&gt;option -->
<g id="edge173" class="edge">
<title>ed25519&#45;&gt;option</title>
<path fill="none" stroke="black" d="M2121.3,-288.22C2117.04,-277.99 2112.18,-264.52 2110,-252 2101.29,-201.87 2108.5,-176.08 2148,-144 2187.89,-111.6 2246.63,-99 2287.17,-94.11"/>
<polygon fill="black" stroke="black" points="2287.54,-97.59 2297.1,-93.03 2286.79,-90.63 2287.54,-97.59"/>
</g>
<!-- ed25519&#45;&gt;hash -->
<g id="edge177" class="edge">
<title>ed25519&#45;&gt;hash</title>
<path fill="none" stroke="black" d="M2098.3,-293.13C2066.13,-280.68 2015.71,-261.19 1982.27,-248.25"/>
<polygon fill="black" stroke="black" points="1983.63,-245.03 1973.04,-244.68 1981.11,-251.56 1983.63,-245.03"/>
</g>
<!-- multi_ed25519&#45;&gt;error -->
<g id="edge179" class="edge">
<title>multi_ed25519&#45;&gt;error</title>
<path fill="none" stroke="black" d="M2222.05,-360.74C2282.15,-319.03 2449.7,-207.09 2604,-144 2659.42,-121.34 2727.33,-106 2769.13,-97.87"/>
<polygon fill="black" stroke="black" points="2769.53,-101.36 2778.7,-96.05 2768.23,-94.48 2769.53,-101.36"/>
</g>
<!-- multi_ed25519&#45;&gt;features -->
<g id="edge180" class="edge">
<title>multi_ed25519&#45;&gt;features</title>
<path fill="none" stroke="black" d="M2156.1,-363.8C2131.49,-354.95 2100.85,-341.66 2077,-324 2026.33,-286.47 2041.48,-244.04 1985,-216 1905.62,-176.58 1284.29,-165.88 1099.61,-163.56"/>
<polygon fill="black" stroke="black" points="1099.89,-160.06 1089.85,-163.44 1099.8,-167.06 1099.89,-160.06"/>
</g>
<!-- multi_ed25519&#45;&gt;bcs -->
<g id="edge181" class="edge">
<title>multi_ed25519&#45;&gt;bcs</title>
<path fill="none" stroke="black" d="M2204.42,-359.95C2207.56,-349.63 2211.39,-336.15 2214,-324 2223.91,-277.94 2231.09,-223.6 2234.89,-191.29"/>
<polygon fill="black" stroke="black" points="2238.35,-191.89 2236.01,-181.55 2231.39,-191.09 2238.35,-191.89"/>
</g>
<!-- multi_ed25519&#45;&gt;option -->
<g id="edge178" class="edge">
<title>multi_ed25519&#45;&gt;option</title>
<path fill="none" stroke="black" d="M2196.85,-359.85C2191.24,-312.11 2178.14,-178.9 2202,-144 2221.27,-115.8 2258.33,-102.6 2288.12,-96.42"/>
<polygon fill="black" stroke="black" points="2288.45,-99.92 2297.64,-94.66 2287.17,-93.04 2288.45,-99.92"/>
</g>
<!-- multi_ed25519&#45;&gt;hash -->
<g id="edge182" class="edge">
<title>multi_ed25519&#45;&gt;hash</title>
<path fill="none" stroke="black" d="M2148.88,-365.58C2117.34,-357.05 2076.59,-343.47 2044,-324 2028.01,-314.45 1993.16,-280.66 1970.14,-257.57"/>
<polygon fill="black" stroke="black" points="1972.84,-255.33 1963.32,-250.69 1967.87,-260.26 1972.84,-255.33"/>
</g>
<!-- multi_ed25519&#45;&gt;ed25519 -->
<g id="edge183" class="edge">
<title>multi_ed25519&#45;&gt;ed25519</title>
<path fill="none" stroke="black" d="M2182.41,-360.41C2173.66,-351.66 2162.75,-340.75 2153.08,-331.08"/>
<polygon fill="black" stroke="black" points="2155.6,-328.65 2146.06,-324.06 2150.65,-333.6 2155.6,-328.65"/>
</g>
<!-- chain_id&#45;&gt;system_addresses -->
<g id="edge184" class="edge">
<title>chain_id&#45;&gt;system_addresses</title>
<path fill="none" stroke="black" d="M1889.23,-360.05C1892.97,-352.35 1897.5,-343.03 1901.71,-334.36"/>
<polygon fill="black" stroke="black" points="1904.73,-336.16 1905.95,-325.64 1898.43,-333.1 1904.73,-336.16"/>
</g>
<!-- big_vector&#45;&gt;error -->
<g id="edge186" class="edge">
<title>big_vector&#45;&gt;error</title>
<path fill="none" stroke="black" d="M3702.97,-215.93C3707.68,-195.77 3711.57,-162.64 3693,-144 3662.8,-113.69 3017.07,-96.04 2848.15,-91.93"/>
<polygon fill="black" stroke="black" points="2848.42,-88.44 2838.34,-91.7 2848.25,-95.44 2848.42,-88.44"/>
</g>
<!-- big_vector&#45;&gt;vector -->
<g id="edge185" class="edge">
<title>big_vector&#45;&gt;vector</title>
<path fill="none" stroke="black" d="M3705.86,-215.96C3713.13,-197.81 3721.73,-168.4 3714,-144 3701.35,-104.07 3670.85,-65.86 3649.32,-42.43"/>
<polygon fill="black" stroke="black" points="3652,-40.18 3642.6,-35.3 3646.91,-44.98 3652,-40.18"/>
</g>
<!-- big_vector&#45;&gt;table_with_length -->
<g id="edge187" class="edge">
<title>big_vector&#45;&gt;table_with_length</title>
<path fill="none" stroke="black" d="M3677.35,-217.12C3665.62,-208.09 3650.71,-196.62 3637.64,-186.57"/>
<polygon fill="black" stroke="black" points="3639.78,-183.8 3629.72,-180.47 3635.51,-189.35 3639.78,-183.8"/>
</g>
<!-- aggregator_factory&#45;&gt;error -->
<g id="edge188" class="edge">
<title>aggregator_factory&#45;&gt;error</title>
<path fill="none" stroke="black" d="M2820.21,-359.54C2818.03,-311.76 2811.98,-178.51 2809.3,-119.61"/>
<polygon fill="black" stroke="black" points="2812.8,-119.57 2808.85,-109.74 2805.81,-119.89 2812.8,-119.57"/>
</g>
<!-- aggregator_factory&#45;&gt;system_addresses -->
<g id="edge190" class="edge">
<title>aggregator_factory&#45;&gt;system_addresses</title>
<path fill="none" stroke="black" d="M2743.55,-372.34C2608.23,-364 2319.99,-345.4 2077,-324 2050.13,-321.63 2020.79,-318.67 1994.56,-315.88"/>
<polygon fill="black" stroke="black" points="1994.95,-312.41 1984.64,-314.82 1994.21,-319.37 1994.95,-312.41"/>
</g>
<!-- aggregator_factory&#45;&gt;table -->
<g id="edge189" class="edge">
<title>aggregator_factory&#45;&gt;table</title>
<path fill="none" stroke="black" d="M2898.24,-372.15C3072.35,-361.12 3485.2,-334.28 3548,-324 3674.81,-303.25 3731.57,-336.93 3828,-252 3867.24,-217.44 3882.7,-155.57 3888.58,-119.42"/>
<polygon fill="black" stroke="black" points="3892.02,-120.13 3890.01,-109.72 3885.09,-119.11 3892.02,-120.13"/>
</g>
<!-- aggregator_factory&#45;&gt;aggregator -->
<g id="edge191" class="edge">
<title>aggregator_factory&#45;&gt;aggregator</title>
<path fill="none" stroke="black" d="M2804.3,-360.05C2795.78,-351.42 2785.28,-340.76 2775.92,-331.27"/>
<polygon fill="black" stroke="black" points="2778.65,-329.05 2769.14,-324.38 2773.66,-333.96 2778.65,-329.05"/>
</g>
<!-- optional_aggregator&#45;&gt;error -->
<g id="edge193" class="edge">
<title>optional_aggregator&#45;&gt;error</title>
<path fill="none" stroke="black" d="M2786.13,-439.1C2835.44,-430.45 2895.64,-416.12 2911,-396 2920.71,-383.28 2913.91,-375.73 2911,-360 2910.42,-356.85 2844.94,-186.81 2818.7,-118.74"/>
<polygon fill="black" stroke="black" points="2821.96,-117.48 2815.1,-109.41 2815.43,-120 2821.96,-117.48"/>
</g>
<!-- optional_aggregator&#45;&gt;option -->
<g id="edge192" class="edge">
<title>optional_aggregator&#45;&gt;option</title>
<path fill="none" stroke="black" d="M2709.13,-431.68C2684.14,-378.8 2601.03,-218.57 2480,-144 2447.19,-123.78 2405.53,-109.68 2374.94,-101.14"/>
<polygon fill="black" stroke="black" points="2376.24,-97.86 2365.67,-98.63 2374.41,-104.62 2376.24,-97.86"/>
</g>
<!-- optional_aggregator&#45;&gt;aggregator -->
<g id="edge194" class="edge">
<title>optional_aggregator&#45;&gt;aggregator</title>
<path fill="none" stroke="black" d="M2718.58,-431.7C2720.49,-413.59 2724.32,-384.44 2731,-360 2733.33,-351.47 2736.59,-342.43 2739.85,-334.29"/>
<polygon fill="black" stroke="black" points="2743,-335.83 2743.63,-325.26 2736.54,-333.13 2743,-335.83"/>
</g>
<!-- optional_aggregator&#45;&gt;aggregator_factory -->
<g id="edge195" class="edge">
<title>optional_aggregator&#45;&gt;aggregator_factory</title>
<path fill="none" stroke="black" d="M2741.65,-432.41C2755.25,-423.26 2772.33,-411.76 2787.17,-401.77"/>
<polygon fill="black" stroke="black" points="2788.93,-404.8 2795.27,-396.32 2785.02,-399 2788.93,-404.8"/>
</g>
</g>
</svg>
