<?xml version="1.0" encoding="UTF-8" standalone="no"?>
<!DOCTYPE svg PUBLIC "-//W3C//DTD SVG 1.1//EN"
 "http://www.w3.org/Graphics/SVG/1.1/DTD/svg11.dtd">
<!-- Generated by graphviz version 12.1.2 (20240928.0832)
 -->
<!-- Title: G Pages: 1 -->
<svg width="257pt" height="260pt"
 viewBox="0.00 0.00 256.78 260.00" xmlns="http://www.w3.org/2000/svg" xmlns:xlink="http://www.w3.org/1999/xlink">
<g id="graph0" class="graph" transform="scale(1 1) rotate(0) translate(4 256)">
<title>G</title>
<polygon fill="white" stroke="none" points="-4,4 -4,-256 252.78,-256 252.78,4 -4,4"/>
<!-- utils -->
<g id="node1" class="node">
<title>utils</title>
<ellipse fill="none" stroke="black" cx="73.95" cy="-234" rx="27" ry="18"/>
<text text-anchor="middle" x="73.95" y="-228.95" font-family="Times,serif" font-size="14.00">utils</text>
</g>
<!-- vector -->
<g id="node2" class="node">
<title>vector</title>
<ellipse fill="none" stroke="black" cx="33.95" cy="-18" rx="33.95" ry="18"/>
<text text-anchor="middle" x="33.95" y="-12.95" font-family="Times,serif" font-size="14.00">vector</text>
</g>
<!-- utils&#45;&gt;vector -->
<g id="edge1" class="edge">
<title>utils&#45;&gt;vector</title>
<path fill="none" stroke="black" d="M70.74,-215.85C63.88,-179.14 47.72,-92.66 39.28,-47.53"/>
<polygon fill="black" stroke="black" points="42.73,-46.91 37.45,-37.72 35.85,-48.19 42.73,-46.91"/>
</g>
<!-- aptos_hash -->
<g id="node3" class="node">
<title>aptos_hash</title>
<ellipse fill="none" stroke="black" cx="149.95" cy="-162" rx="51.86" ry="18"/>
<text text-anchor="middle" x="149.95" y="-156.95" font-family="Times,serif" font-size="14.00">aptos_hash</text>
</g>
<!-- utils&#45;&gt;aptos_hash -->
<g id="edge2" class="edge">
<title>utils&#45;&gt;aptos_hash</title>
<path fill="none" stroke="black" d="M89.33,-218.83C99.21,-209.73 112.31,-197.67 123.8,-187.08"/>
<polygon fill="black" stroke="black" points="126.1,-189.73 131.08,-180.38 121.35,-184.58 126.1,-189.73"/>
</g>
<!-- error -->
<g id="node4" class="node">
<title>error</title>
<ellipse fill="none" stroke="black" cx="219.95" cy="-18" rx="28.83" ry="18"/>
<text text-anchor="middle" x="219.95" y="-12.95" font-family="Times,serif" font-size="14.00">error</text>
</g>
<!-- aptos_hash&#45;&gt;error -->
<g id="edge3" class="edge">
<title>aptos_hash&#45;&gt;error</title>
<path fill="none" stroke="black" d="M180.75,-147.27C196.45,-138.49 214.06,-125.44 222.95,-108 232.45,-89.36 231.07,-65.55 227.65,-47.25"/>
<polygon fill="black" stroke="black" points="231.1,-46.62 225.53,-37.61 224.26,-48.12 231.1,-46.62"/>
</g>
<!-- features -->
<g id="node5" class="node">
<title>features</title>
<ellipse fill="none" stroke="black" cx="101.95" cy="-90" rx="40.09" ry="18"/>
<text text-anchor="middle" x="101.95" y="-84.95" font-family="Times,serif" font-size="14.00">features</text>
</g>
<!-- aptos_hash&#45;&gt;features -->
<g id="edge4" class="edge">
<title>aptos_hash&#45;&gt;features</title>
<path fill="none" stroke="black" d="M138.33,-144.05C132.71,-135.85 125.83,-125.83 119.58,-116.71"/>
<polygon fill="black" stroke="black" points="122.53,-114.82 113.99,-108.56 116.76,-118.78 122.53,-114.82"/>
</g>
<!-- bcs -->
<g id="node6" class="node">
<title>bcs</title>
<ellipse fill="none" stroke="black" cx="186.95" cy="-90" rx="27" ry="18"/>
<text text-anchor="middle" x="186.95" y="-84.95" font-family="Times,serif" font-size="14.00">bcs</text>
</g>
<!-- aptos_hash&#45;&gt;bcs -->
<g id="edge5" class="edge">
<title>aptos_hash&#45;&gt;bcs</title>
<path fill="none" stroke="black" d="M158.91,-144.05C163.15,-136.03 168.31,-126.26 173.05,-117.3"/>
<polygon fill="black" stroke="black" points="176.04,-119.12 177.62,-108.65 169.86,-115.85 176.04,-119.12"/>
</g>
<!-- features&#45;&gt;vector -->
<g id="edge6" class="edge">
<title>features&#45;&gt;vector</title>
<path fill="none" stroke="black" d="M86.52,-73.12C77.7,-64.04 66.48,-52.49 56.67,-42.39"/>
<polygon fill="black" stroke="black" points="59.38,-40.16 49.91,-35.43 54.36,-45.04 59.38,-40.16"/>
</g>
<!-- features&#45;&gt;error -->
<g id="edge8" class="edge">
<title>features&#45;&gt;error</title>
<path fill="none" stroke="black" d="M125.55,-75C143.99,-64.06 169.75,-48.78 189.71,-36.94"/>
<polygon fill="black" stroke="black" points="191.43,-39.99 198.24,-31.88 187.86,-33.97 191.43,-39.99"/>
</g>
<!-- signer -->
<g id="node7" class="node">
<title>signer</title>
<ellipse fill="none" stroke="black" cx="118.95" cy="-18" rx="33.44" ry="18"/>
<text text-anchor="middle" x="118.95" y="-12.95" font-family="Times,serif" font-size="14.00">signer</text>
</g>
<!-- features&#45;&gt;signer -->
<g id="edge7" class="edge">
<title>features&#45;&gt;signer</title>
<path fill="none" stroke="black" d="M106.15,-71.7C107.94,-64.32 110.08,-55.52 112.09,-47.25"/>
<polygon fill="black" stroke="black" points="115.48,-48.12 114.44,-37.58 108.68,-46.47 115.48,-48.12"/>
</g>
</g>
</svg>
