<?xml version="1.0" encoding="UTF-8" standalone="no"?>
<!DOCTYPE svg PUBLIC "-//W3C//DTD SVG 1.1//EN"
 "http://www.w3.org/Graphics/SVG/1.1/DTD/svg11.dtd">
<!-- Generated by graphviz version 12.1.2 (20240928.0832)
 -->
<!-- Title: G Pages: 1 -->
<svg width="154pt" height="260pt"
 viewBox="0.00 0.00 153.75 260.00" xmlns="http://www.w3.org/2000/svg" xmlns:xlink="http://www.w3.org/1999/xlink">
<g id="graph0" class="graph" transform="scale(1 1) rotate(0) translate(4 256)">
<title>G</title>
<polygon fill="white" stroke="none" points="-4,4 -4,-256 149.75,-256 149.75,4 -4,4"/>
<!-- utils -->
<g id="node1" class="node">
<title>utils</title>
<ellipse fill="none" stroke="black" cx="50.33" cy="-18" rx="27" ry="18"/>
<text text-anchor="middle" x="50.33" y="-12.95" font-family="Times,serif" font-size="14.00">utils</text>
</g>
<!-- mechanics -->
<g id="node2" class="node">
<title>mechanics</title>
<ellipse fill="none" stroke="black" cx="50.33" cy="-90" rx="50.33" ry="18"/>
<text text-anchor="middle" x="50.33" y="-84.95" font-family="Times,serif" font-size="14.00">mechanics</text>
</g>
<!-- mechanics&#45;&gt;utils -->
<g id="edge1" class="edge">
<title>mechanics&#45;&gt;utils</title>
<path fill="none" stroke="black" d="M50.33,-71.7C50.33,-64.41 50.33,-55.73 50.33,-47.54"/>
<polygon fill="black" stroke="black" points="53.83,-47.62 50.33,-37.62 46.83,-47.62 53.83,-47.62"/>
</g>
<!-- short_game -->
<g id="node3" class="node">
<title>short_game</title>
<ellipse fill="none" stroke="black" cx="91.33" cy="-162" rx="54.42" ry="18"/>
<text text-anchor="middle" x="91.33" y="-156.95" font-family="Times,serif" font-size="14.00">short_game</text>
</g>
<!-- short_game&#45;&gt;mechanics -->
<g id="edge2" class="edge">
<title>short_game&#45;&gt;mechanics</title>
<path fill="none" stroke="black" d="M81.4,-144.05C76.77,-136.14 71.14,-126.54 65.96,-117.69"/>
<polygon fill="black" stroke="black" points="69,-115.95 60.93,-109.1 62.96,-119.49 69,-115.95"/>
</g>
<!-- router -->
<g id="node4" class="node">
<title>router</title>
<ellipse fill="none" stroke="black" cx="50.33" cy="-234" rx="32.93" ry="18"/>
<text text-anchor="middle" x="50.33" y="-228.95" font-family="Times,serif" font-size="14.00">router</text>
</g>
<!-- router&#45;&gt;mechanics -->
<g id="edge3" class="edge">
<title>router&#45;&gt;mechanics</title>
<path fill="none" stroke="black" d="M41.43,-216.35C36.49,-206.17 30.86,-192.7 28.33,-180 25.2,-164.31 25.2,-159.69 28.33,-144 30.04,-135.4 33.18,-126.45 36.55,-118.41"/>
<polygon fill="black" stroke="black" points="39.65,-120.05 40.57,-109.5 33.27,-117.17 39.65,-120.05"/>
</g>
<!-- router&#45;&gt;short_game -->
<g id="edge4" class="edge">
<title>router&#45;&gt;short_game</title>
<path fill="none" stroke="black" d="M60.04,-216.41C64.72,-208.42 70.45,-198.64 75.72,-189.64"/>
<polygon fill="black" stroke="black" points="78.6,-191.66 80.63,-181.26 72.56,-188.12 78.6,-191.66"/>
</g>
</g>
</svg>
