<?xml version="1.0" encoding="UTF-8" standalone="no"?>
<!DOCTYPE svg PUBLIC "-//W3C//DTD SVG 1.1//EN"
 "http://www.w3.org/Graphics/SVG/1.1/DTD/svg11.dtd">
<!-- Generated by graphviz version 12.1.2 (20240928.0832)
 -->
<!-- Title: G Pages: 1 -->
<svg width="3397pt" height="980pt"
 viewBox="0.00 0.00 3396.60 980.00" xmlns="http://www.w3.org/2000/svg" xmlns:xlink="http://www.w3.org/1999/xlink">
<g id="graph0" class="graph" transform="scale(1 1) rotate(0) translate(4 976)">
<title>G</title>
<polygon fill="white" stroke="none" points="-4,4 -4,-976 3392.6,-976 3392.6,4 -4,4"/>
<!-- trust_coin -->
<g id="node1" class="node">
<title>trust_coin</title>
<ellipse fill="none" stroke="black" cx="906" cy="-954" rx="47.77" ry="18"/>
<text text-anchor="middle" x="906" y="-948.95" font-family="Times,serif" font-size="14.00">trust_coin</text>
</g>
<!-- vector -->
<g id="node2" class="node">
<title>vector</title>
<ellipse fill="none" stroke="black" cx="1832" cy="-18" rx="33.95" ry="18"/>
<text text-anchor="middle" x="1832" y="-12.95" font-family="Times,serif" font-size="14.00">vector</text>
</g>
<!-- trust_coin&#45;&gt;vector -->
<g id="edge1" class="edge">
<title>trust_coin&#45;&gt;vector</title>
<path fill="none" stroke="black" d="M953.8,-952.98C1222.57,-952.71 2547.78,-948.88 2953,-900 3133.38,-878.24 3352,-992.69 3352,-811 3352,-811 3352,-811 3352,-161 3352,-124.53 3508.12,-152.45 3170,-72 3042.24,-41.6 2097.54,-23.57 1877.65,-19.76"/>
<polygon fill="black" stroke="black" points="1877.83,-16.26 1867.77,-19.59 1877.71,-23.26 1877.83,-16.26"/>
</g>
<!-- option -->
<g id="node3" class="node">
<title>option</title>
<ellipse fill="none" stroke="black" cx="1458" cy="-90" rx="34.46" ry="18"/>
<text text-anchor="middle" x="1458" y="-84.95" font-family="Times,serif" font-size="14.00">option</text>
</g>
<!-- trust_coin&#45;&gt;option -->
<g id="edge2" class="edge">
<title>trust_coin&#45;&gt;option</title>
<path fill="none" stroke="black" d="M905.51,-935.75C904.36,-897.1 901.29,-800.65 897,-720 888.48,-559.93 829.79,-513.79 875,-360 907.2,-250.47 917.21,-204.53 1014,-144 1079.54,-103.01 1311.82,-93.72 1411.74,-91.62"/>
<polygon fill="black" stroke="black" points="1411.81,-95.12 1421.74,-91.42 1411.67,-88.12 1411.81,-95.12"/>
</g>
<!-- string -->
<g id="node4" class="node">
<title>string</title>
<ellipse fill="none" stroke="black" cx="304" cy="-162" rx="31.9" ry="18"/>
<text text-anchor="middle" x="304" y="-156.95" font-family="Times,serif" font-size="14.00">string</text>
</g>
<!-- trust_coin&#45;&gt;string -->
<g id="edge3" class="edge">
<title>trust_coin&#45;&gt;string</title>
<path fill="none" stroke="black" d="M857.96,-953.5C711.65,-954.44 273.62,-952.65 143,-900 86.26,-877.13 38,-872.18 38,-811 38,-811 38,-811 38,-305 38,-258.73 54.76,-243.45 92,-216 142.01,-179.14 214.78,-167.75 260.73,-164.33"/>
<polygon fill="black" stroke="black" points="260.82,-167.83 270.58,-163.7 260.38,-160.84 260.82,-167.83"/>
</g>
<!-- signer -->
<g id="node5" class="node">
<title>signer</title>
<ellipse fill="none" stroke="black" cx="594" cy="-90" rx="33.44" ry="18"/>
<text text-anchor="middle" x="594" y="-84.95" font-family="Times,serif" font-size="14.00">signer</text>
</g>
<!-- trust_coin&#45;&gt;signer -->
<g id="edge4" class="edge">
<title>trust_coin&#45;&gt;signer</title>
<path fill="none" stroke="black" d="M858.13,-952.47C689.32,-950.28 128.25,-940.01 59,-900 17.91,-876.26 0,-858.46 0,-811 0,-811 0,-811 0,-305 0,-260.06 13.62,-244.94 48,-216 124.96,-151.22 434.15,-109.5 549.93,-95.88"/>
<polygon fill="black" stroke="black" points="550.13,-99.38 559.66,-94.75 549.32,-92.43 550.13,-99.38"/>
</g>
<!-- event -->
<g id="node6" class="node">
<title>event</title>
<ellipse fill="none" stroke="black" cx="2255" cy="-378" rx="30.88" ry="18"/>
<text text-anchor="middle" x="2255" y="-372.95" font-family="Times,serif" font-size="14.00">event</text>
</g>
<!-- trust_coin&#45;&gt;event -->
<g id="edge5" class="edge">
<title>trust_coin&#45;&gt;event</title>
<path fill="none" stroke="black" d="M953.82,-951.77C1238.17,-944.18 2694,-900.92 2694,-811 2694,-811 2694,-811 2694,-737 2694,-531.09 2400.36,-422.53 2293.39,-389.81"/>
<polygon fill="black" stroke="black" points="2294.5,-386.49 2283.91,-386.97 2292.49,-393.19 2294.5,-386.49"/>
</g>
<!-- object -->
<g id="node7" class="node">
<title>object</title>
<ellipse fill="none" stroke="black" cx="1095" cy="-522" rx="33.44" ry="18"/>
<text text-anchor="middle" x="1095" y="-516.95" font-family="Times,serif" font-size="14.00">object</text>
</g>
<!-- trust_coin&#45;&gt;object -->
<g id="edge6" class="edge">
<title>trust_coin&#45;&gt;object</title>
<path fill="none" stroke="black" d="M913.53,-935.88C942.57,-869.79 1047.54,-630.98 1083.11,-550.04"/>
<polygon fill="black" stroke="black" points="1086.23,-551.65 1087.05,-541.09 1079.82,-548.84 1086.23,-551.65"/>
</g>
<!-- function_info -->
<g id="node8" class="node">
<title>function_info</title>
<ellipse fill="none" stroke="black" cx="393" cy="-234" rx="61.08" ry="18"/>
<text text-anchor="middle" x="393" y="-228.95" font-family="Times,serif" font-size="14.00">function_info</text>
</g>
<!-- trust_coin&#45;&gt;function_info -->
<g id="edge7" class="edge">
<title>trust_coin&#45;&gt;function_info</title>
<path fill="none" stroke="black" d="M857.92,-952.83C752.54,-951.63 505.17,-944.07 436,-900 228.65,-767.89 244.9,-595.35 316,-360 327.39,-322.31 353.07,-284.58 371.65,-260.59"/>
<polygon fill="black" stroke="black" points="374.22,-263 377.69,-252.99 368.73,-258.65 374.22,-263"/>
</g>
<!-- fungible_asset -->
<g id="node9" class="node">
<title>fungible_asset</title>
<ellipse fill="none" stroke="black" cx="748" cy="-594" rx="64.15" ry="18"/>
<text text-anchor="middle" x="748" y="-588.95" font-family="Times,serif" font-size="14.00">fungible_asset</text>
</g>
<!-- trust_coin&#45;&gt;fungible_asset -->
<g id="edge8" class="edge">
<title>trust_coin&#45;&gt;fungible_asset</title>
<path fill="none" stroke="black" d="M858.93,-949.98C732.68,-940.59 396,-906.59 396,-811 396,-811 396,-811 396,-737 396,-675.47 583.32,-628.14 684.66,-607.04"/>
<polygon fill="black" stroke="black" points="685.11,-610.53 694.2,-605.09 683.7,-603.67 685.11,-610.53"/>
</g>
<!-- dispatchable_fungible_asset -->
<g id="node10" class="node">
<title>dispatchable_fungible_asset</title>
<ellipse fill="none" stroke="black" cx="653" cy="-666" rx="114.82" ry="18"/>
<text text-anchor="middle" x="653" y="-660.95" font-family="Times,serif" font-size="14.00">dispatchable_fungible_asset</text>
</g>
<!-- trust_coin&#45;&gt;dispatchable_fungible_asset -->
<g id="edge9" class="edge">
<title>trust_coin&#45;&gt;dispatchable_fungible_asset</title>
<path fill="none" stroke="black" d="M882.15,-938.17C836.89,-908.85 738.15,-839.06 683,-756 670.79,-737.61 663.11,-713.79 658.57,-695.42"/>
<polygon fill="black" stroke="black" points="662,-694.7 656.37,-685.72 655.17,-696.25 662,-694.7"/>
</g>
<!-- primary_fungible_store -->
<g id="node11" class="node">
<title>primary_fungible_store</title>
<ellipse fill="none" stroke="black" cx="790" cy="-738" rx="98.44" ry="18"/>
<text text-anchor="middle" x="790" y="-732.95" font-family="Times,serif" font-size="14.00">primary_fungible_store</text>
</g>
<!-- trust_coin&#45;&gt;primary_fungible_store -->
<g id="edge10" class="edge">
<title>trust_coin&#45;&gt;primary_fungible_store</title>
<path fill="none" stroke="black" d="M896.7,-935.85C876.6,-898.75 828.93,-810.81 804.69,-766.1"/>
<polygon fill="black" stroke="black" points="807.9,-764.69 800.06,-757.56 801.75,-768.02 807.9,-764.69"/>
</g>
<!-- coin -->
<g id="node12" class="node">
<title>coin</title>
<ellipse fill="none" stroke="black" cx="1804" cy="-810" rx="27" ry="18"/>
<text text-anchor="middle" x="1804" y="-804.95" font-family="Times,serif" font-size="14.00">coin</text>
</g>
<!-- trust_coin&#45;&gt;coin -->
<g id="edge11" class="edge">
<title>trust_coin&#45;&gt;coin</title>
<path fill="none" stroke="black" d="M943.94,-942.57C1012.63,-924.07 1162.43,-885.42 1291,-864 1466.9,-834.7 1679.61,-818.91 1765.39,-813.34"/>
<polygon fill="black" stroke="black" points="1765.6,-816.84 1775.35,-812.71 1765.15,-809.85 1765.6,-816.84"/>
</g>
<!-- aptos_coin -->
<g id="node13" class="node">
<title>aptos_coin</title>
<ellipse fill="none" stroke="black" cx="1351" cy="-882" rx="50.84" ry="18"/>
<text text-anchor="middle" x="1351" y="-876.95" font-family="Times,serif" font-size="14.00">aptos_coin</text>
</g>
<!-- trust_coin&#45;&gt;aptos_coin -->
<g id="edge12" class="edge">
<title>trust_coin&#45;&gt;aptos_coin</title>
<path fill="none" stroke="black" d="M949.48,-946.16C1030.35,-933.44 1203.85,-906.15 1294,-891.97"/>
<polygon fill="black" stroke="black" points="1294.53,-895.43 1303.86,-890.42 1293.44,-888.51 1294.53,-895.43"/>
</g>
<!-- timestamp -->
<g id="node14" class="node">
<title>timestamp</title>
<ellipse fill="none" stroke="black" cx="2658" cy="-378" rx="50.33" ry="18"/>
<text text-anchor="middle" x="2658" y="-372.95" font-family="Times,serif" font-size="14.00">timestamp</text>
</g>
<!-- trust_coin&#45;&gt;timestamp -->
<g id="edge13" class="edge">
<title>trust_coin&#45;&gt;timestamp</title>
<path fill="none" stroke="black" d="M954,-952.49C1275.72,-948.77 3106,-922.71 3106,-811 3106,-811 3106,-811 3106,-737 3106,-511.95 2806.02,-652.39 2677,-468 2664.67,-450.37 2660.08,-426.32 2658.48,-407.66"/>
<polygon fill="black" stroke="black" points="2661.99,-407.59 2657.91,-397.81 2655,-408 2661.99,-407.59"/>
</g>
<!-- smart_table -->
<g id="node15" class="node">
<title>smart_table</title>
<ellipse fill="none" stroke="black" cx="3077" cy="-306" rx="54.42" ry="18"/>
<text text-anchor="middle" x="3077" y="-300.95" font-family="Times,serif" font-size="14.00">smart_table</text>
</g>
<!-- trust_coin&#45;&gt;smart_table -->
<g id="edge14" class="edge">
<title>trust_coin&#45;&gt;smart_table</title>
<path fill="none" stroke="black" d="M954.15,-952.71C1290.55,-950.42 3276,-931.73 3276,-811 3276,-811 3276,-811 3276,-449 3276,-377.63 3190.13,-338.75 3131.21,-320.47"/>
<polygon fill="black" stroke="black" points="3132.21,-317.12 3121.63,-317.62 3130.22,-323.83 3132.21,-317.12"/>
</g>
<!-- string_utils -->
<g id="node16" class="node">
<title>string_utils</title>
<ellipse fill="none" stroke="black" cx="118" cy="-810" rx="52.38" ry="18"/>
<text text-anchor="middle" x="118" y="-804.95" font-family="Times,serif" font-size="14.00">string_utils</text>
</g>
<!-- trust_coin&#45;&gt;string_utils -->
<g id="edge15" class="edge">
<title>trust_coin&#45;&gt;string_utils</title>
<path fill="none" stroke="black" d="M858.3,-951.79C706.77,-947.64 242.84,-932.38 184,-900 159.31,-886.42 141.27,-859.24 130.35,-838.48"/>
<polygon fill="black" stroke="black" points="133.55,-837.06 125.97,-829.66 127.29,-840.17 133.55,-837.06"/>
</g>
<!-- option&#45;&gt;vector -->
<g id="edge16" class="edge">
<title>option&#45;&gt;vector</title>
<path fill="none" stroke="black" d="M1490.21,-82.97C1557.62,-70.35 1713.58,-41.16 1789.27,-27"/>
<polygon fill="black" stroke="black" points="1789.59,-30.5 1798.78,-25.22 1788.3,-23.62 1789.59,-30.5"/>
</g>
<!-- string&#45;&gt;vector -->
<g id="edge17" class="edge">
<title>string&#45;&gt;vector</title>
<path fill="none" stroke="black" d="M327.94,-149.63C371.41,-129.62 466.7,-88.67 552,-72 795.6,-24.4 1587.37,-19.51 1786.32,-19.04"/>
<polygon fill="black" stroke="black" points="1786.25,-22.54 1796.25,-19.02 1786.24,-15.54 1786.25,-22.54"/>
</g>
<!-- string&#45;&gt;option -->
<g id="edge18" class="edge">
<title>string&#45;&gt;option</title>
<path fill="none" stroke="black" d="M335.77,-159.07C496.76,-149.31 1222.32,-105.3 1412.33,-93.77"/>
<polygon fill="black" stroke="black" points="1412.27,-97.28 1422.04,-93.18 1411.85,-90.29 1412.27,-97.28"/>
</g>
<!-- bcs -->
<g id="node17" class="node">
<title>bcs</title>
<ellipse fill="none" stroke="black" cx="1908" cy="-162" rx="27" ry="18"/>
<text text-anchor="middle" x="1908" y="-156.95" font-family="Times,serif" font-size="14.00">bcs</text>
</g>
<!-- event&#45;&gt;bcs -->
<g id="edge19" class="edge">
<title>event&#45;&gt;bcs</title>
<path fill="none" stroke="black" d="M2239.84,-362.13C2218.89,-342.38 2179.1,-307.7 2139,-288 2082.88,-260.43 2057.7,-282.29 2003,-252 1986.8,-243.03 1952.41,-209.07 1929.76,-185.8"/>
<polygon fill="black" stroke="black" points="1932.52,-183.61 1923.05,-178.86 1927.49,-188.48 1932.52,-183.61"/>
</g>
<!-- guid -->
<g id="node18" class="node">
<title>guid</title>
<ellipse fill="none" stroke="black" cx="2103" cy="-306" rx="27.3" ry="18"/>
<text text-anchor="middle" x="2103" y="-300.95" font-family="Times,serif" font-size="14.00">guid</text>
</g>
<!-- event&#45;&gt;guid -->
<g id="edge20" class="edge">
<title>event&#45;&gt;guid</title>
<path fill="none" stroke="black" d="M2231.25,-366.06C2205.48,-354.2 2164.19,-335.18 2135.45,-321.94"/>
<polygon fill="black" stroke="black" points="2137.02,-318.82 2126.48,-317.81 2134.1,-325.17 2137.02,-318.82"/>
</g>
<!-- object&#45;&gt;vector -->
<g id="edge21" class="edge">
<title>object&#45;&gt;vector</title>
<path fill="none" stroke="black" d="M1062.07,-518.44C944.74,-507.71 541.35,-456.89 301,-252 262.28,-218.99 235.03,-186.51 263,-144 307.42,-76.47 351.16,-89.83 430,-72 564.64,-41.55 1560.21,-23.47 1786.38,-19.73"/>
<polygon fill="black" stroke="black" points="1786.32,-23.23 1796.26,-19.57 1786.2,-16.23 1786.32,-23.23"/>
</g>
<!-- object&#45;&gt;signer -->
<g id="edge22" class="edge">
<title>object&#45;&gt;signer</title>
<path fill="none" stroke="black" d="M1084.67,-504.53C1062.03,-468.62 1008.16,-384.58 985,-360 873.25,-241.4 700.8,-145.5 628.14,-108.01"/>
<polygon fill="black" stroke="black" points="630,-105.03 619.51,-103.6 626.82,-111.27 630,-105.03"/>
</g>
<!-- object&#45;&gt;event -->
<g id="edge29" class="edge">
<title>object&#45;&gt;event</title>
<path fill="none" stroke="black" d="M1128.68,-521.06C1279.75,-521.07 1895.62,-517.96 2081,-468 2109.99,-460.19 2182.07,-420.63 2223.8,-396.96"/>
<polygon fill="black" stroke="black" points="2225.44,-400.06 2232.39,-392.07 2221.97,-393.98 2225.44,-400.06"/>
</g>
<!-- object&#45;&gt;bcs -->
<g id="edge25" class="edge">
<title>object&#45;&gt;bcs</title>
<path fill="none" stroke="black" d="M1128.65,-520.44C1261.3,-517.98 1743.44,-506.44 1799,-468 1891.34,-404.11 1905.95,-254.32 1907.9,-191.51"/>
<polygon fill="black" stroke="black" points="1911.4,-191.74 1908.11,-181.67 1904.4,-191.59 1911.4,-191.74"/>
</g>
<!-- object&#45;&gt;guid -->
<g id="edge27" class="edge">
<title>object&#45;&gt;guid</title>
<path fill="none" stroke="black" d="M1128.6,-521.33C1271.31,-522.38 1827.34,-522.82 1992,-468 2047.09,-449.66 2072.92,-446.82 2101,-396 2111.12,-377.69 2111.09,-353.86 2108.83,-335.47"/>
<polygon fill="black" stroke="black" points="2112.32,-335.12 2107.33,-325.78 2105.4,-336.19 2112.32,-335.12"/>
</g>
<!-- error -->
<g id="node19" class="node">
<title>error</title>
<ellipse fill="none" stroke="black" cx="2372" cy="-90" rx="28.83" ry="18"/>
<text text-anchor="middle" x="2372" y="-84.95" font-family="Times,serif" font-size="14.00">error</text>
</g>
<!-- object&#45;&gt;error -->
<g id="edge23" class="edge">
<title>object&#45;&gt;error</title>
<path fill="none" stroke="black" d="M1128.77,-520.92C1284.61,-520.29 1934.92,-514.87 2132,-468 2209.05,-449.67 2244.52,-457.02 2295,-396 2326.41,-358.04 2308.16,-335.82 2320,-288 2334.99,-227.48 2353.99,-156.9 2364.37,-118.81"/>
<polygon fill="black" stroke="black" points="2367.64,-120.11 2366.9,-109.54 2360.89,-118.27 2367.64,-120.11"/>
</g>
<!-- features -->
<g id="node20" class="node">
<title>features</title>
<ellipse fill="none" stroke="black" cx="1063" cy="-162" rx="40.09" ry="18"/>
<text text-anchor="middle" x="1063" y="-156.95" font-family="Times,serif" font-size="14.00">features</text>
</g>
<!-- object&#45;&gt;features -->
<g id="edge24" class="edge">
<title>object&#45;&gt;features</title>
<path fill="none" stroke="black" d="M1089.12,-503.97C1074.93,-461.88 1039.1,-349.28 1027,-252 1025.02,-236.12 1022.3,-231.29 1027,-216 1030.05,-206.07 1035.68,-196.32 1041.58,-187.95"/>
<polygon fill="black" stroke="black" points="1044.33,-190.12 1047.6,-180.04 1038.76,-185.89 1044.33,-190.12"/>
</g>
<!-- hash -->
<g id="node21" class="node">
<title>hash</title>
<ellipse fill="none" stroke="black" cx="1514" cy="-234" rx="27.81" ry="18"/>
<text text-anchor="middle" x="1514" y="-228.95" font-family="Times,serif" font-size="14.00">hash</text>
</g>
<!-- object&#45;&gt;hash -->
<g id="edge26" class="edge">
<title>object&#45;&gt;hash</title>
<path fill="none" stroke="black" d="M1103.11,-504.55C1119.63,-472.58 1160.14,-401.54 1213,-360 1295.55,-295.14 1416.56,-258.63 1476.91,-243.45"/>
<polygon fill="black" stroke="black" points="1477.45,-246.93 1486.33,-241.14 1475.78,-240.13 1477.45,-246.93"/>
</g>
<!-- from_bcs -->
<g id="node22" class="node">
<title>from_bcs</title>
<ellipse fill="none" stroke="black" cx="930" cy="-378" rx="46.23" ry="18"/>
<text text-anchor="middle" x="930" y="-372.95" font-family="Times,serif" font-size="14.00">from_bcs</text>
</g>
<!-- object&#45;&gt;from_bcs -->
<g id="edge28" class="edge">
<title>object&#45;&gt;from_bcs</title>
<path fill="none" stroke="black" d="M1067.27,-511.51C1044.65,-502.77 1012.82,-488.12 990,-468 970.19,-450.53 953.92,-425.12 943.35,-405.92"/>
<polygon fill="black" stroke="black" points="946.56,-404.51 938.78,-397.32 940.38,-407.79 946.56,-404.51"/>
</g>
<!-- create_signer -->
<g id="node23" class="node">
<title>create_signer</title>
<ellipse fill="none" stroke="black" cx="1282" cy="-378" rx="60.05" ry="18"/>
<text text-anchor="middle" x="1282" y="-372.95" font-family="Times,serif" font-size="14.00">create_signer</text>
</g>
<!-- object&#45;&gt;create_signer -->
<g id="edge30" class="edge">
<title>object&#45;&gt;create_signer</title>
<path fill="none" stroke="black" d="M1122.89,-511.84C1146.99,-503.05 1181.94,-488.14 1208,-468 1230.75,-450.42 1251.18,-424.7 1264.78,-405.42"/>
<polygon fill="black" stroke="black" points="1267.62,-407.47 1270.39,-397.25 1261.85,-403.51 1267.62,-407.47"/>
</g>
<!-- account -->
<g id="node24" class="node">
<title>account</title>
<ellipse fill="none" stroke="black" cx="1750" cy="-450" rx="39.58" ry="18"/>
<text text-anchor="middle" x="1750" y="-444.95" font-family="Times,serif" font-size="14.00">account</text>
</g>
<!-- object&#45;&gt;account -->
<g id="edge31" class="edge">
<title>object&#45;&gt;account</title>
<path fill="none" stroke="black" d="M1127.48,-517.53C1233.87,-506.16 1572.34,-469.99 1700.33,-456.31"/>
<polygon fill="black" stroke="black" points="1700.61,-459.8 1710.18,-455.26 1699.87,-452.84 1700.61,-459.8"/>
</g>
<!-- transaction_context -->
<g id="node25" class="node">
<title>transaction_context</title>
<ellipse fill="none" stroke="black" cx="1119" cy="-234" rx="83.08" ry="18"/>
<text text-anchor="middle" x="1119" y="-228.95" font-family="Times,serif" font-size="14.00">transaction_context</text>
</g>
<!-- object&#45;&gt;transaction_context -->
<g id="edge32" class="edge">
<title>object&#45;&gt;transaction_context</title>
<path fill="none" stroke="black" d="M1095.61,-503.58C1096.73,-474.02 1099.42,-412.15 1104,-360 1106.91,-326.88 1111.66,-288.99 1115.03,-263.69"/>
<polygon fill="black" stroke="black" points="1118.49,-264.23 1116.36,-253.85 1111.55,-263.3 1118.49,-264.23"/>
</g>
<!-- function_info&#45;&gt;string -->
<g id="edge33" class="edge">
<title>function_info&#45;&gt;string</title>
<path fill="none" stroke="black" d="M372.36,-216.76C360.01,-207.05 344.18,-194.6 330.86,-184.13"/>
<polygon fill="black" stroke="black" points="333.33,-181.62 323.31,-178.19 329,-187.12 333.33,-181.62"/>
</g>
<!-- function_info&#45;&gt;signer -->
<g id="edge34" class="edge">
<title>function_info&#45;&gt;signer</title>
<path fill="none" stroke="black" d="M403.8,-215.81C416.9,-196.16 440.66,-164.12 468,-144 493.92,-124.92 527.74,-111.19 553.82,-102.48"/>
<polygon fill="black" stroke="black" points="554.58,-105.91 563.03,-99.52 552.44,-99.25 554.58,-105.91"/>
</g>
<!-- function_info&#45;&gt;error -->
<g id="edge35" class="edge">
<title>function_info&#45;&gt;error</title>
<path fill="none" stroke="black" d="M439.43,-222.04C524.86,-202.41 712.97,-161.65 874,-144 1168.36,-111.74 2123.23,-94.95 2331.6,-91.62"/>
<polygon fill="black" stroke="black" points="2331.43,-95.12 2341.37,-91.47 2331.32,-88.13 2331.43,-95.12"/>
</g>
<!-- function_info&#45;&gt;features -->
<g id="edge36" class="edge">
<title>function_info&#45;&gt;features</title>
<path fill="none" stroke="black" d="M449.83,-227.06C578.55,-213.61 890.59,-181.01 1012.76,-168.25"/>
<polygon fill="black" stroke="black" points="1012.89,-171.75 1022.48,-167.23 1012.17,-164.79 1012.89,-171.75"/>
</g>
<!-- fungible_asset&#45;&gt;option -->
<g id="edge37" class="edge">
<title>fungible_asset&#45;&gt;option</title>
<path fill="none" stroke="black" d="M759.44,-576.07C766.24,-565.78 774.89,-552.31 782,-540 804.51,-501.01 840.64,-389.09 875,-360 994.72,-258.66 1070.22,-321.18 1211,-252 1287.01,-214.65 1296.58,-189.52 1368,-144 1386.79,-132.02 1408.28,-119.33 1425.55,-109.37"/>
<polygon fill="black" stroke="black" points="1426.93,-112.62 1433.86,-104.6 1423.44,-106.55 1426.93,-112.62"/>
</g>
<!-- fungible_asset&#45;&gt;string -->
<g id="edge38" class="edge">
<title>fungible_asset&#45;&gt;string</title>
<path fill="none" stroke="black" d="M705.46,-580.09C678.9,-571.01 644.62,-557.38 617,-540 456.18,-438.78 377.77,-425.83 301,-252 292.64,-233.06 293.84,-209.59 296.9,-191.51"/>
<polygon fill="black" stroke="black" points="300.32,-192.21 298.85,-181.72 293.46,-190.84 300.32,-192.21"/>
</g>
<!-- fungible_asset&#45;&gt;signer -->
<g id="edge39" class="edge">
<title>fungible_asset&#45;&gt;signer</title>
<path fill="none" stroke="black" d="M734.26,-576.16C726.6,-566.14 717.35,-552.89 711,-540 651.68,-419.58 651.01,-382.61 620,-252 609.1,-206.08 601.37,-151.69 597.3,-119.34"/>
<polygon fill="black" stroke="black" points="600.8,-119.08 596.11,-109.58 593.85,-119.94 600.8,-119.08"/>
</g>
<!-- fungible_asset&#45;&gt;event -->
<g id="edge42" class="edge">
<title>fungible_asset&#45;&gt;event</title>
<path fill="none" stroke="black" d="M812.09,-591.7C1050.5,-586.16 1885.02,-560.46 2132,-468 2170.96,-453.41 2208.64,-422.98 2231.8,-401.79"/>
<polygon fill="black" stroke="black" points="2233.92,-404.59 2238.83,-395.2 2229.14,-399.48 2233.92,-404.59"/>
</g>
<!-- fungible_asset&#45;&gt;object -->
<g id="edge45" class="edge">
<title>fungible_asset&#45;&gt;object</title>
<path fill="none" stroke="black" d="M796.6,-581.98C806.32,-579.9 816.47,-577.81 826,-576 924.2,-557.35 951.25,-565.11 1048,-540 1051.34,-539.13 1054.77,-538.13 1058.19,-537.05"/>
<polygon fill="black" stroke="black" points="1059.14,-540.42 1067.49,-533.89 1056.89,-533.79 1059.14,-540.42"/>
</g>
<!-- fungible_asset&#45;&gt;function_info -->
<g id="edge46" class="edge">
<title>fungible_asset&#45;&gt;function_info</title>
<path fill="none" stroke="black" d="M716.8,-577.85C698.7,-568.3 675.98,-554.96 658,-540 551.16,-451.13 450.98,-317.16 411.14,-261.11"/>
<polygon fill="black" stroke="black" points="414.12,-259.27 405.5,-253.12 408.4,-263.3 414.12,-259.27"/>
</g>
<!-- fungible_asset&#45;&gt;error -->
<g id="edge40" class="edge">
<title>fungible_asset&#45;&gt;error</title>
<path fill="none" stroke="black" d="M811.7,-591.47C1019.17,-586.27 1674.23,-567.99 1884,-540 2030.22,-520.49 2072.08,-525.32 2208,-468 2261.84,-445.29 2284.66,-443.99 2318,-396 2346.08,-355.58 2360.15,-228.74 2367,-180 2369.8,-160.05 2371.05,-137.37 2371.6,-119.9"/>
<polygon fill="black" stroke="black" points="2375.09,-120.08 2371.84,-109.99 2368.09,-119.9 2375.09,-120.08"/>
</g>
<!-- fungible_asset&#45;&gt;features -->
<g id="edge41" class="edge">
<title>fungible_asset&#45;&gt;features</title>
<path fill="none" stroke="black" d="M752.09,-575.59C762.23,-534.96 791.43,-431.88 842,-360 870.6,-319.35 982.11,-227.7 1034.94,-185.29"/>
<polygon fill="black" stroke="black" points="1036.99,-188.14 1042.61,-179.16 1032.61,-182.67 1036.99,-188.14"/>
</g>
<!-- fungible_asset&#45;&gt;create_signer -->
<g id="edge43" class="edge">
<title>fungible_asset&#45;&gt;create_signer</title>
<path fill="none" stroke="black" d="M785.55,-578.95C813.57,-568.39 852.76,-553.5 887,-540 1014.61,-489.67 1164.36,-427.88 1237.4,-397.57"/>
<polygon fill="black" stroke="black" points="1238.74,-400.8 1246.63,-393.73 1236.05,-394.34 1238.74,-400.8"/>
</g>
<!-- aggregator_v2 -->
<g id="node26" class="node">
<title>aggregator_v2</title>
<ellipse fill="none" stroke="black" cx="726" cy="-234" rx="64.15" ry="18"/>
<text text-anchor="middle" x="726" y="-228.95" font-family="Times,serif" font-size="14.00">aggregator_v2</text>
</g>
<!-- fungible_asset&#45;&gt;aggregator_v2 -->
<g id="edge44" class="edge">
<title>fungible_asset&#45;&gt;aggregator_v2</title>
<path fill="none" stroke="black" d="M740.35,-575.64C730.34,-551.89 713.34,-507.69 707,-468 695.3,-394.76 709.98,-307.35 719.35,-263.33"/>
<polygon fill="black" stroke="black" points="722.71,-264.35 721.44,-253.83 715.87,-262.85 722.71,-264.35"/>
</g>
<!-- dispatchable_fungible_asset&#45;&gt;option -->
<g id="edge47" class="edge">
<title>dispatchable_fungible_asset&#45;&gt;option</title>
<path fill="none" stroke="black" d="M646.56,-647.79C623.69,-583.47 552.94,-353.83 653,-216 713.69,-132.4 772.81,-164.8 874,-144 1071.4,-103.42 1312.71,-93.91 1411.99,-91.68"/>
<polygon fill="black" stroke="black" points="1411.94,-95.18 1421.86,-91.47 1411.79,-88.18 1411.94,-95.18"/>
</g>
<!-- dispatchable_fungible_asset&#45;&gt;object -->
<g id="edge50" class="edge">
<title>dispatchable_fungible_asset&#45;&gt;object</title>
<path fill="none" stroke="black" d="M718.02,-650.84C750.21,-642.28 788.95,-629.56 821,-612 842.86,-600.02 841.5,-586.73 864,-576 939.21,-540.12 967.69,-562.24 1048,-540 1051.14,-539.13 1054.36,-538.15 1057.58,-537.11"/>
<polygon fill="black" stroke="black" points="1058.62,-540.46 1066.95,-533.92 1056.36,-533.83 1058.62,-540.46"/>
</g>
<!-- dispatchable_fungible_asset&#45;&gt;function_info -->
<g id="edge51" class="edge">
<title>dispatchable_fungible_asset&#45;&gt;function_info</title>
<path fill="none" stroke="black" d="M597.68,-649.79C575.7,-641.52 551.52,-629.34 534,-612 433.01,-512.09 403.5,-333.12 395.63,-263.66"/>
<polygon fill="black" stroke="black" points="399.12,-263.45 394.59,-253.87 392.16,-264.19 399.12,-263.45"/>
</g>
<!-- dispatchable_fungible_asset&#45;&gt;fungible_asset -->
<g id="edge52" class="edge">
<title>dispatchable_fungible_asset&#45;&gt;fungible_asset</title>
<path fill="none" stroke="black" d="M676,-648.05C688.19,-639.07 703.36,-627.9 716.62,-618.12"/>
<polygon fill="black" stroke="black" points="718.68,-620.95 724.65,-612.2 714.52,-615.32 718.68,-620.95"/>
</g>
<!-- dispatchable_fungible_asset&#45;&gt;error -->
<g id="edge48" class="edge">
<title>dispatchable_fungible_asset&#45;&gt;error</title>
<path fill="none" stroke="black" d="M758.57,-658.63C1042.89,-640.15 1818.6,-580.52 2046,-468 2128.55,-427.15 2299.26,-193.51 2354.41,-115.99"/>
<polygon fill="black" stroke="black" points="2357.03,-118.35 2359.96,-108.16 2351.32,-114.3 2357.03,-118.35"/>
</g>
<!-- dispatchable_fungible_asset&#45;&gt;features -->
<g id="edge49" class="edge">
<title>dispatchable_fungible_asset&#45;&gt;features</title>
<path fill="none" stroke="black" d="M655.5,-647.72C658.56,-629.37 664.65,-599.79 675,-576 736.86,-433.79 766.7,-401.85 872,-288 888.13,-270.56 931.27,-229.23 951,-216 973.42,-200.97 1000.77,-187.94 1022.83,-178.56"/>
<polygon fill="black" stroke="black" points="1023.89,-181.91 1031.79,-174.84 1021.21,-175.45 1023.89,-181.91"/>
</g>
<!-- primary_fungible_store&#45;&gt;option -->
<g id="edge53" class="edge">
<title>primary_fungible_store&#45;&gt;option</title>
<path fill="none" stroke="black" d="M841.55,-722.3C918.22,-697.68 1061.36,-640.65 1137,-540 1186.41,-474.25 1139.26,-431.45 1180,-360 1197.2,-329.84 1367.98,-172.91 1433.02,-113.67"/>
<polygon fill="black" stroke="black" points="1435.31,-116.32 1440.35,-107 1430.6,-111.14 1435.31,-116.32"/>
</g>
<!-- primary_fungible_store&#45;&gt;string -->
<g id="edge54" class="edge">
<title>primary_fungible_store&#45;&gt;string</title>
<path fill="none" stroke="black" d="M701.68,-729.77C627.24,-722.13 527.89,-707.82 496,-684 352.53,-576.82 383.72,-489.38 315,-324 296.13,-278.59 285.1,-264.82 291,-216 291.99,-207.78 293.82,-199.01 295.8,-191"/>
<polygon fill="black" stroke="black" points="299.15,-192.02 298.34,-181.46 292.39,-190.22 299.15,-192.02"/>
</g>
<!-- primary_fungible_store&#45;&gt;signer -->
<g id="edge55" class="edge">
<title>primary_fungible_store&#45;&gt;signer</title>
<path fill="none" stroke="black" d="M702.41,-729.55C636.35,-722.09 553.14,-708.17 529,-684 454.35,-609.25 482,-556.64 482,-451 482,-451 482,-451 482,-233 482,-180.13 530.45,-135.38 563.62,-110.94"/>
<polygon fill="black" stroke="black" points="565.59,-113.83 571.7,-105.18 561.52,-108.13 565.59,-113.83"/>
</g>
<!-- primary_fungible_store&#45;&gt;object -->
<g id="edge56" class="edge">
<title>primary_fungible_store&#45;&gt;object</title>
<path fill="none" stroke="black" d="M801.2,-719.92C814.46,-700.67 838.05,-669.27 864,-648 925.35,-597.72 1009.98,-558.06 1057.93,-537.8"/>
<polygon fill="black" stroke="black" points="1059.15,-541.08 1067.04,-534 1056.46,-534.61 1059.15,-541.08"/>
</g>
<!-- primary_fungible_store&#45;&gt;fungible_asset -->
<g id="edge57" class="edge">
<title>primary_fungible_store&#45;&gt;fungible_asset</title>
<path fill="none" stroke="black" d="M789.28,-719.52C788.1,-701.26 785.03,-671.99 777,-648 774,-639.05 769.53,-629.84 764.99,-621.66"/>
<polygon fill="black" stroke="black" points="768.14,-620.12 760.07,-613.26 762.1,-623.66 768.14,-620.12"/>
</g>
<!-- primary_fungible_store&#45;&gt;dispatchable_fungible_asset -->
<g id="edge58" class="edge">
<title>primary_fungible_store&#45;&gt;dispatchable_fungible_asset</title>
<path fill="none" stroke="black" d="M757.88,-720.59C739.29,-711.09 715.67,-699.02 695.55,-688.74"/>
<polygon fill="black" stroke="black" points="697.24,-685.67 686.74,-684.24 694.05,-691.91 697.24,-685.67"/>
</g>
<!-- coin&#45;&gt;option -->
<g id="edge59" class="edge">
<title>coin&#45;&gt;option</title>
<path fill="none" stroke="black" d="M1823.44,-797.1C1827.47,-795.09 1831.78,-793.25 1836,-792 2010.96,-740.16 2071.73,-813.25 2245,-756 2316.8,-732.28 2390,-742.62 2390,-667 2390,-667 2390,-667 2390,-593 2390,-311.73 2216.97,-211.85 1944,-144 1785.71,-104.66 1591.21,-94.52 1504.06,-91.9"/>
<polygon fill="black" stroke="black" points="1504.34,-88.41 1494.25,-91.63 1504.15,-95.41 1504.34,-88.41"/>
</g>
<!-- coin&#45;&gt;string -->
<g id="edge60" class="edge">
<title>coin&#45;&gt;string</title>
<path fill="none" stroke="black" d="M1776.8,-808.48C1597.66,-805 592.72,-784.23 535,-756 337.88,-659.6 347,-537.41 296,-324 284.78,-277.07 276.74,-263.54 285,-216 286.48,-207.49 289.2,-198.54 292.13,-190.47"/>
<polygon fill="black" stroke="black" points="295.38,-191.78 295.75,-181.19 288.86,-189.23 295.38,-191.78"/>
</g>
<!-- coin&#45;&gt;signer -->
<g id="edge61" class="edge">
<title>coin&#45;&gt;signer</title>
<path fill="none" stroke="black" d="M1776.95,-808.14C1683.67,-804.88 1376.23,-791.61 1285,-756 950.32,-625.37 845.49,-555.35 653,-252 625.89,-209.28 635.09,-191.25 617,-144 613.71,-135.4 609.82,-126.16 606.19,-117.83"/>
<polygon fill="black" stroke="black" points="609.5,-116.66 602.24,-108.94 603.1,-119.5 609.5,-116.66"/>
</g>
<!-- coin&#45;&gt;event -->
<g id="edge68" class="edge">
<title>coin&#45;&gt;event</title>
<path fill="none" stroke="black" d="M1830.82,-806.14C1925.44,-795.34 2238,-753.12 2238,-667 2238,-667 2238,-667 2238,-521 2238,-481.24 2244.65,-435.67 2249.63,-407.1"/>
<polygon fill="black" stroke="black" points="2253.04,-407.92 2251.37,-397.46 2246.15,-406.68 2253.04,-407.92"/>
</g>
<!-- coin&#45;&gt;object -->
<g id="edge73" class="edge">
<title>coin&#45;&gt;object</title>
<path fill="none" stroke="black" d="M1776.8,-808.05C1690.58,-804.69 1424.47,-791.61 1347,-756 1241.68,-707.59 1150.91,-598.21 1113.39,-548.48"/>
<polygon fill="black" stroke="black" points="1116.29,-546.51 1107.51,-540.57 1110.68,-550.69 1116.29,-546.51"/>
</g>
<!-- coin&#45;&gt;fungible_asset -->
<g id="edge75" class="edge">
<title>coin&#45;&gt;fungible_asset</title>
<path fill="none" stroke="black" d="M1776.68,-808.09C1665.63,-804.19 1247.89,-787.69 1120,-756 991.3,-724.11 850.53,-651.95 785.18,-616.07"/>
<polygon fill="black" stroke="black" points="787.12,-613.14 776.67,-611.37 783.73,-619.27 787.12,-613.14"/>
</g>
<!-- coin&#45;&gt;primary_fungible_store -->
<g id="edge76" class="edge">
<title>coin&#45;&gt;primary_fungible_store</title>
<path fill="none" stroke="black" d="M1776.88,-807.13C1650.74,-798.42 1118.12,-761.65 892.1,-746.05"/>
<polygon fill="black" stroke="black" points="892.64,-742.58 882.42,-745.38 892.16,-749.56 892.64,-742.58"/>
</g>
<!-- coin&#45;&gt;guid -->
<g id="edge67" class="edge">
<title>coin&#45;&gt;guid</title>
<path fill="none" stroke="black" d="M1831.06,-807.39C1936.5,-800.38 2314,-768.22 2314,-667 2314,-667 2314,-667 2314,-521 2314,-448.95 2341.94,-414.67 2295,-360 2275.08,-336.8 2191.08,-320.37 2141.02,-312.42"/>
<polygon fill="black" stroke="black" points="2141.6,-308.96 2131.18,-310.9 2140.53,-315.88 2141.6,-308.96"/>
</g>
<!-- coin&#45;&gt;error -->
<g id="edge62" class="edge">
<title>coin&#45;&gt;error</title>
<path fill="none" stroke="black" d="M1823.42,-797.01C1827.45,-795.01 1831.76,-793.19 1836,-792 1963.29,-756.16 2322.64,-833.21 2430,-756 2464.64,-731.09 2466,-709.67 2466,-667 2466,-667 2466,-667 2466,-593 2466,-454.93 2559.99,-421.56 2525,-288 2506.39,-216.97 2492.66,-199 2444,-144 2432.08,-130.53 2416.2,-118.4 2402.39,-109.15"/>
<polygon fill="black" stroke="black" points="2404.35,-106.25 2394.05,-103.77 2400.56,-112.13 2404.35,-106.25"/>
</g>
<!-- coin&#45;&gt;features -->
<g id="edge63" class="edge">
<title>coin&#45;&gt;features</title>
<path fill="none" stroke="black" d="M1777,-808.89C1627.64,-808.11 901.54,-801.98 683,-756 595.85,-737.66 557.11,-748.78 496,-684 463.83,-649.89 444,-487.13 444,-451 444,-451 444,-451 444,-377 444,-373.17 882.3,-224.26 1021.26,-177.14"/>
<polygon fill="black" stroke="black" points="1022.1,-180.55 1030.45,-174.03 1019.85,-173.92 1022.1,-180.55"/>
</g>
<!-- coin&#45;&gt;create_signer -->
<g id="edge69" class="edge">
<title>coin&#45;&gt;create_signer</title>
<path fill="none" stroke="black" d="M1776.97,-807.72C1701.67,-803.75 1491.18,-789.84 1432,-756 1388.07,-730.88 1361,-717.6 1361,-667 1361,-667 1361,-667 1361,-521 1361,-475.38 1329.47,-430.73 1306.25,-404.03"/>
<polygon fill="black" stroke="black" points="1309.05,-401.91 1299.77,-396.81 1303.85,-406.59 1309.05,-401.91"/>
</g>
<!-- coin&#45;&gt;account -->
<g id="edge70" class="edge">
<title>coin&#45;&gt;account</title>
<path fill="none" stroke="black" d="M1830.03,-804.51C1912.42,-789.58 2162,-738.46 2162,-667 2162,-667 2162,-667 2162,-593 2162,-517.08 1908.8,-472.93 1799.39,-457.39"/>
<polygon fill="black" stroke="black" points="1799.91,-453.93 1789.52,-456.01 1798.94,-460.86 1799.91,-453.93"/>
</g>
<!-- type_info -->
<g id="node27" class="node">
<title>type_info</title>
<ellipse fill="none" stroke="black" cx="1644" cy="-234" rx="46.23" ry="18"/>
<text text-anchor="middle" x="1644" y="-228.95" font-family="Times,serif" font-size="14.00">type_info</text>
</g>
<!-- coin&#45;&gt;type_info -->
<g id="edge64" class="edge">
<title>coin&#45;&gt;type_info</title>
<path fill="none" stroke="black" d="M1777.97,-804.51C1695.58,-789.58 1446,-738.46 1446,-667 1446,-667 1446,-667 1446,-377 1446,-304.08 1535.79,-264.97 1594.43,-247.21"/>
<polygon fill="black" stroke="black" points="1595.27,-250.61 1603.9,-244.46 1593.32,-243.89 1595.27,-250.61"/>
</g>
<!-- table -->
<g id="node28" class="node">
<title>table</title>
<ellipse fill="none" stroke="black" cx="2791" cy="-162" rx="28.83" ry="18"/>
<text text-anchor="middle" x="2791" y="-156.95" font-family="Times,serif" font-size="14.00">table</text>
</g>
<!-- coin&#45;&gt;table -->
<g id="edge65" class="edge">
<title>coin&#45;&gt;table</title>
<path fill="none" stroke="black" d="M1831.04,-809.07C1977.45,-809.22 2676.29,-807.23 2885,-756 2972.83,-734.44 3068,-757.44 3068,-667 3068,-667 3068,-667 3068,-449 3068,-407.79 3008.53,-313.29 2976,-288 2928.67,-251.2 2893.95,-287.98 2846,-252 2825.13,-236.34 2810.37,-210.24 2801.43,-190.35"/>
<polygon fill="black" stroke="black" points="2804.66,-188.99 2797.54,-181.15 2798.21,-191.72 2804.66,-188.99"/>
</g>
<!-- system_addresses -->
<g id="node29" class="node">
<title>system_addresses</title>
<ellipse fill="none" stroke="black" cx="2439" cy="-306" rx="76.94" ry="18"/>
<text text-anchor="middle" x="2439" y="-300.95" font-family="Times,serif" font-size="14.00">system_addresses</text>
</g>
<!-- coin&#45;&gt;system_addresses -->
<g id="edge66" class="edge">
<title>coin&#45;&gt;system_addresses</title>
<path fill="none" stroke="black" d="M1831.34,-808.4C1942.86,-805.71 2359.63,-793.2 2404,-756 2435.39,-729.68 2428,-707.97 2428,-667 2428,-667 2428,-667 2428,-593 2428,-537.1 2438.88,-523.82 2442,-468 2444.68,-420.07 2443.36,-407.98 2442,-360 2441.78,-352.05 2441.36,-343.43 2440.91,-335.5"/>
<polygon fill="black" stroke="black" points="2444.41,-335.45 2440.31,-325.69 2437.43,-335.88 2444.41,-335.45"/>
</g>
<!-- aggregator -->
<g id="node30" class="node">
<title>aggregator</title>
<ellipse fill="none" stroke="black" cx="2917" cy="-306" rx="50.33" ry="18"/>
<text text-anchor="middle" x="2917" y="-300.95" font-family="Times,serif" font-size="14.00">aggregator</text>
</g>
<!-- coin&#45;&gt;aggregator -->
<g id="edge71" class="edge">
<title>coin&#45;&gt;aggregator</title>
<path fill="none" stroke="black" d="M1831.33,-808.8C2012.22,-807.09 3030,-791.95 3030,-667 3030,-667 3030,-667 3030,-449 3030,-405.63 3017.36,-393.65 2990,-360 2979.84,-347.51 2966.07,-336.5 2953.23,-327.8"/>
<polygon fill="black" stroke="black" points="2955.23,-324.93 2944.93,-322.44 2951.43,-330.81 2955.23,-324.93"/>
</g>
<!-- aggregator_factory -->
<g id="node31" class="node">
<title>aggregator_factory</title>
<ellipse fill="none" stroke="black" cx="2883" cy="-378" rx="81.04" ry="18"/>
<text text-anchor="middle" x="2883" y="-372.95" font-family="Times,serif" font-size="14.00">aggregator_factory</text>
</g>
<!-- coin&#45;&gt;aggregator_factory -->
<g id="edge72" class="edge">
<title>coin&#45;&gt;aggregator_factory</title>
<path fill="none" stroke="black" d="M1831.12,-809.14C1945.24,-809.41 2386.48,-807.05 2514,-756 2701.34,-681 2760.97,-640.91 2865,-468 2875.95,-449.8 2880.36,-426.11 2882.08,-407.75"/>
<polygon fill="black" stroke="black" points="2885.57,-408.02 2882.77,-397.8 2878.59,-407.54 2885.57,-408.02"/>
</g>
<!-- optional_aggregator -->
<g id="node32" class="node">
<title>optional_aggregator</title>
<ellipse fill="none" stroke="black" cx="2771" cy="-450" rx="85.13" ry="18"/>
<text text-anchor="middle" x="2771" y="-444.95" font-family="Times,serif" font-size="14.00">optional_aggregator</text>
</g>
<!-- coin&#45;&gt;optional_aggregator -->
<g id="edge74" class="edge">
<title>coin&#45;&gt;optional_aggregator</title>
<path fill="none" stroke="black" d="M1831.48,-809.42C1943.13,-810.76 2362.37,-811.89 2480,-756 2514.55,-739.58 2686.74,-546.58 2748.72,-476.35"/>
<polygon fill="black" stroke="black" points="2751.06,-478.99 2755.05,-469.17 2745.81,-474.36 2751.06,-478.99"/>
</g>
<!-- aptos_coin&#45;&gt;vector -->
<g id="edge77" class="edge">
<title>aptos_coin&#45;&gt;vector</title>
<path fill="none" stroke="black" d="M1401.79,-880.04C1642.92,-875.05 2673.09,-848.57 2979,-756 3137.11,-708.15 3314,-760.19 3314,-595 3314,-595 3314,-595 3314,-161 3314,-148.28 3283.92,-112.16 3088,-72 2849.67,-23.14 2073.86,-19.19 1877.49,-18.98"/>
<polygon fill="black" stroke="black" points="1877.71,-15.48 1867.71,-18.97 1877.7,-22.48 1877.71,-15.48"/>
</g>
<!-- aptos_coin&#45;&gt;option -->
<g id="edge78" class="edge">
<title>aptos_coin&#45;&gt;option</title>
<path fill="none" stroke="black" d="M1338.89,-864.27C1292.69,-798.23 1133.96,-550.08 1213,-360 1223.89,-333.81 1375.6,-201.59 1394,-180 1411.29,-159.71 1428.82,-134.98 1441.15,-116.75"/>
<polygon fill="black" stroke="black" points="1443.94,-118.87 1446.59,-108.61 1438.12,-114.98 1443.94,-118.87"/>
</g>
<!-- aptos_coin&#45;&gt;string -->
<g id="edge79" class="edge">
<title>aptos_coin&#45;&gt;string</title>
<path fill="none" stroke="black" d="M1299.75,-881.68C1156.16,-881.99 739.6,-872.08 420,-756 247.04,-693.18 140,-635.02 140,-451 140,-451 140,-451 140,-377 140,-289.82 226.81,-216.22 274.11,-182.59"/>
<polygon fill="black" stroke="black" points="276.1,-185.47 282.32,-176.89 272.11,-179.72 276.1,-185.47"/>
</g>
<!-- aptos_coin&#45;&gt;signer -->
<g id="edge80" class="edge">
<title>aptos_coin&#45;&gt;signer</title>
<path fill="none" stroke="black" d="M1300.94,-877.91C1144.65,-867.56 668.21,-830.51 535,-756 376.09,-667.12 380.78,-535.3 430,-360 458.09,-259.95 534.81,-160.25 572.51,-115.48"/>
<polygon fill="black" stroke="black" points="575.12,-117.81 578.95,-107.93 569.8,-113.27 575.12,-117.81"/>
</g>
<!-- aptos_coin&#45;&gt;coin -->
<g id="edge83" class="edge">
<title>aptos_coin&#45;&gt;coin</title>
<path fill="none" stroke="black" d="M1396.93,-873.9C1486.65,-860.04 1683.64,-829.6 1766.31,-816.82"/>
<polygon fill="black" stroke="black" points="1766.81,-820.29 1776.15,-815.3 1765.74,-813.37 1766.81,-820.29"/>
</g>
<!-- aptos_coin&#45;&gt;error -->
<g id="edge81" class="edge">
<title>aptos_coin&#45;&gt;error</title>
<path fill="none" stroke="black" d="M1401.84,-880.74C1638.18,-878.86 2618,-863.57 2618,-739 2618,-739 2618,-739 2618,-593 2618,-419.99 2594.05,-372.83 2521,-216 2504.76,-181.14 2501.58,-169.73 2473,-144 2470.1,-141.39 2432.47,-121.9 2403.99,-107.3"/>
<polygon fill="black" stroke="black" points="2405.83,-104.32 2395.34,-102.88 2402.65,-110.55 2405.83,-104.32"/>
</g>
<!-- aptos_coin&#45;&gt;system_addresses -->
<g id="edge82" class="edge">
<title>aptos_coin&#45;&gt;system_addresses</title>
<path fill="none" stroke="black" d="M1399.25,-875.84C1486.98,-866.43 1678.52,-845.83 1840,-828 2124.51,-796.58 2273.99,-954.73 2480,-756 2532.07,-705.77 2504,-667.35 2504,-595 2504,-595 2504,-595 2504,-449 2504,-405.29 2478.23,-360.32 2459.14,-333.01"/>
<polygon fill="black" stroke="black" points="2462.05,-331.07 2453.35,-325.01 2456.38,-335.17 2462.05,-331.07"/>
</g>
<!-- timestamp&#45;&gt;error -->
<g id="edge84" class="edge">
<title>timestamp&#45;&gt;error</title>
<path fill="none" stroke="black" d="M2659.09,-359.58C2660.79,-316.13 2658.69,-202.29 2596,-144 2533.05,-85.48 2487.44,-135.48 2406,-108 2405.2,-107.73 2404.4,-107.45 2403.6,-107.15"/>
<polygon fill="black" stroke="black" points="2405.16,-104.01 2394.59,-103.31 2402.42,-110.45 2405.16,-104.01"/>
</g>
<!-- timestamp&#45;&gt;system_addresses -->
<g id="edge85" class="edge">
<title>timestamp&#45;&gt;system_addresses</title>
<path fill="none" stroke="black" d="M2621.34,-365.28C2586.51,-354.15 2533.67,-337.26 2493.82,-324.52"/>
<polygon fill="black" stroke="black" points="2494.99,-321.22 2484.39,-321.51 2492.85,-327.89 2494.99,-321.22"/>
</g>
<!-- smart_table&#45;&gt;vector -->
<g id="edge86" class="edge">
<title>smart_table&#45;&gt;vector</title>
<path fill="none" stroke="black" d="M3121.04,-295.07C3149.1,-287.05 3184.94,-273.48 3211,-252 3251.26,-218.81 3291.94,-182.75 3257,-144 3162.44,-39.14 2111.29,-21.94 1877.78,-19.41"/>
<polygon fill="black" stroke="black" points="1877.9,-15.91 1867.86,-19.3 1877.83,-22.91 1877.9,-15.91"/>
</g>
<!-- smart_table&#45;&gt;option -->
<g id="edge87" class="edge">
<title>smart_table&#45;&gt;option</title>
<path fill="none" stroke="black" d="M3034.6,-294.37C2973.37,-279 2867.39,-252.36 2867,-252 2829.42,-217.69 2869.95,-174.21 2829,-144 2801.73,-123.88 1738.74,-97.63 1503.69,-92.07"/>
<polygon fill="black" stroke="black" points="1504.1,-88.57 1494.02,-91.84 1503.93,-95.57 1504.1,-88.57"/>
</g>
<!-- smart_table&#45;&gt;error -->
<g id="edge88" class="edge">
<title>smart_table&#45;&gt;error</title>
<path fill="none" stroke="black" d="M3078.87,-287.74C3081.48,-253.65 3081.65,-178.07 3037,-144 2987.29,-106.06 2548.22,-94.42 2412.07,-91.7"/>
<polygon fill="black" stroke="black" points="2412.54,-88.21 2402.47,-91.51 2412.4,-95.21 2412.54,-88.21"/>
</g>
<!-- smart_table&#45;&gt;type_info -->
<g id="edge89" class="edge">
<title>smart_table&#45;&gt;type_info</title>
<path fill="none" stroke="black" d="M3030.91,-295.95C3013.74,-292.92 2994.04,-289.84 2976,-288 2545.5,-243.99 2435.36,-270.23 2003,-252 1896.41,-247.5 1772.06,-241.43 1701.22,-237.89"/>
<polygon fill="black" stroke="black" points="1701.57,-234.41 1691.41,-237.4 1701.22,-241.4 1701.57,-234.41"/>
</g>
<!-- simple_map -->
<g id="node33" class="node">
<title>simple_map</title>
<ellipse fill="none" stroke="black" cx="2971" cy="-162" rx="56.98" ry="18"/>
<text text-anchor="middle" x="2971" y="-156.95" font-family="Times,serif" font-size="14.00">simple_map</text>
</g>
<!-- smart_table&#45;&gt;simple_map -->
<g id="edge90" class="edge">
<title>smart_table&#45;&gt;simple_map</title>
<path fill="none" stroke="black" d="M3072.42,-287.58C3066.81,-268.59 3055.91,-237.97 3039,-216 3029.85,-204.12 3017.44,-193.41 3005.73,-184.79"/>
<polygon fill="black" stroke="black" points="3007.99,-182.1 2997.8,-179.21 3003.96,-187.83 3007.99,-182.1"/>
</g>
<!-- math64 -->
<g id="node34" class="node">
<title>math64</title>
<ellipse fill="none" stroke="black" cx="3163" cy="-234" rx="39.07" ry="18"/>
<text text-anchor="middle" x="3163" y="-228.95" font-family="Times,serif" font-size="14.00">math64</text>
</g>
<!-- smart_table&#45;&gt;math64 -->
<g id="edge91" class="edge">
<title>smart_table&#45;&gt;math64</title>
<path fill="none" stroke="black" d="M3096.95,-288.76C3108.45,-279.4 3123.07,-267.5 3135.63,-257.28"/>
<polygon fill="black" stroke="black" points="3137.62,-260.17 3143.17,-251.14 3133.2,-254.74 3137.62,-260.17"/>
</g>
<!-- table_with_length -->
<g id="node35" class="node">
<title>table_with_length</title>
<ellipse fill="none" stroke="black" cx="2953" cy="-234" rx="77.45" ry="18"/>
<text text-anchor="middle" x="2953" y="-228.95" font-family="Times,serif" font-size="14.00">table_with_length</text>
</g>
<!-- smart_table&#45;&gt;table_with_length -->
<g id="edge92" class="edge">
<title>smart_table&#45;&gt;table_with_length</title>
<path fill="none" stroke="black" d="M3050.4,-289.98C3033.15,-280.24 3010.4,-267.4 2991.22,-256.58"/>
<polygon fill="black" stroke="black" points="2993.03,-253.58 2982.6,-251.71 2989.59,-259.67 2993.03,-253.58"/>
</g>
<!-- aptos_hash -->
<g id="node36" class="node">
<title>aptos_hash</title>
<ellipse fill="none" stroke="black" cx="2064" cy="-234" rx="51.86" ry="18"/>
<text text-anchor="middle" x="2064" y="-228.95" font-family="Times,serif" font-size="14.00">aptos_hash</text>
</g>
<!-- smart_table&#45;&gt;aptos_hash -->
<g id="edge93" class="edge">
<title>smart_table&#45;&gt;aptos_hash</title>
<path fill="none" stroke="black" d="M3030.64,-296.11C3013.52,-293.12 2993.93,-290.02 2976,-288 2658.24,-252.13 2275.3,-239.89 2126.95,-236.3"/>
<polygon fill="black" stroke="black" points="2127.44,-232.81 2117.36,-236.08 2127.27,-239.81 2127.44,-232.81"/>
</g>
<!-- string_utils&#45;&gt;string -->
<g id="edge94" class="edge">
<title>string_utils&#45;&gt;string</title>
<path fill="none" stroke="black" d="M109.5,-791.99C97.23,-765.82 76,-713.79 76,-667 76,-667 76,-667 76,-305 76,-218.34 196.15,-182.67 262.01,-169.62"/>
<polygon fill="black" stroke="black" points="262.58,-173.08 271.76,-167.79 261.29,-166.2 262.58,-173.08"/>
</g>
<!-- features&#45;&gt;vector -->
<g id="edge95" class="edge">
<title>features&#45;&gt;vector</title>
<path fill="none" stroke="black" d="M1095.7,-151.31C1157.54,-133.31 1296.09,-94.5 1415,-72 1549.53,-46.54 1710.85,-29.93 1787.43,-22.87"/>
<polygon fill="black" stroke="black" points="1787.39,-26.39 1797.03,-22 1786.76,-19.42 1787.39,-26.39"/>
</g>
<!-- features&#45;&gt;signer -->
<g id="edge96" class="edge">
<title>features&#45;&gt;signer</title>
<path fill="none" stroke="black" d="M1025.41,-155.39C939.41,-142.55 728.7,-111.1 637.38,-97.47"/>
<polygon fill="black" stroke="black" points="637.99,-94.03 627.58,-96.01 636.95,-100.95 637.99,-94.03"/>
</g>
<!-- features&#45;&gt;error -->
<g id="edge97" class="edge">
<title>features&#45;&gt;error</title>
<path fill="none" stroke="black" d="M1102.89,-158.87C1296.58,-148.51 2137.5,-103.54 2331.82,-93.15"/>
<polygon fill="black" stroke="black" points="2331.86,-96.65 2341.66,-92.62 2331.48,-89.66 2331.86,-96.65"/>
</g>
<!-- from_bcs&#45;&gt;string -->
<g id="edge98" class="edge">
<title>from_bcs&#45;&gt;string</title>
<path fill="none" stroke="black" d="M891.36,-367.61C820.67,-350.6 665.69,-314.01 534,-288 487.34,-278.78 357.32,-284.93 323,-252 307.04,-236.69 302.86,-211.52 302.34,-191.85"/>
<polygon fill="black" stroke="black" points="305.84,-191.98 302.41,-181.96 298.84,-191.93 305.84,-191.98"/>
</g>
<!-- account&#45;&gt;vector -->
<g id="edge99" class="edge">
<title>account&#45;&gt;vector</title>
<path fill="none" stroke="black" d="M1753.32,-431.61C1765.93,-365.49 1810.97,-129.29 1826.61,-47.29"/>
<polygon fill="black" stroke="black" points="1830.01,-48.1 1828.45,-37.62 1823.14,-46.79 1830.01,-48.1"/>
</g>
<!-- account&#45;&gt;option -->
<g id="edge100" class="edge">
<title>account&#45;&gt;option</title>
<path fill="none" stroke="black" d="M1710.03,-449.46C1663,-447.89 1585.1,-438.4 1536,-396 1453.96,-325.15 1452.22,-181.01 1455.6,-119.67"/>
<polygon fill="black" stroke="black" points="1459.09,-119.94 1456.25,-109.73 1452.11,-119.48 1459.09,-119.94"/>
</g>
<!-- account&#45;&gt;signer -->
<g id="edge101" class="edge">
<title>account&#45;&gt;signer</title>
<path fill="none" stroke="black" d="M1711.17,-445.5C1661.09,-439.92 1572.09,-426.38 1502,-396 1312.65,-313.94 1309.01,-205.43 1112,-144 1023.94,-116.54 747.13,-99.18 638.44,-93.27"/>
<polygon fill="black" stroke="black" points="638.93,-89.79 628.75,-92.75 638.55,-96.78 638.93,-89.79"/>
</g>
<!-- account&#45;&gt;event -->
<g id="edge113" class="edge">
<title>account&#45;&gt;event</title>
<path fill="none" stroke="black" d="M1789.65,-447.71C1870.02,-444.39 2057.46,-433 2210,-396 2213.2,-395.22 2216.47,-394.29 2219.73,-393.25"/>
<polygon fill="black" stroke="black" points="2220.87,-396.56 2229.16,-389.97 2218.56,-389.95 2220.87,-396.56"/>
</g>
<!-- account&#45;&gt;bcs -->
<g id="edge104" class="edge">
<title>account&#45;&gt;bcs</title>
<path fill="none" stroke="black" d="M1768.01,-433.62C1778.85,-423.68 1792.37,-410.03 1802,-396 1848.73,-327.91 1883.47,-235.9 1899,-190.58"/>
<polygon fill="black" stroke="black" points="1902.26,-191.88 1902.14,-181.28 1895.63,-189.64 1902.26,-191.88"/>
</g>
<!-- account&#45;&gt;guid -->
<g id="edge111" class="edge">
<title>account&#45;&gt;guid</title>
<path fill="none" stroke="black" d="M1783.22,-439.83C1817.06,-430.16 1870.85,-413.86 1916,-396 1946.18,-384.06 2026.79,-344.7 2071.69,-322.53"/>
<polygon fill="black" stroke="black" points="2072.99,-325.8 2080.4,-318.23 2069.89,-319.52 2072.99,-325.8"/>
</g>
<!-- account&#45;&gt;error -->
<g id="edge102" class="edge">
<title>account&#45;&gt;error</title>
<path fill="none" stroke="black" d="M1771.11,-434.57C1786.43,-424.02 1807.62,-409.29 1826,-396 1890.82,-349.11 1896.87,-320.43 1970,-288 2046.97,-253.87 2080.18,-288.62 2156,-252 2222.42,-219.92 2221.99,-186.88 2282,-144 2300.62,-130.69 2322.76,-117.62 2340.42,-107.79"/>
<polygon fill="black" stroke="black" points="2341.83,-111.01 2348.92,-103.13 2338.46,-104.87 2341.83,-111.01"/>
</g>
<!-- account&#45;&gt;features -->
<g id="edge103" class="edge">
<title>account&#45;&gt;features</title>
<path fill="none" stroke="black" d="M1710.77,-446.23C1630.21,-440.04 1449.08,-423.46 1394,-396 1368.47,-383.28 1235.16,-231.16 1211,-216 1179.4,-196.16 1139.34,-182.4 1108.87,-173.88"/>
<polygon fill="black" stroke="black" points="1110.14,-170.6 1099.58,-171.37 1108.32,-177.35 1110.14,-170.6"/>
</g>
<!-- account&#45;&gt;hash -->
<g id="edge108" class="edge">
<title>account&#45;&gt;hash</title>
<path fill="none" stroke="black" d="M1710.46,-448.29C1668.65,-445.41 1603.39,-434.48 1564,-396 1527.69,-360.54 1517.63,-299.25 1514.92,-263.39"/>
<polygon fill="black" stroke="black" points="1518.43,-263.56 1514.34,-253.79 1511.45,-263.98 1518.43,-263.56"/>
</g>
<!-- account&#45;&gt;from_bcs -->
<g id="edge112" class="edge">
<title>account&#45;&gt;from_bcs</title>
<path fill="none" stroke="black" d="M1711.28,-445.69C1578.64,-434.37 1142.24,-397.12 986.14,-383.79"/>
<polygon fill="black" stroke="black" points="986.73,-380.33 976.47,-382.97 986.14,-387.3 986.73,-380.33"/>
</g>
<!-- account&#45;&gt;create_signer -->
<g id="edge114" class="edge">
<title>account&#45;&gt;create_signer</title>
<path fill="none" stroke="black" d="M1711.5,-445.01C1640.78,-437.43 1485.53,-419.54 1356,-396 1350.31,-394.97 1344.4,-393.79 1338.5,-392.54"/>
<polygon fill="black" stroke="black" points="1339.25,-389.12 1328.74,-390.41 1337.76,-395.96 1339.25,-389.12"/>
</g>
<!-- account&#45;&gt;type_info -->
<g id="edge105" class="edge">
<title>account&#45;&gt;type_info</title>
<path fill="none" stroke="black" d="M1710.22,-449.23C1669.79,-447.05 1608.96,-436.66 1579,-396 1547.32,-353.01 1590.62,-292.41 1620.29,-259.17"/>
<polygon fill="black" stroke="black" points="1622.64,-261.79 1626.83,-252.06 1617.49,-257.05 1622.64,-261.79"/>
</g>
<!-- account&#45;&gt;table -->
<g id="edge106" class="edge">
<title>account&#45;&gt;table</title>
<path fill="none" stroke="black" d="M1782.36,-439.27C1809.25,-430.36 1847.83,-415.57 1878,-396 1897.52,-383.34 1896.82,-373.17 1916,-360 1977.29,-317.92 1996.15,-310.54 2067,-288 2133.21,-266.94 2611.13,-191.19 2752.02,-169.09"/>
<polygon fill="black" stroke="black" points="2752.25,-172.6 2761.59,-167.59 2751.16,-165.68 2752.25,-172.6"/>
</g>
<!-- account&#45;&gt;system_addresses -->
<g id="edge107" class="edge">
<title>account&#45;&gt;system_addresses</title>
<path fill="none" stroke="black" d="M1788.55,-445.17C1853.56,-438.27 1988.88,-422 2101,-396 2152.76,-384 2163.78,-374.13 2215,-360 2267.74,-345.45 2328.13,-331.31 2372.91,-321.3"/>
<polygon fill="black" stroke="black" points="2373.46,-324.76 2382.46,-319.17 2371.94,-317.93 2373.46,-324.76"/>
</g>
<!-- ed25519 -->
<g id="node37" class="node">
<title>ed25519</title>
<ellipse fill="none" stroke="black" cx="1707" cy="-306" rx="42.65" ry="18"/>
<text text-anchor="middle" x="1707" y="-300.95" font-family="Times,serif" font-size="14.00">ed25519</text>
</g>
<!-- account&#45;&gt;ed25519 -->
<g id="edge109" class="edge">
<title>account&#45;&gt;ed25519</title>
<path fill="none" stroke="black" d="M1747.43,-431.65C1744.48,-413.5 1739,-384.31 1731,-360 1728.15,-351.33 1724.32,-342.17 1720.56,-333.95"/>
<polygon fill="black" stroke="black" points="1723.84,-332.71 1716.39,-325.18 1717.52,-335.72 1723.84,-332.71"/>
</g>
<!-- multi_ed25519 -->
<g id="node38" class="node">
<title>multi_ed25519</title>
<ellipse fill="none" stroke="black" cx="1655" cy="-378" rx="67.22" ry="18"/>
<text text-anchor="middle" x="1655" y="-372.95" font-family="Times,serif" font-size="14.00">multi_ed25519</text>
</g>
<!-- account&#45;&gt;multi_ed25519 -->
<g id="edge110" class="edge">
<title>account&#45;&gt;multi_ed25519</title>
<path fill="none" stroke="black" d="M1729.85,-434.15C1717.16,-424.81 1700.53,-412.54 1686.16,-401.96"/>
<polygon fill="black" stroke="black" points="1688.45,-399.3 1678.33,-396.19 1684.3,-404.94 1688.45,-399.3"/>
</g>
<!-- chain_id -->
<g id="node39" class="node">
<title>chain_id</title>
<ellipse fill="none" stroke="black" cx="2049" cy="-378" rx="42.65" ry="18"/>
<text text-anchor="middle" x="2049" y="-372.95" font-family="Times,serif" font-size="14.00">chain_id</text>
</g>
<!-- account&#45;&gt;chain_id -->
<g id="edge115" class="edge">
<title>account&#45;&gt;chain_id</title>
<path fill="none" stroke="black" d="M1784.59,-440.9C1838.02,-428.39 1940.77,-404.34 2001.25,-390.18"/>
<polygon fill="black" stroke="black" points="2001.98,-393.6 2010.92,-387.92 2000.38,-386.79 2001.98,-393.6"/>
</g>
<!-- transaction_context&#45;&gt;option -->
<g id="edge116" class="edge">
<title>transaction_context&#45;&gt;option</title>
<path fill="none" stroke="black" d="M1132.51,-216.04C1149.69,-195.67 1181.32,-162.01 1216,-144 1279.21,-111.17 1361.91,-98.64 1412.43,-93.88"/>
<polygon fill="black" stroke="black" points="1412.46,-97.39 1422.12,-93.03 1411.85,-90.42 1412.46,-97.39"/>
</g>
<!-- transaction_context&#45;&gt;string -->
<g id="edge117" class="edge">
<title>transaction_context&#45;&gt;string</title>
<path fill="none" stroke="black" d="M1043.06,-226.48C875.24,-212.06 477.35,-177.89 346.51,-166.65"/>
<polygon fill="black" stroke="black" points="347.18,-163.2 336.92,-165.83 346.58,-170.17 347.18,-163.2"/>
</g>
<!-- transaction_context&#45;&gt;error -->
<g id="edge118" class="edge">
<title>transaction_context&#45;&gt;error</title>
<path fill="none" stroke="black" d="M1181.45,-221.87C1287.51,-203.32 1509.77,-165.94 1699,-144 1938.34,-116.25 2227.28,-98.89 2331.81,-93.13"/>
<polygon fill="black" stroke="black" points="2331.76,-96.64 2341.55,-92.6 2331.38,-89.65 2331.76,-96.64"/>
</g>
<!-- transaction_context&#45;&gt;features -->
<g id="edge119" class="edge">
<title>transaction_context&#45;&gt;features</title>
<path fill="none" stroke="black" d="M1105.44,-216.05C1098.74,-207.68 1090.52,-197.4 1083.11,-188.13"/>
<polygon fill="black" stroke="black" points="1085.97,-186.11 1076.99,-180.49 1080.51,-190.48 1085.97,-186.11"/>
</g>
<!-- aggregator_v2&#45;&gt;string -->
<g id="edge120" class="edge">
<title>aggregator_v2&#45;&gt;string</title>
<path fill="none" stroke="black" d="M671.69,-223.99C586.26,-209.82 422.3,-182.62 345.55,-169.89"/>
<polygon fill="black" stroke="black" points="346.37,-166.48 335.93,-168.3 345.22,-173.39 346.37,-166.48"/>
</g>
<!-- aggregator_v2&#45;&gt;error -->
<g id="edge121" class="edge">
<title>aggregator_v2&#45;&gt;error</title>
<path fill="none" stroke="black" d="M761.63,-218.67C815.32,-197.85 920.63,-159.97 1014,-144 1146.53,-121.34 2119.75,-97.01 2331.43,-91.95"/>
<polygon fill="black" stroke="black" points="2331.46,-95.45 2341.38,-91.72 2331.3,-88.46 2331.46,-95.45"/>
</g>
<!-- aggregator_v2&#45;&gt;features -->
<g id="edge122" class="edge">
<title>aggregator_v2&#45;&gt;features</title>
<path fill="none" stroke="black" d="M776.45,-222.52C841.27,-209.06 952.94,-185.86 1016.03,-172.76"/>
<polygon fill="black" stroke="black" points="1016.66,-176.2 1025.74,-170.74 1015.24,-169.35 1016.66,-176.2"/>
</g>
<!-- type_info&#45;&gt;string -->
<g id="edge123" class="edge">
<title>type_info&#45;&gt;string</title>
<path fill="none" stroke="black" d="M1604.35,-224.5C1587.92,-221.31 1568.62,-217.97 1551,-216 1310.28,-189.01 538.95,-168.74 347.38,-164.04"/>
<polygon fill="black" stroke="black" points="347.71,-160.54 337.63,-163.8 347.54,-167.54 347.71,-160.54"/>
</g>
<!-- type_info&#45;&gt;bcs -->
<g id="edge126" class="edge">
<title>type_info&#45;&gt;bcs</title>
<path fill="none" stroke="black" d="M1681.54,-223.05C1732.39,-209.56 1822.5,-185.67 1872.35,-172.45"/>
<polygon fill="black" stroke="black" points="1873,-175.9 1881.77,-169.96 1871.2,-169.14 1873,-175.9"/>
</g>
<!-- type_info&#45;&gt;error -->
<g id="edge124" class="edge">
<title>type_info&#45;&gt;error</title>
<path fill="none" stroke="black" d="M1659.37,-216.74C1680.33,-195.77 1720.08,-160.09 1762,-144 1866.58,-103.86 2212.42,-93.89 2331.38,-91.62"/>
<polygon fill="black" stroke="black" points="2331.37,-95.12 2341.31,-91.44 2331.24,-88.12 2331.37,-95.12"/>
</g>
<!-- type_info&#45;&gt;features -->
<g id="edge125" class="edge">
<title>type_info&#45;&gt;features</title>
<path fill="none" stroke="black" d="M1603.36,-224.91C1587.12,-221.85 1568.22,-218.51 1551,-216 1392,-192.87 1202.52,-175.06 1113.69,-167.28"/>
<polygon fill="black" stroke="black" points="1114.11,-163.81 1103.85,-166.43 1113.51,-170.78 1114.11,-163.81"/>
</g>
<!-- system_addresses&#45;&gt;signer -->
<g id="edge127" class="edge">
<title>system_addresses&#45;&gt;signer</title>
<path fill="none" stroke="black" d="M2403.54,-289.7C2323.46,-255.98 2121.7,-175.76 1944,-144 1813.35,-120.65 858.46,-97.16 638.92,-92.03"/>
<polygon fill="black" stroke="black" points="639.15,-88.53 629.07,-91.8 638.98,-95.53 639.15,-88.53"/>
</g>
<!-- system_addresses&#45;&gt;error -->
<g id="edge128" class="edge">
<title>system_addresses&#45;&gt;error</title>
<path fill="none" stroke="black" d="M2441.04,-287.58C2443.86,-256.95 2446.33,-192.13 2424,-144 2418.31,-131.73 2408.55,-120.62 2399.02,-111.78"/>
<polygon fill="black" stroke="black" points="2401.43,-109.24 2391.59,-105.32 2396.84,-114.52 2401.43,-109.24"/>
</g>
<!-- aggregator_factory&#45;&gt;error -->
<g id="edge129" class="edge">
<title>aggregator_factory&#45;&gt;error</title>
<path fill="none" stroke="black" d="M2855.06,-360.85C2840.41,-351.43 2822.88,-338.54 2810,-324 2749.31,-255.5 2786,-194.98 2710,-144 2597.01,-68.22 2536.34,-147 2406,-108 2405.03,-107.71 2404.06,-107.39 2403.08,-107.06"/>
<polygon fill="black" stroke="black" points="2404.73,-103.95 2394.15,-103.36 2402.06,-110.42 2404.73,-103.95"/>
</g>
<!-- aggregator_factory&#45;&gt;table -->
<g id="edge130" class="edge">
<title>aggregator_factory&#45;&gt;table</title>
<path fill="none" stroke="black" d="M2866.56,-360.13C2845.8,-337.61 2811,-295.49 2796,-252 2789.32,-232.62 2788.21,-209.48 2788.7,-191.64"/>
<polygon fill="black" stroke="black" points="2792.19,-191.93 2789.17,-181.77 2785.2,-191.59 2792.19,-191.93"/>
</g>
<!-- aggregator_factory&#45;&gt;system_addresses -->
<g id="edge131" class="edge">
<title>aggregator_factory&#45;&gt;system_addresses</title>
<path fill="none" stroke="black" d="M2818.44,-366.82C2737.19,-354.01 2597.96,-332.06 2512.64,-318.61"/>
<polygon fill="black" stroke="black" points="2513.41,-315.19 2502.98,-317.09 2512.32,-322.1 2513.41,-315.19"/>
</g>
<!-- aggregator_factory&#45;&gt;aggregator -->
<g id="edge132" class="edge">
<title>aggregator_factory&#45;&gt;aggregator</title>
<path fill="none" stroke="black" d="M2891.4,-359.7C2895.11,-352.07 2899.56,-342.92 2903.69,-334.4"/>
<polygon fill="black" stroke="black" points="2906.81,-335.99 2908.03,-325.47 2900.51,-332.93 2906.81,-335.99"/>
</g>
<!-- optional_aggregator&#45;&gt;option -->
<g id="edge133" class="edge">
<title>optional_aggregator&#45;&gt;option</title>
<path fill="none" stroke="black" d="M2764.68,-431.9C2756.52,-412.03 2740.52,-379.49 2717,-360 2646.83,-301.84 2610.6,-319.27 2525,-288 2345.56,-222.46 2306.81,-183.96 2120,-144 1892.87,-95.41 1613.28,-90.47 1504.43,-90.58"/>
<polygon fill="black" stroke="black" points="1504.42,-87.08 1494.43,-90.6 1504.44,-94.08 1504.42,-87.08"/>
</g>
<!-- optional_aggregator&#45;&gt;error -->
<g id="edge134" class="edge">
<title>optional_aggregator&#45;&gt;error</title>
<path fill="none" stroke="black" d="M2768.56,-431.71C2760.01,-378.22 2726.09,-214.81 2623,-144 2542.41,-88.65 2498.98,-138.2 2406,-108 2405.2,-107.74 2404.39,-107.46 2403.59,-107.17"/>
<polygon fill="black" stroke="black" points="2405.14,-104.03 2394.57,-103.38 2402.43,-110.48 2405.14,-104.03"/>
</g>
<!-- optional_aggregator&#45;&gt;aggregator -->
<g id="edge135" class="edge">
<title>optional_aggregator&#45;&gt;aggregator</title>
<path fill="none" stroke="black" d="M2841.88,-439.66C2893.4,-431.25 2956.83,-416.96 2973,-396 2989.49,-374.63 2968.24,-348.25 2947.36,-329.78"/>
<polygon fill="black" stroke="black" points="2949.61,-327.1 2939.7,-323.36 2945.11,-332.47 2949.61,-327.1"/>
</g>
<!-- optional_aggregator&#45;&gt;aggregator_factory -->
<g id="edge136" class="edge">
<title>optional_aggregator&#45;&gt;aggregator_factory</title>
<path fill="none" stroke="black" d="M2797.26,-432.59C2812.14,-423.28 2830.98,-411.51 2847.2,-401.37"/>
<polygon fill="black" stroke="black" points="2849,-404.38 2855.62,-396.11 2845.29,-398.44 2849,-404.38"/>
</g>
<!-- simple_map&#45;&gt;vector -->
<g id="edge137" class="edge">
<title>simple_map&#45;&gt;vector</title>
<path fill="none" stroke="black" d="M2926.7,-150.37C2916.64,-148.12 2905.97,-145.87 2896,-144 2681.37,-103.84 2626.81,-97.98 2410,-72 2211.9,-48.26 1974.49,-29.54 1877.07,-22.27"/>
<polygon fill="black" stroke="black" points="1877.36,-18.79 1867.13,-21.54 1876.85,-25.77 1877.36,-18.79"/>
</g>
<!-- simple_map&#45;&gt;option -->
<g id="edge138" class="edge">
<title>simple_map&#45;&gt;option</title>
<path fill="none" stroke="black" d="M2922.59,-152.21C2903.74,-149.11 2881.92,-145.92 2862,-144 2330.35,-92.68 1681,-90.38 1504.26,-90.78"/>
<polygon fill="black" stroke="black" points="1504.34,-87.28 1494.35,-90.81 1504.36,-94.28 1504.34,-87.28"/>
</g>
<!-- simple_map&#45;&gt;error -->
<g id="edge139" class="edge">
<title>simple_map&#45;&gt;error</title>
<path fill="none" stroke="black" d="M2928.01,-149.72C2918.82,-147.59 2909.12,-145.54 2900,-144 2719.36,-113.45 2500.76,-98.38 2412.17,-93.18"/>
<polygon fill="black" stroke="black" points="2412.5,-89.69 2402.31,-92.61 2412.09,-96.68 2412.5,-89.69"/>
</g>
<!-- math64&#45;&gt;error -->
<g id="edge140" class="edge">
<title>math64&#45;&gt;error</title>
<path fill="none" stroke="black" d="M3147.69,-217.23C3123.8,-192.81 3079.44,-148.21 3070,-144 2951.21,-91.01 2543.02,-89.58 2412.49,-90.53"/>
<polygon fill="black" stroke="black" points="2412.57,-87.03 2402.6,-90.62 2412.63,-94.03 2412.57,-87.03"/>
</g>
<!-- fixed_point32 -->
<g id="node40" class="node">
<title>fixed_point32</title>
<ellipse fill="none" stroke="black" cx="3185" cy="-162" rx="62.61" ry="18"/>
<text text-anchor="middle" x="3185" y="-156.95" font-family="Times,serif" font-size="14.00">fixed_point32</text>
</g>
<!-- math64&#45;&gt;fixed_point32 -->
<g id="edge141" class="edge">
<title>math64&#45;&gt;fixed_point32</title>
<path fill="none" stroke="black" d="M3168.44,-215.7C3170.78,-208.24 3173.58,-199.32 3176.21,-190.97"/>
<polygon fill="black" stroke="black" points="3179.51,-192.14 3179.17,-181.55 3172.83,-190.04 3179.51,-192.14"/>
</g>
<!-- table_with_length&#45;&gt;error -->
<g id="edge142" class="edge">
<title>table_with_length&#45;&gt;error</title>
<path fill="none" stroke="black" d="M2938.11,-215.98C2917.25,-192.59 2879.89,-152.44 2862,-144 2821.64,-124.95 2521.57,-101.75 2411.95,-93.81"/>
<polygon fill="black" stroke="black" points="2412.48,-90.34 2402.26,-93.12 2411.98,-97.32 2412.48,-90.34"/>
</g>
<!-- table_with_length&#45;&gt;table -->
<g id="edge143" class="edge">
<title>table_with_length&#45;&gt;table</title>
<path fill="none" stroke="black" d="M2917.45,-217.64C2889.78,-205.68 2851.65,-189.21 2824.51,-177.48"/>
<polygon fill="black" stroke="black" points="2825.94,-174.28 2815.37,-173.53 2823.16,-180.71 2825.94,-174.28"/>
</g>
<!-- aptos_hash&#45;&gt;bcs -->
<g id="edge146" class="edge">
<title>aptos_hash&#45;&gt;bcs</title>
<path fill="none" stroke="black" d="M2033.18,-219.17C2006.21,-207.07 1967.2,-189.56 1939.91,-177.32"/>
<polygon fill="black" stroke="black" points="1941.66,-174.27 1931.1,-173.37 1938.79,-180.65 1941.66,-174.27"/>
</g>
<!-- aptos_hash&#45;&gt;error -->
<g id="edge144" class="edge">
<title>aptos_hash&#45;&gt;error</title>
<path fill="none" stroke="black" d="M2078.87,-216.3C2097.67,-196.2 2131.97,-162.8 2168,-144 2221.08,-116.3 2289.64,-102.36 2332.21,-95.9"/>
<polygon fill="black" stroke="black" points="2332.6,-99.38 2342,-94.49 2331.6,-92.45 2332.6,-99.38"/>
</g>
<!-- aptos_hash&#45;&gt;features -->
<g id="edge145" class="edge">
<title>aptos_hash&#45;&gt;features</title>
<path fill="none" stroke="black" d="M2013.33,-229.46C1842.08,-217.48 1286.02,-178.6 1114.11,-166.57"/>
<polygon fill="black" stroke="black" points="1114.37,-163.08 1104.15,-165.88 1113.89,-170.07 1114.37,-163.08"/>
</g>
<!-- ed25519&#45;&gt;option -->
<g id="edge147" class="edge">
<title>ed25519&#45;&gt;option</title>
<path fill="none" stroke="black" d="M1709.72,-287.87C1711.84,-268.85 1712.47,-237.95 1699,-216 1655.63,-145.35 1558.1,-112.78 1501.3,-99.31"/>
<polygon fill="black" stroke="black" points="1502.17,-95.92 1491.64,-97.12 1500.62,-102.74 1502.17,-95.92"/>
</g>
<!-- ed25519&#45;&gt;bcs -->
<g id="edge149" class="edge">
<title>ed25519&#45;&gt;bcs</title>
<path fill="none" stroke="black" d="M1728.13,-290.07C1764.82,-264.15 1840.25,-210.86 1880.79,-182.22"/>
<polygon fill="black" stroke="black" points="1882.69,-185.17 1888.83,-176.54 1878.65,-179.45 1882.69,-185.17"/>
</g>
<!-- ed25519&#45;&gt;error -->
<g id="edge148" class="edge">
<title>ed25519&#45;&gt;error</title>
<path fill="none" stroke="black" d="M1717.43,-288.27C1740.31,-253.39 1798.74,-173.67 1872,-144 1955.27,-110.27 2227.92,-96.52 2331.54,-92.42"/>
<polygon fill="black" stroke="black" points="2331.66,-95.92 2341.52,-92.04 2331.39,-88.93 2331.66,-95.92"/>
</g>
<!-- ed25519&#45;&gt;hash -->
<g id="edge151" class="edge">
<title>ed25519&#45;&gt;hash</title>
<path fill="none" stroke="black" d="M1675.56,-293.6C1640.62,-280.92 1584.37,-260.52 1548.3,-247.44"/>
<polygon fill="black" stroke="black" points="1549.82,-244.27 1539.23,-244.15 1547.44,-250.85 1549.82,-244.27"/>
</g>
<!-- ed25519&#45;&gt;type_info -->
<g id="edge150" class="edge">
<title>ed25519&#45;&gt;type_info</title>
<path fill="none" stroke="black" d="M1692.39,-288.76C1684.6,-280.11 1674.85,-269.27 1666.14,-259.6"/>
<polygon fill="black" stroke="black" points="1668.84,-257.36 1659.55,-252.27 1663.63,-262.05 1668.84,-257.36"/>
</g>
<!-- multi_ed25519&#45;&gt;option -->
<g id="edge152" class="edge">
<title>multi_ed25519&#45;&gt;option</title>
<path fill="none" stroke="black" d="M1644.4,-359.85C1633.23,-341.87 1615.08,-312.82 1599,-288 1578.09,-255.72 1573.15,-247.44 1551,-216 1526.13,-180.71 1496.12,-140.83 1477.05,-115.81"/>
<polygon fill="black" stroke="black" points="1480.08,-114.01 1471.23,-108.19 1474.52,-118.26 1480.08,-114.01"/>
</g>
<!-- multi_ed25519&#45;&gt;bcs -->
<g id="edge155" class="edge">
<title>multi_ed25519&#45;&gt;bcs</title>
<path fill="none" stroke="black" d="M1691,-362.46C1711.91,-353.11 1738.15,-339.77 1759,-324 1813.13,-283.04 1864.12,-221.07 1890.09,-187.2"/>
<polygon fill="black" stroke="black" points="1892.57,-189.72 1895.83,-179.64 1887,-185.5 1892.57,-189.72"/>
</g>
<!-- multi_ed25519&#45;&gt;error -->
<g id="edge153" class="edge">
<title>multi_ed25519&#45;&gt;error</title>
<path fill="none" stroke="black" d="M1691.61,-362.46C1741.61,-343.07 1834.35,-308.81 1916,-288 2007.34,-264.72 2044.59,-301.18 2125,-252 2176.18,-220.69 2157.1,-178.77 2206,-144 2244.26,-116.79 2297.15,-103.09 2332.86,-96.52"/>
<polygon fill="black" stroke="black" points="2333.06,-100.04 2342.32,-94.89 2331.87,-93.14 2333.06,-100.04"/>
</g>
<!-- multi_ed25519&#45;&gt;features -->
<g id="edge154" class="edge">
<title>multi_ed25519&#45;&gt;features</title>
<path fill="none" stroke="black" d="M1624.26,-361.6C1561.35,-330.55 1412.78,-259.7 1282,-216 1224.15,-196.67 1155.52,-181.23 1110.71,-172.1"/>
<polygon fill="black" stroke="black" points="1111.55,-168.7 1101.06,-170.16 1110.17,-175.57 1111.55,-168.7"/>
</g>
<!-- multi_ed25519&#45;&gt;hash -->
<g id="edge156" class="edge">
<title>multi_ed25519&#45;&gt;hash</title>
<path fill="none" stroke="black" d="M1638.27,-360.15C1612.91,-334.61 1564.69,-286.05 1536.35,-257.51"/>
<polygon fill="black" stroke="black" points="1539.17,-255.38 1529.64,-250.75 1534.21,-260.32 1539.17,-255.38"/>
</g>
<!-- multi_ed25519&#45;&gt;ed25519 -->
<g id="edge157" class="edge">
<title>multi_ed25519&#45;&gt;ed25519</title>
<path fill="none" stroke="black" d="M1667.59,-360.05C1673.74,-351.77 1681.28,-341.62 1688.11,-332.42"/>
<polygon fill="black" stroke="black" points="1690.83,-334.64 1693.98,-324.52 1685.21,-330.46 1690.83,-334.64"/>
</g>
<!-- chain_id&#45;&gt;system_addresses -->
<g id="edge158" class="edge">
<title>chain_id&#45;&gt;system_addresses</title>
<path fill="none" stroke="black" d="M2087.82,-370.03C2153.15,-358.31 2285.95,-334.47 2368.22,-319.7"/>
<polygon fill="black" stroke="black" points="2368.77,-323.16 2377.99,-317.95 2367.53,-316.27 2368.77,-323.16"/>
</g>
</g>
</svg>
